<svg width="223" height="34" viewBox="0 0 223 34" fill="none" xmlns="http://www.w3.org/2000/svg">
<path d="M13.2598 0.785999L13.1226 1.31948L13.1298 1.32133L13.137 1.32298L13.2598 0.785999ZM15.5278 1.458L16.0629 1.58842L16.1741 1.13245L15.7415 0.950331L15.5278 1.458ZM14.3098 6.456L14.0837 6.95831L14.688 7.23026L14.8449 6.58642L14.3098 6.456ZM12.4618 5.91L12.3448 6.44826L12.3579 6.45112L12.3712 6.45334L12.4618 5.91ZM8.72377 6.036L8.92341 6.54938L8.93051 6.54662L8.93752 6.54367L8.72377 6.036ZM7.50576 6.876L7.08527 6.52019L7.07698 6.52998L7.06916 6.54015L7.50576 6.876ZM6.87577 8.178L6.34503 8.03057L6.34118 8.04445L6.33805 8.05851L6.87577 8.178ZM6.70777 10.908H6.15693V11.4588H6.70777V10.908ZM14.4358 10.908H14.9866V10.3572H14.4358V10.908ZM14.4358 16.116V16.6668H14.9866V16.116H14.4358ZM6.70777 16.116V15.5652H6.15693V16.116H6.70777ZM6.70777 33V33.5508H7.2586V33H6.70777ZM0.449764 33H-0.101067V33.5508H0.449764V33ZM2.84377 2.928L2.44771 2.54514L2.44441 2.54861L2.84377 2.928ZM10.0258 0.958832C11.1628 0.958832 12.194 1.08068 13.1226 1.31948L13.3969 0.252522C12.3656 -0.0126877 11.2408 -0.142834 10.0258 -0.142834V0.958832ZM13.137 1.32298C14.1051 1.54426 14.8253 1.75989 15.314 1.96567L15.7415 0.950331C15.1662 0.708109 14.3744 0.475735 13.3825 0.249014L13.137 1.32298ZM14.9926 1.32758L13.7746 6.32558L14.8449 6.58642L16.0629 1.58842L14.9926 1.32758ZM14.5358 5.95368C13.9282 5.68025 13.266 5.48561 12.5523 5.36666L12.3712 6.45334C13.0015 6.55839 13.5714 6.72775 14.0837 6.95831L14.5358 5.95368ZM12.5788 5.37174C11.9029 5.22481 11.2613 5.14916 10.6558 5.14916V6.25083C11.1702 6.25083 11.7326 6.31519 12.3448 6.44826L12.5788 5.37174ZM10.6558 5.14916C9.84799 5.14916 9.12711 5.2685 8.51001 5.52833L8.93752 6.54367C9.38442 6.3555 9.95154 6.25083 10.6558 6.25083V5.14916ZM8.52412 5.52262C7.94615 5.74739 7.46017 6.07713 7.08527 6.52019L7.92627 7.23181C8.16737 6.94687 8.49339 6.71661 8.92341 6.54938L8.52412 5.52262ZM7.06916 6.54015C6.74037 6.96758 6.50138 7.46772 6.34503 8.03057L7.4065 8.32543C7.53016 7.88028 7.71116 7.51241 7.94237 7.21185L7.06916 6.54015ZM6.33805 8.05851C6.21622 8.60671 6.15693 9.19325 6.15693 9.816H7.2586C7.2586 9.26275 7.31131 8.75728 7.41348 8.29749L6.33805 8.05851ZM6.15693 9.816V10.908H7.2586V9.816H6.15693ZM6.70777 11.4588H14.4358V10.3572H6.70777V11.4588ZM13.8849 10.908V16.116H14.9866V10.908H13.8849ZM14.4358 15.5652H6.70777V16.6668H14.4358V15.5652ZM6.15693 16.116V33H7.2586V16.116H6.15693ZM6.70777 32.4492H0.449764V33.5508H6.70777V32.4492ZM1.0006 33V9.732H-0.101067V33H1.0006ZM1.0006 9.732C1.0006 6.98264 1.76582 4.86243 3.24312 3.30738L2.44441 2.54861C0.729706 4.35357 -0.101067 6.76936 -0.101067 9.732H1.0006ZM3.23981 3.31084C4.72737 1.77198 6.95648 0.958832 10.0258 0.958832V-0.142834C6.76705 -0.142834 4.20816 0.724014 2.44772 2.54516L3.23981 3.31084ZM31.4825 16.452L31.3489 16.9864L31.9076 17.1261L32.0223 16.5617L31.4825 16.452ZM29.5085 16.032L29.389 16.5697L29.3986 16.5718L29.4082 16.5736L29.5085 16.032ZM25.6445 15.906L25.7022 16.4538L25.7142 16.4525L25.7262 16.4507L25.6445 15.906ZM24.4265 16.116L24.2682 15.5884L23.8757 15.7062V16.116H24.4265ZM24.4265 33V33.5508H24.9773V33H24.4265ZM18.1685 33H17.6177V33.5508H18.1685V33ZM18.1685 12.084L17.9865 11.5641L17.6177 11.6932V12.084H18.1685ZM22.1165 10.992L22.236 11.5298L22.2432 11.5281L22.1165 10.992ZM28.4585 10.53L28.3942 11.0771L28.4101 11.0789L28.4262 11.0799L28.4585 10.53ZM29.8865 10.698L29.7908 11.2404L29.8064 11.2432L29.8222 11.2451L29.8865 10.698ZM31.3145 10.95L31.1884 11.4862L31.2035 11.4897L31.2188 11.4925L31.3145 10.95ZM32.5325 11.286L33.0723 11.3957L33.1625 10.9518L32.7444 10.7775L32.5325 11.286ZM31.6161 15.9176C31.0422 15.7741 30.3726 15.6318 29.6088 15.4904L29.4082 16.5736C30.1565 16.7122 30.8029 16.8499 31.3489 16.9864L31.6161 15.9176ZM29.628 15.4943C28.8284 15.3166 27.976 15.2292 27.0725 15.2292V16.3308C27.9051 16.3308 28.6766 16.4114 29.389 16.5697L29.628 15.4943ZM27.0725 15.2292C26.6441 15.2292 26.1391 15.2748 25.5628 15.3613L25.7262 16.4507C26.27 16.3692 26.7169 16.3308 27.0725 16.3308V15.2292ZM25.5869 15.3582C25.0438 15.4154 24.5976 15.4896 24.2682 15.5884L24.5848 16.6436C24.8154 16.5744 25.1812 16.5086 25.7022 16.4538L25.5869 15.3582ZM23.8757 16.116V33H24.9773V16.116H23.8757ZM24.4265 32.4492H18.1685V33.5508H24.4265V32.4492ZM18.7193 33V12.084H17.6177V33H18.7193ZM18.3505 12.6039C19.445 12.2208 20.7392 11.8623 22.236 11.5297L21.997 10.4543C20.4699 10.7937 19.1321 11.1632 17.9865 11.5641L18.3505 12.6039ZM22.2432 11.5281C23.7349 11.1755 25.3996 10.9968 27.2405 10.9968V9.89517C25.3295 9.89517 23.5781 10.0805 21.9898 10.4559L22.2432 11.5281ZM27.2405 10.9968C27.5481 10.9968 27.9313 11.0226 28.3942 11.0771L28.5229 9.98294C28.0337 9.92539 27.6049 9.89517 27.2405 9.89517V10.9968ZM28.4262 11.0799C28.8806 11.1066 29.3355 11.1601 29.7908 11.2404L29.9822 10.1555C29.4856 10.0679 28.9884 10.0094 28.4909 9.98012L28.4262 11.0799ZM29.8222 11.2451C30.277 11.2986 30.7323 11.3789 31.1884 11.4862L31.4407 10.4138C30.9447 10.2971 30.4481 10.2094 29.9509 10.1509L29.8222 11.2451ZM31.2188 11.4925C31.6671 11.5716 32.0319 11.6741 32.3207 11.7945L32.7444 10.7775C32.3612 10.6179 31.914 10.4964 31.4102 10.4075L31.2188 11.4925ZM31.9927 11.1763L30.9427 16.3423L32.0223 16.5617L33.0723 11.3957L31.9927 11.1763ZM35.3091 16.998L34.8003 16.7868L34.7984 16.7917L35.3091 16.998ZM37.7031 13.302L37.3136 12.9125L37.7031 13.302ZM41.0631 11.076L40.8624 10.563L40.8585 10.5646L41.0631 11.076ZM52.4451 13.218L52.0442 13.5957L52.0469 13.5986L52.4451 13.218ZM55.1331 22.878L55.6827 22.9146L55.6829 22.9124L55.1331 22.878ZM55.0491 24.012V24.5628H55.556L55.598 24.0577L55.0491 24.012ZM40.8531 24.012V23.4612H40.2392L40.3055 24.0715L40.8531 24.012ZM42.6591 27.078L42.3401 27.527L42.6591 27.078ZM50.3031 27.918L50.4004 28.4603L50.4111 28.4581L50.3031 27.918ZM53.0331 27.12L53.5766 27.0302L53.4608 26.33L52.8113 26.6158L53.0331 27.12ZM53.8731 32.202L54.1195 32.6947L54.4828 32.513L54.4166 32.1122L53.8731 32.202ZM52.5291 32.706L52.3708 32.1784L52.5291 32.706ZM50.6391 33.126L50.5521 32.5821L50.5394 32.5841L50.5268 32.5867L50.6391 33.126ZM48.4551 33.462L48.5138 34.0097L48.4551 33.462ZM40.8951 32.706L40.6888 33.2168L40.6922 33.2181L40.8951 32.706ZM37.2411 30.312L36.8355 30.6847L36.8408 30.6904L36.8462 30.696L37.2411 30.312ZM35.0991 26.658L34.5744 26.8259L34.5776 26.8353L35.0991 26.658ZM49.1271 19.728V20.2788H49.7077L49.6772 19.699L49.1271 19.728ZM48.8331 18.174L48.3024 18.3214L48.3061 18.3349L48.3105 18.3482L48.8331 18.174ZM48.1191 16.83L47.686 17.1703L47.6932 17.1796L47.7009 17.1885L48.1191 16.83ZM46.9011 15.864L46.6433 16.351L46.6548 16.3567L46.9011 15.864ZM43.2891 15.864L43.5128 16.3674L43.5243 16.3623L43.5355 16.3567L43.2891 15.864ZM41.2311 18.174L40.7142 17.9836L40.7113 17.9916L40.7085 17.9998L41.2311 18.174ZM40.8531 19.728L40.309 19.6421L40.2085 20.2788H40.8531V19.728ZM34.9779 22.122C34.9779 20.2158 35.264 18.5807 35.8199 17.2043L34.7984 16.7917C34.1782 18.3273 33.8763 20.1082 33.8763 22.122H34.9779ZM35.8179 17.2092C36.4105 15.7814 37.1711 14.613 38.0926 13.6915L37.3136 12.9125C36.2751 13.951 35.4397 15.2466 34.8004 16.7868L35.8179 17.2092ZM38.0926 13.6915C39.021 12.7631 40.0784 12.0631 41.2677 11.5874L40.8585 10.5646C39.5278 11.0969 38.3452 11.8809 37.3136 12.9125L38.0926 13.6915ZM41.2638 11.589C42.4898 11.1092 43.7378 10.8708 45.0111 10.8708V9.76917C43.5964 9.76917 42.2124 10.0348 40.8624 10.563L41.2638 11.589ZM45.0111 10.8708C48.0252 10.8708 50.3471 11.7942 52.0442 13.5957L52.8461 12.8403C50.9031 10.7778 48.269 9.76917 45.0111 9.76917V10.8708ZM52.0469 13.5986C53.7347 15.3642 54.6243 18.0189 54.6243 21.66H55.7259C55.7259 17.8531 54.7956 14.8798 52.8433 12.8374L52.0469 13.5986ZM54.6243 21.66C54.6243 22.0103 54.6108 22.4046 54.5834 22.8436L55.6829 22.9124C55.7114 22.4554 55.7259 22.0377 55.7259 21.66H54.6243ZM54.5835 22.8414C54.5556 23.259 54.5279 23.6339 54.5002 23.9663L55.598 24.0577C55.6263 23.7181 55.6546 23.337 55.6827 22.9146L54.5835 22.8414ZM55.0491 23.4612H40.8531V24.5628H55.0491V23.4612ZM40.3055 24.0715C40.4627 25.5174 41.1488 26.6806 42.3401 27.527L42.9782 26.629C42.0414 25.9634 41.5236 25.0826 41.4007 23.9525L40.3055 24.0715ZM42.3401 27.527C43.5263 28.3699 45.0784 28.7628 46.9431 28.7628V27.6612C45.2238 27.6612 43.9199 27.2981 42.9782 26.629L42.3401 27.527ZM46.9431 28.7628C48.1226 28.7628 49.2752 28.6621 50.4004 28.4602L50.2058 27.3758C49.147 27.5659 48.0596 27.6612 46.9431 27.6612V28.7628ZM50.4111 28.4581C51.5531 28.2297 52.5053 27.954 53.255 27.6242L52.8113 26.6158C52.1609 26.902 51.2931 27.1583 50.1951 27.3779L50.4111 28.4581ZM52.4897 27.2098L53.3297 32.2918L54.4166 32.1122L53.5766 27.0302L52.4897 27.2098ZM53.6268 31.7093C53.3301 31.8577 52.9152 32.0151 52.3708 32.1784L52.6874 33.2336C53.263 33.0609 53.7441 32.8823 54.1195 32.6947L53.6268 31.7093ZM52.3708 32.1784C51.8385 32.3381 51.2329 32.4732 50.5521 32.5821L50.7261 33.6699C51.4454 33.5548 52.0997 33.4099 52.6874 33.2336L52.3708 32.1784ZM50.5268 32.5867C49.8749 32.7226 49.165 32.832 48.3964 32.9143L48.5138 34.0097C49.3132 33.924 50.0593 33.8094 50.7515 33.6653L50.5268 32.5867ZM48.3964 32.9143C47.6318 32.9962 46.8674 33.0372 46.1031 33.0372V34.1388C46.9068 34.1388 47.7104 34.0958 48.5138 34.0097L48.3964 32.9143ZM46.1031 33.0372C44.1681 33.0372 42.5037 32.7509 41.098 32.1939L40.6922 33.2181C42.2545 33.8371 44.0621 34.1388 46.1031 34.1388V33.0372ZM41.1014 32.1952C39.7081 31.6326 38.5567 30.875 37.6361 29.928L36.8462 30.696C37.8855 31.765 39.1702 32.6034 40.6888 33.2168L41.1014 32.1952ZM37.6467 29.9393C36.7491 28.9625 36.0733 27.812 35.6206 26.4807L34.5776 26.8353C35.077 28.304 35.8291 29.5895 36.8355 30.6847L37.6467 29.9393ZM35.6237 26.4901C35.1948 25.1498 34.9779 23.6949 34.9779 22.122H33.8763C33.8763 23.7971 34.1074 25.3662 34.5745 26.8259L35.6237 26.4901ZM49.6772 19.699C49.6466 19.1178 49.5394 18.5509 49.3557 17.9998L48.3105 18.3482C48.4628 18.8051 48.5516 19.2742 48.577 19.757L49.6772 19.699ZM49.3638 18.0266C49.2025 17.4459 48.9266 16.9256 48.5373 16.4715L47.7009 17.1885C47.9837 17.5184 48.1837 17.8941 48.3024 18.3214L49.3638 18.0266ZM48.5522 16.4897C48.1878 16.0259 47.7147 15.6549 47.1475 15.3713L46.6548 16.3567C47.0955 16.5771 47.4344 16.8501 47.686 17.1703L48.5522 16.4897ZM47.1588 15.3772C46.5805 15.071 45.8828 14.9352 45.0951 14.9352V16.0368C45.7635 16.0368 46.2698 16.153 46.6434 16.3508L47.1588 15.3772ZM45.0951 14.9352C44.3299 14.9352 43.6395 15.0729 43.0428 15.3713L43.5355 16.3567C43.9467 16.1511 44.4603 16.0368 45.0951 16.0368V14.9352ZM43.0654 15.3606C42.4918 15.6156 42.0037 15.9712 41.6109 16.4295L42.4473 17.1465C42.7265 16.8208 43.0784 16.5604 43.5128 16.3674L43.0654 15.3606ZM41.6109 16.4295C41.2283 16.8759 40.9307 17.3962 40.7142 17.9836L41.748 18.3644C41.9236 17.8878 42.1579 17.4841 42.4473 17.1465L41.6109 16.4295ZM40.7085 17.9998C40.5308 18.533 40.3977 19.0805 40.309 19.6421L41.3972 19.8139C41.4765 19.3115 41.5954 18.823 41.7537 18.3482L40.7085 17.9998ZM40.8531 20.2788H49.1271V19.1772H40.8531V20.2788ZM59.8365 16.998L59.3277 16.7868L59.3257 16.7917L59.8365 16.998ZM62.2305 13.302L61.841 12.9125L62.2305 13.302ZM65.5905 11.076L65.3897 10.563L65.3859 10.5646L65.5905 11.076ZM76.9725 13.218L76.5715 13.5957L76.5743 13.5986L76.9725 13.218ZM79.6605 22.878L80.2101 22.9146L80.2102 22.9124L79.6605 22.878ZM79.5765 24.012V24.5628H80.0833L80.1254 24.0577L79.5765 24.012ZM65.3805 24.012V23.4612H64.7665L64.8328 24.0715L65.3805 24.012ZM67.1865 27.078L66.8674 27.527L67.1865 27.078ZM74.8305 27.918L74.9278 28.4603L74.9385 28.4581L74.8305 27.918ZM77.5605 27.12L78.1039 27.0302L77.9882 26.33L77.3386 26.6158L77.5605 27.12ZM78.4005 32.202L78.6468 32.6947L79.0102 32.513L78.9439 32.1122L78.4005 32.202ZM77.0564 32.706L76.8982 32.1784L77.0564 32.706ZM75.1665 33.126L75.0794 32.5821L75.0667 32.5841L75.0541 32.5867L75.1665 33.126ZM72.9825 33.462L73.0411 34.0097L72.9825 33.462ZM65.4225 32.706L65.2162 33.2168L65.2195 33.2181L65.4225 32.706ZM61.7685 30.312L61.3629 30.6847L61.3681 30.6904L61.3735 30.696L61.7685 30.312ZM59.6264 26.658L59.1017 26.8259L59.1049 26.8353L59.6264 26.658ZM73.6545 19.728V20.2788H74.235L74.2045 19.699L73.6545 19.728ZM73.3605 18.174L72.8297 18.3214L72.8335 18.3349L72.8379 18.3482L73.3605 18.174ZM72.6465 16.83L72.2133 17.1703L72.2206 17.1796L72.2282 17.1885L72.6465 16.83ZM71.4285 15.864L71.1707 16.351L71.1821 16.3567L71.4285 15.864ZM67.8165 15.864L68.0402 16.3674L68.0516 16.3623L68.0628 16.3567L67.8165 15.864ZM65.7585 18.174L65.2416 17.9836L65.2386 17.9916L65.2359 17.9998L65.7585 18.174ZM65.3805 19.728L64.8364 19.6421L64.7358 20.2788H65.3805V19.728ZM59.5053 22.122C59.5053 20.2158 59.7914 18.5807 60.3472 17.2043L59.3257 16.7917C58.7056 18.3273 58.4036 20.1082 58.4036 22.122H59.5053ZM60.3452 17.2092C60.9379 15.7814 61.6985 14.613 62.6199 13.6915L61.841 12.9125C60.8024 13.951 59.967 15.2466 59.3277 16.7868L60.3452 17.2092ZM62.6199 13.6915C63.5484 12.7631 64.6058 12.0631 65.795 11.5874L65.3859 10.5646C64.0551 11.0969 62.8726 11.8809 61.841 12.9125L62.6199 13.6915ZM65.7912 11.589C67.0171 11.1092 68.2651 10.8708 69.5385 10.8708V9.76917C68.1238 9.76917 66.7398 10.0348 65.3897 10.563L65.7912 11.589ZM69.5385 10.8708C72.5526 10.8708 74.8745 11.7942 76.5715 13.5957L77.3734 12.8403C75.4304 10.7778 72.7963 9.76917 69.5385 9.76917V10.8708ZM76.5743 13.5986C78.262 15.3642 79.1516 18.0189 79.1516 21.66H80.2533C80.2533 17.8531 79.3229 14.8798 77.3706 12.8374L76.5743 13.5986ZM79.1516 21.66C79.1516 22.0103 79.1381 22.4046 79.1107 22.8436L80.2102 22.9124C80.2388 22.4554 80.2533 22.0377 80.2533 21.66H79.1516ZM79.1108 22.8414C79.083 23.259 79.0552 23.6339 79.0275 23.9663L80.1254 24.0577C80.1537 23.7181 80.1819 23.337 80.2101 22.9146L79.1108 22.8414ZM79.5765 23.4612H65.3805V24.5628H79.5765V23.4612ZM64.8328 24.0715C64.99 25.5174 65.6761 26.6806 66.8674 27.527L67.5055 26.629C66.5688 25.9634 66.0509 25.0826 65.9281 23.9525L64.8328 24.0715ZM66.8674 27.527C68.0536 28.3699 69.6058 28.7628 71.4705 28.7628V27.6612C69.7511 27.6612 68.4473 27.2981 67.5055 26.629L66.8674 27.527ZM71.4705 28.7628C72.65 28.7628 73.8026 28.6621 74.9278 28.4602L74.7331 27.3758C73.6744 27.5659 72.587 27.6612 71.4705 27.6612V28.7628ZM74.9385 28.4581C76.0804 28.2297 77.0326 27.954 77.7823 27.6242L77.3386 26.6158C76.6883 26.902 75.8205 27.1583 74.7224 27.3779L74.9385 28.4581ZM77.017 27.2098L77.857 32.2918L78.9439 32.1122L78.1039 27.0302L77.017 27.2098ZM78.1541 31.7093C77.8574 31.8577 77.4426 32.0151 76.8982 32.1784L77.2147 33.2336C77.7903 33.0609 78.2715 32.8823 78.6468 32.6947L78.1541 31.7093ZM76.8982 32.1784C76.3658 32.3381 75.7602 32.4732 75.0794 32.5821L75.2535 33.6699C75.9727 33.5548 76.6271 33.4099 77.2147 33.2336L76.8982 32.1784ZM75.0541 32.5867C74.4022 32.7226 73.6923 32.832 72.9238 32.9143L73.0411 34.0097C73.8406 33.924 74.5867 33.8094 75.2788 33.6653L75.0541 32.5867ZM72.9238 32.9143C72.1591 32.9962 71.3947 33.0372 70.6305 33.0372V34.1388C71.4342 34.1388 72.2378 34.0958 73.0411 34.0097L72.9238 32.9143ZM70.6305 33.0372C68.6955 33.0372 67.0311 32.7509 65.6254 32.1939L65.2195 33.2181C66.7818 33.8371 68.5894 34.1388 70.6305 34.1388V33.0372ZM65.6287 32.1952C64.2354 31.6326 63.0841 30.875 62.1634 29.928L61.3735 30.696C62.4128 31.765 63.6975 32.6034 65.2162 33.2168L65.6287 32.1952ZM62.174 29.9393C61.2765 28.9625 60.6006 27.812 60.148 26.4807L59.1049 26.8353C59.6043 28.304 60.3564 29.5895 61.3629 30.6847L62.174 29.9393ZM60.1511 26.4901C59.7222 25.1498 59.5053 23.6949 59.5053 22.122H58.4036C58.4036 23.7971 58.6347 25.3662 59.1018 26.8259L60.1511 26.4901ZM74.2045 19.699C74.1739 19.1178 74.0667 18.5509 73.883 17.9998L72.8379 18.3482C72.9902 18.8051 73.079 19.2742 73.1044 19.757L74.2045 19.699ZM73.8912 18.0266C73.7299 17.4459 73.4539 16.9256 73.0647 16.4715L72.2282 17.1885C72.511 17.5184 72.711 17.8941 72.8297 18.3214L73.8912 18.0266ZM73.0796 16.4897C72.7151 16.0259 72.242 15.6549 71.6748 15.3713L71.1821 16.3567C71.6229 16.5771 71.9618 16.8501 72.2133 17.1703L73.0796 16.4897ZM71.6862 15.3772C71.1078 15.071 70.4101 14.9352 69.6225 14.9352V16.0368C70.2908 16.0368 70.7971 16.153 71.1707 16.3508L71.6862 15.3772ZM69.6225 14.9352C68.8572 14.9352 68.1669 15.0729 67.5701 15.3713L68.0628 16.3567C68.474 16.1511 68.9877 16.0368 69.6225 16.0368V14.9352ZM67.5927 15.3606C67.0191 15.6156 66.5311 15.9712 66.1382 16.4295L66.9747 17.1465C67.2538 16.8208 67.6058 16.5604 68.0402 16.3674L67.5927 15.3606ZM66.1382 16.4295C65.7556 16.8759 65.458 17.3962 65.2416 17.9836L66.2753 18.3644C66.4509 17.8878 66.6853 17.4841 66.9747 17.1465L66.1382 16.4295ZM65.2359 17.9998C65.0582 18.533 64.925 19.0805 64.8364 19.6421L65.9245 19.8139C66.0039 19.3115 66.1227 18.823 66.281 18.3482L65.2359 17.9998ZM65.3805 20.2788H73.6545V19.1772H65.3805V20.2788ZM94.3276 17.46L93.8114 17.2677L93.8094 17.2734L94.3276 17.46ZM96.5956 13.764L96.9958 14.1426L97.0008 14.1372L96.5956 13.764ZM100.166 11.244L100.387 11.7482L100.166 11.244ZM108.188 10.656L108.065 11.193L108.072 11.1947L108.08 11.1961L108.188 10.656ZM111.044 11.538L111.577 11.6769L111.697 11.2166L111.259 11.0309L111.044 11.538ZM109.742 16.536L109.546 17.0507L110.12 17.2695L110.275 16.6749L109.742 16.536ZM107.81 15.948L107.681 16.4836L107.81 15.948ZM101.3 17.418L100.87 17.0726L100.865 17.0791L101.3 17.418ZM101.216 26.574L100.779 26.9099L100.784 26.9168L101.216 26.574ZM108.146 28.002L108.233 28.5458L108.146 28.002ZM110.54 27.33L111.082 27.2366L110.965 26.5521L110.325 26.8227L110.54 27.33ZM111.422 32.454L111.636 32.9613L112.039 32.7911L111.964 32.3606L111.422 32.454ZM108.692 33.252L108.581 32.7124L108.692 33.252ZM99.8716 32.706L99.657 33.2134L99.6654 33.2168L99.8716 32.706ZM96.2596 30.228L95.8485 30.5947L95.854 30.6007L96.2596 30.228ZM94.2016 26.574L93.673 26.7295L93.677 26.7419L94.2016 26.574ZM94.1225 21.954C94.1225 20.417 94.365 18.9825 94.8459 17.6466L93.8094 17.2734C93.2823 18.7375 93.0208 20.299 93.0208 21.954H94.1225ZM94.8438 17.6523C95.3518 16.2887 96.07 15.1213 96.9958 14.1425L96.1955 13.3855C95.1613 14.4787 94.3675 15.7753 93.8115 17.2677L94.8438 17.6523ZM97.0008 14.1372C97.9265 13.1322 99.0529 12.3354 100.387 11.7482L99.9438 10.7398C98.4784 11.3846 97.2248 12.2678 96.1905 13.3908L97.0008 14.1372ZM100.387 11.7482C101.707 11.1678 103.225 10.8708 104.954 10.8708V9.76917C103.098 9.76917 101.425 10.0882 99.9438 10.7398L100.387 11.7482ZM104.954 10.8708C106.095 10.8708 107.131 10.9796 108.065 11.193L108.31 10.119C107.284 9.88441 106.164 9.76917 104.954 9.76917V10.8708ZM108.08 11.1961C109.023 11.3848 109.939 11.6677 110.829 12.0451L111.259 11.0309C110.3 10.6243 109.313 10.3192 108.296 10.1159L108.08 11.1961ZM110.511 11.3991L109.209 16.3971L110.275 16.6749L111.577 11.6769L110.511 11.3991ZM109.938 16.0213C109.325 15.7878 108.658 15.5851 107.938 15.4124L107.681 16.4836C108.361 16.6469 108.982 16.8362 109.546 17.0507L109.938 16.0213ZM107.938 15.4124C107.189 15.2325 106.36 15.1452 105.458 15.1452V16.2468C106.291 16.2468 107.031 16.3275 107.681 16.4836L107.938 15.4124ZM105.458 15.1452C103.489 15.1452 101.925 15.7625 100.871 17.0726L101.729 17.7634C102.522 16.7775 103.73 16.2468 105.458 16.2468V15.1452ZM100.865 17.0791C99.8745 18.3487 99.4048 19.9909 99.4048 21.954H100.506C100.506 20.1651 100.933 18.7833 101.734 17.7569L100.865 17.0791ZM99.4048 21.954C99.4048 24.0114 99.8385 25.6871 100.779 26.9098L101.652 26.2382C100.913 25.2769 100.506 23.8726 100.506 21.954H99.4048ZM100.784 26.9168C101.802 28.1974 103.504 28.7628 105.71 28.7628V27.6612C103.66 27.6612 102.365 27.1346 101.647 26.2312L100.784 26.9168ZM105.71 28.7628C106.499 28.7628 107.341 28.6897 108.233 28.5458L108.058 27.4582C107.214 27.5942 106.432 27.6612 105.71 27.6612V28.7628ZM108.233 28.5458C109.14 28.3995 109.981 28.1643 110.754 27.8373L110.325 26.8227C109.642 27.1117 108.887 27.3245 108.058 27.4582L108.233 28.5458ZM109.997 27.4234L110.879 32.5474L111.964 32.3606L111.082 27.2366L109.997 27.4234ZM111.207 31.9467C110.523 32.2361 109.651 32.493 108.581 32.7124L108.802 33.7916C109.917 33.563 110.864 33.2879 111.636 32.9613L111.207 31.9467ZM108.581 32.7124C107.531 32.9277 106.365 33.0372 105.08 33.0372V34.1388C106.426 34.1388 107.668 34.0243 108.802 33.7916L108.581 32.7124ZM105.08 33.0372C103.115 33.0372 101.453 32.7504 100.078 32.1952L99.6654 33.2168C101.203 33.8376 103.012 34.1388 105.08 34.1388V33.0372ZM100.086 32.1987C98.6938 31.6096 97.5577 30.8265 96.6652 29.8553L95.854 30.6007C96.8656 31.7015 98.1375 32.5704 99.657 33.2133L100.086 32.1987ZM96.6707 29.8614C95.8011 28.8863 95.1522 27.7371 94.7263 26.4061L93.677 26.7419C94.1471 28.2109 94.8702 29.4977 95.8486 30.5946L96.6707 29.8614ZM94.7301 26.4186C94.3265 25.0462 94.1225 23.5591 94.1225 21.954H93.0208C93.0208 23.6529 93.2368 25.2458 93.6732 26.7294L94.7301 26.4186ZM134.463 26.7L134.983 26.8833L134.984 26.8802L134.463 26.7ZM132.279 30.396L132.68 30.7743L132.685 30.7687L132.279 30.396ZM128.835 32.748L128.623 32.2395L128.62 32.2411L128.835 32.748ZM119.931 32.748L119.716 33.2549L119.719 33.2565L119.931 32.748ZM116.529 30.396L116.124 30.7687L116.129 30.7742L116.529 30.396ZM114.303 26.7L113.786 26.889L113.787 26.8923L114.303 26.7ZM114.303 17.166L113.79 16.9649L113.787 16.9737L114.303 17.166ZM116.571 13.512L116.176 13.128L116.171 13.1338L116.571 13.512ZM120.015 11.16L119.803 10.6515L119.8 10.6531L120.015 11.16ZM128.751 11.16L128.536 11.6669L128.539 11.6685L128.751 11.16ZM132.195 13.512L131.795 13.8902L132.195 13.512ZM134.421 17.166L133.905 17.3583L134.421 17.166ZM127.659 17.376L127.203 17.6842L127.207 17.6908L127.212 17.6973L127.659 17.376ZM121.065 17.376L121.513 17.6973L121.516 17.6919L121.065 17.376ZM121.065 26.532L120.61 26.8427L120.614 26.8479L121.065 26.532ZM127.659 26.532L127.204 26.2213L127.203 26.2238L127.659 26.532ZM134.668 21.912C134.668 23.5944 134.424 25.1286 133.943 26.5198L134.984 26.8802C135.51 25.3594 135.77 23.7016 135.77 21.912H134.668ZM133.944 26.5167C133.463 27.8799 132.772 29.0462 131.874 30.0233L132.685 30.7687C133.691 29.6738 134.456 28.3761 134.983 26.8833L133.944 26.5167ZM131.879 30.0178C130.982 30.9668 129.9 31.7077 128.623 32.2395L129.047 33.2565C130.459 32.6683 131.672 31.8412 132.68 30.7742L131.879 30.0178ZM128.62 32.2411C127.382 32.768 125.973 33.0372 124.383 33.0372V34.1388C126.098 34.1388 127.657 33.848 129.051 33.2549L128.62 32.2411ZM124.383 33.0372C122.824 33.0372 121.413 32.7685 120.143 32.2395L119.719 33.2565C121.138 33.8475 122.695 34.1388 124.383 34.1388V33.0372ZM120.147 32.2411C118.898 31.7099 117.828 30.9689 116.93 30.0178L116.129 30.7742C117.135 31.8391 118.332 32.6661 119.716 33.2549L120.147 32.2411ZM116.935 30.0233C116.035 29.0439 115.329 27.8746 114.819 26.5077L113.787 26.8923C114.342 28.3814 115.12 29.6761 116.124 30.7687L116.935 30.0233ZM114.821 26.511C114.313 25.1223 114.056 23.5912 114.056 21.912H112.954C112.954 23.7048 113.229 25.3657 113.786 26.889L114.821 26.511ZM114.056 21.912C114.056 20.2326 114.313 18.7168 114.819 17.3583L113.787 16.9737C113.229 18.4712 112.954 20.1194 112.954 21.912H114.056ZM114.816 17.3671C115.353 15.9978 116.073 14.8417 116.972 13.8902L116.171 13.1338C115.165 14.1983 114.373 15.4782 113.79 16.9649L114.816 17.3671ZM116.966 13.896C117.894 12.9414 118.981 12.1987 120.231 11.6668L119.8 10.6531C118.417 11.2413 117.208 12.0666 116.176 13.128L116.966 13.896ZM120.227 11.6685C121.499 11.1385 122.882 10.8708 124.383 10.8708V9.76917C122.748 9.76917 121.22 10.0615 119.803 10.6515L120.227 11.6685ZM124.383 10.8708C125.914 10.8708 127.295 11.1391 128.536 11.6669L128.967 10.6531C127.575 10.0609 126.045 9.76917 124.383 9.76917V10.8708ZM128.539 11.6685C129.816 12.2003 130.898 12.9412 131.795 13.8902L132.596 13.1338C131.588 12.0668 130.375 11.2397 128.963 10.6515L128.539 11.6685ZM131.795 13.8902C132.691 14.8395 133.396 15.9925 133.905 17.3583L134.937 16.9737C134.382 15.4835 133.603 14.2005 132.596 13.1338L131.795 13.8902ZM133.905 17.3583C134.411 18.7168 134.668 20.2326 134.668 21.912H135.77C135.77 20.1194 135.495 18.4712 134.937 16.9737L133.905 17.3583ZM129.386 21.912C129.386 19.9132 128.982 18.2733 128.107 17.0547L127.212 17.6973C127.905 18.6627 128.284 20.0468 128.284 21.912H129.386ZM128.116 17.0678C127.251 15.7861 125.982 15.1452 124.383 15.1452V16.2468C125.641 16.2468 126.556 16.7259 127.203 17.6842L128.116 17.0678ZM124.383 15.1452C122.785 15.1452 121.506 15.7853 120.614 17.0601L121.516 17.6919C122.192 16.7267 123.125 16.2468 124.383 16.2468V15.1452ZM120.618 17.0547C119.743 18.2733 119.338 19.9132 119.338 21.912H120.44C120.44 20.0468 120.82 18.6627 121.513 17.6973L120.618 17.0547ZM119.338 21.912C119.338 23.913 119.744 25.5738 120.61 26.8426L121.52 26.2214C120.819 25.1942 120.44 23.775 120.44 21.912H119.338ZM120.614 26.8479C121.506 28.1227 122.785 28.7628 124.383 28.7628V27.6612C123.125 27.6612 122.192 27.1813 121.516 26.2161L120.614 26.8479ZM124.383 28.7628C125.982 28.7628 127.251 28.1219 128.116 26.8402L127.203 26.2238C126.556 27.1821 125.641 27.6612 124.383 27.6612V28.7628ZM128.114 26.8426C128.981 25.5738 129.386 23.913 129.386 21.912H128.284C128.284 23.775 127.906 25.1942 127.204 26.2214L128.114 26.8426ZM158.925 32.244L159.078 32.7731L159.476 32.658V32.244H158.925ZM154.809 33.084L154.727 32.5392L154.718 32.5407L154.809 33.084ZM144.813 32.748L144.604 33.2578L144.608 33.2594L144.813 32.748ZM141.873 30.648L141.44 30.9889L141.445 30.9953L141.873 30.648ZM139.857 10.908V10.3572H139.306V10.908H139.857ZM146.115 10.908H146.666V10.3572H146.115V10.908ZM146.913 26.826L146.439 27.1072L146.913 26.826ZM151.323 28.128L151.354 28.678L151.369 28.6771L151.384 28.6755L151.323 28.128ZM152.667 27.96L152.745 28.5053L153.218 28.4377V27.96H152.667ZM152.667 10.908V10.3572H152.116V10.908H152.667ZM158.925 10.908H159.476V10.3572H158.925V10.908ZM158.772 31.7149C157.74 32.0135 156.394 32.2892 154.727 32.5393L154.891 33.6287C156.584 33.3748 157.982 33.0905 159.078 32.7731L158.772 31.7149ZM154.718 32.5407C153.071 32.8153 151.337 32.9532 149.517 32.9532V34.0548C151.393 34.0548 153.187 33.9127 154.9 33.6273L154.718 32.5407ZM149.517 32.9532C147.686 32.9532 146.193 32.7066 145.018 32.2366L144.608 33.2594C145.953 33.7974 147.596 34.0548 149.517 34.0548V32.9532ZM145.022 32.2382C143.862 31.7637 142.962 31.1147 142.3 30.3006L141.445 30.9953C142.24 31.9733 143.3 32.7243 144.604 33.2578L145.022 32.2382ZM142.306 30.3071C141.631 29.4511 141.145 28.4326 140.854 27.2412L139.784 27.5028C140.109 28.8314 140.659 29.9969 141.44 30.9889L142.306 30.3071ZM140.854 27.2412C140.558 26.0304 140.408 24.689 140.408 23.214H139.306C139.306 24.763 139.464 26.1936 139.784 27.5028L140.854 27.2412ZM140.408 23.214V10.908H139.306V23.214H140.408ZM139.857 11.4588H146.115V10.3572H139.857V11.4588ZM145.564 10.908V22.458H146.666V10.908H145.564ZM145.564 22.458C145.564 24.4961 145.828 26.0781 146.439 27.1072L147.387 26.5448C146.934 25.7819 146.666 24.4519 146.666 22.458H145.564ZM146.439 27.1072C147.108 28.233 148.33 28.7208 149.895 28.7208V27.6192C148.547 27.6192 147.782 27.211 147.387 26.5448L146.439 27.1072ZM149.895 28.7208C150.354 28.7208 150.841 28.7065 151.354 28.678L151.292 27.578C150.797 27.6055 150.332 27.6192 149.895 27.6192V28.7208ZM151.384 28.6755C151.892 28.619 152.346 28.5623 152.745 28.5053L152.589 27.4147C152.204 27.4697 151.762 27.525 151.262 27.5805L151.384 28.6755ZM153.218 27.96V10.908H152.116V27.96H153.218ZM152.667 11.4588H158.925V10.3572H152.667V11.4588ZM158.374 10.908V32.244H159.476V10.908H158.374ZM178.113 16.452L177.98 16.9864L178.538 17.1261L178.653 16.5617L178.113 16.452ZM176.139 16.032L176.02 16.5697L176.029 16.5718L176.039 16.5736L176.139 16.032ZM172.275 15.906L172.333 16.4538L172.345 16.4525L172.357 16.4507L172.275 15.906ZM171.057 16.116L170.899 15.5884L170.507 15.7062V16.116H171.057ZM171.057 33V33.5508H171.608V33H171.057ZM164.799 33H164.249V33.5508H164.799V33ZM164.799 12.084L164.617 11.5641L164.249 11.6932V12.084H164.799ZM168.747 10.992L168.867 11.5298L168.874 11.5281L168.747 10.992ZM175.089 10.53L175.025 11.0771L175.041 11.0789L175.057 11.0799L175.089 10.53ZM176.517 10.698L176.422 11.2404L176.437 11.2432L176.453 11.2451L176.517 10.698ZM177.945 10.95L177.819 11.4862L177.834 11.4897L177.85 11.4925L177.945 10.95ZM179.163 11.286L179.703 11.3957L179.793 10.9518L179.375 10.7775L179.163 11.286ZM178.247 15.9176C177.673 15.7741 177.003 15.6318 176.24 15.4904L176.039 16.5736C176.787 16.7122 177.434 16.8499 177.98 16.9864L178.247 15.9176ZM176.259 15.4943C175.459 15.3166 174.607 15.2292 173.703 15.2292V16.3308C174.536 16.3308 175.307 16.4114 176.02 16.5697L176.259 15.4943ZM173.703 15.2292C173.275 15.2292 172.77 15.2748 172.194 15.3613L172.357 16.4507C172.901 16.3692 173.348 16.3308 173.703 16.3308V15.2292ZM172.218 15.3582C171.675 15.4154 171.228 15.4896 170.899 15.5884L171.216 16.6436C171.446 16.5744 171.812 16.5086 172.333 16.4538L172.218 15.3582ZM170.507 16.116V33H171.608V16.116H170.507ZM171.057 32.4492H164.799V33.5508H171.057V32.4492ZM165.35 33V12.084H164.249V33H165.35ZM164.981 12.6039C166.076 12.2208 167.37 11.8623 168.867 11.5297L168.628 10.4543C167.101 10.7937 165.763 11.1632 164.617 11.5641L164.981 12.6039ZM168.874 11.5281C170.366 11.1755 172.03 10.9968 173.871 10.9968V9.89517C171.96 9.89517 170.209 10.0805 168.621 10.4559L168.874 11.5281ZM173.871 10.9968C174.179 10.9968 174.562 11.0226 175.025 11.0771L175.154 9.98294C174.665 9.92539 174.236 9.89517 173.871 9.89517V10.9968ZM175.057 11.0799C175.511 11.1066 175.966 11.1601 176.422 11.2404L176.613 10.1555C176.116 10.0679 175.619 10.0094 175.122 9.98012L175.057 11.0799ZM176.453 11.2451C176.908 11.2986 177.363 11.3789 177.819 11.4862L178.072 10.4138C177.576 10.2971 177.079 10.2094 176.582 10.1509L176.453 11.2451ZM177.85 11.4925C178.298 11.5716 178.663 11.6741 178.952 11.7945L179.375 10.7775C178.992 10.6179 178.545 10.4964 178.041 10.4075L177.85 11.4925ZM178.624 11.1763L177.574 16.3423L178.653 16.5617L179.703 11.3957L178.624 11.1763ZM191.296 28.17L191.531 28.6684L191.296 28.17ZM191.086 25.566L190.79 26.0307L190.798 26.0356L190.806 26.0402L191.086 25.566ZM188.272 24.264L188.467 23.7487L188.464 23.7476L188.272 24.264ZM185.584 23.13L185.338 23.6227L185.345 23.6261L185.584 23.13ZM183.568 21.744L183.178 22.1336L183.189 22.1434L183.568 21.744ZM182.266 19.77L182.776 19.5622L182.266 19.77ZM184.114 12.126L184.453 12.5599L184.114 12.126ZM194.32 10.698L194.21 11.2378L194.222 11.2399L194.32 10.698ZM197.26 11.454L197.798 11.5745L197.902 11.1106L197.458 10.9399L197.26 11.454ZM196.168 16.326L195.988 16.8465L196.571 17.0483L196.706 16.4465L196.168 16.326ZM193.774 15.654L193.649 16.1904L193.653 16.1913L193.774 15.654ZM188.608 18.258L188.27 18.6928L188.286 18.7052L188.303 18.7163L188.608 18.258ZM189.616 18.846L189.357 19.332L189.376 19.3421L189.395 19.3507L189.616 18.846ZM191.296 19.518L191.103 20.0338L191.106 20.035L191.296 19.518ZM194.698 21.03L194.428 21.5102L194.44 21.5164L194.698 21.03ZM196.798 22.626L196.38 22.9845L196.389 22.9952L196.399 23.0054L196.798 22.626ZM197.89 24.516L197.36 24.6645L197.362 24.6743L197.365 24.6839L197.89 24.516ZM195.748 31.908L195.439 31.4521L195.435 31.4545L195.748 31.908ZM183.904 33.084L183.765 33.617L183.768 33.6177L183.904 33.084ZM181.216 32.244L180.677 32.1325L180.587 32.5671L180.992 32.7474L181.216 32.244ZM182.266 27.162L182.468 26.6496L181.859 26.4092L181.727 27.0505L182.266 27.162ZM185.542 28.17L185.421 28.7076L185.434 28.7101L185.542 28.17ZM188.86 29.0568C190.015 29.0568 190.935 28.9485 191.531 28.6684L191.062 27.6716C190.705 27.8395 190.001 27.9552 188.86 27.9552V29.0568ZM191.531 28.6684C191.867 28.5101 192.136 28.2671 192.315 27.9414C192.49 27.6224 192.561 27.2555 192.561 26.868H191.459C191.459 27.1245 191.412 27.2966 191.349 27.4116C191.289 27.5199 191.201 27.6059 191.062 27.6716L191.531 28.6684ZM192.561 26.868C192.561 26.0931 192.072 25.5088 191.366 25.0918L190.806 26.0402C191.332 26.3512 191.459 26.6349 191.459 26.868H192.561ZM191.382 25.1013C190.718 24.6787 189.738 24.2289 188.467 23.7487L188.077 24.7793C189.326 25.2511 190.223 25.6693 190.79 26.0307L191.382 25.1013ZM188.464 23.7476C187.498 23.3887 186.618 23.0174 185.824 22.6339L185.345 23.6261C186.174 24.0266 187.087 24.4113 188.08 24.7804L188.464 23.7476ZM185.83 22.6373C185.089 22.2665 184.463 21.8345 183.948 21.3446L183.189 22.1434C183.793 22.7175 184.512 23.2095 185.338 23.6227L185.83 22.6373ZM183.958 21.3545C183.451 20.848 183.057 20.2523 182.776 19.5622L181.756 19.9778C182.091 20.7997 182.565 21.52 183.179 22.1335L183.958 21.3545ZM182.776 19.5622C182.502 18.8889 182.355 18.0533 182.355 17.04H181.253C181.253 18.1547 181.414 19.1391 181.756 19.9778L182.776 19.5622ZM182.355 17.04C182.355 15.1257 183.056 13.6525 184.453 12.5599L183.775 11.692C182.092 13.0075 181.253 14.8103 181.253 17.04H182.355ZM184.453 12.5599C185.866 11.4556 187.846 10.8708 190.456 10.8708V9.76917C187.691 9.76917 185.442 10.3884 183.775 11.692L184.453 12.5599ZM190.456 10.8708C191.766 10.8708 193.016 10.9936 194.21 11.2377L194.431 10.1583C193.16 9.89842 191.835 9.76917 190.456 9.76917V10.8708ZM194.222 11.2399C195.437 11.461 196.38 11.7056 197.062 11.9681L197.458 10.9399C196.684 10.6424 195.667 10.383 194.419 10.1561L194.222 11.2399ZM196.723 11.3335L195.631 16.2055L196.706 16.4465L197.798 11.5745L196.723 11.3335ZM196.348 15.8055C195.598 15.5459 194.78 15.3165 193.895 15.1167L193.653 16.1913C194.504 16.3835 195.282 16.6021 195.988 16.8465L196.348 15.8055ZM193.899 15.1176C193.01 14.9101 192.015 14.8092 190.918 14.8092V15.9108C191.949 15.9108 192.858 16.0059 193.649 16.1904L193.899 15.1176ZM190.918 14.8092C189.905 14.8092 189.057 14.9471 188.445 15.2883C188.131 15.4635 187.869 15.6974 187.689 15.9986C187.509 16.3005 187.427 16.64 187.427 16.998H188.529C188.529 16.81 188.57 16.6717 188.635 16.5642C188.699 16.4559 188.806 16.3485 188.981 16.2507C189.349 16.0459 189.971 15.9108 190.918 15.9108V14.8092ZM187.427 16.998C187.427 17.3112 187.48 17.6111 187.598 17.887L188.61 17.453C188.561 17.3369 188.529 17.1888 188.529 16.998H187.427ZM187.598 17.887C187.732 18.2008 187.978 18.4658 188.27 18.6928L188.946 17.8232C188.734 17.6582 188.644 17.5312 188.61 17.453L187.598 17.887ZM188.303 18.7163C188.575 18.8983 188.929 19.1037 189.357 19.332L189.875 18.36C189.463 18.1403 189.145 17.9537 188.914 17.7997L188.303 18.7163ZM189.395 19.3507C189.855 19.552 190.425 19.7797 191.103 20.0338L191.49 19.0022C190.823 18.7523 190.273 18.532 189.837 18.3414L189.395 19.3507ZM191.106 20.035C192.461 20.5328 193.566 21.0251 194.428 21.5101L194.968 20.5499C194.038 20.0269 192.875 19.5112 191.486 19.0009L191.106 20.035ZM194.44 21.5164C195.293 21.9697 195.932 22.4622 196.38 22.9845L197.216 22.2675C196.656 21.6138 195.895 21.0424 194.957 20.5435L194.44 21.5164ZM196.399 23.0054C196.873 23.5045 197.189 24.0564 197.36 24.6645L198.421 24.3675C198.199 23.5756 197.787 22.8675 197.197 22.2466L196.399 23.0054ZM197.365 24.6839C197.568 25.3177 197.675 26.071 197.675 26.952H198.777C198.777 25.985 198.66 25.1143 198.415 24.3481L197.365 24.6839ZM197.675 26.952C197.675 28.9736 196.924 30.4454 195.439 31.4521L196.057 32.3639C197.876 31.1306 198.777 29.2984 198.777 26.952H197.675ZM195.435 31.4545C193.94 32.4861 191.757 33.0372 188.818 33.0372V34.1388C191.872 34.1388 194.309 33.5699 196.061 32.3615L195.435 31.4545ZM188.818 33.0372C186.886 33.0372 185.297 32.8711 184.04 32.5503L183.768 33.6177C185.143 33.9689 186.831 34.1388 188.818 34.1388V33.0372ZM184.043 32.551C182.755 32.215 181.898 31.9445 181.44 31.7406L180.992 32.7474C181.542 32.9915 182.477 33.281 183.765 33.617L184.043 32.551ZM181.756 32.3555L182.806 27.2735L181.727 27.0505L180.677 32.1325L181.756 32.3555ZM182.064 27.6744C183.154 28.1048 184.274 28.4492 185.421 28.7074L185.663 27.6326C184.571 27.3868 183.506 27.0592 182.468 26.6496L182.064 27.6744ZM185.434 28.7101C186.588 28.9409 187.73 29.0568 188.86 29.0568V27.9552C187.806 27.9552 186.736 27.8471 185.65 27.6299L185.434 28.7101ZM202.735 16.998L202.226 16.7868L202.224 16.7917L202.735 16.998ZM205.129 13.302L204.739 12.9125L205.129 13.302ZM208.489 11.076L208.288 10.563L208.284 10.5646L208.489 11.076ZM219.871 13.218L219.47 13.5957L219.473 13.5986L219.871 13.218ZM222.559 22.878L223.109 22.9146L223.109 22.9124L222.559 22.878ZM222.475 24.012V24.5628H222.982L223.024 24.0577L222.475 24.012ZM208.279 24.012V23.4612H207.665L207.731 24.0715L208.279 24.012ZM210.085 27.078L209.766 27.527L210.085 27.078ZM217.729 27.918L217.826 28.4603L217.837 28.4581L217.729 27.918ZM220.459 27.12L221.002 27.0302L220.887 26.33L220.237 26.6158L220.459 27.12ZM221.299 32.202L221.545 32.6947L221.909 32.513L221.842 32.1122L221.299 32.202ZM219.955 32.706L219.797 32.1784L219.955 32.706ZM218.065 33.126L217.978 32.5821L217.965 32.5841L217.953 32.5867L218.065 33.126ZM215.881 33.462L215.94 34.0097L215.881 33.462ZM208.321 32.706L208.115 33.2168L208.118 33.2181L208.321 32.706ZM204.667 30.312L204.261 30.6847L204.267 30.6904L204.272 30.696L204.667 30.312ZM202.525 26.658L202 26.8259L202.003 26.8353L202.525 26.658ZM216.553 19.728V20.2788H217.133L217.103 19.699L216.553 19.728ZM216.259 18.174L215.728 18.3214L215.732 18.3349L215.736 18.3482L216.259 18.174ZM215.545 16.83L215.112 17.1703L215.119 17.1796L215.127 17.1885L215.545 16.83ZM214.327 15.864L214.069 16.351L214.081 16.3567L214.327 15.864ZM210.715 15.864L210.939 16.3674L210.95 16.3623L210.961 16.3567L210.715 15.864ZM208.657 18.174L208.14 17.9836L208.137 17.9916L208.134 17.9998L208.657 18.174ZM208.279 19.728L207.735 19.6421L207.634 20.2788H208.279V19.728ZM202.404 22.122C202.404 20.2158 202.69 18.5807 203.246 17.2043L202.224 16.7917C201.604 18.3273 201.302 20.1082 201.302 22.122H202.404ZM203.244 17.2092C203.836 15.7814 204.597 14.613 205.518 13.6915L204.739 12.9125C203.701 13.951 202.865 15.2466 202.226 16.7868L203.244 17.2092ZM205.518 13.6915C206.447 12.7631 207.504 12.0631 208.693 11.5874L208.284 10.5646C206.954 11.0969 205.771 11.8809 204.739 12.9125L205.518 13.6915ZM208.69 11.589C209.916 11.1092 211.164 10.8708 212.437 10.8708V9.76917C211.022 9.76917 209.638 10.0348 208.288 10.563L208.69 11.589ZM212.437 10.8708C215.451 10.8708 217.773 11.7942 219.47 13.5957L220.272 12.8403C218.329 10.7778 215.695 9.76917 212.437 9.76917V10.8708ZM219.473 13.5986C221.16 15.3642 222.05 18.0189 222.05 21.66H223.152C223.152 17.8531 222.221 14.8798 220.269 12.8374L219.473 13.5986ZM222.05 21.66C222.05 22.0103 222.037 22.4046 222.009 22.8436L223.109 22.9124C223.137 22.4554 223.152 22.0377 223.152 21.66H222.05ZM222.009 22.8414C221.981 23.259 221.954 23.6339 221.926 23.9663L223.024 24.0577C223.052 23.7181 223.08 23.337 223.109 22.9146L222.009 22.8414ZM222.475 23.4612H208.279V24.5628H222.475V23.4612ZM207.731 24.0715C207.888 25.5174 208.575 26.6806 209.766 27.527L210.404 26.629C209.467 25.9634 208.949 25.0826 208.826 23.9525L207.731 24.0715ZM209.766 27.527C210.952 28.3699 212.504 28.7628 214.369 28.7628V27.6612C212.65 27.6612 211.346 27.2981 210.404 26.629L209.766 27.527ZM214.369 28.7628C215.548 28.7628 216.701 28.6621 217.826 28.4602L217.632 27.3758C216.573 27.5659 215.485 27.6612 214.369 27.6612V28.7628ZM217.837 28.4581C218.979 28.2297 219.931 27.954 220.681 27.6242L220.237 26.6158C219.587 26.902 218.719 27.1583 217.621 27.3779L217.837 28.4581ZM219.915 27.2098L220.755 32.2918L221.842 32.1122L221.002 27.0302L219.915 27.2098ZM221.053 31.7093C220.756 31.8577 220.341 32.0151 219.797 32.1784L220.113 33.2336C220.689 33.0609 221.17 32.8823 221.545 32.6947L221.053 31.7093ZM219.797 32.1784C219.264 32.3381 218.659 32.4732 217.978 32.5821L218.152 33.6699C218.871 33.5548 219.526 33.4099 220.113 33.2336L219.797 32.1784ZM217.953 32.5867C217.301 32.7226 216.591 32.832 215.822 32.9143L215.94 34.0097C216.739 33.924 217.485 33.8094 218.177 33.6653L217.953 32.5867ZM215.822 32.9143C215.058 32.9962 214.293 33.0372 213.529 33.0372V34.1388C214.333 34.1388 215.136 34.0958 215.94 34.0097L215.822 32.9143ZM213.529 33.0372C211.594 33.0372 209.93 32.7509 208.524 32.1939L208.118 33.2181C209.68 33.8371 211.488 34.1388 213.529 34.1388V33.0372ZM208.527 32.1952C207.134 31.6326 205.983 30.875 205.062 29.928L204.272 30.696C205.311 31.765 206.596 32.6034 208.115 33.2168L208.527 32.1952ZM205.072 29.9393C204.175 28.9625 203.499 27.812 203.046 26.4807L202.003 26.8353C202.503 28.304 203.255 29.5895 204.261 30.6847L205.072 29.9393ZM203.05 26.4901C202.621 25.1498 202.404 23.6949 202.404 22.122H201.302C201.302 23.7971 201.533 25.3662 202 26.8259L203.05 26.4901ZM217.103 19.699C217.072 19.1178 216.965 18.5509 216.781 17.9998L215.736 18.3482C215.889 18.8051 215.977 19.2742 216.003 19.757L217.103 19.699ZM216.79 18.0266C216.628 17.4459 216.352 16.9256 215.963 16.4715L215.127 17.1885C215.409 17.5184 215.609 17.8941 215.728 18.3214L216.79 18.0266ZM215.978 16.4897C215.614 16.0259 215.14 15.6549 214.573 15.3713L214.081 16.3567C214.521 16.5771 214.86 16.8501 215.112 17.1703L215.978 16.4897ZM214.585 15.3772C214.006 15.071 213.309 14.9352 212.521 14.9352V16.0368C213.189 16.0368 213.696 16.153 214.069 16.3508L214.585 15.3772ZM212.521 14.9352C211.756 14.9352 211.065 15.0729 210.469 15.3713L210.961 16.3567C211.372 16.1511 211.886 16.0368 212.521 16.0368V14.9352ZM210.491 15.3606C209.918 15.6156 209.43 15.9712 209.037 16.4295L209.873 17.1465C210.152 16.8208 210.504 16.5604 210.939 16.3674L210.491 15.3606ZM209.037 16.4295C208.654 16.8759 208.356 17.3962 208.14 17.9836L209.174 18.3644C209.349 17.8878 209.584 17.4841 209.873 17.1465L209.037 16.4295ZM208.134 17.9998C207.957 18.533 207.823 19.0805 207.735 19.6421L208.823 19.8139C208.902 19.3115 209.021 18.823 209.179 18.3482L208.134 17.9998ZM208.279 20.2788H216.553V19.1772H208.279V20.2788Z" fill="#BDBDBD"/>
</svg>
