<svg width="223" height="41" viewBox="0 0 223 41" fill="none" xmlns="http://www.w3.org/2000/svg">
<path d="M8.41877 26.448L8.86196 26.1209L8.41877 26.448ZM13.8368 28.17L13.8691 28.7199L13.8852 28.7189L13.9011 28.7171L13.8368 28.17ZM15.0128 28.002L15.1113 28.5439L15.5636 28.4617V28.002H15.0128ZM15.0128 16.62H15.5636V16.3193L15.3106 16.1567L15.0128 16.62ZM13.4588 15.99L13.3138 16.5215L13.3197 16.523L13.4588 15.99ZM21.2708 32.286L21.4291 32.8136L21.8216 32.6958V32.286H21.2708ZM19.3388 32.79L19.4428 33.3309L19.4528 33.329L19.4626 33.3267L19.3388 32.79ZM17.0288 33.168L16.9535 32.6223L16.9509 32.6227L17.0288 33.168ZM14.5928 33.42L14.5561 32.8704L14.5461 32.8711L14.5361 32.8721L14.5928 33.42ZM3.75677 30.48L3.36179 30.864L3.36728 30.8695L3.75677 30.48ZM1.48877 26.868L0.969196 27.0514L0.973862 27.0637L1.48877 26.868ZM1.40477 17.25L1.93036 17.4149L1.93125 17.412L1.40477 17.25ZM3.33677 13.554L2.91361 13.2014L3.33677 13.554ZM6.40277 11.244L6.18439 10.7383L6.18015 10.7402L6.40277 11.244ZM12.9128 10.698L12.7792 11.2324L12.7842 11.2336L12.9128 10.698ZM15.0128 11.412L14.7909 11.9162L15.5636 12.2562V11.412H15.0128ZM15.0128 1.416L14.9252 0.872175L14.4619 0.946791V1.416H15.0128ZM21.2708 0.407999H21.8216V-0.238659L21.1832 -0.135824L21.2708 0.407999ZM6.56594 21.786C6.56594 23.7981 7.0182 25.478 7.97559 26.7751L8.86196 26.1209C8.08335 25.066 7.66761 23.6379 7.66761 21.786H6.56594ZM7.97559 26.7751C8.96584 28.1167 10.4334 28.7628 12.2828 28.7628V27.6612C10.7161 27.6612 9.6077 27.1313 8.86196 26.1209L7.97559 26.7751ZM12.2828 28.7628C12.8518 28.7628 13.3807 28.7486 13.8691 28.7199L13.8044 27.6201C13.3409 27.6474 12.8338 27.6612 12.2828 27.6612V28.7628ZM13.9011 28.7171C14.3833 28.6603 14.7877 28.6028 15.1113 28.5439L14.9142 27.4601C14.6218 27.5132 14.2423 27.5677 13.7724 27.6229L13.9011 28.7171ZM15.5636 28.002V16.62H14.4619V28.002H15.5636ZM15.3106 16.1567C14.8537 15.8629 14.2761 15.6339 13.5978 15.457L13.3197 16.523C13.9294 16.6821 14.3879 16.8731 14.7149 17.0833L15.3106 16.1567ZM13.6037 15.4586C12.9401 15.2776 12.2613 15.1872 11.5688 15.1872V16.2888C12.1642 16.2888 12.7455 16.3664 13.3138 16.5214L13.6037 15.4586ZM11.5688 15.1872C9.94647 15.1872 8.65202 15.7472 7.78617 16.9235C6.94352 18.0682 6.56594 19.7186 6.56594 21.786H7.66761C7.66761 19.8214 8.03203 18.4478 8.67338 17.5765C9.29153 16.7368 10.2231 16.2888 11.5688 16.2888V15.1872ZM21.1125 31.7584C20.5665 31.9222 19.9343 32.0872 19.2149 32.2533L19.4626 33.3267C20.1992 33.1567 20.8551 32.9858 21.4291 32.8136L21.1125 31.7584ZM19.2348 32.2491C18.5172 32.3871 17.7569 32.5115 16.9535 32.6223L17.104 33.7137C17.9247 33.6005 18.7043 33.4729 19.4428 33.3309L19.2348 32.2491ZM16.9509 32.6227C16.1814 32.7326 15.3832 32.8153 14.5561 32.8704L14.6294 33.9696C15.4824 33.9128 16.3082 33.8274 17.1067 33.7133L16.9509 32.6227ZM14.5361 32.8721C13.7414 32.9543 12.9764 32.9952 12.2408 32.9952V34.0968C13.0171 34.0968 13.8201 34.0537 14.6495 33.9679L14.5361 32.8721ZM12.2408 32.9952C10.474 32.9952 8.91689 32.7369 7.56107 32.2318L7.17647 33.2642C8.67666 33.8231 10.3676 34.0968 12.2408 34.0968V32.9952ZM7.56107 32.2318C6.19969 31.7246 5.06503 31.0093 4.14627 30.0905L3.36728 30.8695C4.40852 31.9107 5.68186 32.7074 7.17647 33.2642L7.56107 32.2318ZM4.15172 30.096C3.22751 29.1454 2.51074 28.0067 2.00368 26.6723L0.973862 27.0637C1.53081 28.5293 2.32604 29.7986 3.36183 30.864L4.15172 30.096ZM2.00821 26.6847C1.5281 25.3244 1.28361 23.7916 1.28361 22.08H0.181942C0.181942 23.8964 0.441448 25.5556 0.969341 27.0513L2.00821 26.6847ZM1.28361 22.08C1.28361 20.3332 1.50201 18.7802 1.93035 17.4149L0.879196 17.0851C0.411533 18.5758 0.181942 20.2428 0.181942 22.08H1.28361ZM1.93125 17.412C2.3612 16.0147 2.97357 14.8503 3.75994 13.9066L2.91361 13.2014C2.01998 14.2737 1.34435 15.5733 0.8783 17.088L1.93125 17.412ZM3.75994 13.9066C4.54545 12.964 5.49874 12.2457 6.6254 11.7478L6.18015 10.7402C4.89881 11.3063 3.8081 12.128 2.91361 13.2014L3.75994 13.9066ZM6.62114 11.7497C7.77357 11.2521 9.09737 10.9968 10.6028 10.9968V9.89517C8.97218 9.89517 7.49598 10.1719 6.1844 10.7383L6.62114 11.7497ZM10.6028 10.9968C11.4365 10.9968 12.1602 11.0777 12.7792 11.2324L13.0464 10.1636C12.3213 9.98235 11.505 9.89517 10.6028 9.89517V10.9968ZM12.7842 11.2336C13.4503 11.3935 14.1192 11.6206 14.7909 11.9162L15.2346 10.9078C14.5064 10.5874 13.7752 10.3385 13.0413 10.1624L12.7842 11.2336ZM15.5636 11.412V1.416H14.4619V11.412H15.5636ZM15.1004 1.95982L21.3584 0.951822L21.1832 -0.135824L14.9252 0.872175L15.1004 1.95982ZM20.7199 0.407999V32.286H21.8216V0.407999H20.7199ZM26.9624 16.998L26.4537 16.7868L26.4517 16.7917L26.9624 16.998ZM29.3564 13.302L28.9669 12.9125L29.3564 13.302ZM32.7164 11.076L32.5157 10.563L32.5119 10.5646L32.7164 11.076ZM44.0984 13.218L43.6975 13.5957L43.7002 13.5986L44.0984 13.218ZM46.7864 22.878L47.3361 22.9146L47.3362 22.9124L46.7864 22.878ZM46.7024 24.012V24.5628H47.2093L47.2514 24.0577L46.7024 24.012ZM32.5064 24.012V23.4612H31.8925L31.9588 24.0715L32.5064 24.012ZM34.3124 27.078L33.9934 27.527L34.3124 27.078ZM41.9564 27.918L42.0538 28.4603L42.0645 28.4581L41.9564 27.918ZM44.6864 27.12L45.2299 27.0302L45.1142 26.33L44.4646 26.6158L44.6864 27.12ZM45.5264 32.202L45.7728 32.6947L46.1361 32.513L46.0699 32.1122L45.5264 32.202ZM44.1824 32.706L44.0241 32.1784L44.1824 32.706ZM42.2924 33.126L42.2054 32.5821L42.1927 32.5841L42.1801 32.5867L42.2924 33.126ZM40.1084 33.462L40.1671 34.0097L40.1084 33.462ZM32.5484 32.706L32.3422 33.2168L32.3455 33.2181L32.5484 32.706ZM28.8944 30.312L28.4888 30.6847L28.4941 30.6904L28.4995 30.696L28.8944 30.312ZM26.7524 26.658L26.2277 26.8259L26.2309 26.8353L26.7524 26.658ZM40.7804 19.728V20.2788H41.361L41.3305 19.699L40.7804 19.728ZM40.4864 18.174L39.9557 18.3214L39.9594 18.3349L39.9639 18.3482L40.4864 18.174ZM39.7724 16.83L39.3393 17.1703L39.3466 17.1796L39.3542 17.1885L39.7724 16.83ZM38.5544 15.864L38.2966 16.351L38.3081 16.3567L38.5544 15.864ZM34.9424 15.864L35.1661 16.3674L35.1776 16.3623L35.1888 16.3567L34.9424 15.864ZM32.8844 18.174L32.3676 17.9836L32.3646 17.9916L32.3619 17.9998L32.8844 18.174ZM32.5064 19.728L31.9623 19.6421L31.8618 20.2788H32.5064V19.728ZM26.6313 22.122C26.6313 20.2158 26.9173 18.5807 27.4732 17.2043L26.4517 16.7917C25.8315 18.3273 25.5296 20.1082 25.5296 22.122H26.6313ZM27.4712 17.2092C28.0639 15.7814 28.8244 14.613 29.7459 13.6915L28.9669 12.9125C27.9284 13.951 27.093 15.2466 26.4537 16.7868L27.4712 17.2092ZM29.7459 13.6915C30.6743 12.7631 31.7318 12.0631 32.921 11.5874L32.5119 10.5646C31.1811 11.0969 29.9985 11.8809 28.9669 12.9125L29.7459 13.6915ZM32.9172 11.589C34.1431 11.1092 35.3911 10.8708 36.6644 10.8708V9.76917C35.2497 9.76917 33.8658 10.0348 32.5157 10.563L32.9172 11.589ZM36.6644 10.8708C39.6786 10.8708 42.0004 11.7942 43.6975 13.5957L44.4994 12.8403C42.5564 10.7778 39.9223 9.76917 36.6644 9.76917V10.8708ZM43.7002 13.5986C45.388 15.3642 46.2776 18.0189 46.2776 21.66H47.3793C47.3793 17.8531 46.4489 14.8798 44.4966 12.8374L43.7002 13.5986ZM46.2776 21.66C46.2776 22.0103 46.2641 22.4046 46.2367 22.8436L47.3362 22.9124C47.3647 22.4554 47.3793 22.0377 47.3793 21.66H46.2776ZM46.2368 22.8414C46.209 23.259 46.1812 23.6339 46.1535 23.9663L47.2514 24.0577C47.2797 23.7181 47.3079 23.337 47.336 22.9146L46.2368 22.8414ZM46.7024 23.4612H32.5064V24.5628H46.7024V23.4612ZM31.9588 24.0715C32.116 25.5174 32.8021 26.6806 33.9934 27.527L34.6315 26.629C33.6947 25.9634 33.1769 25.0826 33.054 23.9525L31.9588 24.0715ZM33.9934 27.527C35.1796 28.3699 36.7317 28.7628 38.5964 28.7628V27.6612C36.8771 27.6612 35.5733 27.2981 34.6315 26.629L33.9934 27.527ZM38.5964 28.7628C39.7759 28.7628 40.9285 28.6621 42.0537 28.4602L41.8591 27.3758C40.8003 27.5659 39.7129 27.6612 38.5964 27.6612V28.7628ZM42.0645 28.4581C43.2064 28.2297 44.1586 27.954 44.9083 27.6242L44.4646 26.6158C43.8143 26.902 42.9464 27.1583 41.8484 27.3779L42.0645 28.4581ZM44.143 27.2098L44.983 32.2918L46.0699 32.1122L45.2299 27.0302L44.143 27.2098ZM45.2801 31.7093C44.9834 31.8577 44.5686 32.0151 44.0241 32.1784L44.3407 33.2336C44.9163 33.0609 45.3974 32.8823 45.7728 32.6947L45.2801 31.7093ZM44.0241 32.1784C43.4918 32.3381 42.8862 32.4732 42.2054 32.5821L42.3795 33.6699C43.0987 33.5548 43.7531 33.4099 44.3407 33.2336L44.0241 32.1784ZM42.1801 32.5867C41.5282 32.7226 40.8183 32.832 40.0498 32.9143L40.1671 34.0097C40.9665 33.924 41.7127 33.8094 42.4048 33.6653L42.1801 32.5867ZM40.0498 32.9143C39.2851 32.9962 38.5207 33.0372 37.7564 33.0372V34.1388C38.5601 34.1388 39.3637 34.0958 40.1671 34.0097L40.0498 32.9143ZM37.7564 33.0372C35.8215 33.0372 34.157 32.7509 32.7513 32.1939L32.3455 33.2181C33.9078 33.8371 35.7154 34.1388 37.7564 34.1388V33.0372ZM32.7547 32.1952C31.3614 31.6326 30.2101 30.875 29.2894 29.928L28.4995 30.696C29.5388 31.765 30.8235 32.6034 32.3422 33.2168L32.7547 32.1952ZM29.3 29.9393C28.4025 28.9625 27.7266 27.812 27.2739 26.4807L26.2309 26.8353C26.7303 28.304 27.4824 29.5895 28.4888 30.6847L29.3 29.9393ZM27.2771 26.4901C26.8481 25.1498 26.6313 23.6949 26.6313 22.122H25.5296C25.5296 23.7971 25.7607 25.3662 26.2278 26.8259L27.2771 26.4901ZM41.3305 19.699C41.2999 19.1178 41.1927 18.5509 41.009 17.9998L39.9639 18.3482C40.1162 18.8051 40.205 19.2742 40.2304 19.757L41.3305 19.699ZM41.0172 18.0266C40.8559 17.4459 40.5799 16.9256 40.1907 16.4715L39.3542 17.1885C39.637 17.5184 39.837 17.8941 39.9557 18.3214L41.0172 18.0266ZM40.2056 16.4897C39.8411 16.0259 39.368 15.6549 38.8008 15.3713L38.3081 16.3567C38.7489 16.5771 39.0877 16.8501 39.3393 17.1703L40.2056 16.4897ZM38.8122 15.3772C38.2338 15.071 37.5361 14.9352 36.7484 14.9352V16.0368C37.4168 16.0368 37.9231 16.153 38.2967 16.3508L38.8122 15.3772ZM36.7484 14.9352C35.9832 14.9352 35.2929 15.0729 34.6961 15.3713L35.1888 16.3567C35.6 16.1511 36.1137 16.0368 36.7484 16.0368V14.9352ZM34.7187 15.3606C34.1451 15.6156 33.6571 15.9712 33.2642 16.4295L34.1007 17.1465C34.3798 16.8208 34.7317 16.5604 35.1661 16.3674L34.7187 15.3606ZM33.2642 16.4295C32.8816 16.8759 32.584 17.3962 32.3676 17.9836L33.4013 18.3644C33.5769 17.8878 33.8112 17.4841 34.1007 17.1465L33.2642 16.4295ZM32.3619 17.9998C32.1841 18.533 32.051 19.0805 31.9623 19.6421L33.0505 19.8139C33.1299 19.3115 33.2487 18.823 33.407 18.3482L32.3619 17.9998ZM32.5064 20.2788H40.7804V19.1772H32.5064V20.2788ZM60.4358 28.17L60.6703 28.6684L60.4358 28.17ZM60.2258 25.566L59.93 26.0307L59.9377 26.0356L59.9455 26.0402L60.2258 25.566ZM57.4118 24.264L57.6064 23.7487L57.6036 23.7476L57.4118 24.264ZM54.7238 23.13L54.4774 23.6227L54.4843 23.6261L54.7238 23.13ZM52.7078 21.744L52.3181 22.1336L52.3284 22.1434L52.7078 21.744ZM51.4058 19.77L51.9159 19.5622L51.4058 19.77ZM53.2538 12.126L53.593 12.5599L53.2538 12.126ZM63.4598 10.698L63.3494 11.2378L63.3612 11.2399L63.4598 10.698ZM66.3998 11.454L66.9373 11.5745L67.0413 11.1106L66.5975 10.9399L66.3998 11.454ZM65.3078 16.326L65.1276 16.8465L65.7104 17.0483L65.8453 16.4465L65.3078 16.326ZM62.9138 15.654L62.7886 16.1904L62.7924 16.1913L62.9138 15.654ZM57.7478 18.258L57.4096 18.6928L57.4255 18.7052L57.4422 18.7163L57.7478 18.258ZM58.7558 18.846L58.4966 19.332L58.5154 19.3421L58.535 19.3507L58.7558 18.846ZM60.4358 19.518L60.2424 20.0338L60.2458 20.035L60.4358 19.518ZM63.8378 21.03L63.5676 21.5102L63.5793 21.5164L63.8378 21.03ZM65.9378 22.626L65.5196 22.9845L65.5287 22.9952L65.5384 23.0054L65.9378 22.626ZM67.0298 24.516L66.4993 24.6645L66.5021 24.6743L66.5051 24.6839L67.0298 24.516ZM64.8878 31.908L64.5787 31.4521L64.5751 31.4545L64.8878 31.908ZM53.0438 33.084L52.9047 33.617L52.9075 33.6177L53.0438 33.084ZM50.3558 32.244L49.8163 32.1325L49.7265 32.5671L50.1321 32.7474L50.3558 32.244ZM51.4058 27.162L51.608 26.6496L50.9988 26.4092L50.8663 27.0505L51.4058 27.162ZM54.6818 28.17L54.5608 28.7076L54.5737 28.7101L54.6818 28.17ZM57.9998 29.0568C59.155 29.0568 60.075 28.9485 60.6703 28.6684L60.2012 27.6716C59.8445 27.8395 59.1405 27.9552 57.9998 27.9552V29.0568ZM60.6703 28.6684C61.0067 28.5101 61.2756 28.2671 61.4543 27.9414C61.6292 27.6224 61.7006 27.2555 61.7006 26.868H60.5989C60.5989 27.1245 60.5514 27.2966 60.4883 27.4116C60.4289 27.5199 60.3408 27.6059 60.2012 27.6716L60.6703 28.6684ZM61.7006 26.868C61.7006 26.0931 61.2118 25.5088 60.506 25.0918L59.9455 26.0402C60.4717 26.3512 60.5989 26.6349 60.5989 26.868H61.7006ZM60.5215 25.1013C59.8574 24.6787 58.8775 24.2289 57.6064 23.7487L57.2171 24.7793C58.4661 25.2511 59.3621 25.6693 59.93 26.0307L60.5215 25.1013ZM57.6036 23.7476C56.6373 23.3887 55.7575 23.0174 54.9632 22.6339L54.4843 23.6261C55.3141 24.0266 56.2263 24.4113 57.22 24.7804L57.6036 23.7476ZM54.9701 22.6373C54.2284 22.2665 53.6028 21.8345 53.0872 21.3446L52.3284 22.1434C52.9328 22.7175 53.6512 23.2095 54.4774 23.6227L54.9701 22.6373ZM53.0973 21.3545C52.5908 20.848 52.1971 20.2523 51.9159 19.5622L50.8957 19.9778C51.2305 20.7997 51.7048 21.52 52.3183 22.1335L53.0973 21.3545ZM51.9159 19.5622C51.6416 18.8889 51.4946 18.0533 51.4946 17.04H50.3929C50.3929 18.1547 50.554 19.1391 50.8957 19.9778L51.9159 19.5622ZM51.4946 17.04C51.4946 15.1257 52.1956 13.6525 53.593 12.5599L52.9145 11.692C51.232 13.0075 50.3929 14.8103 50.3929 17.04H51.4946ZM53.593 12.5599C55.0055 11.4556 56.9852 10.8708 59.5958 10.8708V9.76917C56.8303 9.76917 54.582 10.3884 52.9145 11.692L53.593 12.5599ZM59.5958 10.8708C60.9052 10.8708 62.1561 10.9936 63.3494 11.2377L63.5702 10.1583C62.2994 9.89842 60.9743 9.76917 59.5958 9.76917V10.8708ZM63.3612 11.2399C64.577 11.461 65.5194 11.7056 66.202 11.9681L66.5975 10.9399C65.8241 10.6424 64.8065 10.383 63.5583 10.1561L63.3612 11.2399ZM65.8623 11.3335L64.7703 16.2055L65.8453 16.4465L66.9373 11.5745L65.8623 11.3335ZM65.488 15.8055C64.738 15.5459 63.92 15.3165 63.0351 15.1167L62.7924 16.1913C63.6435 16.3835 64.4216 16.6021 65.1276 16.8465L65.488 15.8055ZM63.0389 15.1176C62.1497 14.9101 61.1545 14.8092 60.0578 14.8092V15.9108C61.089 15.9108 61.9979 16.0059 62.7886 16.1904L63.0389 15.1176ZM60.0578 14.8092C59.0447 14.8092 58.197 14.9471 57.5847 15.2883C57.2702 15.4635 57.009 15.6974 56.8288 15.9986C56.6482 16.3005 56.5669 16.64 56.5669 16.998H57.6686C57.6686 16.81 57.7099 16.6717 57.7742 16.5642C57.839 16.4559 57.9454 16.3485 58.1209 16.2507C58.4885 16.0459 59.1109 15.9108 60.0578 15.9108V14.8092ZM56.5669 16.998C56.5669 17.3112 56.6193 17.6111 56.7375 17.887L57.7501 17.453C57.7003 17.3369 57.6686 17.1888 57.6686 16.998H56.5669ZM56.7375 17.887C56.872 18.2008 57.1178 18.4658 57.4096 18.6928L58.086 17.8232C57.8738 17.6582 57.7836 17.5312 57.7501 17.453L56.7375 17.887ZM57.4422 18.7163C57.7151 18.8983 58.0685 19.1037 58.4966 19.332L59.015 18.36C58.603 18.1403 58.2844 17.9537 58.0533 17.7997L57.4422 18.7163ZM58.535 19.3507C58.9951 19.552 59.565 19.7797 60.2424 20.0338L60.6292 19.0022C59.9626 18.7523 59.4124 18.532 58.9766 18.3414L58.535 19.3507ZM60.2458 20.035C61.6007 20.5328 62.7056 21.0251 63.5677 21.5101L64.1078 20.5499C63.1779 20.0269 62.0148 19.5112 60.6257 19.0009L60.2458 20.035ZM63.5793 21.5164C64.4324 21.9697 65.0719 22.4622 65.5196 22.9845L66.356 22.2675C65.7957 21.6138 65.0351 21.0424 64.0962 20.5435L63.5793 21.5164ZM65.5384 23.0054C66.0125 23.5045 66.3291 24.0564 66.4993 24.6645L67.5602 24.3675C67.3385 23.5756 66.927 22.8675 66.3371 22.2466L65.5384 23.0054ZM66.5051 24.6839C66.708 25.3177 66.8149 26.071 66.8149 26.952H67.9166C67.9166 25.985 67.7996 25.1143 67.5544 24.3481L66.5051 24.6839ZM66.8149 26.952C66.8149 28.9736 66.0634 30.4454 64.5787 31.4521L65.1969 32.3639C67.0161 31.1306 67.9166 29.2984 67.9166 26.952H66.8149ZM64.5751 31.4545C63.0794 32.4861 60.8964 33.0372 57.9578 33.0372V34.1388C61.0112 34.1388 63.4482 33.5699 65.2005 32.3615L64.5751 31.4545ZM57.9578 33.0372C56.0253 33.0372 54.4367 32.8711 53.18 32.5503L52.9075 33.6177C54.2829 33.9689 55.9702 34.1388 57.9578 34.1388V33.0372ZM53.1828 32.551C51.8947 32.215 51.0381 31.9445 50.5795 31.7406L50.1321 32.7474C50.6815 32.9915 51.6168 33.281 52.9047 33.617L53.1828 32.551ZM50.8952 32.3555L51.9452 27.2735L50.8663 27.0505L49.8163 32.1325L50.8952 32.3555ZM51.2035 27.6744C52.294 28.1048 53.4132 28.4492 54.5609 28.7074L54.8027 27.6326C53.7103 27.3868 52.6455 27.0592 51.608 26.6496L51.2035 27.6744ZM54.5737 28.7101C55.7277 28.9409 56.8699 29.0568 57.9998 29.0568V27.9552C56.9457 27.9552 55.8759 27.8471 54.7898 27.6299L54.5737 28.7101ZM78.3005 33V33.5508H78.8514V33H78.3005ZM72.0425 33H71.4917V33.5508H72.0425V33ZM72.0425 10.908V10.3572H71.4917V10.908H72.0425ZM78.3005 10.908H78.8514V10.3572H78.3005V10.908ZM77.7545 7.254L78.1195 7.66657L78.1205 7.6657L77.7545 7.254ZM72.5045 7.254L72.1309 7.65875L72.139 7.6662L72.1473 7.67332L72.5045 7.254ZM72.5045 1.836L72.8695 2.24857L72.8705 2.2477L72.5045 1.836ZM77.7545 1.836L77.3809 2.24075L77.389 2.2482L77.3973 2.25532L77.7545 1.836ZM78.3005 32.4492H72.0425V33.5508H78.3005V32.4492ZM72.5934 33V10.908H71.4917V33H72.5934ZM72.0425 11.4588H78.3005V10.3572H72.0425V11.4588ZM77.7497 10.908V33H78.8514V10.908H77.7497ZM78.3377 4.524C78.3377 5.53823 78.0105 6.28953 77.3886 6.8423L78.1205 7.6657C79.0106 6.87447 79.4394 5.80577 79.4394 4.524H78.3377ZM77.3896 6.84143C76.7663 7.39279 76.0295 7.66916 75.1505 7.66916V8.77083C76.2875 8.77083 77.2868 8.40321 78.1195 7.66657L77.3896 6.84143ZM75.1505 7.66916C74.2713 7.66916 73.5165 7.3924 72.8617 6.83468L72.1473 7.67332C73.0046 8.40359 74.0138 8.77083 75.1505 8.77083V7.66916ZM72.8782 6.84925C72.2814 6.29838 71.9634 5.54501 71.9634 4.524H70.8617C70.8617 5.79899 71.2717 6.86562 72.1309 7.65875L72.8782 6.84925ZM71.9634 4.524C71.9634 3.50243 72.2813 2.76889 72.8695 2.24857L72.1396 1.42343C71.2718 2.1911 70.8617 3.24956 70.8617 4.524H71.9634ZM72.8705 2.2477C73.526 1.66498 74.278 1.37883 75.1505 1.37883V0.277164C74.0071 0.277164 72.995 0.663017 72.1386 1.4243L72.8705 2.2477ZM75.1505 1.37883C76.0227 1.37883 76.7566 1.66447 77.3809 2.24075L78.1282 1.43124C77.2965 0.663523 76.2943 0.277164 75.1505 0.277164V1.37883ZM77.3973 2.25532C78.0107 2.77778 78.3377 3.5094 78.3377 4.524H79.4394C79.4394 3.24259 79.0104 2.18222 78.1117 1.41668L77.3973 2.25532ZM95.5652 26.238L95.4069 25.7104L95.5652 26.238ZM96.9932 25.65L97.2664 26.1283L97.544 25.9697V25.65H96.9932ZM96.9932 15.654H97.544V15.1943L97.0917 15.112L96.9932 15.654ZM95.9012 15.528L95.8284 16.074L95.8464 16.0764L95.8645 16.0776L95.9012 15.528ZM90.7352 17.082L90.2931 16.7533L90.7352 17.082ZM100.479 38.25L100.102 37.8485L100.096 37.8545L100.479 38.25ZM87.9632 40.518L88.0647 39.9765L88.0537 39.9747L87.9632 40.518ZM84.2252 39.594L83.6859 39.4818L83.5868 39.9581L84.0472 40.1153L84.2252 39.594ZM85.3172 34.344L85.5217 33.8326L84.9117 33.5885L84.7779 34.2318L85.3172 34.344ZM88.3832 35.268L88.2697 35.807L88.2725 35.8076L88.3832 35.268ZM95.8592 34.428L95.4626 34.0456L95.4555 34.0532L95.8592 34.428ZM96.9932 30.606H97.544V29.7476L96.7637 30.1053L96.9932 30.606ZM94.8932 31.32L95.0012 31.8601L95.0091 31.8585L95.017 31.8567L94.8932 31.32ZM85.5692 28.842L85.1581 29.2087L85.161 29.2119L85.5692 28.842ZM83.8892 16.83L84.4036 17.027L84.4049 17.0234L83.8892 16.83ZM86.0732 13.386L85.6893 12.9909L85.6837 12.9965L86.0732 13.386ZM89.6432 11.202L89.8298 11.7204L89.8388 11.7169L89.6432 11.202ZM96.6992 10.53L96.6405 11.0777L96.6509 11.0788L96.6613 11.0795L96.6992 10.53ZM101.319 11.202L101.191 11.7376L101.203 11.7405L101.215 11.7429L101.319 11.202ZM103.251 11.664H103.802V11.2542L103.409 11.1364L103.251 11.664ZM88.9663 21.24C88.9663 23.0498 89.3296 24.5093 90.1492 25.5237C90.987 26.5605 92.2255 27.0408 93.7592 27.0408V25.9392C92.4649 25.9392 91.5823 25.5445 91.0061 24.8313C90.4118 24.0957 90.068 22.9302 90.068 21.24H88.9663ZM93.7592 27.0408C94.4514 27.0408 95.1072 26.9505 95.7234 26.7656L95.4069 25.7104C94.9032 25.8615 94.3549 25.9392 93.7592 25.9392V27.0408ZM95.7234 26.7656C96.3125 26.5889 96.8293 26.3781 97.2664 26.1283L96.7199 25.1717C96.373 25.3699 95.9379 25.5511 95.4069 25.7104L95.7234 26.7656ZM97.544 25.65V15.654H96.4423V25.65H97.544ZM97.0917 15.112C96.7576 15.0513 96.372 15.0073 95.9378 14.9784L95.8645 16.0776C96.2703 16.1047 96.6127 16.1447 96.8946 16.1959L97.0917 15.112ZM95.974 14.982C95.5236 14.9219 95.0083 14.8932 94.4312 14.8932V15.9948C94.9741 15.9948 95.4387 16.0221 95.8284 16.074L95.974 14.982ZM94.4312 14.8932C92.6468 14.8932 91.2317 15.4911 90.2931 16.7533L91.1772 17.4107C91.8626 16.4889 92.9115 15.9948 94.4312 15.9948V14.8932ZM90.2931 16.7533C89.3953 17.9608 88.9663 19.4699 88.9663 21.24H90.068C90.068 19.6501 90.451 18.3872 91.1772 17.4107L90.2931 16.7533ZM102.7 30.228C102.7 33.7537 101.799 36.2544 100.102 37.8485L100.856 38.6515C102.855 36.7736 103.802 33.9263 103.802 30.228H102.7ZM100.096 37.8545C98.4207 39.478 95.7601 40.3452 91.9952 40.3452V41.4468C95.9023 41.4468 98.8976 40.55 100.863 38.6455L100.096 37.8545ZM91.9952 40.3452C90.6858 40.3452 89.3758 40.2224 88.0647 39.9766L87.8616 41.0594C89.2385 41.3176 90.6165 41.4468 91.9952 41.4468V40.3452ZM88.0537 39.9747C86.7359 39.755 85.5194 39.4539 84.4032 39.0727L84.0472 40.1153C85.2269 40.5181 86.5025 40.833 87.8726 41.0613L88.0537 39.9747ZM84.7645 39.7062L85.8565 34.4562L84.7779 34.2318L83.6859 39.4818L84.7645 39.7062ZM85.1126 34.8554C86.123 35.2596 87.1755 35.5767 88.2697 35.807L88.4966 34.729C87.4628 34.5113 86.4714 34.2124 85.5217 33.8326L85.1126 34.8554ZM88.2725 35.8076C89.4081 36.0405 90.6781 36.1548 92.0792 36.1548V35.0532C90.7362 35.0532 89.5422 34.9435 88.4939 34.7284L88.2725 35.8076ZM92.0792 36.1548C93.9257 36.1548 95.3785 35.7552 96.2628 34.8028L95.4555 34.0532C94.8839 34.6688 93.8167 35.0532 92.0792 35.0532V36.1548ZM96.2557 34.8104C97.1239 33.91 97.544 32.7583 97.544 31.404H96.4423C96.4423 32.5137 96.1064 33.378 95.4626 34.0456L96.2557 34.8104ZM97.544 31.404V30.606H96.4423V31.404H97.544ZM96.7637 30.1053C96.1259 30.3975 95.4613 30.6236 94.7693 30.7833L95.017 31.8567C95.781 31.6804 96.5164 31.4305 97.2227 31.1067L96.7637 30.1053ZM94.7851 30.7799C94.1263 30.9116 93.3931 30.9792 92.5832 30.9792V32.0808C93.4533 32.0808 94.26 32.0084 95.0012 31.8601L94.7851 30.7799ZM92.5832 30.9792C89.6431 30.9792 87.4708 30.1201 85.9773 28.4721L85.161 29.2119C86.9155 31.1479 89.4193 32.0808 92.5832 32.0808V30.9792ZM85.9802 28.4753C84.4725 26.7857 83.684 24.3983 83.684 21.24H82.5823C82.5823 24.5777 83.4178 27.2583 85.1582 29.2087L85.9802 28.4753ZM83.684 21.24C83.684 19.6732 83.927 18.2713 84.4036 17.027L83.3748 16.633C82.8433 18.0207 82.5823 19.5588 82.5823 21.24H83.684ZM84.4049 17.0234C84.8832 15.7481 85.5699 14.6683 86.4627 13.7755L85.6837 12.9965C84.6724 14.0077 83.9032 15.2239 83.3734 16.6366L84.4049 17.0234ZM86.457 13.7811C87.3759 12.8884 88.4969 12.2001 89.8297 11.7203L89.4566 10.6837C87.9895 11.2119 86.7304 11.9796 85.6894 12.9909L86.457 13.7811ZM89.8388 11.7169C91.1663 11.2125 92.6804 10.9548 94.3892 10.9548V9.85316C92.57 9.85316 90.92 10.1275 89.4475 10.6871L89.8388 11.7169ZM94.3892 10.9548C95.1247 10.9548 95.8751 10.9957 96.6405 11.0777L96.7578 9.9823C95.9552 9.8963 95.1656 9.85316 94.3892 9.85316V10.9548ZM96.6613 11.0795C97.4603 11.1346 98.2449 11.2172 99.0153 11.3273L99.1711 10.2367C98.3734 10.1228 97.5621 10.0374 96.7371 9.98047L96.6613 11.0795ZM99.0153 11.3273C99.7839 11.4371 100.509 11.574 101.191 11.7376L101.448 10.6664C100.729 10.494 99.9704 10.3509 99.1711 10.2367L99.0153 11.3273ZM101.215 11.7429C101.929 11.8803 102.555 12.0301 103.093 12.1916L103.409 11.1364C102.828 10.9618 102.165 10.8037 101.423 10.6611L101.215 11.7429ZM102.7 11.664V30.228H103.802V11.664H102.7ZM109.121 11.664L108.967 11.1349L108.57 11.25V11.664H109.121ZM113.237 10.824L113.318 11.3688L113.327 11.3673L113.237 10.824ZM123.191 11.16L122.982 11.6698L122.989 11.6726L122.996 11.6753L123.191 11.16ZM126.173 13.218L125.745 13.5654L126.173 13.218ZM127.727 16.41L127.192 16.5436V16.5436L127.727 16.41ZM128.189 33V33.5508H128.74V33H128.189ZM121.931 33H121.38V33.5508H121.931V33ZM121.133 16.998L120.667 17.2927L121.133 16.998ZM116.723 15.822L116.753 16.372L116.768 16.3711L116.783 16.3695L116.723 15.822ZM115.379 15.948L115.301 15.4027L114.828 15.4703V15.948H115.379ZM115.379 33V33.5508H115.93V33H115.379ZM109.121 33H108.57V33.5508H109.121V33ZM109.274 12.1931C110.306 11.8945 111.651 11.6188 113.318 11.3687L113.155 10.2793C111.462 10.5332 110.064 10.8175 108.967 11.1349L109.274 12.1931ZM113.327 11.3673C114.975 11.0927 116.708 10.9548 118.529 10.9548V9.85316C116.653 9.85316 114.858 9.99527 113.146 10.2807L113.327 11.3673ZM118.529 10.9548C120.36 10.9548 121.837 11.2016 122.982 11.6698L123.399 10.6502C122.08 10.1104 120.449 9.85316 118.529 9.85316V10.9548ZM122.996 11.6753C124.18 12.1227 125.088 12.7567 125.745 13.5654L126.6 12.8706C125.801 11.8873 124.721 11.1493 123.385 10.6447L122.996 11.6753ZM125.745 13.5654C126.417 14.3927 126.902 15.3819 127.192 16.5436L128.261 16.2764C127.935 14.9741 127.384 13.8353 126.6 12.8706L125.745 13.5654ZM127.192 16.5436C127.488 17.7245 127.638 19.0508 127.638 20.526H128.74C128.74 18.9772 128.582 17.5595 128.261 16.2764L127.192 16.5436ZM127.638 20.526V33H128.74V20.526H127.638ZM128.189 32.4492H121.931V33.5508H128.189V32.4492ZM122.482 33V21.282H121.38V33H122.482ZM122.482 21.282C122.482 19.2492 122.219 17.684 121.598 16.7033L120.667 17.2927C121.11 17.992 121.38 19.2828 121.38 21.282H122.482ZM121.598 16.7033C120.923 15.6376 119.701 15.1872 118.151 15.1872V16.2888C119.513 16.2888 120.278 16.6784 120.667 17.2927L121.598 16.7033ZM118.151 15.1872C117.68 15.1872 117.183 15.2166 116.662 15.2745L116.783 16.3695C117.27 16.3154 117.725 16.2888 118.151 16.2888V15.1872ZM116.692 15.272C116.176 15.3007 115.712 15.3439 115.301 15.4027L115.457 16.4933C115.829 16.4401 116.261 16.3993 116.753 16.372L116.692 15.272ZM114.828 15.948V33H115.93V15.948H114.828ZM115.379 32.4492H109.121V33.5508H115.379V32.4492ZM109.671 33V11.664H108.57V33H109.671ZM143.733 5.406L143.645 4.86217L143.182 4.93679V5.406H143.733ZM149.991 4.398H150.542V3.75134L149.903 3.85417L149.991 4.398ZM149.991 10.908H149.44V11.4588H149.991V10.908ZM157.509 10.908H158.06V10.3572H157.509V10.908ZM157.509 16.116V16.6668H158.06V16.116H157.509ZM149.991 16.116V15.5652H149.44V16.116H149.991ZM150.663 27.036L150.185 27.3093L150.188 27.3156L150.192 27.3219L150.663 27.036ZM155.535 28.044L155.622 28.5879L155.63 28.5866L155.639 28.5849L155.535 28.044ZM157.509 27.498L158.051 27.3999L157.933 26.7471L157.313 26.9833L157.509 27.498ZM158.391 32.37L158.599 32.8801L159.013 32.7115L158.933 32.2719L158.391 32.37ZM155.871 33.168L155.741 32.6327L155.871 33.168ZM148.227 32.832L148.011 33.3391L148.022 33.3434L148.227 32.832ZM145.539 30.9L145.109 31.2442L145.115 31.2512L145.539 30.9ZM144.111 27.876L143.572 27.9914L143.575 28.0036L144.111 27.876ZM143.821 5.94982L150.079 4.94182L149.903 3.85417L143.645 4.86217L143.821 5.94982ZM149.44 4.398V10.908H150.542V4.398H149.44ZM149.991 11.4588H157.509V10.3572H149.991V11.4588ZM156.958 10.908V16.116H158.06V10.908H156.958ZM157.509 15.5652H149.991V16.6668H157.509V15.5652ZM149.44 16.116V23.886H150.542V16.116H149.44ZM149.44 23.886C149.44 25.2569 149.672 26.4125 150.185 27.3093L151.141 26.7627C150.758 26.0915 150.542 25.1471 150.542 23.886H149.44ZM150.192 27.3219C150.814 28.3456 151.993 28.7628 153.477 28.7628V27.6612C152.161 27.6612 151.464 27.2944 151.134 26.7501L150.192 27.3219ZM153.477 28.7628C154.18 28.7628 154.895 28.7043 155.622 28.5879L155.448 27.5001C154.775 27.6077 154.118 27.6612 153.477 27.6612V28.7628ZM155.639 28.5849C156.393 28.4399 157.082 28.2499 157.705 28.0127L157.313 26.9833C156.759 27.1941 156.133 27.3681 155.431 27.5031L155.639 28.5849ZM156.967 27.5961L157.849 32.4681L158.933 32.2719L158.051 27.3999L156.967 27.5961ZM158.183 31.8599C157.456 32.156 156.643 32.4141 155.741 32.6327L156.001 33.7033C156.947 33.4739 157.814 33.2 158.599 32.8801L158.183 31.8599ZM155.741 32.6327C154.873 32.8431 153.786 32.9532 152.469 32.9532V34.0548C153.84 34.0548 155.021 33.9409 156.001 33.7033L155.741 32.6327ZM152.469 32.9532C150.804 32.9532 149.465 32.7341 148.432 32.3206L148.022 33.3434C149.228 33.8259 150.718 34.0548 152.469 34.0548V32.9532ZM148.442 32.3251C147.391 31.8782 146.571 31.2831 145.963 30.5488L145.115 31.2512C145.851 32.1409 146.823 32.8338 148.011 33.3389L148.442 32.3251ZM145.969 30.5559C145.354 29.7868 144.91 28.8552 144.647 27.7484L143.575 28.0036C143.872 29.2488 144.38 30.3332 145.109 31.2441L145.969 30.5559ZM144.65 27.7606C144.407 26.6288 144.284 25.3662 144.284 23.97H143.182C143.182 25.4298 143.311 26.7712 143.572 27.9914L144.65 27.7606ZM144.284 23.97V5.406H143.182V23.97H144.284ZM181.693 26.7L182.212 26.8833L182.213 26.8802L181.693 26.7ZM179.509 30.396L179.909 30.7743L179.914 30.7687L179.509 30.396ZM176.065 32.748L175.853 32.2395L175.849 32.2411L176.065 32.748ZM167.161 32.748L166.945 33.2549L166.949 33.2565L167.161 32.748ZM163.759 30.396L163.353 30.7687L163.358 30.7742L163.759 30.396ZM161.533 26.7L161.015 26.889L161.017 26.8923L161.533 26.7ZM161.533 17.166L161.02 16.9649L161.017 16.9737L161.533 17.166ZM163.801 13.512L163.406 13.128L163.4 13.1338L163.801 13.512ZM167.245 11.16L167.033 10.6515L167.029 10.6531L167.245 11.16ZM175.981 11.16L175.765 11.6669L175.769 11.6685L175.981 11.16ZM179.425 13.512L179.024 13.8902L179.425 13.512ZM181.651 17.166L181.135 17.3583L181.651 17.166ZM174.889 17.376L174.432 17.6842L174.437 17.6908L174.441 17.6973L174.889 17.376ZM168.295 17.376L168.742 17.6973L168.746 17.6919L168.295 17.376ZM168.295 26.532L167.84 26.8427L167.843 26.8479L168.295 26.532ZM174.889 26.532L174.434 26.2213L174.432 26.2238L174.889 26.532ZM181.898 21.912C181.898 23.5944 181.654 25.1286 181.172 26.5198L182.213 26.8802C182.74 25.3594 183 23.7016 183 21.912H181.898ZM181.173 26.5167C180.692 27.8799 180.001 29.0462 179.103 30.0233L179.914 30.7687C180.92 29.6738 181.685 28.3761 182.212 26.8833L181.173 26.5167ZM179.108 30.0178C178.212 30.9668 177.129 31.7077 175.853 32.2395L176.277 33.2565C177.688 32.6683 178.902 31.8412 179.909 30.7742L179.108 30.0178ZM175.849 32.2411C174.611 32.768 173.202 33.0372 171.613 33.0372V34.1388C173.327 34.1388 174.886 33.848 176.28 33.2549L175.849 32.2411ZM171.613 33.0372C170.053 33.0372 168.642 32.7685 167.373 32.2395L166.949 33.2565C168.367 33.8475 169.924 34.1388 171.613 34.1388V33.0372ZM167.376 32.2411C166.128 31.7099 165.057 30.9689 164.159 30.0178L163.358 30.7742C164.364 31.8391 165.562 32.6661 166.945 33.2549L167.376 32.2411ZM164.164 30.0233C163.264 29.0439 162.558 27.8746 162.049 26.5077L161.017 26.8923C161.571 28.3814 162.349 29.6761 163.353 30.7687L164.164 30.0233ZM162.05 26.511C161.543 25.1223 161.286 23.5912 161.286 21.912H160.184C160.184 23.7048 160.459 25.3657 161.015 26.889L162.05 26.511ZM161.286 21.912C161.286 20.2326 161.543 18.7168 162.049 17.3583L161.017 16.9737C160.459 18.4712 160.184 20.1194 160.184 21.912H161.286ZM162.046 17.3671C162.583 15.9978 163.303 14.8417 164.201 13.8902L163.4 13.1338C162.395 14.1983 161.603 15.4782 161.02 16.9649L162.046 17.3671ZM164.196 13.896C165.124 12.9414 166.211 12.1987 167.46 11.6668L167.029 10.6531C165.647 11.2413 164.438 12.0666 163.406 13.128L164.196 13.896ZM167.457 11.6685C168.728 11.1385 170.112 10.8708 171.613 10.8708V9.76917C169.978 9.76917 168.449 10.0615 167.033 10.6515L167.457 11.6685ZM171.613 10.8708C173.143 10.8708 174.525 11.1391 175.765 11.6669L176.196 10.6531C174.805 10.0609 173.274 9.76917 171.613 9.76917V10.8708ZM175.769 11.6685C177.045 12.2003 178.128 12.9412 179.024 13.8902L179.825 13.1338C178.818 12.0668 177.604 11.2397 176.193 10.6515L175.769 11.6685ZM179.024 13.8902C179.921 14.8395 180.626 15.9925 181.135 17.3583L182.167 16.9737C181.612 15.4835 180.833 14.2005 179.825 13.1338L179.024 13.8902ZM181.135 17.3583C181.641 18.7168 181.898 20.2326 181.898 21.912H183C183 20.1194 182.725 18.4712 182.167 16.9737L181.135 17.3583ZM176.616 21.912C176.616 19.9132 176.211 18.2733 175.336 17.0547L174.441 17.6973C175.134 18.6627 175.514 20.0468 175.514 21.912H176.616ZM175.345 17.0678C174.48 15.7861 173.211 15.1452 171.613 15.1452V16.2468C172.87 16.2468 173.785 16.7259 174.432 17.6842L175.345 17.0678ZM171.613 15.1452C170.014 15.1452 168.736 15.7853 167.843 17.0601L168.746 17.6919C169.422 16.7267 170.355 16.2468 171.613 16.2468V15.1452ZM167.847 17.0547C166.972 18.2733 166.568 19.9132 166.568 21.912H167.67C167.67 20.0468 168.049 18.6627 168.742 17.6973L167.847 17.0547ZM166.568 21.912C166.568 23.913 166.973 25.5738 167.84 26.8426L168.75 26.2214C168.048 25.1942 167.67 23.775 167.67 21.912H166.568ZM167.843 26.8479C168.736 28.1227 170.014 28.7628 171.613 28.7628V27.6612C170.355 27.6612 169.422 27.1813 168.746 26.2161L167.843 26.8479ZM171.613 28.7628C173.211 28.7628 174.48 28.1219 175.345 26.8402L174.432 26.2238C173.785 27.1821 172.87 27.6612 171.613 27.6612V28.7628ZM175.344 26.8426C176.21 25.5738 176.616 23.913 176.616 21.912H175.514C175.514 23.775 175.135 25.1942 174.434 26.2214L175.344 26.8426ZM207.204 26.7L207.724 26.8833L207.725 26.8802L207.204 26.7ZM205.02 30.396L205.421 30.7743L205.426 30.7687L205.02 30.396ZM201.576 32.748L201.365 32.2395L201.361 32.2411L201.576 32.748ZM192.672 32.748L192.457 33.2549L192.461 33.2565L192.672 32.748ZM189.27 30.396L188.865 30.7687L188.87 30.7742L189.27 30.396ZM187.044 26.7L186.527 26.889L186.528 26.8923L187.044 26.7ZM187.044 17.166L186.532 16.9649L186.528 16.9737L187.044 17.166ZM189.312 13.512L188.917 13.128L188.912 13.1338L189.312 13.512ZM192.756 11.16L192.545 10.6515L192.541 10.6531L192.756 11.16ZM201.492 11.16L201.277 11.6669L201.281 11.6685L201.492 11.16ZM204.936 13.512L204.536 13.8902L204.936 13.512ZM207.162 17.166L206.646 17.3583L207.162 17.166ZM200.4 17.376L199.944 17.6842L199.948 17.6908L199.953 17.6973L200.4 17.376ZM193.806 17.376L194.254 17.6973L194.258 17.6919L193.806 17.376ZM193.806 26.532L193.352 26.8427L193.355 26.8479L193.806 26.532ZM200.4 26.532L199.946 26.2213L199.944 26.2238L200.4 26.532ZM207.41 21.912C207.41 23.5944 207.165 25.1286 206.684 26.5198L207.725 26.8802C208.251 25.3594 208.511 23.7016 208.511 21.912H207.41ZM206.685 26.5167C206.204 27.8799 205.513 29.0462 204.615 30.0233L205.426 30.7687C206.432 29.6738 207.197 28.3761 207.724 26.8833L206.685 26.5167ZM204.62 30.0178C203.724 30.9668 202.641 31.7077 201.365 32.2395L201.788 33.2565C203.2 32.6683 204.413 31.8412 205.421 30.7742L204.62 30.0178ZM201.361 32.2411C200.123 32.768 198.714 33.0372 197.124 33.0372V34.1388C198.839 34.1388 200.398 33.848 201.792 33.2549L201.361 32.2411ZM197.124 33.0372C195.565 33.0372 194.154 32.7685 192.884 32.2395L192.461 33.2565C193.879 33.8475 195.436 34.1388 197.124 34.1388V33.0372ZM192.888 32.2411C191.64 31.7099 190.569 30.9689 189.671 30.0178L188.87 30.7742C189.876 31.8391 191.073 32.6661 192.457 33.2549L192.888 32.2411ZM189.676 30.0233C188.776 29.0439 188.07 27.8746 187.561 26.5077L186.528 26.8923C187.083 28.3814 187.861 29.6761 188.865 30.7687L189.676 30.0233ZM187.562 26.511C187.054 25.1223 186.797 23.5912 186.797 21.912H185.696C185.696 23.7048 185.97 25.3657 186.527 26.889L187.562 26.511ZM186.797 21.912C186.797 20.2326 187.055 18.7168 187.561 17.3583L186.528 16.9737C185.97 18.4712 185.696 20.1194 185.696 21.912H186.797ZM187.557 17.3671C188.094 15.9978 188.814 14.8417 189.713 13.8902L188.912 13.1338C187.907 14.1983 187.115 15.4782 186.532 16.9649L187.557 17.3671ZM189.707 13.896C190.635 12.9414 191.722 12.1987 192.972 11.6668L192.541 10.6531C191.159 11.2413 189.949 12.0666 188.917 13.128L189.707 13.896ZM192.968 11.6685C194.24 11.1385 195.624 10.8708 197.124 10.8708V9.76917C195.489 9.76917 193.961 10.0615 192.545 10.6515L192.968 11.6685ZM197.124 10.8708C198.655 10.8708 200.036 11.1391 201.277 11.6669L201.708 10.6531C200.316 10.0609 198.786 9.76917 197.124 9.76917V10.8708ZM201.281 11.6685C202.557 12.2003 203.64 12.9412 204.536 13.8902L205.337 13.1338C204.329 12.0668 203.116 11.2397 201.704 10.6515L201.281 11.6685ZM204.536 13.8902C205.433 14.8395 206.137 15.9925 206.646 17.3583L207.679 16.9737C207.123 15.4835 206.344 14.2005 205.337 13.1338L204.536 13.8902ZM206.646 17.3583C207.152 18.7168 207.41 20.2326 207.41 21.912H208.511C208.511 20.1194 208.236 18.4712 207.679 16.9737L206.646 17.3583ZM202.127 21.912C202.127 19.9132 201.723 18.2733 200.848 17.0547L199.953 17.6973C200.646 18.6627 201.026 20.0468 201.026 21.912H202.127ZM200.857 17.0678C199.992 15.7861 198.723 15.1452 197.124 15.1452V16.2468C198.382 16.2468 199.297 16.7259 199.944 17.6842L200.857 17.0678ZM197.124 15.1452C195.526 15.1452 194.248 15.7853 193.355 17.0601L194.258 17.6919C194.933 16.7267 195.867 16.2468 197.124 16.2468V15.1452ZM193.359 17.0547C192.484 18.2733 192.08 19.9132 192.08 21.912H193.181C193.181 20.0468 193.561 18.6627 194.254 17.6973L193.359 17.0547ZM192.08 21.912C192.08 23.913 192.485 25.5738 193.352 26.8426L194.261 26.2214C193.56 25.1942 193.181 23.775 193.181 21.912H192.08ZM193.355 26.8479C194.248 28.1227 195.526 28.7628 197.124 28.7628V27.6612C195.867 27.6612 194.933 27.1813 194.258 26.2161L193.355 26.8479ZM197.124 28.7628C198.723 28.7628 199.992 28.1219 200.857 26.8402L199.944 26.2238C199.297 27.1821 198.382 27.6612 197.124 27.6612V28.7628ZM200.855 26.8426C201.722 25.5738 202.127 23.913 202.127 21.912H201.026C201.026 23.775 200.647 25.1942 199.946 26.2214L200.855 26.8426ZM221.628 33.42L221.62 33.9708L222.092 33.978L222.171 33.5127L221.628 33.42ZM217.176 32.832L217.006 33.3559L217.01 33.3571L217.176 32.832ZM214.488 31.32L214.09 31.7011L214.099 31.7096L214.107 31.7177L214.488 31.32ZM213.144 28.926L212.608 29.0522L212.61 29.0616L212.613 29.0709L213.144 28.926ZM212.808 1.416L212.721 0.872175L212.257 0.946791V1.416H212.808ZM219.066 0.407999H219.617V-0.238659L218.979 -0.135824L219.066 0.407999ZM219.192 25.986L219.734 25.8845L219.192 25.986ZM219.654 27.12L219.209 27.444L219.218 27.4567L219.228 27.4688L219.654 27.12ZM220.704 27.876L220.925 27.3713L220.704 27.876ZM222.51 28.254L223.053 28.3467L223.155 27.7494L222.551 27.7047L222.51 28.254ZM221.637 32.8692C219.846 32.8417 218.421 32.6487 217.343 32.3069L217.01 33.3571C218.228 33.7433 219.77 33.9423 221.62 33.9708L221.637 32.8692ZM217.346 32.3081C216.285 31.9632 215.468 31.4958 214.869 30.9223L214.107 31.7177C214.853 32.4322 215.827 32.9728 217.006 33.3559L217.346 32.3081ZM214.886 30.9389C214.307 30.3352 213.904 29.6191 213.676 28.7811L212.613 29.0709C212.888 30.0809 213.381 30.9608 214.09 31.7011L214.886 30.9389ZM213.68 28.7998C213.468 27.8965 213.359 26.8758 213.359 25.734H212.257C212.257 26.9442 212.373 28.0515 212.608 29.0522L213.68 28.7998ZM213.359 25.734V1.416H212.257V25.734H213.359ZM212.896 1.95982L219.154 0.951822L218.979 -0.135824L212.721 0.872175L212.896 1.95982ZM218.515 0.407999V24.474H219.617V0.407999H218.515ZM218.515 24.474C218.515 25.0607 218.559 25.5995 218.651 26.0875L219.734 25.8845C219.657 25.4765 219.617 25.0073 219.617 24.474H218.515ZM218.651 26.0875C218.747 26.6003 218.928 27.0581 219.209 27.444L220.1 26.796C219.932 26.5659 219.805 26.2677 219.734 25.8845L218.651 26.0875ZM219.228 27.4688C219.546 27.858 219.973 28.1576 220.483 28.3806L220.925 27.3713C220.539 27.2024 220.266 26.998 220.08 26.7712L219.228 27.4688ZM220.483 28.3806C221.011 28.6114 221.682 28.745 222.469 28.8033L222.551 27.7047C221.827 27.651 221.293 27.5326 220.925 27.3713L220.483 28.3806ZM221.967 28.1613L221.085 33.3273L222.171 33.5127L223.053 28.3467L221.967 28.1613Z" fill="#BDBDBD"/>
</svg>
