<svg width="291" height="41" viewBox="0 0 291 41" fill="none" xmlns="http://www.w3.org/2000/svg">
<path d="M7.45191 33V33.5508H8.00274V33H7.45191ZM1.19391 33H0.643073V33.5508H1.19391V33ZM1.19391 10.908V10.3572H0.643073V10.908H1.19391ZM7.45191 10.908H8.00274V10.3572H7.45191V10.908ZM6.90591 7.254L7.27088 7.66657L7.27186 7.6657L6.90591 7.254ZM1.65591 7.254L1.28229 7.65875L1.29035 7.6662L1.29871 7.67332L1.65591 7.254ZM1.65591 1.836L2.02087 2.24857L2.02186 2.2477L1.65591 1.836ZM6.90591 1.836L6.53229 2.24075L6.54035 2.2482L6.54871 2.25532L6.90591 1.836ZM7.45191 32.4492H1.19391V33.5508H7.45191V32.4492ZM1.74474 33V10.908H0.643073V33H1.74474ZM1.19391 11.4588H7.45191V10.3572H1.19391V11.4588ZM6.90107 10.908V33H8.00274V10.908H6.90107ZM7.48907 4.524C7.48907 5.53823 7.16182 6.28953 6.53995 6.8423L7.27186 7.6657C8.16199 6.87447 8.59074 5.80577 8.59074 4.524H7.48907ZM6.54094 6.84143C5.91766 7.39279 5.18092 7.66916 4.30191 7.66916V8.77083C5.4389 8.77083 6.43815 8.40321 7.27087 7.66657L6.54094 6.84143ZM4.30191 7.66916C3.42267 7.66916 2.66782 7.3924 2.0131 6.83468L1.29871 7.67332C2.15599 8.40359 3.16515 8.77083 4.30191 8.77083V7.66916ZM2.02953 6.84925C1.43275 6.29838 1.11474 5.54501 1.11474 4.524H0.013073C0.013073 5.79899 0.423061 6.86562 1.28229 7.65875L2.02953 6.84925ZM1.11474 4.524C1.11474 3.50243 1.43268 2.76889 2.02087 2.24857L1.29094 1.42343C0.42313 2.1911 0.013073 3.24956 0.013073 4.524H1.11474ZM2.02186 2.2477C2.67742 1.66498 3.42933 1.37883 4.30191 1.37883V0.277164C3.15848 0.277164 2.1464 0.663017 1.28995 1.4243L2.02186 2.2477ZM4.30191 1.37883C5.17411 1.37883 5.90799 1.66447 6.53229 2.24075L7.27953 1.43124C6.44783 0.663523 5.44571 0.277164 4.30191 0.277164V1.37883ZM6.54871 2.25532C7.16203 2.77778 7.48907 3.5094 7.48907 4.524H8.59074C8.59074 3.24259 8.16178 2.18222 7.2631 1.41668L6.54871 2.25532ZM13.3345 11.664L13.1814 11.1349L12.7837 11.25V11.664H13.3345ZM17.4505 10.824L17.5323 11.3688L17.5411 11.3673L17.4505 10.824ZM27.4045 11.16L27.196 11.6698L27.2029 11.6726L27.2099 11.6753L27.4045 11.16ZM30.3865 13.218L29.959 13.5654L30.3865 13.218ZM31.9405 16.41L31.4061 16.5436V16.5436L31.9405 16.41ZM32.4025 33V33.5508H32.9534V33H32.4025ZM26.1445 33H25.5937V33.5508H26.1445V33ZM25.3465 16.998L24.8812 17.2927H24.8812L25.3465 16.998ZM20.9365 15.822L20.9671 16.372L20.9823 16.3711L20.9974 16.3695L20.9365 15.822ZM19.5925 15.948L19.5146 15.4027L19.0417 15.4703V15.948H19.5925ZM19.5925 33V33.5508H20.1434V33H19.5925ZM13.3345 33H12.7837V33.5508H13.3345V33ZM13.4877 12.1931C14.5194 11.8945 15.8651 11.6188 17.5322 11.3687L17.3688 10.2793C15.676 10.5332 14.2777 10.8175 13.1814 11.1349L13.4877 12.1931ZM17.5411 11.3673C19.1888 11.0927 20.9223 10.9548 22.7425 10.9548V9.85316C20.8667 9.85316 19.0723 9.99527 17.36 10.2807L17.5411 11.3673ZM22.7425 10.9548C24.5741 10.9548 26.0513 11.2016 27.196 11.6698L27.6131 10.6502C26.2937 10.1104 24.6629 9.85316 22.7425 9.85316V10.9548ZM27.2099 11.6753C28.3941 12.1227 29.302 12.7567 29.959 13.5654L30.814 12.8706C30.0151 11.8873 28.9349 11.1493 27.5992 10.6447L27.2099 11.6753ZM29.959 13.5654C30.6313 14.3927 31.1157 15.3819 31.4061 16.5436L32.4749 16.2764C32.1493 14.9741 31.5978 13.8353 30.814 12.8706L29.959 13.5654ZM31.4061 16.5436C31.7014 17.7245 31.8517 19.0508 31.8517 20.526H32.9534C32.9534 18.9772 32.7957 17.5595 32.4749 16.2764L31.4061 16.5436ZM31.8517 20.526V33H32.9534V20.526H31.8517ZM32.4025 32.4492H26.1445V33.5508H32.4025V32.4492ZM26.6954 33V21.282H25.5937V33H26.6954ZM26.6954 21.282C26.6954 19.2492 26.433 17.684 25.8119 16.7033L24.8812 17.2927C25.324 17.992 25.5937 19.2828 25.5937 21.282H26.6954ZM25.8119 16.7033C25.137 15.6376 23.9147 15.1872 22.3645 15.1872V16.2888C23.7264 16.2888 24.4921 16.6784 24.8812 17.2927L25.8119 16.7033ZM22.3645 15.1872C21.8938 15.1872 21.3973 15.2166 20.8757 15.2745L20.9974 16.3695C21.4837 16.3154 21.9393 16.2888 22.3645 16.2888V15.1872ZM20.906 15.272C20.3902 15.3007 19.9259 15.3439 19.5146 15.4027L19.6704 16.4933C20.0432 16.4401 20.4749 16.3993 20.9671 16.372L20.906 15.272ZM19.0417 15.948V33H20.1434V15.948H19.0417ZM19.5925 32.4492H13.3345V33.5508H19.5925V32.4492ZM13.8854 33V11.664H12.7837V33H13.8854ZM37.857 5.406L37.7694 4.86217L37.3061 4.93679V5.406H37.857ZM44.115 4.398H44.6658V3.75134L44.0274 3.85417L44.115 4.398ZM44.115 10.908H43.5641V11.4588H44.115V10.908ZM51.633 10.908H52.1838V10.3572H51.633V10.908ZM51.633 16.116V16.6668H52.1838V16.116H51.633ZM44.115 16.116V15.5652H43.5641V16.116H44.115ZM44.787 27.036L44.3087 27.3093L44.3123 27.3156L44.3161 27.3219L44.787 27.036ZM49.659 28.044L49.746 28.5879L49.7545 28.5866L49.763 28.5849L49.659 28.044ZM51.633 27.498L52.175 27.3999L52.0568 26.7471L51.4369 26.9833L51.633 27.498ZM52.515 32.37L52.7228 32.8801L53.1366 32.7115L53.057 32.2719L52.515 32.37ZM49.995 33.168L49.8652 32.6327L49.995 33.168ZM42.351 32.832L42.1355 33.3391L42.1464 33.3434L42.351 32.832ZM39.663 30.9L39.2328 31.2442L39.2386 31.2512L39.663 30.9ZM38.235 27.876L37.6962 27.9914L37.6991 28.0036L38.235 27.876ZM37.9445 5.94982L44.2025 4.94182L44.0274 3.85417L37.7694 4.86217L37.9445 5.94982ZM43.5641 4.398V10.908H44.6658V4.398H43.5641ZM44.115 11.4588H51.633V10.3572H44.115V11.4588ZM51.0821 10.908V16.116H52.1838V10.908H51.0821ZM51.633 15.5652H44.115V16.6668H51.633V15.5652ZM43.5641 16.116V23.886H44.6658V16.116H43.5641ZM43.5641 23.886C43.5641 25.2569 43.7963 26.4125 44.3087 27.3093L45.2652 26.7627C44.8817 26.0915 44.6658 25.1471 44.6658 23.886H43.5641ZM44.3161 27.3219C44.9376 28.3456 46.1168 28.7628 47.601 28.7628V27.6612C46.2851 27.6612 45.5883 27.2944 45.2578 26.7501L44.3161 27.3219ZM47.601 28.7628C48.3036 28.7628 49.0188 28.7043 49.746 28.5879L49.5719 27.5001C48.8991 27.6077 48.2423 27.6612 47.601 27.6612V28.7628ZM49.763 28.5849C50.517 28.4399 51.2065 28.2499 51.829 28.0127L51.4369 26.9833C50.8834 27.1941 50.2569 27.3681 49.5549 27.5031L49.763 28.5849ZM51.0909 27.5961L51.9729 32.4681L53.057 32.2719L52.175 27.3999L51.0909 27.5961ZM52.3071 31.8599C51.5802 32.156 50.7668 32.4141 49.8652 32.6327L50.1247 33.7033C51.0711 33.4739 51.9377 33.2 52.7228 32.8801L52.3071 31.8599ZM49.8652 32.6327C48.9971 32.8431 47.9097 32.9532 46.593 32.9532V34.0548C47.9642 34.0548 49.1448 33.9409 50.1247 33.7033L49.8652 32.6327ZM46.593 32.9532C44.9281 32.9532 43.5894 32.7341 42.5555 32.3206L42.1464 33.3434C43.3525 33.8259 44.8418 34.0548 46.593 34.0548V32.9532ZM42.5664 32.3251C41.5149 31.8782 40.695 31.2831 40.0873 30.5488L39.2386 31.2512C39.9749 32.1409 40.947 32.8338 42.1355 33.3389L42.5664 32.3251ZM40.0931 30.5559C39.4778 29.7868 39.0343 28.8552 38.7708 27.7484L37.6991 28.0036C37.9956 29.2488 38.5041 30.3332 39.2328 31.2441L40.0931 30.5559ZM38.7736 27.7606C38.531 26.6288 38.4078 25.3662 38.4078 23.97H37.3061C37.3061 25.4298 37.4349 26.7712 37.6963 27.9914L38.7736 27.7606ZM38.4078 23.97V5.406H37.3061V23.97H38.4078ZM55.7407 16.998L55.232 16.7868L55.23 16.7917L55.7407 16.998ZM58.1348 13.302L57.7453 12.9125L58.1348 13.302ZM61.4948 11.076L61.294 10.563L61.2902 10.5646L61.4948 11.076ZM72.8768 13.218L72.4758 13.5957L72.4786 13.5986L72.8768 13.218ZM75.5648 22.878L76.1144 22.9146L76.1145 22.9124L75.5648 22.878ZM75.4808 24.012V24.5628H75.9876L76.0297 24.0577L75.4808 24.012ZM61.2848 24.012V23.4612H60.6708L60.7371 24.0715L61.2848 24.012ZM63.0908 27.078L62.7717 27.527L63.0908 27.078ZM70.7347 27.918L70.8321 28.4603L70.8428 28.4581L70.7347 27.918ZM73.4648 27.12L74.0082 27.0302L73.8925 26.33L73.2429 26.6158L73.4648 27.12ZM74.3047 32.202L74.5511 32.6947L74.9145 32.513L74.8482 32.1122L74.3047 32.202ZM72.9607 32.706L72.8025 32.1784L72.9607 32.706ZM71.0707 33.126L70.9837 32.5821L70.971 32.5841L70.9584 32.5867L71.0707 33.126ZM68.8867 33.462L68.9454 34.0097L68.8867 33.462ZM61.3268 32.706L61.1205 33.2168L61.1238 33.2181L61.3268 32.706ZM57.6727 30.312L57.2672 30.6847L57.2724 30.6904L57.2778 30.696L57.6727 30.312ZM55.5308 26.658L55.006 26.8259L55.0092 26.8353L55.5308 26.658ZM69.5588 19.728V20.2788H70.1393L70.1088 19.699L69.5588 19.728ZM69.2647 18.174L68.734 18.3214L68.7378 18.3349L68.7422 18.3482L69.2647 18.174ZM68.5508 16.83L68.1176 17.1703L68.1249 17.1796L68.1325 17.1885L68.5508 16.83ZM67.3327 15.864L67.075 16.351L67.0864 16.3567L67.3327 15.864ZM63.7207 15.864L63.9445 16.3674L63.9559 16.3623L63.9671 16.3567L63.7207 15.864ZM61.6628 18.174L61.1459 17.9836L61.1429 17.9916L61.1402 17.9998L61.6628 18.174ZM61.2848 19.728L60.7407 19.6421L60.6401 20.2788H61.2848V19.728ZM55.4096 22.122C55.4096 20.2158 55.6957 18.5807 56.2515 17.2043L55.23 16.7917C54.6098 18.3273 54.3079 20.1082 54.3079 22.122H55.4096ZM56.2495 17.2092C56.8422 15.7814 57.6028 14.613 58.5243 13.6915L57.7453 12.9125C56.7067 13.951 55.8713 15.2466 55.232 16.7868L56.2495 17.2092ZM58.5243 13.6915C59.4527 12.7631 60.5101 12.0631 61.6993 11.5874L61.2902 10.5646C59.9594 11.0969 58.7768 11.8809 57.7453 12.9125L58.5243 13.6915ZM61.6955 11.589C62.9214 11.1092 64.1694 10.8708 65.4427 10.8708V9.76917C64.0281 9.76917 62.6441 10.0348 61.294 10.563L61.6955 11.589ZM65.4427 10.8708C68.4569 10.8708 70.7788 11.7942 72.4758 13.5957L73.2777 12.8403C71.3347 10.7778 68.7006 9.76917 65.4427 9.76917V10.8708ZM72.4786 13.5986C74.1663 15.3642 75.0559 18.0189 75.0559 21.66H76.1576C76.1576 17.8531 75.2272 14.8798 73.2749 12.8374L72.4786 13.5986ZM75.0559 21.66C75.0559 22.0103 75.0424 22.4046 75.015 22.8436L76.1145 22.9124C76.1431 22.4554 76.1576 22.0377 76.1576 21.66H75.0559ZM75.0151 22.8414C74.9873 23.259 74.9595 23.6339 74.9318 23.9663L76.0297 24.0577C76.058 23.7181 76.0862 23.337 76.1144 22.9146L75.0151 22.8414ZM75.4808 23.4612H61.2848V24.5628H75.4808V23.4612ZM60.7371 24.0715C60.8943 25.5174 61.5804 26.6806 62.7717 27.527L63.4098 26.629C62.4731 25.9634 61.9552 25.0826 61.8324 23.9525L60.7371 24.0715ZM62.7717 27.527C63.9579 28.3699 65.5101 28.7628 67.3747 28.7628V27.6612C65.6554 27.6612 64.3516 27.2981 63.4098 26.629L62.7717 27.527ZM67.3747 28.7628C68.5543 28.7628 69.7068 28.6621 70.8321 28.4602L70.6374 27.3758C69.5787 27.5659 68.4912 27.6612 67.3747 27.6612V28.7628ZM70.8428 28.4581C71.9847 28.2297 72.9369 27.954 73.6866 27.6242L73.2429 26.6158C72.5926 26.902 71.7248 27.1583 70.6267 27.3779L70.8428 28.4581ZM72.9213 27.2098L73.7613 32.2918L74.8482 32.1122L74.0082 27.0302L72.9213 27.2098ZM74.0584 31.7093C73.7617 31.8577 73.3469 32.0151 72.8025 32.1784L73.119 33.2336C73.6946 33.0609 74.1758 32.8823 74.5511 32.6947L74.0584 31.7093ZM72.8025 32.1784C72.2701 32.3381 71.6645 32.4732 70.9837 32.5821L71.1578 33.6699C71.877 33.5548 72.5314 33.4099 73.119 33.2336L72.8025 32.1784ZM70.9584 32.5867C70.3065 32.7226 69.5966 32.832 68.8281 32.9143L68.9454 34.0097C69.7449 33.924 70.491 33.8094 71.1831 33.6653L70.9584 32.5867ZM68.8281 32.9143C68.0634 32.9962 67.299 33.0372 66.5348 33.0372V34.1388C67.3385 34.1388 68.1421 34.0958 68.9454 34.0097L68.8281 32.9143ZM66.5348 33.0372C64.5998 33.0372 62.9354 32.7509 61.5297 32.1939L61.1238 33.2181C62.6861 33.8371 64.4937 34.1388 66.5348 34.1388V33.0372ZM61.533 32.1952C60.1397 31.6326 58.9884 30.875 58.0677 29.928L57.2778 30.696C58.3171 31.765 59.6018 32.6034 61.1205 33.2168L61.533 32.1952ZM58.0783 29.9393C57.1808 28.9625 56.5049 27.812 56.0523 26.4807L55.0092 26.8353C55.5086 28.304 56.2607 29.5895 57.2672 30.6847L58.0783 29.9393ZM56.0554 26.4901C55.6265 25.1498 55.4096 23.6949 55.4096 22.122H54.3079C54.3079 23.7971 54.539 25.3662 55.0061 26.8259L56.0554 26.4901ZM70.1088 19.699C70.0782 19.1178 69.971 18.5509 69.7873 17.9998L68.7422 18.3482C68.8945 18.8051 68.9833 19.2742 69.0087 19.757L70.1088 19.699ZM69.7955 18.0266C69.6342 17.4459 69.3582 16.9256 68.969 16.4715L68.1325 17.1885C68.4153 17.5184 68.6153 17.8941 68.734 18.3214L69.7955 18.0266ZM68.9839 16.4897C68.6194 16.0259 68.1463 15.6549 67.5791 15.3713L67.0864 16.3567C67.5272 16.5771 67.8661 16.8501 68.1176 17.1703L68.9839 16.4897ZM67.5905 15.3772C67.0121 15.071 66.3144 14.9352 65.5267 14.9352V16.0368C66.1951 16.0368 66.7014 16.153 67.075 16.3508L67.5905 15.3772ZM65.5267 14.9352C64.7615 14.9352 64.0712 15.0729 63.4744 15.3713L63.9671 16.3567C64.3783 16.1511 64.892 16.0368 65.5267 16.0368V14.9352ZM63.497 15.3606C62.9234 15.6156 62.4354 15.9712 62.0425 16.4295L62.879 17.1465C63.1581 16.8208 63.51 16.5604 63.9445 16.3674L63.497 15.3606ZM62.0425 16.4295C61.6599 16.8759 61.3623 17.3962 61.1459 17.9836L62.1796 18.3644C62.3552 17.8878 62.5896 17.4841 62.879 17.1465L62.0425 16.4295ZM61.1402 17.9998C60.9625 18.533 60.8293 19.0805 60.7407 19.6421L61.8288 19.8139C61.9082 19.3115 62.027 18.823 62.1853 18.3482L61.1402 17.9998ZM61.2848 20.2788H69.5588V19.1772H61.2848V20.2788ZM93.7501 16.452L93.6165 16.9864L94.1752 17.1261L94.2899 16.5617L93.7501 16.452ZM91.7761 16.032L91.6566 16.5697L91.6662 16.5718L91.6758 16.5736L91.7761 16.032ZM87.9121 15.906L87.9698 16.4538L87.9818 16.4525L87.9938 16.4507L87.9121 15.906ZM86.6941 16.116L86.5358 15.5884L86.1433 15.7062V16.116H86.6941ZM86.6941 33V33.5508H87.2449V33H86.6941ZM80.4361 33H79.8853V33.5508H80.4361V33ZM80.4361 12.084L80.2541 11.5641L79.8853 11.6932V12.084H80.4361ZM84.3841 10.992L84.5036 11.5298L84.5108 11.5281L84.3841 10.992ZM90.7261 10.53L90.6617 11.0771L90.6777 11.0789L90.6937 11.0799L90.7261 10.53ZM92.1541 10.698L92.0584 11.2404L92.074 11.2432L92.0897 11.2451L92.1541 10.698ZM93.5821 10.95L93.4559 11.4862L93.4711 11.4897L93.4864 11.4925L93.5821 10.95ZM94.8001 11.286L95.3399 11.3957L95.4301 10.9518L95.012 10.7775L94.8001 11.286ZM93.8837 15.9176C93.3098 15.7741 92.6402 15.6318 91.8764 15.4904L91.6758 16.5736C92.424 16.7122 93.0704 16.8499 93.6165 16.9864L93.8837 15.9176ZM91.8956 15.4943C91.096 15.3166 90.2435 15.2292 89.3401 15.2292V16.3308C90.1727 16.3308 90.9442 16.4114 91.6566 16.5697L91.8956 15.4943ZM89.3401 15.2292C88.9117 15.2292 88.4067 15.2748 87.8304 15.3613L87.9938 16.4507C88.5375 16.3692 88.9845 16.3308 89.3401 16.3308V15.2292ZM87.8544 15.3582C87.3114 15.4154 86.8652 15.4896 86.5358 15.5884L86.8524 16.6436C87.083 16.5744 87.4488 16.5086 87.9698 16.4538L87.8544 15.3582ZM86.1433 16.116V33H87.2449V16.116H86.1433ZM86.6941 32.4492H80.4361V33.5508H86.6941V32.4492ZM80.9869 33V12.084H79.8853V33H80.9869ZM80.6181 12.6039C81.7125 12.2208 83.0068 11.8623 84.5036 11.5297L84.2646 10.4543C82.7374 10.7937 81.3997 11.1632 80.2541 11.5641L80.6181 12.6039ZM84.5108 11.5281C86.0025 11.1755 87.6671 10.9968 89.5081 10.9968V9.89517C87.5971 9.89517 85.8457 10.0805 84.2574 10.4559L84.5108 11.5281ZM89.5081 10.9968C89.8157 10.9968 90.1989 11.0226 90.6617 11.0771L90.7905 9.98294C90.3013 9.92539 89.8725 9.89517 89.5081 9.89517V10.9968ZM90.6937 11.0799C91.1482 11.1066 91.603 11.1601 92.0584 11.2404L92.2498 10.1555C91.7531 10.0679 91.256 10.0094 90.7584 9.98012L90.6937 11.0799ZM92.0897 11.2451C92.5445 11.2986 92.9999 11.3789 93.4559 11.4862L93.7083 10.4138C93.2123 10.2971 92.7157 10.2094 92.2185 10.1509L92.0897 11.2451ZM93.4864 11.4925C93.9346 11.5716 94.2994 11.6741 94.5882 11.7945L95.012 10.7775C94.6287 10.6179 94.1815 10.4964 93.6778 10.4075L93.4864 11.4925ZM94.2603 11.1763L93.2103 16.3423L94.2899 16.5617L95.3399 11.3957L94.2603 11.1763ZM104.413 33V33.5508H104.964V33H104.413ZM98.1548 33H97.604V33.5508H98.1548V33ZM98.1548 10.908V10.3572H97.604V10.908H98.1548ZM104.413 10.908H104.964V10.3572H104.413V10.908ZM103.867 7.254L104.232 7.66657L104.233 7.6657L103.867 7.254ZM98.6168 7.254L98.2432 7.65875L98.2513 7.6662L98.2596 7.67332L98.6168 7.254ZM98.6168 1.836L98.9818 2.24857L98.9828 2.2477L98.6168 1.836ZM103.867 1.836L103.493 2.24075L103.501 2.2482L103.51 2.25532L103.867 1.836ZM104.413 32.4492H98.1548V33.5508H104.413V32.4492ZM98.7057 33V10.908H97.604V33H98.7057ZM98.1548 11.4588H104.413V10.3572H98.1548V11.4588ZM103.862 10.908V33H104.964V10.908H103.862ZM104.45 4.524C104.45 5.53823 104.123 6.28953 103.501 6.8423L104.233 7.6657C105.123 6.87447 105.552 5.80577 105.552 4.524H104.45ZM103.502 6.84143C102.879 7.39279 102.142 7.66916 101.263 7.66916V8.77083C102.4 8.77083 103.399 8.40321 104.232 7.66657L103.502 6.84143ZM101.263 7.66916C100.384 7.66916 99.6288 7.3924 98.974 6.83468L98.2596 7.67332C99.1169 8.40359 100.126 8.77083 101.263 8.77083V7.66916ZM98.9905 6.84925C98.3937 6.29838 98.0757 5.54501 98.0757 4.524H96.974C96.974 5.79899 97.384 6.86562 98.2432 7.65875L98.9905 6.84925ZM98.0757 4.524C98.0757 3.50243 98.3936 2.76889 98.9818 2.24857L98.2519 1.42343C97.3841 2.1911 96.974 3.24956 96.974 4.524H98.0757ZM98.9828 2.2477C99.6384 1.66498 100.39 1.37883 101.263 1.37883V0.277164C100.119 0.277164 99.1073 0.663017 98.2509 1.4243L98.9828 2.2477ZM101.263 1.37883C102.135 1.37883 102.869 1.66447 103.493 2.24075L104.24 1.43124C103.409 0.663523 102.407 0.277164 101.263 0.277164V1.37883ZM103.51 2.25532C104.123 2.77778 104.45 3.5094 104.45 4.524H105.552C105.552 3.24259 105.123 2.18222 104.224 1.41668L103.51 2.25532ZM130.203 26.7L130.723 26.8833L130.724 26.8802L130.203 26.7ZM128.019 30.396L128.42 30.7743L128.425 30.7687L128.019 30.396ZM124.575 32.748L124.364 32.2395L124.36 32.2411L124.575 32.748ZM115.671 32.748L115.456 33.2549L115.46 33.2565L115.671 32.748ZM112.269 30.396L111.864 30.7687L111.869 30.7742L112.269 30.396ZM110.043 26.7L109.526 26.889L109.527 26.8923L110.043 26.7ZM110.043 17.166L109.531 16.9649L109.527 16.9737L110.043 17.166ZM112.311 13.512L111.916 13.128L111.911 13.1338L112.311 13.512ZM115.755 11.16L115.544 10.6515L115.54 10.6531L115.755 11.16ZM124.491 11.16L124.276 11.6669L124.28 11.6685L124.491 11.16ZM127.935 13.512L127.535 13.8902L127.935 13.512ZM130.161 17.166L129.645 17.3583L130.161 17.166ZM123.399 17.376L122.943 17.6842L122.947 17.6908L122.952 17.6973L123.399 17.376ZM116.805 17.376L117.253 17.6973L117.257 17.6919L116.805 17.376ZM116.805 26.532L116.351 26.8427L116.354 26.8479L116.805 26.532ZM123.399 26.532L122.945 26.2213L122.943 26.2238L123.399 26.532ZM130.409 21.912C130.409 23.5944 130.165 25.1286 129.683 26.5198L130.724 26.8802C131.25 25.3594 131.51 23.7016 131.51 21.912H130.409ZM129.684 26.5167C129.203 27.8799 128.512 29.0462 127.614 30.0233L128.425 30.7687C129.431 29.6738 130.196 28.3761 130.723 26.8833L129.684 26.5167ZM127.619 30.0178C126.723 30.9668 125.64 31.7077 124.364 32.2395L124.787 33.2565C126.199 32.6683 127.412 31.8412 128.42 30.7742L127.619 30.0178ZM124.36 32.2411C123.122 32.768 121.713 33.0372 120.123 33.0372V34.1388C121.838 34.1388 123.397 33.848 124.791 33.2549L124.36 32.2411ZM120.123 33.0372C118.564 33.0372 117.153 32.7685 115.883 32.2395L115.46 33.2565C116.878 33.8475 118.435 34.1388 120.123 34.1388V33.0372ZM115.887 32.2411C114.639 31.7099 113.568 30.9689 112.67 30.0178L111.869 30.7742C112.875 31.8391 114.072 32.6661 115.456 33.2549L115.887 32.2411ZM112.675 30.0233C111.775 29.0439 111.069 27.8746 110.56 26.5077L109.527 26.8923C110.082 28.3814 110.86 29.6761 111.864 30.7687L112.675 30.0233ZM110.561 26.511C110.053 25.1223 109.796 23.5912 109.796 21.912H108.695C108.695 23.7048 108.969 25.3657 109.526 26.889L110.561 26.511ZM109.796 21.912C109.796 20.2326 110.054 18.7168 110.56 17.3583L109.527 16.9737C108.969 18.4712 108.695 20.1194 108.695 21.912H109.796ZM110.556 17.3671C111.093 15.9978 111.813 14.8417 112.712 13.8902L111.911 13.1338C110.906 14.1983 110.114 15.4782 109.531 16.9649L110.556 17.3671ZM112.706 13.896C113.635 12.9414 114.721 12.1987 115.971 11.6668L115.54 10.6531C114.158 11.2413 112.948 12.0666 111.917 13.128L112.706 13.896ZM115.967 11.6685C117.239 11.1385 118.623 10.8708 120.123 10.8708V9.76917C118.488 9.76917 116.96 10.0615 115.544 10.6515L115.967 11.6685ZM120.123 10.8708C121.654 10.8708 123.035 11.1391 124.276 11.6669L124.707 10.6531C123.315 10.0609 121.785 9.76917 120.123 9.76917V10.8708ZM124.28 11.6685C125.556 12.2003 126.639 12.9412 127.535 13.8902L128.336 13.1338C127.328 12.0668 126.115 11.2397 124.703 10.6515L124.28 11.6685ZM127.535 13.8902C128.432 14.8395 129.136 15.9925 129.645 17.3583L130.678 16.9737C130.122 15.4835 129.343 14.2005 128.336 13.1338L127.535 13.8902ZM129.645 17.3583C130.151 18.7168 130.409 20.2326 130.409 21.912H131.51C131.51 20.1194 131.236 18.4712 130.678 16.9737L129.645 17.3583ZM125.126 21.912C125.126 19.9132 124.722 18.2733 123.847 17.0547L122.952 17.6973C123.645 18.6627 124.025 20.0468 124.025 21.912H125.126ZM123.856 17.0678C122.991 15.7861 121.722 15.1452 120.123 15.1452V16.2468C121.381 16.2468 122.296 16.7259 122.943 17.6842L123.856 17.0678ZM120.123 15.1452C118.525 15.1452 117.247 15.7853 116.354 17.0601L117.257 17.6919C117.932 16.7267 118.866 16.2468 120.123 16.2468V15.1452ZM116.358 17.0547C115.483 18.2733 115.079 19.9132 115.079 21.912H116.18C116.18 20.0468 116.56 18.6627 117.253 17.6973L116.358 17.0547ZM115.079 21.912C115.079 23.913 115.484 25.5738 116.351 26.8426L117.26 26.2214C116.559 25.1942 116.18 23.775 116.18 21.912H115.079ZM116.354 26.8479C117.247 28.1227 118.525 28.7628 120.123 28.7628V27.6612C118.866 27.6612 117.932 27.1813 117.257 26.2161L116.354 26.8479ZM120.123 28.7628C121.722 28.7628 122.991 28.1219 123.856 26.8402L122.943 26.2238C122.296 27.1821 121.381 27.6612 120.123 27.6612V28.7628ZM123.854 26.8426C124.721 25.5738 125.126 23.913 125.126 21.912H124.025C124.025 23.775 123.646 25.1942 122.945 26.2214L123.854 26.8426ZM149.121 16.452L148.988 16.9864L149.546 17.1261L149.661 16.5617L149.121 16.452ZM147.147 16.032L147.028 16.5697L147.037 16.5718L147.047 16.5736L147.147 16.032ZM143.283 15.906L143.341 16.4538L143.353 16.4525L143.365 16.4507L143.283 15.906ZM142.065 16.116L141.907 15.5884L141.514 15.7062V16.116H142.065ZM142.065 33V33.5508H142.616V33H142.065ZM135.807 33H135.256V33.5508H135.807V33ZM135.807 12.084L135.625 11.5641L135.256 11.6932V12.084H135.807ZM139.755 10.992L139.875 11.5298L139.882 11.5281L139.755 10.992ZM146.097 10.53L146.033 11.0771L146.049 11.0789L146.065 11.0799L146.097 10.53ZM147.525 10.698L147.429 11.2404L147.445 11.2432L147.461 11.2451L147.525 10.698ZM148.953 10.95L148.827 11.4862L148.842 11.4897L148.857 11.4925L148.953 10.95ZM150.171 11.286L150.711 11.3957L150.801 10.9518L150.383 10.7775L150.171 11.286ZM149.255 15.9176C148.681 15.7741 148.011 15.6318 147.247 15.4904L147.047 16.5736C147.795 16.7122 148.442 16.8499 148.988 16.9864L149.255 15.9176ZM147.267 15.4943C146.467 15.3166 145.615 15.2292 144.711 15.2292V16.3308C145.544 16.3308 146.315 16.4114 147.028 16.5697L147.267 15.4943ZM144.711 15.2292C144.283 15.2292 143.778 15.2748 143.201 15.3613L143.365 16.4507C143.909 16.3692 144.356 16.3308 144.711 16.3308V15.2292ZM143.226 15.3582C142.682 15.4154 142.236 15.4896 141.907 15.5884L142.223 16.6436C142.454 16.5744 142.82 16.5086 143.341 16.4538L143.226 15.3582ZM141.514 16.116V33H142.616V16.116H141.514ZM142.065 32.4492H135.807V33.5508H142.065V32.4492ZM136.358 33V12.084H135.256V33H136.358ZM135.989 12.6039C137.084 12.2208 138.378 11.8623 139.875 11.5297L139.636 10.4543C138.109 10.7937 136.771 11.1632 135.625 11.5641L135.989 12.6039ZM139.882 11.5281C141.374 11.1755 143.038 10.9968 144.879 10.9968V9.89517C142.968 9.89517 141.217 10.0805 139.628 10.4559L139.882 11.5281ZM144.879 10.9968C145.187 10.9968 145.57 11.0226 146.033 11.0771L146.162 9.98294C145.672 9.92539 145.244 9.89517 144.879 9.89517V10.9968ZM146.065 11.0799C146.519 11.1066 146.974 11.1601 147.429 11.2404L147.621 10.1555C147.124 10.0679 146.627 10.0094 146.13 9.98012L146.065 11.0799ZM147.461 11.2451C147.916 11.2986 148.371 11.3789 148.827 11.4862L149.079 10.4138C148.583 10.2971 148.087 10.2094 147.59 10.1509L147.461 11.2451ZM148.857 11.4925C149.306 11.5716 149.671 11.6741 149.959 11.7945L150.383 10.7775C150 10.6179 149.553 10.4964 149.049 10.4075L148.857 11.4925ZM149.631 11.1763L148.581 16.3423L149.661 16.5617L150.711 11.3957L149.631 11.1763ZM170.252 26.448L170.695 26.1209L170.252 26.448ZM175.67 28.17L175.702 28.7199L175.718 28.7189L175.734 28.7171L175.67 28.17ZM176.846 28.002L176.944 28.5439L177.397 28.4617V28.002H176.846ZM176.846 16.62H177.397V16.3193L177.144 16.1567L176.846 16.62ZM175.292 15.99L175.147 16.5215L175.153 16.523L175.292 15.99ZM183.104 32.286L183.262 32.8136L183.655 32.6958V32.286H183.104ZM181.172 32.79L181.276 33.3309L181.286 33.329L181.296 33.3267L181.172 32.79ZM178.862 33.168L178.787 32.6223L178.784 32.6227L178.862 33.168ZM176.426 33.42L176.389 32.8704L176.379 32.8711L176.369 32.8721L176.426 33.42ZM165.59 30.48L165.195 30.864L165.2 30.8695L165.59 30.48ZM163.322 26.868L162.802 27.0514L162.807 27.0637L163.322 26.868ZM163.238 17.25L163.763 17.4149L163.764 17.412L163.238 17.25ZM165.17 13.554L164.747 13.2014L165.17 13.554ZM168.236 11.244L168.017 10.7383L168.013 10.7402L168.236 11.244ZM174.746 10.698L174.612 11.2324L174.617 11.2336L174.746 10.698ZM176.846 11.412L176.624 11.9162L177.397 12.2562V11.412H176.846ZM176.846 1.416L176.758 0.872175L176.295 0.946791V1.416H176.846ZM183.104 0.407999H183.655V-0.238659L183.016 -0.135824L183.104 0.407999ZM168.399 21.786C168.399 23.7981 168.851 25.478 169.809 26.7751L170.695 26.1209C169.916 25.066 169.501 23.6379 169.501 21.786H168.399ZM169.809 26.7751C170.799 28.1167 172.266 28.7628 174.116 28.7628V27.6612C172.549 27.6612 171.441 27.1313 170.695 26.1209L169.809 26.7751ZM174.116 28.7628C174.685 28.7628 175.214 28.7486 175.702 28.7199L175.637 27.6201C175.174 27.6474 174.667 27.6612 174.116 27.6612V28.7628ZM175.734 28.7171C176.216 28.6603 176.621 28.6028 176.944 28.5439L176.747 27.4601C176.455 27.5132 176.075 27.5677 175.605 27.6229L175.734 28.7171ZM177.397 28.002V16.62H176.295V28.002H177.397ZM177.144 16.1567C176.687 15.8629 176.109 15.6339 175.431 15.457L175.153 16.523C175.762 16.6821 176.221 16.8731 176.548 17.0833L177.144 16.1567ZM175.437 15.4586C174.773 15.2776 174.094 15.1872 173.402 15.1872V16.2888C173.997 16.2888 174.578 16.3664 175.147 16.5214L175.437 15.4586ZM173.402 15.1872C171.779 15.1872 170.485 15.7472 169.619 16.9235C168.777 18.0682 168.399 19.7186 168.399 21.786H169.501C169.501 19.8214 169.865 18.4478 170.506 17.5765C171.125 16.7368 172.056 16.2888 173.402 16.2888V15.1872ZM182.945 31.7584C182.399 31.9222 181.767 32.0872 181.048 32.2533L181.296 33.3267C182.032 33.1567 182.688 32.9858 183.262 32.8136L182.945 31.7584ZM181.068 32.2491C180.35 32.3871 179.59 32.5115 178.787 32.6223L178.937 33.7137C179.758 33.6005 180.537 33.4729 181.276 33.3309L181.068 32.2491ZM178.784 32.6227C178.014 32.7326 177.216 32.8153 176.389 32.8704L176.462 33.9696C177.315 33.9128 178.141 33.8274 178.94 33.7133L178.784 32.6227ZM176.369 32.8721C175.574 32.9543 174.809 32.9952 174.074 32.9952V34.0968C174.85 34.0968 175.653 34.0537 176.482 33.9679L176.369 32.8721ZM174.074 32.9952C172.307 32.9952 170.75 32.7369 169.394 32.2318L169.009 33.2642C170.51 33.8231 172.201 34.0968 174.074 34.0968V32.9952ZM169.394 32.2318C168.033 31.7246 166.898 31.0093 165.979 30.0905L165.2 30.8695C166.242 31.9107 167.515 32.7074 169.009 33.2642L169.394 32.2318ZM165.985 30.096C165.061 29.1454 164.344 28.0067 163.837 26.6723L162.807 27.0637C163.364 28.5293 164.159 29.7986 165.195 30.864L165.985 30.096ZM163.841 26.6847C163.361 25.3244 163.117 23.7916 163.117 22.08H162.015C162.015 23.8964 162.274 25.5556 162.802 27.0513L163.841 26.6847ZM163.117 22.08C163.117 20.3332 163.335 18.7802 163.763 17.4149L162.712 17.0851C162.245 18.5758 162.015 20.2428 162.015 22.08H163.117ZM163.764 17.412C164.194 16.0147 164.807 14.8503 165.593 13.9066L164.747 13.2014C163.853 14.2737 163.177 15.5733 162.711 17.088L163.764 17.412ZM165.593 13.9066C166.378 12.964 167.332 12.2457 168.458 11.7478L168.013 10.7402C166.732 11.3063 165.641 12.128 164.747 13.2014L165.593 13.9066ZM168.454 11.7497C169.607 11.2521 170.93 10.9968 172.436 10.9968V9.89517C170.805 9.89517 169.329 10.1719 168.017 10.7383L168.454 11.7497ZM172.436 10.9968C173.27 10.9968 173.993 11.0777 174.612 11.2324L174.879 10.1636C174.154 9.98235 173.338 9.89517 172.436 9.89517V10.9968ZM174.617 11.2336C175.283 11.3935 175.952 11.6206 176.624 11.9162L177.068 10.9078C176.339 10.5874 175.608 10.3385 174.874 10.1624L174.617 11.2336ZM177.397 11.412V1.416H176.295V11.412H177.397ZM176.933 1.95982L183.191 0.951822L183.016 -0.135824L176.758 0.872175L176.933 1.95982ZM182.553 0.407999V32.286H183.655V0.407999H182.553ZM188.795 16.998L188.287 16.7868L188.285 16.7917L188.795 16.998ZM191.189 13.302L190.8 12.9125L191.189 13.302ZM194.549 11.076L194.349 10.563L194.345 10.5646L194.549 11.076ZM205.931 13.218L205.53 13.5957L205.533 13.5986L205.931 13.218ZM208.619 22.878L209.169 22.9146L209.169 22.9124L208.619 22.878ZM208.535 24.012V24.5628H209.042L209.084 24.0577L208.535 24.012ZM194.339 24.012V23.4612H193.725L193.792 24.0715L194.339 24.012ZM196.145 27.078L195.826 27.527L196.145 27.078ZM203.789 27.918L203.887 28.4603L203.897 28.4581L203.789 27.918ZM206.519 27.12L207.063 27.0302L206.947 26.33L206.298 26.6158L206.519 27.12ZM207.359 32.202L207.606 32.6947L207.969 32.513L207.903 32.1122L207.359 32.202ZM206.015 32.706L205.857 32.1784L206.015 32.706ZM204.125 33.126L204.038 32.5821L204.026 32.5841L204.013 32.5867L204.125 33.126ZM201.941 33.462L202 34.0097L201.941 33.462ZM194.381 32.706L194.175 33.2168L194.179 33.2181L194.381 32.706ZM190.727 30.312L190.322 30.6847L190.327 30.6904L190.332 30.696L190.727 30.312ZM188.585 26.658L188.061 26.8259L188.064 26.8353L188.585 26.658ZM202.613 19.728V20.2788H203.194L203.164 19.699L202.613 19.728ZM202.319 18.174L201.789 18.3214L201.792 18.3349L201.797 18.3482L202.319 18.174ZM201.605 16.83L201.172 17.1703L201.18 17.1796L201.187 17.1885L201.605 16.83ZM200.387 15.864L200.13 16.351L200.141 16.3567L200.387 15.864ZM196.775 15.864L196.999 16.3674L197.011 16.3623L197.022 16.3567L196.775 15.864ZM194.717 18.174L194.201 17.9836L194.198 17.9916L194.195 17.9998L194.717 18.174ZM194.339 19.728L193.795 19.6421L193.695 20.2788H194.339V19.728ZM188.464 22.122C188.464 20.2158 188.75 18.5807 189.306 17.2043L188.285 16.7917C187.665 18.3273 187.363 20.1082 187.363 22.122H188.464ZM189.304 17.2092C189.897 15.7814 190.657 14.613 191.579 13.6915L190.8 12.9125C189.761 13.951 188.926 15.2466 188.287 16.7868L189.304 17.2092ZM191.579 13.6915C192.507 12.7631 193.565 12.0631 194.754 11.5874L194.345 10.5646C193.014 11.0969 191.832 11.8809 190.8 12.9125L191.579 13.6915ZM194.75 11.589C195.976 11.1092 197.224 10.8708 198.497 10.8708V9.76917C197.083 9.76917 195.699 10.0348 194.349 10.563L194.75 11.589ZM198.497 10.8708C201.512 10.8708 203.833 11.7942 205.53 13.5957L206.332 12.8403C204.389 10.7778 201.755 9.76917 198.497 9.76917V10.8708ZM205.533 13.5986C207.221 15.3642 208.111 18.0189 208.111 21.66H209.212C209.212 17.8531 208.282 14.8798 206.33 12.8374L205.533 13.5986ZM208.111 21.66C208.111 22.0103 208.097 22.4046 208.07 22.8436L209.169 22.9124C209.198 22.4554 209.212 22.0377 209.212 21.66H208.111ZM208.07 22.8414C208.042 23.259 208.014 23.6339 207.987 23.9663L209.084 24.0577C209.113 23.7181 209.141 23.337 209.169 22.9146L208.07 22.8414ZM208.535 23.4612H194.339V24.5628H208.535V23.4612ZM193.792 24.0715C193.949 25.5174 194.635 26.6806 195.826 27.527L196.464 26.629C195.528 25.9634 195.01 25.0826 194.887 23.9525L193.792 24.0715ZM195.826 27.527C197.013 28.3699 198.565 28.7628 200.429 28.7628V27.6612C198.71 27.6612 197.406 27.2981 196.464 26.629L195.826 27.527ZM200.429 28.7628C201.609 28.7628 202.762 28.6621 203.887 28.4602L203.692 27.3758C202.633 27.5659 201.546 27.6612 200.429 27.6612V28.7628ZM203.897 28.4581C205.039 28.2297 205.992 27.954 206.741 27.6242L206.298 26.6158C205.647 26.902 204.779 27.1583 203.681 27.3779L203.897 28.4581ZM205.976 27.2098L206.816 32.2918L207.903 32.1122L207.063 27.0302L205.976 27.2098ZM207.113 31.7093C206.816 31.8577 206.402 32.0151 205.857 32.1784L206.174 33.2336C206.749 33.0609 207.23 32.8823 207.606 32.6947L207.113 31.7093ZM205.857 32.1784C205.325 32.3381 204.719 32.4732 204.038 32.5821L204.212 33.6699C204.932 33.5548 205.586 33.4099 206.174 33.2336L205.857 32.1784ZM204.013 32.5867C203.361 32.7226 202.651 32.832 201.883 32.9143L202 34.0097C202.8 33.924 203.546 33.8094 204.238 33.6653L204.013 32.5867ZM201.883 32.9143C201.118 32.9962 200.354 33.0372 199.589 33.0372V34.1388C200.393 34.1388 201.197 34.0958 202 34.0097L201.883 32.9143ZM199.589 33.0372C197.654 33.0372 195.99 32.7509 194.584 32.1939L194.179 33.2181C195.741 33.8371 197.548 34.1388 199.589 34.1388V33.0372ZM194.588 32.1952C193.194 31.6326 192.043 30.875 191.122 29.928L190.332 30.696C191.372 31.765 192.656 32.6034 194.175 33.2168L194.588 32.1952ZM191.133 29.9393C190.235 28.9625 189.56 27.812 189.107 26.4807L188.064 26.8353C188.563 28.304 189.315 29.5895 190.322 30.6847L191.133 29.9393ZM189.11 26.4901C188.681 25.1498 188.464 23.6949 188.464 22.122H187.363C187.363 23.7971 187.594 25.3662 188.061 26.8259L189.11 26.4901ZM203.164 19.699C203.133 19.1178 203.026 18.5509 202.842 17.9998L201.797 18.3482C201.949 18.8051 202.038 19.2742 202.063 19.757L203.164 19.699ZM202.85 18.0266C202.689 17.4459 202.413 16.9256 202.024 16.4715L201.187 17.1885C201.47 17.5184 201.67 17.8941 201.789 18.3214L202.85 18.0266ZM202.039 16.4897C201.674 16.0259 201.201 15.6549 200.634 15.3713L200.141 16.3567C200.582 16.5771 200.921 16.8501 201.172 17.1703L202.039 16.4897ZM200.645 15.3772C200.067 15.071 199.369 14.9352 198.581 14.9352V16.0368C199.25 16.0368 199.756 16.153 200.13 16.3508L200.645 15.3772ZM198.581 14.9352C197.816 14.9352 197.126 15.0729 196.529 15.3713L197.022 16.3567C197.433 16.1511 197.947 16.0368 198.581 16.0368V14.9352ZM196.552 15.3606C195.978 15.6156 195.49 15.9712 195.097 16.4295L195.934 17.1465C196.213 16.8208 196.565 16.5604 196.999 16.3674L196.552 15.3606ZM195.097 16.4295C194.715 16.8759 194.417 17.3962 194.201 17.9836L195.234 18.3644C195.41 17.8878 195.644 17.4841 195.934 17.1465L195.097 16.4295ZM194.195 17.9998C194.017 18.533 193.884 19.0805 193.795 19.6421L194.884 19.8139C194.963 19.3115 195.082 18.823 195.24 18.3482L194.195 17.9998ZM194.339 20.2788H202.613V19.1772H194.339V20.2788ZM222.269 28.17L222.503 28.6684L222.269 28.17ZM222.059 25.566L221.763 26.0307L221.771 26.0356L221.779 26.0402L222.059 25.566ZM219.245 24.264L219.439 23.7487L219.437 23.7476L219.245 24.264ZM216.557 23.13L216.31 23.6227L216.317 23.6261L216.557 23.13ZM214.541 21.744L214.151 22.1336L214.161 22.1434L214.541 21.744ZM213.239 19.77L213.749 19.5622L213.239 19.77ZM215.087 12.126L215.426 12.5599L215.087 12.126ZM225.293 10.698L225.182 11.2378L225.194 11.2399L225.293 10.698ZM228.233 11.454L228.77 11.5745L228.874 11.1106L228.431 10.9399L228.233 11.454ZM227.141 16.326L226.961 16.8465L227.543 17.0483L227.678 16.4465L227.141 16.326ZM224.747 15.654L224.622 16.1904L224.625 16.1913L224.747 15.654ZM219.581 18.258L219.243 18.6928L219.258 18.7052L219.275 18.7163L219.581 18.258ZM220.589 18.846L220.33 19.332L220.348 19.3421L220.368 19.3507L220.589 18.846ZM222.269 19.518L222.075 20.0338L222.079 20.035L222.269 19.518ZM225.671 21.03L225.401 21.5102L225.412 21.5164L225.671 21.03ZM227.771 22.626L227.353 22.9845L227.362 22.9952L227.371 23.0054L227.771 22.626ZM228.863 24.516L228.332 24.6645L228.335 24.6743L228.338 24.6839L228.863 24.516ZM226.721 31.908L226.412 31.4521L226.408 31.4545L226.721 31.908ZM214.877 33.084L214.738 33.617L214.741 33.6177L214.877 33.084ZM212.189 32.244L211.649 32.1325L211.56 32.5671L211.965 32.7474L212.189 32.244ZM213.239 27.162L213.441 26.6496L212.832 26.4092L212.699 27.0505L213.239 27.162ZM216.515 28.17L216.394 28.7076L216.407 28.7101L216.515 28.17ZM219.833 29.0568C220.988 29.0568 221.908 28.9485 222.503 28.6684L222.034 27.6716C221.678 27.8395 220.974 27.9552 219.833 27.9552V29.0568ZM222.503 28.6684C222.84 28.5101 223.109 28.2671 223.287 27.9414C223.462 27.6224 223.534 27.2555 223.534 26.868H222.432C222.432 27.1245 222.384 27.2966 222.321 27.4116C222.262 27.5199 222.174 27.6059 222.034 27.6716L222.503 28.6684ZM223.534 26.868C223.534 26.0931 223.045 25.5088 222.339 25.0918L221.779 26.0402C222.305 26.3512 222.432 26.6349 222.432 26.868H223.534ZM222.355 25.1013C221.69 24.6787 220.71 24.2289 219.439 23.7487L219.05 24.7793C220.299 25.2511 221.195 25.6693 221.763 26.0307L222.355 25.1013ZM219.437 23.7476C218.47 23.3887 217.59 23.0174 216.796 22.6339L216.317 23.6261C217.147 24.0266 218.059 24.4113 219.053 24.7804L219.437 23.7476ZM216.803 22.6373C216.061 22.2665 215.436 21.8345 214.92 21.3446L214.161 22.1434C214.766 22.7175 215.484 23.2095 216.31 23.6227L216.803 22.6373ZM214.93 21.3545C214.424 20.848 214.03 20.2523 213.749 19.5622L212.729 19.9778C213.063 20.7997 213.538 21.52 214.151 22.1335L214.93 21.3545ZM213.749 19.5622C213.475 18.8889 213.328 18.0533 213.328 17.04H212.226C212.226 18.1547 212.387 19.1391 212.729 19.9778L213.749 19.5622ZM213.328 17.04C213.328 15.1257 214.029 13.6525 215.426 12.5599L214.748 11.692C213.065 13.0075 212.226 14.8103 212.226 17.04H213.328ZM215.426 12.5599C216.839 11.4556 218.818 10.8708 221.429 10.8708V9.76917C218.663 9.76917 216.415 10.3884 214.748 11.692L215.426 12.5599ZM221.429 10.8708C222.738 10.8708 223.989 10.9936 225.182 11.2377L225.403 10.1583C224.132 9.89842 222.807 9.76917 221.429 9.76917V10.8708ZM225.194 11.2399C226.41 11.461 227.352 11.7056 228.035 11.9681L228.431 10.9399C227.657 10.6424 226.64 10.383 225.391 10.1561L225.194 11.2399ZM227.695 11.3335L226.603 16.2055L227.678 16.4465L228.77 11.5745L227.695 11.3335ZM227.321 15.8055C226.571 15.5459 225.753 15.3165 224.868 15.1167L224.625 16.1913C225.477 16.3835 226.255 16.6021 226.961 16.8465L227.321 15.8055ZM224.872 15.1176C223.983 14.9101 222.988 14.8092 221.891 14.8092V15.9108C222.922 15.9108 223.831 16.0059 224.622 16.1904L224.872 15.1176ZM221.891 14.8092C220.878 14.8092 220.03 14.9471 219.418 15.2883C219.103 15.4635 218.842 15.6974 218.662 15.9986C218.481 16.3005 218.4 16.64 218.4 16.998H219.502C219.502 16.81 219.543 16.6717 219.607 16.5642C219.672 16.4559 219.778 16.3485 219.954 16.2507C220.322 16.0459 220.944 15.9108 221.891 15.9108V14.8092ZM218.4 16.998C218.4 17.3112 218.452 17.6111 218.57 17.887L219.583 17.453C219.533 17.3369 219.502 17.1888 219.502 16.998H218.4ZM218.57 17.887C218.705 18.2008 218.951 18.4658 219.243 18.6928L219.919 17.8232C219.707 17.6582 219.617 17.5312 219.583 17.453L218.57 17.887ZM219.275 18.7163C219.548 18.8983 219.902 19.1037 220.33 19.332L220.848 18.36C220.436 18.1403 220.117 17.9537 219.886 17.7997L219.275 18.7163ZM220.368 19.3507C220.828 19.552 221.398 19.7797 222.075 20.0338L222.462 19.0022C221.796 18.7523 221.245 18.532 220.81 18.3414L220.368 19.3507ZM222.079 20.035C223.434 20.5328 224.539 21.0251 225.401 21.5101L225.941 20.5499C225.011 20.0269 223.848 19.5112 222.459 19.0009L222.079 20.035ZM225.412 21.5164C226.265 21.9697 226.905 22.4622 227.353 22.9845L228.189 22.2675C227.629 21.6138 226.868 21.0424 225.929 20.5435L225.412 21.5164ZM227.371 23.0054C227.846 23.5045 228.162 24.0564 228.332 24.6645L229.393 24.3675C229.171 23.5756 228.76 22.8675 228.17 22.2466L227.371 23.0054ZM228.338 24.6839C228.541 25.3177 228.648 26.071 228.648 26.952H229.75C229.75 25.985 229.633 25.1143 229.387 24.3481L228.338 24.6839ZM228.648 26.952C228.648 28.9736 227.896 30.4454 226.412 31.4521L227.03 32.3639C228.849 31.1306 229.75 29.2984 229.75 26.952H228.648ZM226.408 31.4545C224.912 32.4861 222.729 33.0372 219.791 33.0372V34.1388C222.844 34.1388 225.281 33.5699 227.034 32.3615L226.408 31.4545ZM219.791 33.0372C217.858 33.0372 216.27 32.8711 215.013 32.5503L214.741 33.6177C216.116 33.9689 217.803 34.1388 219.791 34.1388V33.0372ZM215.016 32.551C213.728 32.215 212.871 31.9445 212.412 31.7406L211.965 32.7474C212.514 32.9915 213.45 33.281 214.738 33.617L215.016 32.551ZM212.728 32.3555L213.778 27.2735L212.699 27.0505L211.649 32.1325L212.728 32.3555ZM213.037 27.6744C214.127 28.1048 215.246 28.4492 216.394 28.7074L216.636 27.6326C215.543 27.3868 214.479 27.0592 213.441 26.6496L213.037 27.6744ZM216.407 28.7101C217.561 28.9409 218.703 29.0568 219.833 29.0568V27.9552C218.779 27.9552 217.709 27.8471 216.623 27.6299L216.407 28.7101ZM240.134 33V33.5508H240.684V33H240.134ZM233.876 33H233.325V33.5508H233.876V33ZM233.876 10.908V10.3572H233.325V10.908H233.876ZM240.134 10.908H240.684V10.3572H240.134V10.908ZM239.588 7.254L239.953 7.66657L239.954 7.6657L239.588 7.254ZM234.338 7.254L233.964 7.65875L233.972 7.6662L233.98 7.67332L234.338 7.254ZM234.338 1.836L234.703 2.24857L234.704 2.2477L234.338 1.836ZM239.588 1.836L239.214 2.24075L239.222 2.2482L239.23 2.25532L239.588 1.836ZM240.134 32.4492H233.876V33.5508H240.134V32.4492ZM234.426 33V10.908H233.325V33H234.426ZM233.876 11.4588H240.134V10.3572H233.876V11.4588ZM239.583 10.908V33H240.684V10.908H239.583ZM240.171 4.524C240.171 5.53823 239.843 6.28953 239.222 6.8423L239.954 7.6657C240.844 6.87447 241.272 5.80577 241.272 4.524H240.171ZM239.223 6.84143C238.599 7.39279 237.863 7.66916 236.984 7.66916V8.77083C238.121 8.77083 239.12 8.40321 239.953 7.66657L239.223 6.84143ZM236.984 7.66916C236.104 7.66916 235.349 7.3924 234.695 6.83468L233.98 7.67332C234.838 8.40359 235.847 8.77083 236.984 8.77083V7.66916ZM234.711 6.84925C234.114 6.29838 233.796 5.54501 233.796 4.524H232.695C232.695 5.79899 233.105 6.86562 233.964 7.65875L234.711 6.84925ZM233.796 4.524C233.796 3.50243 234.114 2.76889 234.703 2.24857L233.973 1.42343C233.105 2.1911 232.695 3.24956 232.695 4.524H233.796ZM234.704 2.2477C235.359 1.66498 236.111 1.37883 236.984 1.37883V0.277164C235.84 0.277164 234.828 0.663017 233.972 1.4243L234.704 2.2477ZM236.984 1.37883C237.856 1.37883 238.59 1.66447 239.214 2.24075L239.961 1.43124C239.129 0.663523 238.127 0.277164 236.984 0.277164V1.37883ZM239.23 2.25532C239.844 2.77778 240.171 3.5094 240.171 4.524H241.272C241.272 3.24259 240.843 2.18222 239.945 1.41668L239.23 2.25532ZM257.398 26.238L257.24 25.7104L257.398 26.238ZM258.826 25.65L259.099 26.1283L259.377 25.9697V25.65H258.826ZM258.826 15.654H259.377V15.1943L258.925 15.112L258.826 15.654ZM257.734 15.528L257.661 16.074L257.679 16.0764L257.698 16.0776L257.734 15.528ZM252.568 17.082L252.126 16.7533L252.568 17.082ZM262.312 38.25L261.935 37.8485L261.929 37.8545L262.312 38.25ZM249.796 40.518L249.898 39.9765L249.887 39.9747L249.796 40.518ZM246.058 39.594L245.519 39.4818L245.42 39.9581L245.88 40.1153L246.058 39.594ZM247.15 34.344L247.355 33.8326L246.745 33.5885L246.611 34.2318L247.15 34.344ZM250.216 35.268L250.103 35.807L250.105 35.8076L250.216 35.268ZM257.692 34.428L257.296 34.0456L257.289 34.0532L257.692 34.428ZM258.826 30.606H259.377V29.7476L258.597 30.1053L258.826 30.606ZM256.726 31.32L256.834 31.8601L256.842 31.8585L256.85 31.8567L256.726 31.32ZM247.402 28.842L246.991 29.2087L246.994 29.2119L247.402 28.842ZM245.722 16.83L246.237 17.027L246.238 17.0234L245.722 16.83ZM247.906 13.386L247.522 12.9909L247.517 12.9965L247.906 13.386ZM251.476 11.202L251.663 11.7204L251.672 11.7169L251.476 11.202ZM258.532 10.53L258.473 11.0777L258.484 11.0788L258.494 11.0795L258.532 10.53ZM263.152 11.202L263.024 11.7376L263.036 11.7405L263.048 11.7429L263.152 11.202ZM265.084 11.664H265.635V11.2542L265.242 11.1364L265.084 11.664ZM250.799 21.24C250.799 23.0498 251.163 24.5093 251.982 25.5237C252.82 26.5605 254.058 27.0408 255.592 27.0408V25.9392C254.298 25.9392 253.415 25.5445 252.839 24.8313C252.245 24.0957 251.901 22.9302 251.901 21.24H250.799ZM255.592 27.0408C256.284 27.0408 256.94 26.9505 257.556 26.7656L257.24 25.7104C256.736 25.8615 256.188 25.9392 255.592 25.9392V27.0408ZM257.556 26.7656C258.145 26.5889 258.662 26.3781 259.099 26.1283L258.553 25.1717C258.206 25.3699 257.771 25.5511 257.24 25.7104L257.556 26.7656ZM259.377 25.65V15.654H258.275V25.65H259.377ZM258.925 15.112C258.591 15.0513 258.205 15.0073 257.771 14.9784L257.698 16.0776C258.103 16.1047 258.446 16.1447 258.728 16.1959L258.925 15.112ZM257.807 14.982C257.357 14.9219 256.841 14.8932 256.264 14.8932V15.9948C256.807 15.9948 257.272 16.0221 257.661 16.074L257.807 14.982ZM256.264 14.8932C254.48 14.8932 253.065 15.4911 252.126 16.7533L253.01 17.4107C253.696 16.4889 254.745 15.9948 256.264 15.9948V14.8932ZM252.126 16.7533C251.228 17.9608 250.799 19.4699 250.799 21.24H251.901C251.901 19.6501 252.284 18.3872 253.01 17.4107L252.126 16.7533ZM264.533 30.228C264.533 33.7537 263.632 36.2544 261.935 37.8485L262.689 38.6515C264.688 36.7736 265.635 33.9263 265.635 30.228H264.533ZM261.929 37.8545C260.254 39.478 257.593 40.3452 253.828 40.3452V41.4468C257.735 41.4468 260.731 40.55 262.696 38.6455L261.929 37.8545ZM253.828 40.3452C252.519 40.3452 251.209 40.2224 249.898 39.9766L249.695 41.0594C251.072 41.3176 252.45 41.4468 253.828 41.4468V40.3452ZM249.887 39.9747C248.569 39.755 247.352 39.4539 246.236 39.0727L245.88 40.1153C247.06 40.5181 248.335 40.833 249.706 41.0613L249.887 39.9747ZM246.597 39.7062L247.689 34.4562L246.611 34.2318L245.519 39.4818L246.597 39.7062ZM246.946 34.8554C247.956 35.2596 249.009 35.5767 250.103 35.807L250.33 34.729C249.296 34.5113 248.304 34.2124 247.355 33.8326L246.946 34.8554ZM250.105 35.8076C251.241 36.0405 252.511 36.1548 253.912 36.1548V35.0532C252.569 35.0532 251.375 34.9435 250.327 34.7284L250.105 35.8076ZM253.912 36.1548C255.759 36.1548 257.211 35.7552 258.096 34.8028L257.289 34.0532C256.717 34.6688 255.65 35.0532 253.912 35.0532V36.1548ZM258.089 34.8104C258.957 33.91 259.377 32.7583 259.377 31.404H258.275C258.275 32.5137 257.939 33.378 257.296 34.0456L258.089 34.8104ZM259.377 31.404V30.606H258.275V31.404H259.377ZM258.597 30.1053C257.959 30.3975 257.294 30.6236 256.602 30.7833L256.85 31.8567C257.614 31.6804 258.349 31.4305 259.056 31.1067L258.597 30.1053ZM256.618 30.7799C255.959 30.9116 255.226 30.9792 254.416 30.9792V32.0808C255.286 32.0808 256.093 32.0084 256.834 31.8601L256.618 30.7799ZM254.416 30.9792C251.476 30.9792 249.304 30.1201 247.81 28.4721L246.994 29.2119C248.748 31.1479 251.252 32.0808 254.416 32.0808V30.9792ZM247.813 28.4753C246.306 26.7857 245.517 24.3983 245.517 21.24H244.415C244.415 24.5777 245.251 27.2583 246.991 29.2087L247.813 28.4753ZM245.517 21.24C245.517 19.6732 245.76 18.2713 246.237 17.027L245.208 16.633C244.676 18.0207 244.415 19.5588 244.415 21.24H245.517ZM246.238 17.0234C246.716 15.7481 247.403 14.6683 248.296 13.7755L247.517 12.9965C246.505 14.0077 245.736 15.2239 245.206 16.6366L246.238 17.0234ZM248.29 13.7811C249.209 12.8884 250.33 12.2001 251.663 11.7203L251.29 10.6837C249.822 11.2119 248.563 11.9796 247.522 12.9909L248.29 13.7811ZM251.672 11.7169C252.999 11.2125 254.513 10.9548 256.222 10.9548V9.85316C254.403 9.85316 252.753 10.1275 251.281 10.6871L251.672 11.7169ZM256.222 10.9548C256.958 10.9548 257.708 10.9957 258.473 11.0777L258.591 9.9823C257.788 9.8963 256.999 9.85316 256.222 9.85316V10.9548ZM258.494 11.0795C259.293 11.1346 260.078 11.2172 260.848 11.3273L261.004 10.2367C260.206 10.1228 259.395 10.0374 258.57 9.98047L258.494 11.0795ZM260.848 11.3273C261.617 11.4371 262.342 11.574 263.024 11.7376L263.281 10.6664C262.562 10.494 261.803 10.3509 261.004 10.2367L260.848 11.3273ZM263.048 11.7429C263.762 11.8803 264.388 12.0301 264.926 12.1916L265.242 11.1364C264.661 10.9618 263.998 10.8037 263.256 10.6611L263.048 11.7429ZM264.533 11.664V30.228H265.635V11.664H264.533ZM270.954 11.664L270.801 11.1349L270.403 11.25V11.664H270.954ZM275.07 10.824L275.151 11.3688L275.16 11.3673L275.07 10.824ZM285.024 11.16L284.815 11.6698L284.822 11.6726L284.829 11.6753L285.024 11.16ZM288.006 13.218L287.578 13.5654L288.006 13.218ZM289.56 16.41L289.025 16.5436V16.5436L289.56 16.41ZM290.022 33V33.5508H290.573V33H290.022ZM283.764 33H283.213V33.5508H283.764V33ZM282.966 16.998L282.5 17.2927L282.966 16.998ZM278.556 15.822L278.586 16.372L278.601 16.3711L278.617 16.3695L278.556 15.822ZM277.212 15.948L277.134 15.4027L276.661 15.4703V15.948H277.212ZM277.212 33V33.5508H277.763V33H277.212ZM270.954 33H270.403V33.5508H270.954V33ZM271.107 12.1931C272.139 11.8945 273.484 11.6188 275.151 11.3687L274.988 10.2793C273.295 10.5332 271.897 10.8175 270.801 11.1349L271.107 12.1931ZM275.16 11.3673C276.808 11.0927 278.541 10.9548 280.362 10.9548V9.85316C278.486 9.85316 276.691 9.99527 274.979 10.2807L275.16 11.3673ZM280.362 10.9548C282.193 10.9548 283.67 11.2016 284.815 11.6698L285.232 10.6502C283.913 10.1104 282.282 9.85316 280.362 9.85316V10.9548ZM284.829 11.6753C286.013 12.1227 286.921 12.7567 287.578 13.5654L288.433 12.8706C287.634 11.8873 286.554 11.1493 285.218 10.6447L284.829 11.6753ZM287.578 13.5654C288.25 14.3927 288.735 15.3819 289.025 16.5436L290.094 16.2764C289.768 14.9741 289.217 13.8353 288.433 12.8706L287.578 13.5654ZM289.025 16.5436C289.321 17.7245 289.471 19.0508 289.471 20.526H290.573C290.573 18.9772 290.415 17.5595 290.094 16.2764L289.025 16.5436ZM289.471 20.526V33H290.573V20.526H289.471ZM290.022 32.4492H283.764V33.5508H290.022V32.4492ZM284.315 33V21.282H283.213V33H284.315ZM284.315 21.282C284.315 19.2492 284.052 17.684 283.431 16.7033L282.5 17.2927C282.943 17.992 283.213 19.2828 283.213 21.282H284.315ZM283.431 16.7033C282.756 15.6376 281.534 15.1872 279.984 15.1872V16.2888C281.346 16.2888 282.111 16.6784 282.5 17.2927L283.431 16.7033ZM279.984 15.1872C279.513 15.1872 279.016 15.2166 278.495 15.2745L278.617 16.3695C279.103 16.3154 279.558 16.2888 279.984 16.2888V15.1872ZM278.525 15.272C278.009 15.3007 277.545 15.3439 277.134 15.4027L277.29 16.4933C277.662 16.4401 278.094 16.3993 278.586 16.372L278.525 15.272ZM276.661 15.948V33H277.763V15.948H276.661ZM277.212 32.4492H270.954V33.5508H277.212V32.4492ZM271.505 33V11.664H270.403V33H271.505Z" fill="#BDBDBD"/>
</svg>
