<svg width="13" height="341" viewBox="0 0 13 341" fill="none" xmlns="http://www.w3.org/2000/svg">
<path d="M0.799999 330.729H12V331.769H0.799999V330.729ZM0.799999 338.313H12V339.353H0.799999V338.313ZM6.224 331.625H6.704V338.473H6.224V331.625ZM10.832 339.305H12V340.585H11.84C11.84 340.585 11.84 340.553 11.84 340.489C11.84 340.415 11.84 340.377 11.84 340.377C11.84 340.1 11.744 339.865 11.552 339.673C11.3493 339.471 11.1093 339.364 10.832 339.353V339.305ZM1.968 339.305V339.353C1.69067 339.364 1.456 339.471 1.264 339.673C1.06133 339.865 0.959999 340.1 0.959999 340.377C0.959999 340.377 0.959999 340.415 0.959999 340.489C0.959999 340.553 0.959999 340.585 0.959999 340.585H0.799999V339.305H1.968ZM10.832 338.361V338.313C11.1093 338.303 11.3493 338.201 11.552 338.009C11.744 337.807 11.84 337.567 11.84 337.289C11.84 337.289 11.84 337.257 11.84 337.193C11.84 337.129 11.84 337.092 11.84 337.081H12V338.361H10.832ZM1.968 338.361H0.799999V337.081H0.959999C0.959999 337.092 0.959999 337.129 0.959999 337.193C0.959999 337.257 0.959999 337.289 0.959999 337.289C0.959999 337.567 1.06133 337.807 1.264 338.009C1.456 338.201 1.69067 338.303 1.968 338.313V338.361ZM10.832 331.721H12V333.001H11.84C11.84 332.991 11.84 332.953 11.84 332.889C11.84 332.825 11.84 332.793 11.84 332.793C11.84 332.516 11.744 332.276 11.552 332.073C11.3493 331.871 11.1093 331.769 10.832 331.769V331.721ZM1.968 331.721V331.769C1.69067 331.769 1.456 331.871 1.264 332.073C1.06133 332.276 0.959999 332.516 0.959999 332.793C0.959999 332.793 0.959999 332.825 0.959999 332.889C0.959999 332.953 0.959999 332.991 0.959999 333.001H0.799999V331.721H1.968ZM10.832 330.777V330.729C11.1093 330.719 11.3493 330.617 11.552 330.425C11.744 330.223 11.84 329.983 11.84 329.705C11.84 329.705 11.84 329.673 11.84 329.609C11.84 329.535 11.84 329.497 11.84 329.497H12V330.777H10.832ZM1.968 330.777H0.799999V329.497H0.959999C0.959999 329.497 0.959999 329.535 0.959999 329.609C0.959999 329.673 0.959999 329.705 0.959999 329.705C0.959999 329.983 1.06133 330.223 1.264 330.425C1.456 330.617 1.69067 330.719 1.968 330.729V330.777ZM0.575999 318.778C0.575999 317.637 0.821333 316.634 1.312 315.77C1.792 314.906 2.46933 314.234 3.344 313.754C4.21867 313.264 5.23733 313.018 6.4 313.018C7.56267 313.018 8.58133 313.264 9.456 313.754C10.3307 314.234 11.0133 314.906 11.504 315.77C11.984 316.634 12.224 317.637 12.224 318.778C12.224 319.909 11.984 320.906 11.504 321.77C11.0133 322.634 10.3307 323.312 9.456 323.802C8.58133 324.282 7.56267 324.522 6.4 324.522C5.23733 324.522 4.21867 324.282 3.344 323.802C2.46933 323.312 1.792 322.634 1.312 321.77C0.821333 320.906 0.575999 319.909 0.575999 318.778ZM11.744 318.778C11.744 317.872 11.52 317.082 11.072 316.41C10.624 315.728 10 315.2 9.2 314.826C8.4 314.442 7.46667 314.25 6.4 314.25C5.33333 314.25 4.4 314.442 3.6 314.826C2.8 315.2 2.176 315.728 1.728 316.41C1.28 317.082 1.056 317.872 1.056 318.778C1.056 319.674 1.28 320.464 1.728 321.146C2.176 321.818 2.8 322.346 3.6 322.73C4.4 323.104 5.33333 323.29 6.4 323.29C7.46667 323.29 8.4 323.104 9.2 322.73C10 322.346 10.624 321.818 11.072 321.146C11.52 320.464 11.744 319.674 11.744 318.778ZM0.799999 306.116H12V307.156H0.799999V306.116ZM11.504 301.796H12V306.164H11.504V301.796ZM9.408 300.82L12 301.748V304.404L11.504 303.828C11.504 303.263 11.4187 302.804 11.248 302.452C11.0667 302.09 10.816 301.796 10.496 301.572C10.176 301.348 9.81333 301.151 9.408 300.98V300.82ZM10.832 307.108H12V308.388H11.84C11.84 308.388 11.84 308.356 11.84 308.292C11.84 308.218 11.84 308.18 11.84 308.18C11.84 307.903 11.744 307.668 11.552 307.476C11.3493 307.274 11.1093 307.167 10.832 307.156V307.108ZM1.968 307.108V307.156C1.69067 307.167 1.456 307.274 1.264 307.476C1.06133 307.668 0.959999 307.903 0.959999 308.18C0.959999 308.18 0.959999 308.218 0.959999 308.292C0.959999 308.356 0.959999 308.388 0.959999 308.388H0.799999V307.108H1.968ZM1.968 306.164H0.799999L0.799999 304.884H0.959999C0.959999 304.895 0.959999 304.932 0.959999 304.996C0.959999 305.06 0.959999 305.092 0.959999 305.092C0.959999 305.37 1.06133 305.61 1.264 305.812C1.456 306.004 1.69067 306.106 1.968 306.116V306.164ZM0.575999 291.42L11.904 286.684V288.044L2.096 291.74L0.575999 291.42ZM10.832 294.86C11.0453 294.935 11.2267 294.945 11.376 294.892C11.5253 294.839 11.6427 294.753 11.728 294.636C11.8027 294.508 11.84 294.38 11.84 294.252V294.108H12V297.324H11.84C11.84 297.324 11.84 297.297 11.84 297.244C11.84 297.201 11.84 297.18 11.84 297.18C11.84 296.935 11.7653 296.684 11.616 296.428C11.456 296.161 11.1947 295.943 10.832 295.772V294.86ZM0.575999 291.42L1.696 291.276L11.952 295.292V296.252L2.224 292.156C2.224 292.156 2.16 292.129 2.032 292.076C1.89333 292.012 1.728 291.943 1.536 291.868C1.344 291.783 1.15733 291.713 0.976 291.66C0.794666 291.596 0.661333 291.564 0.575999 291.564V291.42ZM7.632 289.164H8.112V294.172H7.632V289.164ZM10.832 288.444V287.132C11.1947 286.972 11.456 286.759 11.616 286.492C11.7653 286.225 11.84 285.969 11.84 285.724C11.84 285.724 11.84 285.703 11.84 285.66C11.84 285.617 11.84 285.596 11.84 285.596H12V289.196H11.84V289.052C11.84 288.849 11.7547 288.668 11.584 288.508C11.4027 288.348 11.152 288.327 10.832 288.444ZM12.064 273.533C12.064 273.736 11.9947 273.907 11.856 274.045C11.7173 274.184 11.5467 274.253 11.344 274.253C11.1413 274.253 10.9707 274.184 10.832 274.045C10.6933 273.907 10.624 273.736 10.624 273.533C10.624 273.331 10.6933 273.16 10.832 273.021C10.9707 272.883 11.1413 272.813 11.344 272.813C11.5467 272.813 11.7173 272.883 11.856 273.021C11.9947 273.16 12.064 273.331 12.064 273.533ZM9.28 273.469V273.629L5.552 273.949L0.768 274.141V272.941L5.552 273.133L9.28 273.469ZM0.799999 258.054H12V259.094H0.799999V258.054ZM11.504 253.734H12L12 258.102H11.504V253.734ZM9.408 252.758L12 253.686L12 256.342L11.504 255.766C11.504 255.201 11.4187 254.742 11.248 254.39C11.0667 254.027 10.816 253.734 10.496 253.51C10.176 253.286 9.81333 253.089 9.408 252.918V252.758ZM10.832 259.046H12V260.326H11.84C11.84 260.326 11.84 260.294 11.84 260.23C11.84 260.155 11.84 260.118 11.84 260.118C11.84 259.841 11.744 259.606 11.552 259.414C11.3493 259.211 11.1093 259.105 10.832 259.094V259.046ZM1.968 259.046V259.094C1.69067 259.105 1.456 259.211 1.264 259.414C1.06133 259.606 0.959999 259.841 0.959999 260.118C0.959999 260.118 0.959999 260.155 0.959999 260.23C0.959999 260.294 0.959999 260.326 0.959999 260.326H0.799999V259.046H1.968ZM1.968 258.102H0.799999V256.822H0.959999C0.959999 256.833 0.959999 256.87 0.959999 256.934C0.959999 256.998 0.959999 257.03 0.959999 257.03C0.959999 257.307 1.06133 257.547 1.264 257.75C1.456 257.942 1.69067 258.043 1.968 258.054V258.102ZM0.799999 246.104H12V247.144H0.799999V246.104ZM11.504 241.784H12V246.152H11.504V241.784ZM6.24 242.472H6.72V246.152H6.24V242.472ZM0.799999 241.784H1.296V246.152H0.799999V241.784ZM9.408 240.808L12 241.736V244.392L11.504 243.816C11.504 243.251 11.4187 242.792 11.248 242.44C11.0667 242.077 10.816 241.784 10.496 241.56C10.176 241.336 9.81333 241.139 9.408 240.968V240.808ZM6.688 242.472H7.744V242.632H7.504C7.29067 242.632 7.10933 242.707 6.96 242.856C6.8 243.005 6.72 243.187 6.72 243.4H6.688V242.472ZM5.216 242.472H6.272V243.4H6.24C6.22933 243.187 6.14933 243.005 6 242.856C5.84 242.707 5.65333 242.632 5.44 242.632H5.216V242.472ZM1.248 241.784H2.528V241.944H2.24C1.984 241.944 1.76533 242.035 1.584 242.216C1.392 242.397 1.29067 242.621 1.28 242.888H1.248V241.784ZM0.511999 241.784H0.976L0.799999 243.736C0.799999 243.501 0.783999 243.256 0.752 243C0.72 242.733 0.682666 242.488 0.639999 242.264C0.597333 242.04 0.554666 241.88 0.511999 241.784ZM10.832 247.096H12V248.376H11.84C11.84 248.376 11.84 248.344 11.84 248.28C11.84 248.205 11.84 248.168 11.84 248.168C11.84 247.891 11.744 247.656 11.552 247.464C11.3493 247.261 11.1093 247.155 10.832 247.144V247.096ZM1.968 247.096V247.144C1.69067 247.144 1.456 247.245 1.264 247.448C1.06133 247.651 0.959999 247.891 0.959999 248.168C0.959999 248.168 0.959999 248.2 0.959999 248.264C0.959999 248.328 0.959999 248.36 0.959999 248.36L0.799999 248.376L0.799999 247.096H1.968ZM0.575999 231.158L11.904 226.422V227.782L2.096 231.478L0.575999 231.158ZM10.832 234.598C11.0453 234.672 11.2267 234.683 11.376 234.63C11.5253 234.576 11.6427 234.491 11.728 234.374C11.8027 234.246 11.84 234.118 11.84 233.99V233.846H12V237.062H11.84C11.84 237.062 11.84 237.035 11.84 236.982C11.84 236.939 11.84 236.918 11.84 236.918C11.84 236.672 11.7653 236.422 11.616 236.166C11.456 235.899 11.1947 235.68 10.832 235.51V234.598ZM0.575999 231.158L1.696 231.014L11.952 235.03V235.99L2.224 231.894C2.224 231.894 2.16 231.867 2.032 231.814C1.89333 231.75 1.728 231.68 1.536 231.606C1.344 231.52 1.15733 231.451 0.976 231.398C0.794666 231.334 0.661333 231.302 0.575999 231.302V231.158ZM7.632 228.902H8.112V233.91H7.632V228.902ZM10.832 228.182V226.87C11.1947 226.71 11.456 226.496 11.616 226.23C11.7653 225.963 11.84 225.707 11.84 225.462C11.84 225.462 11.84 225.44 11.84 225.398C11.84 225.355 11.84 225.334 11.84 225.334H12V228.934H11.84V228.79C11.84 228.587 11.7547 228.406 11.584 228.246C11.4027 228.086 11.152 228.064 10.832 228.182ZM0.799999 219.287L0.799999 217.031C0.799999 216.551 0.869333 216.119 1.008 215.735C1.14667 215.34 1.34933 215.01 1.616 214.743C1.872 214.476 2.18667 214.274 2.56 214.135C2.92267 213.986 3.33867 213.911 3.808 213.911C4.32 213.911 4.81067 214.034 5.28 214.279C5.74933 214.514 6.13333 214.839 6.432 215.255C6.72 215.66 6.864 216.119 6.864 216.631C6.93867 216.45 7.09333 216.252 7.328 216.039C7.552 215.826 7.77067 215.639 7.984 215.479C7.984 215.479 8.09067 215.41 8.304 215.271C8.50667 215.122 8.75733 214.94 9.056 214.727C9.35467 214.503 9.648 214.279 9.936 214.055C10.224 213.831 10.4533 213.639 10.624 213.479C10.8587 213.266 11.0667 213.052 11.248 212.839C11.4293 212.626 11.5733 212.396 11.68 212.151C11.7867 211.895 11.84 211.612 11.84 211.303H12V212.183C12 212.674 11.9253 213.1 11.776 213.463C11.6267 213.815 11.4453 214.114 11.232 214.359C11.008 214.604 10.7947 214.812 10.592 214.983C10.5493 215.015 10.4267 215.106 10.224 215.255C10.0213 215.394 9.78133 215.564 9.504 215.767C9.216 215.959 8.93333 216.151 8.656 216.343C8.37867 216.535 8.144 216.7 7.952 216.839C7.74933 216.978 7.632 217.058 7.6 217.079C7.33333 217.282 7.088 217.506 6.864 217.751C6.64 217.996 6.528 218.263 6.528 218.551H6.368C6.368 218.551 6.37333 218.471 6.384 218.311C6.384 218.14 6.37867 217.938 6.368 217.703C6.35733 217.426 6.31467 217.122 6.24 216.791C6.16533 216.46 6.01067 216.151 5.776 215.863C5.54133 215.575 5.184 215.356 4.704 215.207C4.58667 215.175 4.44267 215.148 4.272 215.127C4.09067 215.106 3.91467 215.1 3.744 215.111C3.01867 215.122 2.44267 215.308 2.016 215.671C1.57867 216.023 1.344 216.498 1.312 217.095C1.29067 217.394 1.28533 217.703 1.296 218.023C1.296 218.332 1.296 218.594 1.296 218.807C1.296 219.02 1.296 219.127 1.296 219.127C1.28533 219.127 1.24267 219.143 1.168 219.175C1.08267 219.196 1.00267 219.223 0.927999 219.255C0.842666 219.276 0.799999 219.287 0.799999 219.287ZM0.799999 219.079H12V220.119H0.799999V219.079ZM10.832 220.071H12V221.351H11.84C11.84 221.351 11.84 221.319 11.84 221.255C11.84 221.18 11.84 221.143 11.84 221.143C11.84 220.866 11.744 220.631 11.552 220.439C11.3493 220.236 11.1093 220.13 10.832 220.119V220.071ZM1.968 220.071V220.119C1.69067 220.13 1.456 220.236 1.264 220.439C1.06133 220.631 0.959999 220.866 0.959999 221.143C0.959999 221.143 0.959999 221.18 0.959999 221.255C0.959999 221.319 0.959999 221.351 0.959999 221.351H0.799999V220.071H1.968ZM10.832 219.127V219.079C11.1093 219.079 11.3493 218.978 11.552 218.775C11.744 218.572 11.84 218.332 11.84 218.055C11.84 218.055 11.84 218.023 11.84 217.959C11.84 217.895 11.84 217.863 11.84 217.863H12V219.127H10.832ZM0.559999 206.751L10.48 197.455L12.224 197.311L2.32 206.607L0.559999 206.751ZM10.864 206.719H12V208.047H11.84C11.84 208.047 11.84 207.999 11.84 207.903C11.84 207.807 11.84 207.754 11.84 207.743C11.84 207.477 11.744 207.247 11.552 207.055C11.36 206.863 11.1307 206.767 10.864 206.767V206.719ZM10.864 206.031C11.1307 206.031 11.36 205.935 11.552 205.743C11.744 205.551 11.84 205.322 11.84 205.055C11.84 205.045 11.84 204.991 11.84 204.895C11.84 204.799 11.84 204.751 11.84 204.751H12V206.079H10.864V206.031ZM0.559999 206.751L1.456 206.047L12 206.031V206.767H2.56C2.016 206.767 1.54667 206.794 1.152 206.847C0.757333 206.89 0.559999 206.911 0.559999 206.911V206.751ZM0.799999 197.311H10.176C10.5173 197.311 10.848 197.301 11.168 197.279C11.4773 197.258 11.7333 197.237 11.936 197.215C12.128 197.183 12.224 197.167 12.224 197.167V197.311L11.376 198.031H0.799999V197.311ZM0.799999 196.031H0.959999C0.959999 196.031 0.959999 196.079 0.959999 196.175C0.959999 196.271 0.959999 196.319 0.959999 196.319C0.959999 196.586 1.056 196.815 1.248 197.007C1.42933 197.199 1.65867 197.301 1.936 197.311V197.359H0.799999V196.031ZM0.799999 199.327V197.999H1.936V198.031C1.65867 198.042 1.42933 198.143 1.248 198.335C1.056 198.517 0.959999 198.746 0.959999 199.023C0.959999 199.023 0.959999 199.071 0.959999 199.167C0.959999 199.263 0.959999 199.317 0.959999 199.327H0.799999ZM0.799999 189.038H12V190.078H0.799999L0.799999 189.038ZM10.832 190.03H12V191.31H11.84C11.84 191.31 11.84 191.278 11.84 191.214C11.84 191.14 11.84 191.102 11.84 191.102C11.84 190.825 11.744 190.59 11.552 190.398C11.3493 190.196 11.1093 190.089 10.832 190.078V190.03ZM1.968 190.03V190.078C1.69067 190.089 1.456 190.196 1.264 190.398C1.06133 190.59 0.959999 190.825 0.959999 191.102C0.959999 191.102 0.959999 191.14 0.959999 191.214C0.959999 191.278 0.959999 191.31 0.959999 191.31H0.799999V190.03H1.968ZM10.832 189.086V189.038C11.1093 189.028 11.3493 188.926 11.552 188.734C11.744 188.532 11.84 188.292 11.84 188.014C11.84 188.014 11.84 187.982 11.84 187.918C11.84 187.854 11.84 187.817 11.84 187.806H12V189.086H10.832ZM1.968 189.086H0.799999V187.806H0.959999C0.959999 187.817 0.959999 187.854 0.959999 187.918C0.959999 187.982 0.959999 188.014 0.959999 188.014C0.959999 188.292 1.06133 188.532 1.264 188.734C1.456 188.926 1.69067 189.028 1.968 189.038V189.086ZM0.559999 181.648L10.48 172.352L12.224 172.208L2.32 181.504L0.559999 181.648ZM10.864 181.616H12V182.944H11.84C11.84 182.944 11.84 182.896 11.84 182.8C11.84 182.704 11.84 182.651 11.84 182.64C11.84 182.373 11.744 182.144 11.552 181.952C11.36 181.76 11.1307 181.664 10.864 181.664V181.616ZM10.864 180.928C11.1307 180.928 11.36 180.832 11.552 180.64C11.744 180.448 11.84 180.219 11.84 179.952C11.84 179.941 11.84 179.888 11.84 179.792C11.84 179.696 11.84 179.648 11.84 179.648H12V180.976H10.864V180.928ZM0.559999 181.648L1.456 180.944L12 180.928V181.664H2.56C2.016 181.664 1.54667 181.691 1.152 181.744C0.757333 181.787 0.559999 181.808 0.559999 181.808V181.648ZM0.799999 172.208H10.176C10.5173 172.208 10.848 172.197 11.168 172.176C11.4773 172.155 11.7333 172.133 11.936 172.112C12.128 172.08 12.224 172.064 12.224 172.064V172.208L11.376 172.928H0.799999V172.208ZM0.799999 170.928H0.959999C0.959999 170.928 0.959999 170.976 0.959999 171.072C0.959999 171.168 0.959999 171.216 0.959999 171.216C0.959999 171.483 1.056 171.712 1.248 171.904C1.42933 172.096 1.65867 172.197 1.936 172.208V172.256H0.799999V170.928ZM0.799999 174.224V172.896H1.936V172.928C1.65867 172.939 1.42933 173.04 1.248 173.232C1.056 173.413 0.959999 173.643 0.959999 173.92C0.959999 173.92 0.959999 173.968 0.959999 174.064C0.959999 174.16 0.959999 174.213 0.959999 174.224H0.799999ZM7.52 155.979H10.16C10.48 156.225 10.8 156.555 11.12 156.971C11.44 157.387 11.7067 157.899 11.92 158.507C12.1227 159.105 12.224 159.809 12.224 160.619C12.2133 161.75 11.968 162.747 11.488 163.611C10.9973 164.475 10.32 165.153 9.456 165.643C8.58133 166.123 7.56267 166.363 6.4 166.363C5.23733 166.363 4.21867 166.123 3.344 165.643C2.46933 165.153 1.792 164.475 1.312 163.611C0.821333 162.747 0.575999 161.75 0.575999 160.619C0.575999 160.033 0.623999 159.505 0.719999 159.035C0.815999 158.566 0.949333 158.145 1.12 157.771C1.28 157.387 1.46133 157.041 1.664 156.731L3.92 156.411V156.555C3.30133 156.715 2.784 156.982 2.368 157.355C1.94133 157.718 1.616 158.177 1.392 158.731C1.168 159.286 1.056 159.915 1.056 160.619C1.056 161.515 1.28 162.305 1.728 162.987C2.176 163.67 2.8 164.203 3.6 164.587C4.4 164.971 5.33333 165.163 6.4 165.163C7.46667 165.163 8.4 164.971 9.2 164.587C10 164.203 10.624 163.67 11.072 162.987C11.5093 162.305 11.7333 161.515 11.744 160.619C11.744 160.15 11.6907 159.702 11.584 159.275C11.4667 158.838 11.3067 158.427 11.104 158.043C10.8907 157.659 10.64 157.318 10.352 157.019L7.52 157.003C7.04 157.003 6.8 157.275 6.8 157.819V158.075H6.64V154.939H6.8V155.179C6.8 155.734 7.04 156.001 7.52 155.979ZM0.896 143.15V141.854L10.448 138.878L12.192 139.15L0.896 143.15ZM0.544 135.982L1.84 135.854L10.416 138.67C10.416 138.67 10.512 138.696 10.704 138.75C10.8853 138.803 11.1147 138.856 11.392 138.91C11.6587 138.963 11.9253 138.995 12.192 139.006V139.15L10.768 139.438L0.544 136.126V135.982ZM0.559999 135.982L9.984 132.622L12.192 132.974L2.288 136.526L0.559999 135.982ZM0.896 129.486L10.416 132.478C10.416 132.478 10.512 132.504 10.704 132.558C10.896 132.611 11.1307 132.67 11.408 132.734C11.6747 132.787 11.936 132.819 12.192 132.83V132.974L10.608 133.166L0.896 130.382V129.486ZM1.952 130.686C1.632 130.6 1.38667 130.627 1.216 130.766C1.04533 130.904 0.959999 131.08 0.959999 131.294V131.438H0.799999V128.286H0.959999C0.959999 128.286 0.959999 128.307 0.959999 128.35C0.959999 128.392 0.959999 128.414 0.959999 128.414C0.959999 128.659 1.04 128.926 1.2 129.214C1.34933 129.502 1.6 129.704 1.952 129.822V130.686ZM1.952 141.518V142.782C1.6 142.91 1.34933 143.118 1.2 143.406C1.04 143.683 0.959999 143.944 0.959999 144.19C0.959999 144.19 0.959999 144.211 0.959999 144.254C0.959999 144.296 0.959999 144.318 0.959999 144.318H0.799999V140.766H0.959999V140.91C0.959999 141.112 1.04533 141.294 1.216 141.454C1.38667 141.603 1.632 141.624 1.952 141.518ZM0.799999 122.007H12V123.047H0.799999V122.007ZM10.832 122.999H12V124.279H11.84C11.84 124.279 11.84 124.247 11.84 124.183C11.84 124.108 11.84 124.071 11.84 124.071C11.84 123.794 11.744 123.559 11.552 123.367C11.3493 123.164 11.1093 123.058 10.832 123.047V122.999ZM1.968 122.999V123.047C1.69067 123.058 1.456 123.164 1.264 123.367C1.06133 123.559 0.959999 123.794 0.959999 124.071C0.959999 124.071 0.959999 124.108 0.959999 124.183C0.959999 124.247 0.959999 124.279 0.959999 124.279H0.799999V122.999H1.968ZM10.832 122.055V122.007C11.1093 121.996 11.3493 121.895 11.552 121.703C11.744 121.5 11.84 121.26 11.84 120.983C11.84 120.983 11.84 120.951 11.84 120.887C11.84 120.823 11.84 120.786 11.84 120.775H12V122.055H10.832ZM1.968 122.055H0.799999V120.775H0.959999C0.959999 120.786 0.959999 120.823 0.959999 120.887C0.959999 120.951 0.959999 120.983 0.959999 120.983C0.959999 121.26 1.06133 121.5 1.264 121.703C1.456 121.895 1.69067 121.996 1.968 122.007V122.055ZM0.848 111.161H12V112.201H0.848V111.161ZM0.783999 107.049H1.264V116.313H0.783999V107.049ZM1.216 107.049H2.512L2.496 107.209H2.224C1.95733 107.209 1.73333 107.305 1.552 107.497C1.37067 107.678 1.27467 107.897 1.264 108.153H1.216V107.049ZM0.495999 107.049H0.959999L0.783999 109.001C0.783999 108.766 0.767999 108.521 0.735999 108.265C0.704 107.998 0.666666 107.753 0.624 107.529C0.581333 107.305 0.538666 107.145 0.495999 107.049ZM10.832 112.153H12V113.433H11.84C11.84 113.433 11.84 113.401 11.84 113.337C11.84 113.262 11.84 113.225 11.84 113.225C11.84 112.947 11.744 112.713 11.552 112.521C11.3493 112.318 11.1093 112.211 10.832 112.201V112.153ZM10.832 111.209V111.161C11.1093 111.15 11.3493 111.049 11.552 110.857C11.744 110.654 11.84 110.414 11.84 110.137C11.84 110.137 11.84 110.105 11.84 110.041C11.84 109.966 11.84 109.929 11.84 109.929H12V111.209H10.832ZM1.216 115.209H1.264C1.27467 115.475 1.37067 115.699 1.552 115.881C1.73333 116.062 1.95733 116.153 2.224 116.153H2.496L2.512 116.313H1.216V115.209ZM0.495999 116.313C0.538666 116.206 0.581333 116.046 0.624 115.833C0.666666 115.609 0.704 115.363 0.735999 115.097C0.767999 114.83 0.783999 114.585 0.783999 114.361L0.959999 116.313H0.495999ZM0.799999 92.7262H12V93.7662H0.799999V92.7262ZM0.799999 100.31H12V101.35H0.799999V100.31ZM6.224 93.6222H6.704L6.704 100.47H6.224L6.224 93.6222ZM10.832 101.302H12V102.582H11.84C11.84 102.582 11.84 102.55 11.84 102.486C11.84 102.412 11.84 102.374 11.84 102.374C11.84 102.097 11.744 101.862 11.552 101.67C11.3493 101.468 11.1093 101.361 10.832 101.35V101.302ZM1.968 101.302V101.35C1.69067 101.361 1.456 101.468 1.264 101.67C1.06133 101.862 0.959999 102.097 0.959999 102.374C0.959999 102.374 0.959999 102.412 0.959999 102.486C0.959999 102.55 0.959999 102.582 0.959999 102.582H0.799999V101.302H1.968ZM10.832 100.358V100.31C11.1093 100.3 11.3493 100.198 11.552 100.006C11.744 99.8035 11.84 99.5635 11.84 99.2862C11.84 99.2862 11.84 99.2542 11.84 99.1902C11.84 99.1262 11.84 99.0889 11.84 99.0782H12V100.358H10.832ZM1.968 100.358H0.799999V99.0782H0.959999C0.959999 99.0889 0.959999 99.1262 0.959999 99.1902C0.959999 99.2542 0.959999 99.2862 0.959999 99.2862C0.959999 99.5635 1.06133 99.8035 1.264 100.006C1.456 100.198 1.69067 100.3 1.968 100.31V100.358ZM10.832 93.7182H12V94.9982H11.84C11.84 94.9875 11.84 94.9502 11.84 94.8862C11.84 94.8222 11.84 94.7902 11.84 94.7902C11.84 94.5129 11.744 94.2729 11.552 94.0702C11.3493 93.8675 11.1093 93.7662 10.832 93.7662V93.7182ZM1.968 93.7182V93.7662C1.69067 93.7662 1.456 93.8675 1.264 94.0702C1.06133 94.2729 0.959999 94.5129 0.959999 94.7902C0.959999 94.7902 0.959999 94.8222 0.959999 94.8862C0.959999 94.9502 0.959999 94.9875 0.959999 94.9982H0.799999V93.7182H1.968ZM10.832 92.7742V92.7262C11.1093 92.7155 11.3493 92.6142 11.552 92.4222C11.744 92.2195 11.84 91.9795 11.84 91.7022C11.84 91.7022 11.84 91.6702 11.84 91.6062C11.84 91.5315 11.84 91.4942 11.84 91.4942H12V92.7742H10.832ZM1.968 92.7742H0.799999V91.4942H0.959999C0.959999 91.4942 0.959999 91.5315 0.959999 91.6062C0.959999 91.6702 0.959999 91.7022 0.959999 91.7022C0.959999 91.9795 1.06133 92.2195 1.264 92.4222C1.456 92.6142 1.69067 92.7155 1.968 92.7262V92.7742ZM0.575999 68.2706L1.648 68.1426L10.592 72.1586C10.592 72.1586 10.6827 72.2012 10.864 72.2866C11.0453 72.3612 11.264 72.4412 11.52 72.5266C11.7653 72.6119 12 72.6706 12.224 72.7026V72.8626L11.216 73.0866L0.575999 68.2706ZM10.832 78.1106H12V79.8866H11.84C11.84 79.8759 11.84 79.8332 11.84 79.7586C11.84 79.6732 11.84 79.6306 11.84 79.6306C11.84 79.3426 11.7547 79.0866 11.584 78.8626C11.4027 78.6386 11.152 78.5052 10.832 78.4626V78.1106ZM11.088 77.6466C11.0987 77.6466 11.1093 77.6466 11.12 77.6466C11.1307 77.6466 11.1467 77.6466 11.168 77.6466C11.3387 77.6466 11.4987 77.5879 11.648 77.4706C11.7867 77.3426 11.856 77.1932 11.856 77.0226V76.7826H12V77.7586H11.088V77.6466ZM0.575999 77.2626V77.1026L1.52 76.7826L12 77.7266V78.5906L0.575999 77.2626ZM0.575999 77.1026L10.544 72.4946L12.224 72.8626L2.368 77.4066L0.575999 77.1026ZM0.575999 68.1266L12 66.7506V67.9986L2.304 68.8786L0.575999 68.2706V68.1266ZM10.832 67.2306V66.8946C11.152 66.8412 11.4027 66.7026 11.584 66.4786C11.7547 66.2546 11.84 66.0039 11.84 65.7266C11.84 65.7266 11.84 65.6839 11.84 65.5986C11.84 65.5132 11.84 65.4706 11.84 65.4706H12V67.2306H10.832ZM11.088 68.0786V67.9666H12V68.9426H11.856V68.7026C11.856 68.5212 11.7867 68.3719 11.648 68.2546C11.4987 68.1372 11.3387 68.0786 11.168 68.0786C11.1467 68.0786 11.1307 68.0786 11.12 68.0786C11.1093 68.0786 11.0987 68.0786 11.088 68.0786ZM0.575999 56.2919L11.904 51.5559V52.9159L2.096 56.6119L0.575999 56.2919ZM10.832 59.7319C11.0453 59.8066 11.2267 59.8173 11.376 59.7639C11.5253 59.7106 11.6427 59.6253 11.728 59.5079C11.8027 59.3799 11.84 59.2519 11.84 59.1239V58.9799H12V62.1959H11.84C11.84 62.1959 11.84 62.1693 11.84 62.1159C11.84 62.0733 11.84 62.0519 11.84 62.0519C11.84 61.8066 11.7653 61.5559 11.616 61.2999C11.456 61.0333 11.1947 60.8146 10.832 60.6439V59.7319ZM0.575999 56.2919L1.696 56.1479L11.952 60.1639V61.1239L2.224 57.0279C2.224 57.0279 2.16 57.0013 2.032 56.9479C1.89333 56.8839 1.728 56.8146 1.536 56.7399C1.344 56.6546 1.15733 56.5853 0.976 56.5319C0.794666 56.4679 0.661333 56.4359 0.575999 56.4359V56.2919ZM7.632 54.0359H8.112V59.0439H7.632V54.0359ZM10.832 53.3159V52.0039C11.1947 51.8439 11.456 51.6306 11.616 51.3639C11.7653 51.0973 11.84 50.8413 11.84 50.5959C11.84 50.5959 11.84 50.5746 11.84 50.5319C11.84 50.4893 11.84 50.4679 11.84 50.4679H12V54.0679H11.84V53.9239C11.84 53.7213 11.7547 53.5399 11.584 53.3799C11.4027 53.2199 11.152 53.1986 10.832 53.3159ZM0.575999 43.4293C0.575999 43.2586 0.586666 43.0773 0.608 42.8853C0.629333 42.6826 0.661333 42.4906 0.704 42.3093C0.736 42.1173 0.773333 41.9466 0.815999 41.7973C0.847999 41.6373 0.885333 41.5146 0.927999 41.4293H2.704V41.5733C2.192 41.5733 1.792 41.7493 1.504 42.1013C1.20533 42.4533 1.056 42.88 1.056 43.3813C1.056 43.968 1.24267 44.4426 1.616 44.8053C1.97867 45.168 2.40533 45.3493 2.896 45.3493C3.09867 45.3493 3.33867 45.3066 3.616 45.2213C3.88267 45.1253 4.13333 44.9546 4.368 44.7093L7.28 41.5573C7.57867 41.2373 7.89867 41.024 8.24 40.9173C8.58133 40.8106 8.912 40.7573 9.232 40.7573C10.1173 40.7573 10.8373 41.0293 11.392 41.5733C11.9467 42.1066 12.224 42.832 12.224 43.7493C12.224 44.0053 12.1973 44.3093 12.144 44.6613C12.0907 45.0026 12 45.3386 11.872 45.6693C11.7333 45.9893 11.5573 46.256 11.344 46.4693C11.1733 46.5013 10.96 46.5173 10.704 46.5173C10.448 46.5173 10.1813 46.496 9.904 46.4533C9.616 46.4106 9.35467 46.352 9.12 46.2773V46.1333C9.664 46.1866 10.1387 46.1173 10.544 45.9253C10.9493 45.7333 11.2587 45.456 11.472 45.0933C11.6747 44.72 11.7653 44.2986 11.744 43.8293C11.712 43.2426 11.5093 42.7413 11.136 42.3253C10.752 41.8986 10.24 41.6853 9.6 41.6853C9.29067 41.6853 9.01333 41.7386 8.768 41.8453C8.512 41.952 8.29333 42.1066 8.112 42.3093L5.264 45.3813C4.96533 45.7013 4.64 45.9253 4.288 46.0533C3.92533 46.1813 3.58933 46.2453 3.28 46.2453C2.832 46.2453 2.4 46.1386 1.984 45.9253C1.568 45.712 1.232 45.3973 0.976 44.9813C0.709333 44.5546 0.575999 44.0373 0.575999 43.4293ZM0.735999 41.4293H1.072V42.6453H0.735999V41.4293ZM0.848 31.1796H12V32.2196H0.848V31.1796ZM0.783999 27.0676H1.264L1.264 36.3316H0.783999L0.783999 27.0676ZM1.216 27.0676H2.512L2.496 27.2276H2.224C1.95733 27.2276 1.73333 27.3236 1.552 27.5156C1.37067 27.6969 1.27467 27.9156 1.264 28.1716H1.216V27.0676ZM0.495999 27.0676H0.959999L0.783999 29.0196C0.783999 28.7849 0.767999 28.5396 0.735999 28.2836C0.704 28.0169 0.666666 27.7716 0.624 27.5476C0.581333 27.3236 0.538666 27.1636 0.495999 27.0676ZM10.832 32.1716H12V33.4516H11.84C11.84 33.4516 11.84 33.4196 11.84 33.3556C11.84 33.2809 11.84 33.2436 11.84 33.2436C11.84 32.9662 11.744 32.7316 11.552 32.5396C11.3493 32.3369 11.1093 32.2302 10.832 32.2196V32.1716ZM10.832 31.2276V31.1796C11.1093 31.1689 11.3493 31.0676 11.552 30.8756C11.744 30.6729 11.84 30.4329 11.84 30.1556C11.84 30.1556 11.84 30.1236 11.84 30.0596C11.84 29.9849 11.84 29.9476 11.84 29.9476H12V31.2276H10.832ZM1.216 35.2276H1.264C1.27467 35.4942 1.37067 35.7182 1.552 35.8996C1.73333 36.0809 1.95733 36.1716 2.224 36.1716H2.496L2.512 36.3316H1.216V35.2276ZM0.495999 36.3316C0.538666 36.2249 0.581333 36.0649 0.624 35.8516C0.666666 35.6276 0.704 35.3822 0.735999 35.1156C0.767999 34.8489 0.783999 34.6036 0.783999 34.3796L0.959999 36.3316H0.495999ZM0.799999 20.3289H12V21.3689H0.799999V20.3289ZM11.504 16.0089H12V20.3769H11.504V16.0089ZM6.24 16.6969H6.72V20.3769H6.24V16.6969ZM0.799999 16.0089H1.296V20.3769H0.799999V16.0089ZM9.408 15.0329L12 15.9609V18.6169L11.504 18.0409C11.504 17.4756 11.4187 17.0169 11.248 16.6649C11.0667 16.3023 10.816 16.0089 10.496 15.7849C10.176 15.5609 9.81333 15.3636 9.408 15.1929V15.0329ZM6.688 16.6969H7.744V16.8569H7.504C7.29067 16.8569 7.10933 16.9316 6.96 17.0809C6.8 17.2303 6.72 17.4116 6.72 17.6249H6.688V16.6969ZM5.216 16.6969H6.272V17.6249H6.24C6.22933 17.4116 6.14933 17.2303 6 17.0809C5.84 16.9316 5.65333 16.8569 5.44 16.8569H5.216V16.6969ZM1.248 16.0089H2.528V16.1689H2.24C1.984 16.1689 1.76533 16.2596 1.584 16.4409C1.392 16.6223 1.29067 16.8463 1.28 17.1129H1.248V16.0089ZM0.511999 16.0089H0.976L0.799999 17.9609C0.799999 17.7263 0.783999 17.4809 0.752 17.2249C0.72 16.9583 0.682666 16.7129 0.639999 16.4889C0.597333 16.2649 0.554666 16.1049 0.511999 16.0089ZM10.832 21.3209H12V22.6009H11.84C11.84 22.6009 11.84 22.5689 11.84 22.5049C11.84 22.4303 11.84 22.3929 11.84 22.3929C11.84 22.1156 11.744 21.8809 11.552 21.6889C11.3493 21.4863 11.1093 21.3796 10.832 21.3689V21.3209ZM1.968 21.3209V21.3689C1.69067 21.3689 1.456 21.4703 1.264 21.6729C1.06133 21.8756 0.959999 22.1156 0.959999 22.3929C0.959999 22.3929 0.959999 22.4249 0.959999 22.4889C0.959999 22.5529 0.959999 22.5849 0.959999 22.5849L0.799999 22.6009V21.3209H1.968ZM0.799999 8.25881V6.00281C0.799999 5.52281 0.869333 5.09081 1.008 4.70681C1.14667 4.31214 1.34933 3.98147 1.616 3.71481C1.872 3.44814 2.18667 3.24547 2.56 3.10681C2.92267 2.95747 3.33867 2.88281 3.808 2.88281C4.32 2.88281 4.81067 3.00547 5.28 3.25081C5.74933 3.48547 6.13333 3.81081 6.432 4.22681C6.72 4.63214 6.864 5.09081 6.864 5.60281C6.93867 5.42147 7.09333 5.22414 7.328 5.01081C7.552 4.79747 7.77067 4.61081 7.984 4.45081C7.984 4.45081 8.09067 4.38147 8.304 4.24281C8.50667 4.09347 8.75733 3.91214 9.056 3.69881C9.35467 3.47481 9.648 3.25081 9.936 3.02681C10.224 2.80281 10.4533 2.61081 10.624 2.45081C10.8587 2.23747 11.0667 2.02414 11.248 1.81081C11.4293 1.59747 11.5733 1.36814 11.68 1.12281C11.7867 0.866806 11.84 0.584139 11.84 0.274806H12V1.15481C12 1.64547 11.9253 2.07214 11.776 2.43481C11.6267 2.78681 11.4453 3.08547 11.232 3.33081C11.008 3.57614 10.7947 3.78414 10.592 3.95481C10.5493 3.98681 10.4267 4.07747 10.224 4.22681C10.0213 4.36547 9.78133 4.53614 9.504 4.73881C9.216 4.93081 8.93333 5.12281 8.656 5.31481C8.37867 5.50681 8.144 5.67214 7.952 5.81081C7.74933 5.94947 7.632 6.02947 7.6 6.05081C7.33333 6.25347 7.088 6.47747 6.864 6.72281C6.64 6.96814 6.528 7.23481 6.528 7.52281H6.368C6.368 7.52281 6.37333 7.44281 6.384 7.28281C6.384 7.11214 6.37867 6.90947 6.368 6.67481C6.35733 6.39747 6.31467 6.09347 6.24 5.76281C6.16533 5.43214 6.01067 5.12281 5.776 4.83481C5.54133 4.54681 5.184 4.32814 4.704 4.17881C4.58667 4.14681 4.44267 4.12014 4.272 4.09881C4.09067 4.07747 3.91467 4.07214 3.744 4.08281C3.01867 4.09347 2.44267 4.28014 2.016 4.64281C1.57867 4.99481 1.344 5.46947 1.312 6.06681C1.29067 6.36547 1.28533 6.67481 1.296 6.99481C1.296 7.30414 1.296 7.56547 1.296 7.77881C1.296 7.99214 1.296 8.09881 1.296 8.09881C1.28533 8.09881 1.24267 8.11481 1.168 8.14681C1.08267 8.16814 1.00267 8.19481 0.927999 8.22681C0.842666 8.24814 0.799999 8.25881 0.799999 8.25881ZM0.799999 8.05081H12V9.09081H0.799999V8.05081ZM10.832 9.04281H12V10.3228H11.84C11.84 10.3228 11.84 10.2908 11.84 10.2268C11.84 10.1521 11.84 10.1148 11.84 10.1148C11.84 9.83747 11.744 9.60281 11.552 9.41081C11.3493 9.20814 11.1093 9.10147 10.832 9.09081V9.04281ZM1.968 9.04281V9.09081C1.69067 9.10147 1.456 9.20814 1.264 9.41081C1.06133 9.60281 0.959999 9.83747 0.959999 10.1148C0.959999 10.1148 0.959999 10.1521 0.959999 10.2268C0.959999 10.2908 0.959999 10.3228 0.959999 10.3228H0.799999V9.04281H1.968ZM10.832 8.09881V8.05081C11.1093 8.05081 11.3493 7.94947 11.552 7.74681C11.744 7.54414 11.84 7.30414 11.84 7.02681C11.84 7.02681 11.84 6.99481 11.84 6.93081C11.84 6.86681 11.84 6.83481 11.84 6.83481H12V8.09881H10.832Z" fill="#616161"/>
</svg>
