<svg width="418" height="83" viewBox="0 0 418 83" fill="none" xmlns="http://www.w3.org/2000/svg">
<path d="M418 0H0V83H418V0Z" fill="#202020"/>
<path d="M221.452 48.352V50.312H228.956V48.352H221.452ZM221.06 44.404V46.42H228.116V52.048H221.06V54.092H230.636V44.404H221.06ZM225.568 55.408C226.94 57.34 228.676 60 229.46 61.652L231.672 60.476C230.804 58.88 229.124 56.36 227.64 54.456L225.568 55.408ZM232.456 44.404V62.296H234.948V46.812H241.388V44.404H232.456ZM240.184 44.404V56.136C240.184 56.528 240.072 56.64 239.624 56.64C239.204 56.668 237.748 56.668 236.236 56.612C236.6 57.284 236.936 58.348 237.048 59.076C239.176 59.076 240.604 59.048 241.528 58.628C242.48 58.236 242.732 57.508 242.732 56.192V44.404H240.184ZM220.024 61.736C220.64 61.344 221.676 61.064 228.844 59.3C228.816 58.74 228.844 57.704 228.956 56.976L220.948 58.768L219.828 59.636L220.024 61.736ZM220.024 61.736C220.024 60.812 222.376 59.272 222.376 59.272V44.404H219.94V57.368C219.94 58.6 219.296 59.3 218.82 59.636C219.212 60.084 219.828 61.148 220.024 61.736ZM222.04 38.272V40.512H230.888V38.272H222.04ZM233.24 38.272V40.512H243.796V38.272H233.24ZM222.292 36.2C221.368 38.58 219.744 40.96 218.008 42.472C218.54 43.004 219.436 44.208 219.772 44.74C221.76 42.864 223.692 39.896 224.868 36.956L222.292 36.2ZM233.464 36.2C232.764 38.86 231.476 41.436 229.88 43.088C230.468 43.564 231.504 44.516 231.952 45.02C233.688 43.06 235.228 39.98 236.152 36.872L233.464 36.2ZM223.72 41.828C224.588 42.64 225.596 43.816 226.072 44.6L228.004 42.948C227.5 42.22 226.436 41.128 225.596 40.372L223.72 41.828ZM235.956 41.688C236.852 42.5 237.888 43.676 238.364 44.432L240.24 42.836C239.764 42.08 238.644 40.96 237.748 40.232L235.956 41.688ZM251.076 44.572V47.092H266.84V44.572H251.076ZM251.076 51.152V53.672H266.84V51.152H251.076ZM251.076 57.732V60.308H266.84V57.732H251.076ZM249.2 38.02V62.156H251.86V40.624H265.832V62.156H268.632V38.02H249.2ZM278.04 36.396V62.352H280.364V36.396H278.04ZM274.12 45.748V48.212H283.64V45.748H274.12ZM276.416 49.612C275.968 51.964 274.82 54.848 273.672 56.388C274.064 57.116 274.596 58.292 274.82 59.076C276.36 57.116 277.536 53.252 278.124 50.2L276.416 49.612ZM281.708 49.668L280.308 50.648C280.952 51.768 282.352 54.848 282.856 56.22L284.592 54.288C284.172 53.532 282.268 50.368 281.708 49.668ZM274.176 38.664C274.736 40.568 275.324 43.06 275.548 44.684L277.536 44.152C277.284 42.556 276.668 40.12 276.052 38.216L274.176 38.664ZM282.352 38.244C281.96 40.036 281.176 42.612 280.532 44.208L282.212 44.824C282.912 43.368 283.808 40.96 284.564 38.972L282.352 38.244ZM284.536 38.552V40.512H299.656V38.552H284.536ZM285.236 41.968V43.816H299.124V41.968H285.236ZM284.172 45.412V47.372H299.964V45.412H284.172ZM290.668 36.368V46.476H293.216V36.368H290.668ZM295.988 48.828V59.804C295.988 60.112 295.904 60.224 295.54 60.224C295.176 60.224 294.028 60.224 292.852 60.196C293.16 60.784 293.468 61.708 293.58 62.324C295.344 62.352 296.576 62.324 297.416 61.96C298.228 61.624 298.48 60.98 298.48 59.804V48.828H295.988ZM287.028 52.552V54.372H297.136V52.552H287.028ZM287.028 56.136V57.928H297.136V56.136H287.028ZM285.684 48.828V53.924C285.684 56.136 285.516 58.908 283.836 60.952C284.34 61.26 285.32 62.184 285.684 62.66C287.7 60.308 288.092 56.668 288.092 53.98V48.828H285.684ZM287.112 48.828V50.844H296.772V48.828H287.112ZM302.512 49.22V51.628H316.848V49.22H302.512ZM308.756 46.476V62.296H311.332V46.476H308.756ZM308.728 50.2C307.272 53.196 304.304 56.528 301.616 58.18C302.176 58.768 302.876 59.804 303.212 60.532C306.012 58.432 309.12 54.708 310.772 51.432L308.728 50.2ZM315.504 36.676C312.256 37.628 306.796 38.328 302.148 38.72C302.428 39.308 302.792 40.288 302.848 40.904C307.58 40.596 313.236 39.924 317.128 38.888L315.504 36.676ZM302.848 42.696C303.884 44.068 304.892 45.944 305.256 47.176L307.356 46.168C306.936 44.936 305.9 43.144 304.836 41.828L302.848 42.696ZM307.86 41.716C308.644 43.06 309.4 44.88 309.652 46.112L311.836 45.328C311.528 44.152 310.744 42.388 309.932 41.072L307.86 41.716ZM314.552 41.016C314.02 42.668 313.012 44.964 312.2 46.448L314.216 47.12C315.084 45.748 316.204 43.592 317.128 41.716L314.552 41.016ZM324.324 36.844C322.784 39 319.844 41.24 317.352 42.528C318.08 43.06 318.864 43.872 319.34 44.488C322.056 42.92 324.996 40.484 326.984 37.908L324.324 36.844ZM325.024 44.544C323.344 46.784 320.18 49.08 317.548 50.424C318.248 50.928 319.06 51.796 319.508 52.384C322.364 50.76 325.528 48.268 327.6 45.636L325.024 44.544ZM325.668 52.384C323.708 55.716 319.9 58.544 315.98 60.112C316.68 60.7 317.464 61.652 317.884 62.352C322.112 60.392 325.948 57.284 328.3 53.42L325.668 52.384ZM310.072 52.776C311.976 54.288 314.02 56.528 315 58.04L316.764 56.276C315.784 54.82 313.712 52.748 311.724 51.264L310.072 52.776ZM335.552 49.5V51.6H350.476V49.5H335.552ZM335.552 54.008V56.08H350.476V54.008H335.552ZM335.552 58.572V60.896H350.532V58.572H335.552ZM330.428 40.204V42.668H355.628V40.204H330.428ZM333.424 44.88V62.352H336.084V47.204H349.748V62.352H352.492V44.88H333.424ZM341.656 41.576C341.432 42.892 340.956 44.74 340.48 46.028L343.056 46.364C343.616 45.16 344.372 43.424 344.96 41.716L341.656 41.576ZM348.292 36.312C347.676 37.572 346.584 39.336 345.688 40.484L348.012 41.212C348.992 40.148 350.224 38.58 351.26 37.04L348.292 36.312ZM335.076 37.264C336.084 38.328 337.204 39.868 337.68 40.82L340.144 39.56C339.584 38.608 338.464 37.208 337.428 36.228L335.076 37.264ZM381.584 36.536C378.056 37.264 371.952 37.768 366.884 37.992C367.108 38.524 367.416 39.392 367.472 39.924C372.624 39.812 378.868 39.308 383.012 38.468L381.584 36.536ZM366.548 43.9V45.972H383.684V43.9H366.548ZM373.772 38.272V50.564H376.18V38.272H373.772ZM373.856 51.936V60.14H376.04V51.936H373.856ZM368.62 40.568C369.152 41.604 369.74 43.004 370.048 43.844L372.232 43.088C371.924 42.276 371.252 40.932 370.72 39.924L368.62 40.568ZM379.4 39.504C378.98 40.932 378.084 43.004 377.44 44.292L379.4 44.908C380.1 43.676 380.94 41.828 381.696 40.12L379.4 39.504ZM372.456 45.132C370.972 47.372 368.116 49.556 365.372 50.592C365.932 51.068 366.66 51.936 367.024 52.524C369.908 51.208 372.876 48.632 374.528 45.86L372.456 45.132ZM367.892 51.18V62.38H370.216V53.224H379.904V62.24H382.368V51.18H367.892ZM369.628 55.24V57.144H380.548V55.24H369.628ZM369.628 59.3V61.232H380.492V59.3H369.628ZM357.672 51.012L358.176 53.56C360.64 52.692 363.72 51.572 366.604 50.48L366.184 48.128C363.076 49.22 359.828 50.34 357.672 51.012ZM358.092 41.884V44.32H366.632V41.884H358.092ZM361.368 36.396V59.44C361.368 59.832 361.228 59.944 360.892 59.944C360.556 59.972 359.52 59.972 358.372 59.916C358.708 60.644 359.016 61.736 359.1 62.38C360.892 62.38 362.04 62.296 362.768 61.876C363.552 61.484 363.804 60.784 363.804 59.44V36.396H361.368ZM375.2 46.336C377.804 47.96 381.108 50.368 382.676 51.936L384.216 50.256C382.536 48.716 379.176 46.392 376.6 44.88L375.2 46.336Z" fill="#FAFAFA"/>
<path d="M54.2559 37.7754V45.5684C54.2559 48.6348 53.8945 51.3008 53.1719 53.5664C52.4688 55.832 51.4531 57.707 50.125 59.1914C48.8164 60.6758 47.2539 61.7793 45.4375 62.502C43.6211 63.2246 41.6191 63.5859 39.4316 63.5859C37.6738 63.5859 36.0332 63.3613 34.5098 62.9121C32.9863 62.4434 31.6094 61.7402 30.3789 60.8027C29.168 59.8457 28.123 58.6543 27.2441 57.2285C26.3652 55.8027 25.6914 54.123 25.2227 52.1895C24.7539 50.2363 24.5195 48.0293 24.5195 45.5684V37.7754C24.5195 34.6895 24.8711 32.0234 25.5742 29.7773C26.2969 27.5117 27.3223 25.6367 28.6504 24.1523C29.9785 22.668 31.5508 21.5645 33.3672 20.8418C35.1836 20.1191 37.1855 19.7578 39.373 19.7578C41.1309 19.7578 42.7617 19.9922 44.2656 20.4609C45.7891 20.9102 47.166 21.6133 48.3965 22.5703C49.627 23.5078 50.6719 24.6895 51.5312 26.1152C52.4102 27.541 53.084 29.2305 53.5527 31.1836C54.0215 33.1172 54.2559 35.3145 54.2559 37.7754ZM44.3828 46.7695V36.5156C44.3828 35.1484 44.3047 33.957 44.1484 32.9414C44.0117 31.9258 43.7969 31.0664 43.5039 30.3633C43.2305 29.6602 42.8887 29.0938 42.4785 28.6641C42.0684 28.2148 41.5996 27.8926 41.0723 27.6973C40.5645 27.4824 39.998 27.375 39.373 27.375C38.5918 27.375 37.8887 27.541 37.2637 27.873C36.6582 28.1855 36.1406 28.6934 35.7109 29.3965C35.2812 30.0996 34.9492 31.0371 34.7148 32.209C34.5 33.3809 34.3926 34.8164 34.3926 36.5156V46.7695C34.3926 48.1562 34.4609 49.3672 34.5977 50.4023C34.7539 51.418 34.9688 52.2871 35.2422 53.0098C35.5352 53.7129 35.8867 54.2891 36.2969 54.7383C36.707 55.168 37.1758 55.4805 37.7031 55.6758C38.2305 55.8711 38.8066 55.9688 39.4316 55.9688C40.1934 55.9688 40.877 55.8125 41.4824 55.5C42.0879 55.1875 42.6055 54.6797 43.0352 53.9766C43.4844 53.2539 43.8164 52.3066 44.0312 51.1348C44.2656 49.9434 44.3828 48.4883 44.3828 46.7695ZM65.6816 55.6758H66.2676C68.2207 55.6758 69.9785 55.4609 71.541 55.0312C73.1035 54.6016 74.4414 53.9375 75.5547 53.0391C76.668 52.1211 77.5176 50.9395 78.1035 49.4941C78.709 48.0293 79.0117 46.2617 79.0117 44.1914V35.373C79.0117 34.0059 78.8945 32.8242 78.6602 31.8281C78.4258 30.8125 78.084 29.9727 77.6348 29.3086C77.1855 28.6445 76.6484 28.1563 76.0234 27.8438C75.3984 27.5117 74.6953 27.3457 73.9141 27.3457C73.1328 27.3457 72.4395 27.5703 71.834 28.0195C71.248 28.4492 70.7402 29.0352 70.3105 29.7773C69.9004 30.5 69.5879 31.3203 69.373 32.2383C69.1582 33.1367 69.0508 34.0449 69.0508 34.9629C69.0508 35.998 69.1582 36.9648 69.373 37.8633C69.6074 38.7422 69.9395 39.5137 70.3691 40.1777C70.8184 40.8223 71.375 41.3301 72.0391 41.7012C72.7227 42.0723 73.5137 42.2578 74.4121 42.2578C75.3105 42.2578 76.082 42.1016 76.7266 41.7891C77.3906 41.457 77.9375 41.0273 78.3672 40.5C78.7969 39.9531 79.1094 39.3672 79.3047 38.7422C79.5195 38.1172 79.6172 37.502 79.5977 36.8965L82.4688 39.1523C82.4688 40.4023 82.1855 41.6328 81.6191 42.8438C81.0527 44.0547 80.2715 45.1582 79.2754 46.1543C78.2793 47.1309 77.127 47.9121 75.8184 48.498C74.5293 49.084 73.1621 49.377 71.7168 49.377C69.7832 49.377 68.0352 49.0352 66.4727 48.3516C64.9297 47.668 63.6113 46.6914 62.5176 45.4219C61.4238 44.1523 60.584 42.6387 59.998 40.8809C59.4316 39.1035 59.1484 37.1309 59.1484 34.9629C59.1484 32.873 59.5098 30.9102 60.2324 29.0742C60.9551 27.2383 61.9805 25.627 63.3086 24.2402C64.6367 22.834 66.209 21.7305 68.0254 20.9297C69.8418 20.1289 71.834 19.7285 74.002 19.7285C76.0527 19.7285 77.9766 20.1191 79.7734 20.9004C81.5703 21.6621 83.1523 22.7852 84.5195 24.2695C85.8867 25.7539 86.9609 27.5801 87.7422 29.748C88.5234 31.916 88.9141 34.3965 88.9141 37.1895V40.5879C88.9141 43.6152 88.543 46.3496 87.8008 48.791C87.0586 51.2324 86.0039 53.3809 84.6367 55.2363C83.2695 57.0723 81.6484 58.6152 79.7734 59.8652C77.918 61.0957 75.8574 62.0234 73.5918 62.6484C71.3457 63.2734 68.9629 63.5859 66.4434 63.5859H65.6816V55.6758ZM95.0371 58.3711C95.0371 56.9648 95.5449 55.793 96.5605 54.8555C97.5762 53.8984 98.8848 53.4199 100.486 53.4199C102.107 53.4199 103.416 53.8984 104.412 54.8555C105.428 55.793 105.936 56.9648 105.936 58.3711C105.936 59.7773 105.428 60.959 104.412 61.916C103.416 62.8535 102.107 63.3223 100.486 63.3223C98.8848 63.3223 97.5762 62.8535 96.5605 61.916C95.5449 60.959 95.0371 59.7773 95.0371 58.3711ZM142.176 55.3828V63H112.41V56.5547L126.121 42.1406C127.332 40.7539 128.309 39.5137 129.051 38.4199C129.793 37.3066 130.33 36.3008 130.662 35.4023C131.014 34.5039 131.189 33.6934 131.189 32.9707C131.189 31.7402 131.004 30.7148 130.633 29.8945C130.281 29.0547 129.754 28.4199 129.051 27.9902C128.367 27.5605 127.518 27.3457 126.502 27.3457C125.486 27.3457 124.598 27.6387 123.836 28.2246C123.074 28.8105 122.479 29.6113 122.049 30.627C121.639 31.6426 121.434 32.7852 121.434 34.0547H111.531C111.531 31.4375 112.166 29.0449 113.436 26.877C114.725 24.709 116.512 22.9805 118.797 21.6914C121.082 20.3828 123.729 19.7285 126.736 19.7285C129.881 19.7285 132.518 20.2168 134.646 21.1934C136.775 22.1699 138.377 23.5859 139.451 25.4414C140.545 27.2773 141.092 29.4941 141.092 32.0918C141.092 33.5762 140.857 35.002 140.389 36.3691C139.92 37.7363 139.246 39.0938 138.367 40.4414C137.488 41.7695 136.414 43.1367 135.145 44.543C133.895 45.9492 132.469 47.4434 130.867 49.0254L125.359 55.3828H142.176ZM169.07 20.3438V63H159.197V31.4766L149.471 34.3184V26.8184L168.162 20.3438H169.07Z" fill="#FAFAFA"/>
<path d="M195.487 57.4893L183.359 54.374V52.7412L186.485 52.9238L199 56.2539V57.9512L195.487 57.4893ZM183.359 59.8203L195.391 57.2959L199 57.0703V58.875L183.359 62.4951V59.8203ZM195.358 49.207L183.359 46.7148V44.0293L199 47.6494V49.4541L195.358 49.207ZM183.359 52.1074L195.52 49.0244L199 48.5732V50.2705L186.485 53.5469L183.359 53.7188V52.1074ZM196.862 31.7939H199V40.0977H196.862V31.7939ZM183.359 39.335H199V42.0312H183.359V39.335ZM189.891 32.8789H191.996V40.0977H189.891V32.8789ZM183.359 31.8477H185.508V40.0977H183.359V31.8477ZM199 25.0479V28.3887L196.862 28.3672V25.0479C196.862 24.0811 196.651 23.2718 196.229 22.6201C195.806 21.9613 195.201 21.4671 194.413 21.1377C193.625 20.8011 192.687 20.6328 191.599 20.6328H190.75C189.905 20.6328 189.157 20.7295 188.505 20.9229C187.853 21.109 187.305 21.3883 186.861 21.7607C186.417 22.126 186.081 22.5771 185.852 23.1143C185.622 23.6442 185.508 24.2565 185.508 24.9512V28.4531H183.359V24.9512C183.359 23.9128 183.535 22.9639 183.886 22.1045C184.229 21.2451 184.727 20.5039 185.379 19.8809C186.031 19.2507 186.811 18.7673 187.721 18.4307C188.63 18.0941 189.647 17.9258 190.771 17.9258H191.599C192.723 17.9258 193.74 18.0941 194.649 18.4307C195.559 18.7673 196.34 19.2507 196.991 19.8809C197.636 20.5111 198.133 21.263 198.484 22.1367C198.828 23.0033 199 23.9736 199 25.0479ZM183.359 26.8955H199V29.5918H183.359V26.8955Z" fill="#FAFAFA"/>
</svg>
