<svg width="218" height="93" viewBox="0 0 218 93" fill="none" xmlns="http://www.w3.org/2000/svg">
<path d="M7.696 0.399998V34H4.576V0.399998H7.696ZM4.72 30.496V34H0.88V33.52C0.88 33.52 0.976 33.52 1.168 33.52C1.392 33.52 1.504 33.52 1.504 33.52C2.336 33.52 3.04 33.232 3.616 32.656C4.224 32.048 4.544 31.328 4.576 30.496H4.72ZM4.72 3.904H4.576C4.544 3.072 4.224 2.368 3.616 1.792C3.04 1.184 2.336 0.879997 1.504 0.879997C1.504 0.879997 1.392 0.879997 1.168 0.879997C0.976 0.879997 0.88 0.879997 0.88 0.879997V0.399998H4.72V3.904ZM7.552 30.496H7.696C7.728 31.328 8.032 32.048 8.608 32.656C9.216 33.232 9.936 33.52 10.768 33.52C10.768 33.52 10.864 33.52 11.056 33.52C11.248 33.52 11.36 33.52 11.392 33.52V34H7.552V30.496ZM7.552 3.904V0.399998H11.392V0.879997C11.36 0.879997 11.248 0.879997 11.056 0.879997C10.864 0.879997 10.768 0.879997 10.768 0.879997C9.936 0.879997 9.216 1.184 8.608 1.792C8.032 2.368 7.728 3.072 7.696 3.904H7.552ZM19.4028 4.48L45.9948 29.536L46.4748 34.672L19.8828 9.472L19.4028 4.48ZM19.4988 31.024V34H15.8988V33.52C15.8988 33.52 16.0268 33.52 16.2828 33.52C16.5708 33.52 16.7148 33.52 16.7148 33.52C17.4508 33.52 18.0748 33.28 18.5868 32.8C19.0988 32.32 19.3548 31.728 19.3548 31.024H19.4988ZM21.5148 31.024C21.5148 31.728 21.7708 32.32 22.2828 32.8C22.8268 33.28 23.4508 33.52 24.1548 33.52C24.1548 33.52 24.2828 33.52 24.5388 33.52C24.8268 33.52 24.9708 33.52 24.9708 33.52V34H21.3708V31.024H21.5148ZM19.4028 4.48L21.4668 7.168L21.5148 34H19.3548V10.48C19.3548 8.848 19.2748 7.44 19.1148 6.256C18.9868 5.072 18.9228 4.48 18.9228 4.48H19.4028ZM46.4748 5.2V28.528C46.4748 29.552 46.5068 30.544 46.5708 31.504C46.6348 32.432 46.6988 33.2 46.7628 33.808C46.8588 34.384 46.9068 34.672 46.9068 34.672H46.4748L44.3628 32.128V5.2H46.4748ZM46.3308 8.176V5.2H49.9308V5.68C49.9308 5.68 49.7868 5.68 49.4988 5.68C49.2428 5.68 49.1148 5.68 49.1148 5.68C48.4108 5.68 47.7868 5.92 47.2428 6.4C46.7308 6.88 46.4748 7.472 46.4748 8.176H46.3308ZM44.3628 8.176C44.3308 7.472 44.0588 6.88 43.5468 6.4C43.0348 5.92 42.4108 5.68 41.6748 5.68C41.6748 5.68 41.5308 5.68 41.2428 5.68C40.9868 5.68 40.8588 5.68 40.8588 5.68V5.2H44.4588V8.176H44.3628ZM67.081 5.344V34H63.961V5.344H67.081ZM78.697 5.152V6.592H52.345V5.152H78.697ZM78.697 6.496V9.808H78.169V9.04C78.169 8.368 77.945 7.808 77.497 7.36C77.081 6.88 76.505 6.624 75.769 6.592V6.496H78.697ZM78.697 4.384V5.632L73.321 5.152C73.961 5.152 74.633 5.12 75.337 5.056C76.073 4.96 76.745 4.848 77.353 4.72C77.961 4.592 78.409 4.48 78.697 4.384ZM64.057 30.928V34H60.553V33.52C60.585 33.52 60.681 33.52 60.841 33.52C61.033 33.52 61.129 33.52 61.129 33.52C61.897 33.52 62.553 33.264 63.097 32.752C63.641 32.24 63.929 31.632 63.961 30.928H64.057ZM66.937 30.928H67.081C67.113 31.632 67.401 32.24 67.945 32.752C68.489 33.264 69.145 33.52 69.913 33.52C69.913 33.52 69.993 33.52 70.153 33.52C70.345 33.52 70.441 33.52 70.441 33.52V34H66.937V30.928ZM55.273 6.496V6.592C54.537 6.624 53.945 6.88 53.497 7.36C53.081 7.808 52.873 8.368 52.873 9.04V9.808H52.345V6.496H55.273ZM52.345 4.384C52.633 4.48 53.065 4.592 53.641 4.72C54.249 4.848 54.921 4.96 55.657 5.056C56.393 5.12 57.081 5.152 57.721 5.152L52.345 5.632V4.384ZM88.543 5.2V34H85.471V5.2H88.543ZM101.455 32.512L101.359 34H88.447V32.512H101.455ZM99.199 18.88V20.32H88.447V18.88H99.199ZM101.407 5.2V6.688H88.447V5.2H101.407ZM104.143 27.136L101.503 34H94.207L95.839 32.512C97.439 32.512 98.719 32.288 99.679 31.84C100.671 31.36 101.471 30.72 102.079 29.92C102.687 29.088 103.215 28.16 103.663 27.136H104.143ZM99.199 20.224V22.96H98.671V22.336C98.671 21.792 98.511 21.328 98.191 20.944C97.871 20.528 97.375 20.32 96.703 20.32V20.224H99.199ZM99.199 16.24V18.976H96.703V18.88C97.375 18.88 97.871 18.688 98.191 18.304C98.511 17.888 98.671 17.408 98.671 16.864V16.24H99.199ZM101.407 6.544V9.856H100.879V9.136C100.879 8.464 100.655 7.888 100.207 7.408C99.791 6.928 99.215 6.688 98.479 6.688V6.544H101.407ZM101.407 4.432V5.68L95.935 5.2C96.927 5.2 97.983 5.12 99.103 4.96C100.223 4.768 100.991 4.592 101.407 4.432ZM85.567 30.928L86.191 34H82.015V33.52C82.015 33.52 82.127 33.52 82.351 33.52C82.575 33.52 82.687 33.52 82.687 33.52C83.487 33.52 84.143 33.264 84.655 32.752C85.167 32.24 85.439 31.632 85.471 30.928H85.567ZM85.567 8.224H85.471C85.439 7.488 85.167 6.88 84.655 6.4C84.143 5.92 83.487 5.68 82.687 5.68C82.687 5.68 82.575 5.68 82.351 5.68C82.127 5.68 82.015 5.68 82.015 5.68V5.2H86.191L85.567 8.224ZM113.605 5.2H119.797C121.301 5.2 122.645 5.376 123.829 5.728C125.045 6.08 126.069 6.592 126.901 7.264C127.765 7.936 128.421 8.752 128.869 9.712C129.317 10.672 129.541 11.76 129.541 12.976C129.541 14.32 129.221 15.568 128.581 16.72C127.941 17.872 127.045 18.816 125.893 19.552C124.773 20.288 123.493 20.736 122.053 20.896C122.597 21.12 123.221 21.616 123.925 22.384C124.661 23.152 125.285 23.904 125.797 24.64C125.797 24.64 126.005 24.928 126.421 25.504C126.837 26.048 127.365 26.736 128.005 27.568C128.677 28.368 129.333 29.136 129.973 29.872C130.645 30.608 131.253 31.248 131.797 31.792C132.373 32.336 132.981 32.768 133.621 33.088C134.293 33.376 135.061 33.52 135.925 33.52V34H134.437C132.677 34 131.221 33.776 130.069 33.328C128.949 32.88 128.037 32.336 127.333 31.696C126.629 31.024 126.021 30.384 125.509 29.776C125.381 29.616 125.077 29.216 124.597 28.576C124.149 27.904 123.653 27.184 123.109 26.416C122.565 25.648 122.069 24.96 121.621 24.352C121.173 23.712 120.901 23.328 120.805 23.2C120.165 22.368 119.429 21.632 118.597 20.992C117.765 20.32 116.885 19.984 115.957 19.984V19.504C115.957 19.504 116.213 19.52 116.725 19.552C117.237 19.552 117.893 19.536 118.693 19.504C119.589 19.472 120.485 19.408 121.381 19.312C122.277 19.184 123.109 18.832 123.877 18.256C124.677 17.68 125.301 16.72 125.749 15.376C125.877 15.024 125.973 14.608 126.037 14.128C126.101 13.648 126.117 13.152 126.085 12.64C126.053 11.744 125.877 10.944 125.557 10.24C125.269 9.536 124.837 8.928 124.261 8.416C123.717 7.904 123.061 7.504 122.293 7.216C121.525 6.928 120.661 6.768 119.701 6.736C118.197 6.672 116.885 6.656 115.765 6.688C114.645 6.72 114.085 6.72 114.085 6.688C114.085 6.656 114.037 6.528 113.941 6.304C113.877 6.048 113.797 5.808 113.701 5.584C113.637 5.328 113.605 5.2 113.605 5.2ZM114.181 5.2V34H111.109V5.2H114.181ZM111.253 30.928L111.829 34H107.749V33.52C107.749 33.52 107.861 33.52 108.085 33.52C108.309 33.52 108.421 33.52 108.421 33.52C109.189 33.52 109.829 33.264 110.341 32.752C110.853 32.24 111.125 31.632 111.157 30.928H111.253ZM111.253 8.224H111.157C111.125 7.488 110.853 6.88 110.341 6.4C109.829 5.92 109.189 5.68 108.421 5.68C108.421 5.68 108.309 5.68 108.085 5.68C107.861 5.68 107.749 5.68 107.749 5.68V5.2H111.829L111.253 8.224ZM114.037 30.928H114.181C114.213 31.632 114.485 32.24 114.997 32.752C115.509 33.264 116.149 33.52 116.917 33.52C116.917 33.52 117.013 33.52 117.205 33.52C117.429 33.52 117.541 33.52 117.541 33.52L117.589 34H113.461L114.037 30.928ZM144.803 5.2V34H141.779V5.2H144.803ZM141.923 30.928V34H137.843V33.52C137.843 33.52 137.955 33.52 138.179 33.52C138.403 33.52 138.515 33.52 138.515 33.52C139.411 33.52 140.163 33.264 140.771 32.752C141.411 32.24 141.747 31.632 141.779 30.928H141.923ZM144.659 30.928H144.803C144.835 31.632 145.155 32.24 145.763 32.752C146.403 33.264 147.171 33.52 148.067 33.52C148.067 33.52 148.163 33.52 148.355 33.52C148.579 33.52 148.691 33.52 148.691 33.52L148.739 34H144.659V30.928ZM144.659 8.272V5.2H148.739L148.691 5.68C148.691 5.68 148.579 5.68 148.355 5.68C148.163 5.68 148.067 5.68 148.067 5.68C147.171 5.68 146.403 5.936 145.763 6.448C145.155 6.928 144.835 7.536 144.803 8.272H144.659ZM141.923 8.272H141.779C141.747 7.536 141.411 6.928 140.771 6.448C140.163 5.936 139.411 5.68 138.515 5.68C138.483 5.68 138.355 5.68 138.131 5.68C137.939 5.68 137.843 5.68 137.843 5.68V5.2H141.923V8.272ZM169.201 4.528C171.441 4.528 173.537 4.896 175.489 5.632C177.473 6.336 179.201 7.36 180.673 8.704C182.177 10.048 183.345 11.648 184.177 13.504C185.009 15.328 185.425 17.36 185.425 19.6C185.425 21.84 185.009 23.888 184.177 25.744C183.345 27.568 182.177 29.152 180.673 30.496C179.201 31.84 177.473 32.88 175.489 33.616C173.537 34.32 171.441 34.672 169.201 34.672C166.961 34.672 164.865 34.32 162.913 33.616C160.961 32.88 159.233 31.84 157.729 30.496C156.257 29.152 155.105 27.568 154.273 25.744C153.441 23.888 153.025 21.84 153.025 19.6C153.025 17.36 153.441 15.328 154.273 13.504C155.105 11.648 156.257 10.048 157.729 8.704C159.233 7.36 160.961 6.336 162.913 5.632C164.865 4.896 166.961 4.528 169.201 4.528ZM169.201 33.232C171.569 33.232 173.713 32.656 175.633 31.504C177.553 30.352 179.073 28.752 180.193 26.704C181.313 24.656 181.873 22.288 181.873 19.6C181.873 16.88 181.313 14.512 180.193 12.496C179.073 10.448 177.553 8.848 175.633 7.696C173.713 6.544 171.569 5.968 169.201 5.968C166.865 5.968 164.737 6.544 162.817 7.696C160.897 8.848 159.377 10.448 158.257 12.496C157.137 14.512 156.577 16.88 156.577 19.6C156.577 22.288 157.137 24.656 158.257 26.704C159.377 28.752 160.897 30.352 162.817 31.504C164.737 32.656 166.865 33.232 169.201 33.232ZM195.59 5.2H201.782C203.286 5.2 204.63 5.376 205.814 5.728C207.03 6.08 208.054 6.592 208.886 7.264C209.75 7.936 210.406 8.752 210.854 9.712C211.302 10.672 211.526 11.76 211.526 12.976C211.526 14.32 211.206 15.568 210.566 16.72C209.926 17.872 209.03 18.816 207.878 19.552C206.758 20.288 205.478 20.736 204.038 20.896C204.582 21.12 205.206 21.616 205.91 22.384C206.646 23.152 207.27 23.904 207.782 24.64C207.782 24.64 207.99 24.928 208.406 25.504C208.822 26.048 209.35 26.736 209.99 27.568C210.662 28.368 211.318 29.136 211.958 29.872C212.63 30.608 213.238 31.248 213.782 31.792C214.358 32.336 214.966 32.768 215.606 33.088C216.278 33.376 217.046 33.52 217.91 33.52V34H216.422C214.662 34 213.206 33.776 212.054 33.328C210.934 32.88 210.022 32.336 209.318 31.696C208.614 31.024 208.006 30.384 207.494 29.776C207.366 29.616 207.062 29.216 206.582 28.576C206.134 27.904 205.638 27.184 205.094 26.416C204.55 25.648 204.054 24.96 203.606 24.352C203.158 23.712 202.886 23.328 202.79 23.2C202.15 22.368 201.414 21.632 200.582 20.992C199.75 20.32 198.87 19.984 197.942 19.984V19.504C197.942 19.504 198.198 19.52 198.71 19.552C199.222 19.552 199.878 19.536 200.678 19.504C201.574 19.472 202.47 19.408 203.366 19.312C204.262 19.184 205.094 18.832 205.862 18.256C206.662 17.68 207.286 16.72 207.734 15.376C207.862 15.024 207.958 14.608 208.022 14.128C208.086 13.648 208.102 13.152 208.07 12.64C208.038 11.744 207.862 10.944 207.542 10.24C207.254 9.536 206.822 8.928 206.246 8.416C205.702 7.904 205.046 7.504 204.278 7.216C203.51 6.928 202.646 6.768 201.686 6.736C200.182 6.672 198.87 6.656 197.75 6.688C196.63 6.72 196.07 6.72 196.07 6.688C196.07 6.656 196.022 6.528 195.926 6.304C195.862 6.048 195.782 5.808 195.686 5.584C195.622 5.328 195.59 5.2 195.59 5.2ZM196.166 5.2V34H193.094V5.2H196.166ZM193.238 30.928L193.814 34H189.734V33.52C189.734 33.52 189.846 33.52 190.07 33.52C190.294 33.52 190.406 33.52 190.406 33.52C191.174 33.52 191.814 33.264 192.326 32.752C192.838 32.24 193.11 31.632 193.142 30.928H193.238ZM193.238 8.224H193.142C193.11 7.488 192.838 6.88 192.326 6.4C191.814 5.92 191.174 5.68 190.406 5.68C190.406 5.68 190.294 5.68 190.07 5.68C189.846 5.68 189.734 5.68 189.734 5.68V5.2H193.814L193.238 8.224ZM196.022 30.928H196.166C196.198 31.632 196.47 32.24 196.982 32.752C197.494 33.264 198.134 33.52 198.902 33.52C198.902 33.52 198.998 33.52 199.19 33.52C199.414 33.52 199.526 33.52 199.526 33.52L199.574 34H195.446L196.022 30.928ZM17.152 58.4C20.576 58.4 23.568 59.104 26.128 60.512C28.72 61.888 30.736 63.84 32.176 66.368C33.648 68.896 34.384 71.84 34.384 75.2C34.384 78.56 33.648 81.504 32.176 84.032C30.736 86.528 28.72 88.48 26.128 89.888C23.568 91.296 20.576 92 17.152 92H6.88L6.832 90.56C6.832 90.56 7.168 90.56 7.84 90.56C8.544 90.56 9.408 90.56 10.432 90.56C11.488 90.56 12.528 90.56 13.552 90.56C14.576 90.56 15.424 90.56 16.096 90.56C16.8 90.56 17.152 90.56 17.152 90.56C19.904 90.56 22.288 89.92 24.304 88.64C26.352 87.36 27.936 85.568 29.056 83.264C30.208 80.96 30.784 78.272 30.784 75.2C30.784 72.128 30.208 69.44 29.056 67.136C27.936 64.832 26.352 63.04 24.304 61.76C22.256 60.48 19.872 59.84 17.152 59.84C17.152 59.84 16.784 59.84 16.048 59.84C15.344 59.84 14.448 59.84 13.36 59.84C12.304 59.84 11.232 59.84 10.144 59.84C9.088 59.84 8.192 59.84 7.456 59.84C6.72 59.84 6.352 59.84 6.352 59.84V58.4H17.152ZM7.696 58.4V92H4.576V58.4H7.696ZM4.72 88.496V92H0.88V91.52C0.88 91.52 0.976 91.52 1.168 91.52C1.392 91.52 1.504 91.52 1.504 91.52C2.336 91.52 3.04 91.232 3.616 90.656C4.224 90.048 4.544 89.328 4.576 88.496H4.72ZM4.72 61.904H4.576C4.576 61.072 4.272 60.368 3.664 59.792C3.056 59.184 2.336 58.88 1.504 58.88C1.504 58.88 1.408 58.88 1.216 58.88C1.024 58.88 0.928 58.88 0.928 58.88L0.88 58.4H4.72V61.904ZM44.9493 63.2V92H41.8773V63.2H44.9493ZM57.8613 90.512L57.7653 92H44.8533V90.512H57.8613ZM55.6053 76.88V78.32H44.8533V76.88H55.6053ZM57.8133 63.2V64.688H44.8533V63.2H57.8133ZM60.5493 85.136L57.9093 92H50.6133L52.2453 90.512C53.8453 90.512 55.1253 90.288 56.0853 89.84C57.0773 89.36 57.8773 88.72 58.4853 87.92C59.0933 87.088 59.6213 86.16 60.0693 85.136H60.5493ZM55.6053 78.224V80.96H55.0773V80.336C55.0773 79.792 54.9173 79.328 54.5973 78.944C54.2773 78.528 53.7813 78.32 53.1093 78.32V78.224H55.6053ZM55.6053 74.24V76.976H53.1093V76.88C53.7813 76.88 54.2773 76.688 54.5973 76.304C54.9173 75.888 55.0773 75.408 55.0773 74.864V74.24H55.6053ZM57.8133 64.544V67.856H57.2853V67.136C57.2853 66.464 57.0613 65.888 56.6133 65.408C56.1973 64.928 55.6213 64.688 54.8853 64.688V64.544H57.8133ZM57.8133 62.432V63.68L52.3413 63.2C53.3333 63.2 54.3893 63.12 55.5093 62.96C56.6293 62.768 57.3973 62.592 57.8133 62.432ZM41.9733 88.928L42.5973 92H38.4213V91.52C38.4213 91.52 38.5333 91.52 38.7573 91.52C38.9813 91.52 39.0933 91.52 39.0933 91.52C39.8933 91.52 40.5493 91.264 41.0613 90.752C41.5733 90.24 41.8453 89.632 41.8773 88.928H41.9733ZM41.9733 66.224H41.8773C41.8453 65.488 41.5733 64.88 41.0613 64.4C40.5493 63.92 39.8933 63.68 39.0933 63.68C39.0933 63.68 38.9813 63.68 38.7573 63.68C38.5333 63.68 38.4213 63.68 38.4213 63.68V63.2H42.5973L41.9733 66.224ZM73.2164 62.528C74.1124 62.528 74.8964 62.56 75.5684 62.624C76.2404 62.688 76.8164 62.768 77.2964 62.864C77.8084 62.928 78.2404 63.024 78.5924 63.152C78.9764 63.248 79.3124 63.344 79.6004 63.44L79.6484 68.192H79.0724C79.0724 66.88 78.6244 65.856 77.7284 65.12C76.8324 64.352 75.4404 63.968 73.5524 63.968C71.9524 63.968 70.5764 64.416 69.4244 65.312C68.3044 66.176 67.7604 67.248 67.7924 68.528C67.7924 68.944 67.8404 69.376 67.9364 69.824C68.0644 70.24 68.2564 70.656 68.5124 71.072C68.8004 71.488 69.1844 71.904 69.6644 72.32L79.3604 79.808C80.0964 80.416 80.6404 81.2 80.9924 82.16C81.3444 83.088 81.5364 84.016 81.5684 84.944C81.6004 86.352 81.2324 87.648 80.4644 88.832C79.6964 90.016 78.6564 90.96 77.3444 91.664C76.0644 92.336 74.6404 92.672 73.0724 92.672C72.1444 92.672 71.1364 92.592 70.0484 92.432C68.9924 92.272 68.0004 92.032 67.0724 91.712C66.1444 91.36 65.3764 90.928 64.7684 90.416C64.6724 89.968 64.6244 89.408 64.6244 88.736C64.6244 88.032 64.6724 87.296 64.7684 86.528C64.8964 85.76 65.0564 85.072 65.2484 84.464H65.8244C65.6964 85.904 65.9044 87.136 66.4484 88.16C66.9924 89.184 67.7924 89.968 68.8484 90.512C69.9044 91.024 71.1364 91.264 72.5444 91.232C74.5284 91.168 76.0804 90.672 77.2004 89.744C78.3524 88.784 78.9284 87.52 78.9284 85.952C78.9284 85.184 78.7844 84.496 78.4964 83.888C78.2404 83.248 77.8084 82.656 77.2004 82.112L67.6004 74.72C66.7044 73.952 66.0964 73.104 65.7764 72.176C65.4564 71.248 65.2964 70.368 65.2964 69.536C65.2964 68.224 65.6484 67.04 66.3524 65.984C67.0564 64.928 68.0004 64.096 69.1844 63.488C70.4004 62.848 71.7444 62.528 73.2164 62.528ZM79.5524 62.96L79.6004 63.824H76.1924V62.96H79.5524ZM93.7563 63.2V92H90.7323V63.2H93.7563ZM90.8763 88.928V92H86.7963V91.52C86.7963 91.52 86.9083 91.52 87.1323 91.52C87.3563 91.52 87.4683 91.52 87.4683 91.52C88.3643 91.52 89.1163 91.264 89.7243 90.752C90.3643 90.24 90.7003 89.632 90.7323 88.928H90.8763ZM93.6123 88.928H93.7563C93.7883 89.632 94.1083 90.24 94.7163 90.752C95.3563 91.264 96.1243 91.52 97.0203 91.52C97.0203 91.52 97.1163 91.52 97.3083 91.52C97.5323 91.52 97.6443 91.52 97.6443 91.52L97.6923 92H93.6123V88.928ZM93.6123 66.272V63.2H97.6923L97.6443 63.68C97.6443 63.68 97.5323 63.68 97.3083 63.68C97.1163 63.68 97.0203 63.68 97.0203 63.68C96.1243 63.68 95.3563 63.936 94.7163 64.448C94.1083 64.928 93.7883 65.536 93.7563 66.272H93.6123ZM90.8763 66.272H90.7323C90.7003 65.536 90.3643 64.928 89.7243 64.448C89.1163 63.936 88.3643 63.68 87.4683 63.68C87.4363 63.68 87.3083 63.68 87.0843 63.68C86.8923 63.68 86.7963 63.68 86.7963 63.68V63.2H90.8763V66.272ZM117.722 62.528C119.194 62.528 120.57 62.64 121.85 62.864C123.162 63.056 124.394 63.376 125.546 63.824C126.73 64.24 127.85 64.784 128.906 65.456L129.962 72.224H129.53C129.082 70.336 128.346 68.784 127.322 67.568C126.33 66.352 125.034 65.456 123.434 64.88C121.834 64.272 119.914 63.968 117.674 63.968C115.242 63.968 113.098 64.528 111.242 65.648C109.418 66.736 107.994 68.304 106.97 70.352C105.946 72.368 105.434 74.784 105.434 77.6C105.434 80.384 105.946 82.8 106.97 84.848C107.994 86.896 109.434 88.48 111.29 89.6C113.146 90.688 115.29 91.232 117.722 91.232C119.066 91.232 120.346 91.088 121.562 90.8C122.778 90.512 123.946 90.064 125.066 89.456C126.218 88.816 127.29 88.016 128.282 87.056L128.33 80.672C128.362 80.064 128.17 79.6 127.754 79.28C127.37 78.96 126.826 78.8 126.122 78.8H125.45V78.32H134.234V78.8H133.562C132.122 78.8 131.402 79.44 131.402 80.72V86.48C130.666 87.408 129.658 88.352 128.378 89.312C127.098 90.272 125.562 91.072 123.77 91.712C122.01 92.352 119.994 92.672 117.722 92.672C114.554 92.64 111.786 92.016 109.418 90.8C107.082 89.584 105.258 87.856 103.946 85.616C102.634 83.376 101.978 80.704 101.978 77.6C101.978 74.464 102.634 71.776 103.946 69.536C105.258 67.296 107.098 65.568 109.466 64.352C111.834 63.136 114.586 62.528 117.722 62.528ZM140.387 62.48L166.979 87.536L167.459 92.672L140.867 67.472L140.387 62.48ZM140.483 89.024V92H136.883V91.52C136.883 91.52 137.011 91.52 137.267 91.52C137.555 91.52 137.699 91.52 137.699 91.52C138.435 91.52 139.059 91.28 139.571 90.8C140.083 90.32 140.339 89.728 140.339 89.024H140.483ZM142.499 89.024C142.499 89.728 142.755 90.32 143.267 90.8C143.811 91.28 144.435 91.52 145.139 91.52C145.139 91.52 145.267 91.52 145.523 91.52C145.811 91.52 145.955 91.52 145.955 91.52V92H142.355V89.024H142.499ZM140.387 62.48L142.451 65.168L142.499 92H140.339V68.48C140.339 66.848 140.259 65.44 140.099 64.256C139.971 63.072 139.907 62.48 139.907 62.48H140.387ZM167.459 63.2V86.528C167.459 87.552 167.491 88.544 167.555 89.504C167.619 90.432 167.683 91.2 167.747 91.808C167.843 92.384 167.891 92.672 167.891 92.672H167.459L165.347 90.128V63.2H167.459ZM167.315 66.176V63.2H170.915V63.68C170.915 63.68 170.771 63.68 170.483 63.68C170.227 63.68 170.099 63.68 170.099 63.68C169.395 63.68 168.771 63.92 168.227 64.4C167.715 64.88 167.459 65.472 167.459 66.176H167.315ZM165.347 66.176C165.315 65.472 165.043 64.88 164.531 64.4C164.019 63.92 163.395 63.68 162.659 63.68C162.659 63.68 162.515 63.68 162.227 63.68C161.971 63.68 161.843 63.68 161.843 63.68V63.2H165.443V66.176H165.347Z" fill="#BDBDBD"/>
</svg>
