<svg width="162" height="76" viewBox="0 0 162 76" fill="none" xmlns="http://www.w3.org/2000/svg">
<rect width="161.52" height="75.4766" fill="#202020"/>
<path d="M18.8165 58.953V60.2669H14.7007V58.953H18.8165ZM15.2454 52.0915V60.2669H13.5609V52.0915H15.2454ZM23.6274 60.3792C23.1557 60.3792 22.7327 60.3043 22.3584 60.1546C21.9841 60.0011 21.6659 59.7896 21.4038 59.5201C21.1456 59.2506 20.9472 58.938 20.8087 58.5824C20.6702 58.223 20.6009 57.8412 20.6009 57.4369V57.2123C20.6009 56.7519 20.6664 56.3308 20.7974 55.949C20.9284 55.5672 21.1156 55.2359 21.3589 54.9551C21.606 54.6744 21.9054 54.4591 22.2573 54.3094C22.6092 54.1559 23.006 54.0792 23.4477 54.0792C23.8782 54.0792 24.26 54.1503 24.5931 54.2926C24.9263 54.4348 25.2052 54.6369 25.4298 54.899C25.6581 55.161 25.8303 55.4754 25.9463 55.8423C26.0624 56.2054 26.1204 56.6097 26.1204 57.0551V57.7289H21.2915V56.6508H24.5314V56.5273C24.5314 56.3027 24.4902 56.1025 24.4078 55.9265C24.3292 55.7468 24.2095 55.6046 24.0485 55.4998C23.8875 55.395 23.6816 55.3426 23.4308 55.3426C23.2175 55.3426 23.0341 55.3894 22.8806 55.4829C22.7271 55.5765 22.6017 55.7075 22.5044 55.876C22.4108 56.0444 22.3397 56.2428 22.291 56.4712C22.2461 56.6958 22.2236 56.9428 22.2236 57.2123V57.4369C22.2236 57.6803 22.2573 57.9049 22.3247 58.1107C22.3958 58.3166 22.495 58.4944 22.6223 58.6442C22.7533 58.7939 22.9105 58.9099 23.0939 58.9923C23.2811 59.0746 23.4926 59.1158 23.7284 59.1158C24.0204 59.1158 24.2918 59.0597 24.5426 58.9474C24.7972 58.8313 25.0161 58.6573 25.1996 58.4252L25.9856 59.2786C25.8584 59.4621 25.6843 59.638 25.4635 59.8064C25.2463 59.9749 24.9843 60.1134 24.6774 60.222C24.3704 60.3268 24.0204 60.3792 23.6274 60.3792ZM31.4703 58.8968V56.1904C31.4703 55.9958 31.4385 55.8292 31.3749 55.6907C31.3112 55.5484 31.212 55.438 31.0773 55.3594C30.9463 55.2808 30.776 55.2415 30.5663 55.2415C30.3867 55.2415 30.2313 55.2733 30.1003 55.3369C29.9693 55.3968 29.8682 55.4848 29.7971 55.6008C29.726 55.7131 29.6904 55.846 29.6904 55.9995H28.0733C28.0733 55.7412 28.1332 55.496 28.253 55.264C28.3728 55.0319 28.5468 54.8279 28.7752 54.6519C29.0035 54.4722 29.2749 54.3319 29.5893 54.2308C29.9075 54.1297 30.2631 54.0792 30.6562 54.0792C31.1278 54.0792 31.5471 54.1578 31.9139 54.315C32.2808 54.4722 32.569 54.7081 32.7786 55.0225C32.992 55.3369 33.0987 55.73 33.0987 56.2016V58.8014C33.0987 59.1345 33.1193 59.4078 33.1604 59.6212C33.2016 59.8308 33.2615 60.0142 33.3401 60.1714V60.2669H31.7062C31.6276 60.1022 31.5677 59.8963 31.5265 59.6492C31.4891 59.3984 31.4703 59.1476 31.4703 58.8968ZM31.6837 56.5666L31.6949 57.4819H30.7909C30.5776 57.4819 30.3923 57.5062 30.235 57.5549C30.0778 57.6035 29.9487 57.6728 29.8476 57.7626C29.7465 57.8487 29.6717 57.9498 29.623 58.0658C29.5781 58.1819 29.5556 58.3091 29.5556 58.4476C29.5556 58.5861 29.5875 58.7115 29.6511 58.8238C29.7147 58.9324 29.8064 59.0185 29.9262 59.0821C30.046 59.142 30.1864 59.172 30.3473 59.172C30.5907 59.172 30.8022 59.1233 30.9818 59.026C31.1615 58.9286 31.3 58.8089 31.3973 58.6666C31.4984 58.5244 31.5508 58.3896 31.5546 58.2623L31.9813 58.9474C31.9214 59.1008 31.8391 59.2599 31.7342 59.4246C31.6332 59.5893 31.504 59.7447 31.3468 59.8907C31.1896 60.0329 31.0006 60.1508 30.7797 60.2444C30.5588 60.3343 30.2968 60.3792 29.9936 60.3792C29.608 60.3792 29.258 60.3024 28.9436 60.149C28.6329 59.9917 28.3859 59.7765 28.2024 59.5032C28.0228 59.2262 27.9329 58.9118 27.9329 58.5599C27.9329 58.2417 27.9928 57.9591 28.1126 57.7121C28.2324 57.465 28.4083 57.2573 28.6404 57.0888C28.8762 56.9166 29.1701 56.7875 29.5219 56.7014C29.8738 56.6115 30.2818 56.5666 30.746 56.5666H31.6837ZM37.1122 55.5166V60.2669H35.4951V54.1915H37.0168L37.1122 55.5166ZM38.9427 54.1522L38.9146 55.6514C38.836 55.6402 38.7406 55.6308 38.6283 55.6233C38.5197 55.6121 38.4205 55.6065 38.3307 55.6065C38.1023 55.6065 37.904 55.6364 37.7355 55.6963C37.5708 55.7525 37.4323 55.8367 37.32 55.949C37.2114 56.0613 37.1291 56.1979 37.0729 56.3589C37.0205 56.5198 36.9906 56.7033 36.9831 56.9091L36.6574 56.8081C36.6574 56.415 36.6967 56.0538 36.7753 55.7244C36.854 55.3912 36.9681 55.1011 37.1179 54.8541C37.2713 54.607 37.4585 54.4161 37.6794 54.2813C37.9002 54.1466 38.1529 54.0792 38.4374 54.0792C38.5272 54.0792 38.6189 54.0867 38.7125 54.1017C38.8061 54.1129 38.8828 54.1297 38.9427 54.1522ZM42.4397 55.4885V60.2669H40.8226V54.1915H42.3386L42.4397 55.4885ZM42.2039 57.0158H41.7659C41.7659 56.5666 41.8239 56.1623 41.94 55.803C42.056 55.4399 42.2189 55.1311 42.4285 54.8765C42.6381 54.6182 42.887 54.4217 43.1753 54.2869C43.4672 54.1484 43.7929 54.0792 44.1523 54.0792C44.4368 54.0792 44.6969 54.1204 44.9328 54.2027C45.1686 54.2851 45.3707 54.4161 45.5392 54.5958C45.7114 54.7755 45.8424 55.0132 45.9322 55.3089C46.0258 55.6046 46.0726 55.9658 46.0726 56.3926V60.2669H44.4443V56.3869C44.4443 56.1174 44.4068 55.9078 44.332 55.7581C44.2571 55.6083 44.1467 55.5035 44.0007 55.4436C43.8584 55.38 43.6825 55.3482 43.4729 55.3482C43.2558 55.3482 43.0667 55.3912 42.9058 55.4773C42.7485 55.5634 42.6175 55.6832 42.5127 55.8367C42.4116 55.9864 42.3349 56.1623 42.2825 56.3645C42.2301 56.5666 42.2039 56.7837 42.2039 57.0158ZM50.1592 54.1915V60.2669H48.5364V54.1915H50.1592ZM48.4354 52.6081C48.4354 52.3722 48.5177 52.1776 48.6824 52.0241C48.8471 51.8706 49.068 51.7939 49.345 51.7939C49.6182 51.7939 49.8372 51.8706 50.0019 52.0241C50.1704 52.1776 50.2546 52.3722 50.2546 52.6081C50.2546 52.8439 50.1704 53.0386 50.0019 53.192C49.8372 53.3455 49.6182 53.4222 49.345 53.4222C49.068 53.4222 48.8471 53.3455 48.6824 53.192C48.5177 53.0386 48.4354 52.8439 48.4354 52.6081ZM54.2289 55.4885V60.2669H52.6118V54.1915H54.1278L54.2289 55.4885ZM53.993 57.0158H53.5551C53.5551 56.5666 53.6131 56.1623 53.7291 55.803C53.8452 55.4399 54.008 55.1311 54.2176 54.8765C54.4273 54.6182 54.6762 54.4217 54.9644 54.2869C55.2564 54.1484 55.5821 54.0792 55.9414 54.0792C56.2259 54.0792 56.4861 54.1204 56.7219 54.2027C56.9577 54.2851 57.1599 54.4161 57.3283 54.5958C57.5005 54.7755 57.6315 55.0132 57.7214 55.3089C57.815 55.6046 57.8617 55.9658 57.8617 56.3926V60.2669H56.2334V56.3869C56.2334 56.1174 56.196 55.9078 56.1211 55.7581C56.0462 55.6083 55.9358 55.5035 55.7898 55.4436C55.6476 55.38 55.4716 55.3482 55.262 55.3482C55.0449 55.3482 54.8559 55.3912 54.6949 55.4773C54.5377 55.5634 54.4067 55.6832 54.3019 55.8367C54.2008 55.9864 54.1241 56.1623 54.0717 56.3645C54.0192 56.5666 53.993 56.7837 53.993 57.0158ZM64.0876 54.1915H65.5531V60.0647C65.5531 60.6187 65.4296 61.0885 65.1825 61.4741C64.9392 61.8634 64.5986 62.1572 64.1606 62.3556C63.7226 62.5578 63.2135 62.6588 62.6333 62.6588C62.3788 62.6588 62.1093 62.6252 61.8248 62.5578C61.544 62.4904 61.2745 62.3856 61.0162 62.2433C60.7617 62.1011 60.5483 61.9214 60.3761 61.7043L61.0892 60.7498C61.2764 60.9669 61.4935 61.1353 61.7406 61.2551C61.9876 61.3786 62.2609 61.4404 62.5603 61.4404C62.8523 61.4404 63.0994 61.3861 63.3015 61.2776C63.5037 61.1728 63.659 61.0174 63.7676 60.8115C63.8761 60.6094 63.9304 60.3642 63.9304 60.076V55.5952L64.0876 54.1915ZM59.9999 57.3022V57.1843C59.9999 56.7201 60.0561 56.299 60.1684 55.9209C60.2844 55.5391 60.4472 55.2115 60.6569 54.9383C60.8702 54.665 61.1285 54.4535 61.4317 54.3038C61.7349 54.1541 62.0775 54.0792 62.4593 54.0792C62.8636 54.0792 63.2023 54.1541 63.4756 54.3038C63.7488 54.4535 63.9734 54.6669 64.1494 54.9439C64.3253 55.2172 64.4619 55.541 64.5593 55.9153C64.6603 56.2859 64.7389 56.692 64.7951 57.1337V57.392C64.7389 57.815 64.6547 58.2081 64.5424 58.5712C64.4301 58.9343 64.2823 59.2524 64.0988 59.5257C63.9154 59.7952 63.6871 60.0048 63.4138 60.1546C63.1443 60.3043 62.8224 60.3792 62.448 60.3792C62.0737 60.3792 61.7349 60.3024 61.4317 60.149C61.1323 59.9955 60.8759 59.7802 60.6625 59.5032C60.4491 59.2262 60.2844 58.9006 60.1684 58.5262C60.0561 58.1519 59.9999 57.7439 59.9999 57.3022ZM61.617 57.1843V57.3022C61.617 57.553 61.6414 57.7869 61.69 58.004C61.7387 58.2212 61.8136 58.4139 61.9146 58.5824C62.0194 58.7471 62.1486 58.8762 62.3021 58.9698C62.4593 59.0597 62.6446 59.1046 62.8579 59.1046C63.1537 59.1046 63.3951 59.0428 63.5823 58.9193C63.7694 58.792 63.9098 58.618 64.0034 58.3971C64.097 58.1762 64.1512 57.9217 64.1662 57.6335V56.8979C64.1587 56.6621 64.1269 56.4506 64.0708 56.2634C64.0146 56.0725 63.936 55.9097 63.8349 55.7749C63.7339 55.6402 63.6029 55.5353 63.4419 55.4605C63.2809 55.3856 63.09 55.3482 62.8692 55.3482C62.6558 55.3482 62.4705 55.3968 62.3133 55.4942C62.1598 55.5877 62.0307 55.7169 61.9259 55.8816C61.8248 56.0463 61.748 56.241 61.6956 56.4656C61.6432 56.6864 61.617 56.926 61.617 57.1843ZM74.0463 58.9698L75.6746 52.0915H76.5843L76.792 53.237L75.057 60.2669H74.08L74.0463 58.9698ZM73.2097 52.0915L74.5573 58.9698L74.445 60.2669H73.3557L71.542 52.0915H73.2097ZM78.2238 58.9417L79.5546 52.0915H81.2222L79.4142 60.2669H78.3249L78.2238 58.9417ZM77.0952 52.0915L78.7348 58.9979L78.6899 60.2669H77.7129L75.9666 53.2313L76.1912 52.0915H77.0952ZM84.8933 54.1915V60.2669H83.2705V54.1915H84.8933ZM83.1695 52.6081C83.1695 52.3722 83.2518 52.1776 83.4165 52.0241C83.5812 51.8706 83.8021 51.7939 84.0791 51.7939C84.3524 51.7939 84.5713 51.8706 84.736 52.0241C84.9045 52.1776 84.9887 52.3722 84.9887 52.6081C84.9887 52.8439 84.9045 53.0386 84.736 53.192C84.5713 53.3455 84.3524 53.4222 84.0791 53.4222C83.8021 53.4222 83.5812 53.3455 83.4165 53.192C83.2518 53.0386 83.1695 52.8439 83.1695 52.6081ZM90.3555 54.1915V55.3369H86.8181V54.1915H90.3555ZM87.694 52.6923H89.3111V58.4364C89.3111 58.6123 89.3336 58.7471 89.3785 58.8407C89.4272 58.9343 89.4983 58.9998 89.5919 59.0372C89.6854 59.0709 89.8034 59.0877 89.9456 59.0877C90.0467 59.0877 90.1365 59.084 90.2151 59.0765C90.2975 59.0653 90.3667 59.054 90.4229 59.0428L90.4285 60.2332C90.29 60.2781 90.1403 60.3137 89.9793 60.3399C89.8183 60.3661 89.6405 60.3792 89.4459 60.3792C89.0903 60.3792 88.7796 60.3212 88.5138 60.2051C88.2518 60.0853 88.0496 59.8944 87.9074 59.6324C87.7651 59.3704 87.694 59.026 87.694 58.5992V52.6923ZM94.0041 51.6423V60.2669H92.387V51.6423H94.0041ZM93.7739 57.0158H93.3303C93.334 56.5928 93.3902 56.2035 93.4987 55.8479C93.6073 55.4885 93.7627 55.1779 93.9648 54.9158C94.1669 54.65 94.4084 54.4442 94.6891 54.2982C94.9736 54.1522 95.288 54.0792 95.6324 54.0792C95.9319 54.0792 96.2033 54.1222 96.4466 54.2083C96.6937 54.2907 96.9052 54.4255 97.0811 54.6126C97.2608 54.796 97.3993 55.0375 97.4966 55.3369C97.5939 55.6364 97.6426 55.9995 97.6426 56.4262V60.2669H96.0142V56.415C96.0142 56.1455 95.9749 55.934 95.8963 55.7805C95.8215 55.6233 95.711 55.5129 95.5651 55.4492C95.4228 55.3819 95.2469 55.3482 95.0372 55.3482C94.8052 55.3482 94.6068 55.3912 94.4421 55.4773C94.2811 55.5634 94.152 55.6832 94.0546 55.8367C93.9573 55.9864 93.8862 56.1623 93.8413 56.3645C93.7963 56.5666 93.7739 56.7837 93.7739 57.0158ZM104.906 52.0915H106.332L108.432 58.0939L110.532 52.0915H111.958L109.005 60.2669H107.86L104.906 52.0915ZM104.137 52.0915H105.557L105.816 57.9423V60.2669H104.137V52.0915ZM111.307 52.0915H112.733V60.2669H111.049V57.9423L111.307 52.0915ZM118.538 58.8968V56.1904C118.538 55.9958 118.506 55.8292 118.443 55.6907C118.379 55.5484 118.28 55.438 118.145 55.3594C118.014 55.2808 117.844 55.2415 117.634 55.2415C117.454 55.2415 117.299 55.2733 117.168 55.3369C117.037 55.3968 116.936 55.4848 116.865 55.6008C116.794 55.7131 116.758 55.846 116.758 55.9995H115.141C115.141 55.7412 115.201 55.496 115.321 55.264C115.44 55.0319 115.615 54.8279 115.843 54.6519C116.071 54.4722 116.343 54.3319 116.657 54.2308C116.975 54.1297 117.331 54.0792 117.724 54.0792C118.196 54.0792 118.615 54.1578 118.982 54.315C119.348 54.4722 119.637 54.7081 119.846 55.0225C120.06 55.3369 120.166 55.73 120.166 56.2016V58.8014C120.166 59.1345 120.187 59.4078 120.228 59.6212C120.269 59.8308 120.329 60.0142 120.408 60.1714V60.2669H118.774C118.695 60.1022 118.635 59.8963 118.594 59.6492C118.557 59.3984 118.538 59.1476 118.538 58.8968ZM118.751 56.5666L118.763 57.4819H117.859C117.645 57.4819 117.46 57.5062 117.303 57.5549C117.146 57.6035 117.016 57.6728 116.915 57.7626C116.814 57.8487 116.739 57.9498 116.691 58.0658C116.646 58.1819 116.623 58.3091 116.623 58.4476C116.623 58.5861 116.655 58.7115 116.719 58.8238C116.782 58.9324 116.874 59.0185 116.994 59.0821C117.114 59.142 117.254 59.172 117.415 59.172C117.658 59.172 117.87 59.1233 118.05 59.026C118.229 58.9286 118.368 58.8089 118.465 58.6666C118.566 58.5244 118.619 58.3896 118.622 58.2623L119.049 58.9474C118.989 59.1008 118.907 59.2599 118.802 59.4246C118.701 59.5893 118.572 59.7447 118.415 59.8907C118.257 60.0329 118.068 60.1508 117.847 60.2444C117.627 60.3343 117.365 60.3792 117.061 60.3792C116.676 60.3792 116.326 60.3024 116.011 60.149C115.701 59.9917 115.454 59.7765 115.27 59.5032C115.09 59.2262 115.001 58.9118 115.001 58.5599C115.001 58.2417 115.061 57.9591 115.18 57.7121C115.3 57.465 115.476 57.2573 115.708 57.0888C115.944 56.9166 116.238 56.7875 116.59 56.7014C116.942 56.6115 117.35 56.5666 117.814 56.5666H118.751ZM125.848 58.588C125.848 58.472 125.814 58.3671 125.747 58.2736C125.679 58.18 125.554 58.0939 125.37 58.0153C125.191 57.9329 124.931 57.8581 124.59 57.7907C124.283 57.7233 123.997 57.6391 123.731 57.538C123.469 57.4332 123.24 57.3078 123.046 57.1618C122.855 57.0158 122.705 56.8436 122.597 56.6452C122.488 56.4431 122.434 56.2129 122.434 55.9546C122.434 55.7 122.488 55.4605 122.597 55.2359C122.709 55.0113 122.868 54.8129 123.074 54.6407C123.283 54.4648 123.538 54.3281 123.837 54.2308C124.141 54.1297 124.481 54.0792 124.859 54.0792C125.387 54.0792 125.84 54.1634 126.218 54.3319C126.6 54.5003 126.892 54.7324 127.094 55.0281C127.3 55.3201 127.403 55.6533 127.403 56.0276H125.786C125.786 55.8704 125.752 55.73 125.685 55.6065C125.621 55.4792 125.52 55.38 125.382 55.3089C125.247 55.234 125.071 55.1966 124.854 55.1966C124.674 55.1966 124.519 55.2284 124.388 55.292C124.257 55.3519 124.156 55.4343 124.085 55.5391C124.017 55.6402 123.983 55.7525 123.983 55.876C123.983 55.9696 124.002 56.0538 124.04 56.1287C124.081 56.1998 124.146 56.2653 124.236 56.3252C124.326 56.3851 124.442 56.4412 124.584 56.4936C124.73 56.5423 124.91 56.5872 125.123 56.6284C125.561 56.7182 125.952 56.8361 126.297 56.9821C126.641 57.1244 126.914 57.319 127.117 57.5661C127.319 57.8094 127.42 58.1295 127.42 58.5262C127.42 58.7958 127.36 59.0428 127.24 59.2674C127.12 59.492 126.948 59.6885 126.724 59.857C126.499 60.0217 126.229 60.1508 125.915 60.2444C125.604 60.3343 125.254 60.3792 124.865 60.3792C124.3 60.3792 123.821 60.2781 123.428 60.076C123.038 59.8738 122.743 59.6174 122.54 59.3067C122.342 58.9923 122.243 58.6704 122.243 58.3409H123.776C123.783 58.5618 123.839 58.7396 123.944 58.8744C124.053 59.0091 124.189 59.1065 124.354 59.1663C124.522 59.2262 124.704 59.2562 124.899 59.2562C125.108 59.2562 125.282 59.2281 125.421 59.172C125.559 59.1121 125.664 59.0335 125.735 58.9361C125.81 58.8351 125.848 58.719 125.848 58.588ZM132.596 54.1915V55.3369H129.058V54.1915H132.596ZM129.934 52.6923H131.551V58.4364C131.551 58.6123 131.574 58.7471 131.619 58.8407C131.667 58.9343 131.738 58.9998 131.832 59.0372C131.926 59.0709 132.044 59.0877 132.186 59.0877C132.287 59.0877 132.377 59.084 132.455 59.0765C132.538 59.0653 132.607 59.054 132.663 59.0428L132.669 60.2332C132.53 60.2781 132.38 60.3137 132.219 60.3399C132.059 60.3661 131.881 60.3792 131.686 60.3792C131.33 60.3792 131.02 60.3212 130.754 60.2051C130.492 60.0853 130.29 59.8944 130.148 59.6324C130.005 59.3704 129.934 59.026 129.934 58.5992V52.6923ZM137.463 60.3792C136.991 60.3792 136.568 60.3043 136.194 60.1546C135.819 60.0011 135.501 59.7896 135.239 59.5201C134.981 59.2506 134.783 58.938 134.644 58.5824C134.506 58.223 134.436 57.8412 134.436 57.4369V57.2123C134.436 56.7519 134.502 56.3308 134.633 55.949C134.764 55.5672 134.951 55.2359 135.194 54.9551C135.441 54.6744 135.741 54.4591 136.093 54.3094C136.445 54.1559 136.841 54.0792 137.283 54.0792C137.714 54.0792 138.095 54.1503 138.428 54.2926C138.762 54.4348 139.041 54.6369 139.265 54.899C139.493 55.161 139.666 55.4754 139.782 55.8423C139.898 56.2054 139.956 56.6097 139.956 57.0551V57.7289H135.127V56.6508H138.367V56.5273C138.367 56.3027 138.326 56.1025 138.243 55.9265C138.165 55.7468 138.045 55.6046 137.884 55.4998C137.723 55.395 137.517 55.3426 137.266 55.3426C137.053 55.3426 136.869 55.3894 136.716 55.4829C136.562 55.5765 136.437 55.7075 136.34 55.876C136.246 56.0444 136.175 56.2428 136.126 56.4712C136.081 56.6958 136.059 56.9428 136.059 57.2123V57.4369C136.059 57.6803 136.093 57.9049 136.16 58.1107C136.231 58.3166 136.33 58.4944 136.458 58.6442C136.589 58.7939 136.746 58.9099 136.929 58.9923C137.116 59.0746 137.328 59.1158 137.564 59.1158C137.856 59.1158 138.127 59.0597 138.378 58.9474C138.633 58.8313 138.851 58.6573 139.035 58.4252L139.821 59.2786C139.694 59.4621 139.52 59.638 139.299 59.8064C139.082 59.9749 138.82 60.1134 138.513 60.222C138.206 60.3268 137.856 60.3792 137.463 60.3792ZM143.644 55.5166V60.2669H142.027V54.1915H143.548L143.644 55.5166ZM145.474 54.1522L145.446 55.6514C145.367 55.6402 145.272 55.6308 145.16 55.6233C145.051 55.6121 144.952 55.6065 144.862 55.6065C144.634 55.6065 144.435 55.6364 144.267 55.6963C144.102 55.7525 143.964 55.8367 143.851 55.949C143.743 56.0613 143.661 56.1979 143.604 56.3589C143.552 56.5198 143.522 56.7033 143.515 56.9091L143.189 56.8081C143.189 56.415 143.228 56.0538 143.307 55.7244C143.385 55.3912 143.5 55.1011 143.649 54.8541C143.803 54.607 143.99 54.4161 144.211 54.2813C144.432 54.1466 144.684 54.0792 144.969 54.0792C145.059 54.0792 145.15 54.0867 145.244 54.1017C145.338 54.1129 145.414 54.1297 145.474 54.1522ZM146.579 59.4864C146.579 59.2468 146.662 59.0466 146.826 58.8856C146.995 58.7246 147.217 58.6442 147.494 58.6442C147.771 58.6442 147.992 58.7246 148.157 58.8856C148.325 59.0466 148.41 59.2468 148.41 59.4864C148.41 59.726 148.325 59.9262 148.157 60.0872C147.992 60.2482 147.771 60.3286 147.494 60.3286C147.217 60.3286 146.995 60.2482 146.826 60.0872C146.662 59.9262 146.579 59.726 146.579 59.4864Z" fill="white"/>
<path d="M30.774 23.1333V27.9431H17.4671V23.1333H30.774ZM19.5513 12.837V38.7738H13.2987V12.837H19.5513ZM34.978 12.837V38.7738H28.7432V12.837H34.978ZM65.275 25.2888V26.3398C65.275 28.3231 64.9959 30.1045 64.4377 31.6839C63.8914 33.2516 63.1136 34.5935 62.1041 35.7099C61.0947 36.8143 59.9011 37.6634 58.5236 38.2572C57.146 38.8391 55.6258 39.1301 53.9632 39.1301C52.2887 39.1301 50.7567 38.8391 49.3673 38.2572C47.9897 37.6634 46.7902 36.8143 45.7689 35.7099C44.7594 34.5935 43.9756 33.2516 43.4175 31.6839C42.8712 30.1045 42.598 28.3231 42.598 26.3398V25.2888C42.598 23.3055 42.8712 21.5242 43.4175 19.9447C43.9756 18.3652 44.7535 17.0232 45.7511 15.9188C46.7605 14.8024 47.9541 13.9533 49.3316 13.3714C50.7211 12.7776 52.2531 12.4807 53.9276 12.4807C55.5902 12.4807 57.1103 12.7776 58.4879 13.3714C59.8774 13.9533 61.0769 14.8024 62.0863 15.9188C63.0958 17.0232 63.8796 18.3652 64.4377 19.9447C64.9959 21.5242 65.275 23.3055 65.275 25.2888ZM58.9333 26.3398V25.2532C58.9333 23.9706 58.8204 22.8424 58.5948 21.8686C58.381 20.8829 58.0604 20.0575 57.6329 19.3924C57.2053 18.7274 56.6769 18.2286 56.0474 17.8961C55.4299 17.5517 54.7233 17.3795 53.9276 17.3795C53.0963 17.3795 52.3719 17.5517 51.7543 17.8961C51.1368 18.2286 50.6202 18.7274 50.2045 19.3924C49.7889 20.0575 49.4742 20.8829 49.2604 21.8686C49.0585 22.8424 48.9576 23.9706 48.9576 25.2532V26.3398C48.9576 27.6105 49.0585 28.7387 49.2604 29.7244C49.4742 30.6982 49.7889 31.5236 50.2045 32.2005C50.6321 32.8775 51.1546 33.3881 51.7721 33.7325C52.4016 34.0769 53.1319 34.2491 53.9632 34.2491C54.7589 34.2491 55.4655 34.0769 56.0831 33.7325C56.7006 33.3881 57.2172 32.8775 57.6329 32.2005C58.0604 31.5236 58.381 30.6982 58.5948 29.7244C58.8204 28.7387 58.9333 27.6105 58.9333 26.3398ZM90.0318 33.9641V38.7738H76.9209V33.9641H90.0318ZM79.1476 12.837V38.7738H72.895V12.837H79.1476ZM108.394 18.288L102.07 38.7738H95.3539L104.884 12.837H109.142L108.394 18.288ZM113.631 38.7738L107.289 18.288L106.47 12.837H110.781L120.364 38.7738H113.631ZM113.381 29.1009V33.9285H100.075V29.1009H113.381ZM141.015 29.3978H144.773L145.722 16.9207L145.904 11.4848H139.884L140.067 16.9207L141.015 29.3978ZM142.912 39.1386C144.736 39.1386 146.123 37.7888 146.123 35.8917C146.123 33.9946 144.736 32.6812 142.912 32.6812C141.052 32.6812 139.665 33.9946 139.665 35.8917C139.665 37.7888 141.015 39.1386 142.912 39.1386Z" fill="white"/>
</svg>
