<svg width="71" height="383" viewBox="0 0 71 383" fill="none" xmlns="http://www.w3.org/2000/svg">
<path d="M0.799746 312.864L7.23175 312.096L60.8957 336.192C60.8957 336.192 61.4397 336.448 62.5277 336.96C63.6157 337.408 64.9277 337.888 66.4637 338.4C67.9357 338.912 69.3438 339.264 70.6878 339.456V340.416L64.6397 341.76L0.799746 312.864ZM62.3357 371.904H69.3438V382.56H68.3837C68.3837 382.496 68.3837 382.24 68.3837 381.792C68.3837 381.28 68.3837 381.024 68.3837 381.024C68.3837 379.296 67.8717 377.76 66.8477 376.416C65.7597 375.072 64.2557 374.272 62.3357 374.016V371.904ZM63.8717 369.12C63.9357 369.12 63.9997 369.12 64.0637 369.12C64.1277 369.12 64.2237 369.12 64.3517 369.12C65.3757 369.12 66.3357 368.768 67.2317 368.064C68.0637 367.296 68.4797 366.4 68.4797 365.376V363.936H69.3438V369.792H63.8717V369.12ZM0.799746 366.816V365.856L6.46375 363.936L69.3438 369.6V374.784L0.799746 366.816ZM0.799746 365.856L60.6077 338.208L70.6878 340.416L11.5517 367.68L0.799746 365.856ZM0.799746 312L69.3438 303.744V311.232L11.1677 316.512L0.799746 312.864V312ZM62.3357 306.624V304.608C64.2557 304.288 65.7597 303.456 66.8477 302.112C67.8717 300.768 68.3837 299.264 68.3837 297.6C68.3837 297.6 68.3837 297.344 68.3837 296.832C68.3837 296.32 68.3837 296.064 68.3837 296.064H69.3438V306.624H62.3357ZM63.8717 311.712V311.04H69.3438V316.896H68.4797V315.456C68.4797 314.368 68.0637 313.472 67.2317 312.768C66.3357 312.064 65.3757 311.712 64.3517 311.712C64.2237 311.712 64.1277 311.712 64.0637 311.712C63.9997 311.712 63.9357 311.712 63.8717 311.712ZM0.799746 260.192L68.7677 231.776V239.936L9.91975 262.112L0.799746 260.192ZM62.3357 280.832C63.6157 281.28 64.7037 281.344 65.5997 281.024C66.4957 280.704 67.1997 280.192 67.7117 279.488C68.1597 278.72 68.3837 277.952 68.3837 277.184V276.32H69.3438V295.616H68.3837C68.3837 295.616 68.3837 295.456 68.3837 295.136C68.3837 294.88 68.3837 294.752 68.3837 294.752C68.3837 293.28 67.9357 291.776 67.0397 290.24C66.0797 288.64 64.5117 287.328 62.3357 286.304V280.832ZM0.799746 260.192L7.51974 259.328L69.0557 283.424V289.184L10.6877 264.608C10.6877 264.608 10.3037 264.448 9.53575 264.128C8.70375 263.744 7.71175 263.328 6.55975 262.88C5.40775 262.368 4.28775 261.952 3.19975 261.632C2.11175 261.248 1.31175 261.056 0.799746 261.056V260.192ZM43.1357 246.656H46.0157L46.0157 276.704H43.1357L43.1357 246.656ZM62.3357 242.336V234.464C64.5117 233.504 66.0797 232.224 67.0397 230.624C67.9357 229.024 68.3837 227.488 68.3837 226.016C68.3837 226.016 68.3837 225.888 68.3837 225.632C68.3837 225.376 68.3837 225.248 68.3837 225.248H69.3438V246.848H68.3837V245.984C68.3837 244.768 67.8717 243.68 66.8477 242.72C65.7597 241.76 64.2557 241.632 62.3357 242.336ZM0.799746 202.216C0.799746 201.192 0.863747 200.104 0.991749 198.952C1.11975 197.736 1.31175 196.584 1.56775 195.496C1.75975 194.344 1.98375 193.32 2.23974 192.424C2.43175 191.464 2.65575 190.728 2.91175 190.216H13.5677V191.08C10.4957 191.08 8.09575 192.136 6.36775 194.248C4.57575 196.36 3.67975 198.92 3.67975 201.928C3.67975 205.448 4.79975 208.296 7.03975 210.472C9.21575 212.648 11.7757 213.736 14.7197 213.736C15.9357 213.736 17.3757 213.48 19.0397 212.968C20.6397 212.392 22.1437 211.368 23.5517 209.896L41.0237 190.984C42.8157 189.064 44.7357 187.784 46.7837 187.144C48.8317 186.504 50.8157 186.184 52.7357 186.184C58.0477 186.184 62.3677 187.816 65.6957 191.08C69.0237 194.28 70.6878 198.632 70.6878 204.136C70.6878 205.672 70.5278 207.496 70.2078 209.608C69.8878 211.656 69.3438 213.672 68.5757 215.656C67.7437 217.576 66.6877 219.176 65.4077 220.456C64.3837 220.648 63.1037 220.744 61.5677 220.744C60.0317 220.744 58.4317 220.616 56.7677 220.36C55.0397 220.104 53.4717 219.752 52.0637 219.304V218.44C55.3277 218.76 58.1757 218.344 60.6077 217.192C63.0397 216.04 64.8957 214.376 66.1758 212.201C67.3917 209.96 67.9357 207.432 67.8077 204.616C67.6157 201.096 66.3997 198.088 64.1597 195.592C61.8557 193.032 58.7837 191.752 54.9437 191.752C53.0877 191.752 51.4237 192.072 49.9517 192.712C48.4157 193.352 47.1037 194.28 46.0157 195.496L28.9277 213.928C27.1357 215.848 25.1837 217.192 23.0717 217.96C20.8957 218.728 18.8797 219.112 17.0237 219.112C14.3357 219.112 11.7437 218.472 9.24775 217.192C6.75175 215.912 4.73575 214.024 3.19975 211.528C1.59975 208.968 0.799746 205.864 0.799746 202.216ZM1.75974 190.216H3.77575V197.512H1.75974V190.216ZM2.43175 147.918H69.3438V154.158H2.43175V147.918ZM2.04775 123.246H4.92775V178.83H2.04775V123.246ZM4.63975 123.246H12.4157L12.3197 124.206H10.6877C9.08775 124.206 7.74375 124.782 6.65574 125.934C5.56775 127.022 4.99175 128.334 4.92775 129.87H4.63975V123.246ZM0.319746 123.246H3.10374L2.04775 134.958C2.04775 133.55 1.95175 132.078 1.75974 130.542C1.56775 128.942 1.34375 127.47 1.08775 126.126C0.831747 124.782 0.575747 123.822 0.319746 123.246ZM62.3357 153.87H69.3438V161.55H68.3837C68.3837 161.55 68.3837 161.358 68.3837 160.974C68.3837 160.526 68.3837 160.302 68.3837 160.302C68.3837 158.638 67.8077 157.23 66.6557 156.078C65.4397 154.862 63.9997 154.222 62.3357 154.158V153.87ZM62.3357 148.206V147.918C63.9997 147.854 65.4397 147.246 66.6557 146.094C67.8077 144.878 68.3837 143.438 68.3837 141.774C68.3837 141.774 68.3837 141.582 68.3837 141.198C68.3837 140.75 68.3837 140.526 68.3837 140.526H69.3438V148.206H62.3357ZM4.63975 172.206H4.92775C4.99175 173.806 5.56775 175.15 6.65574 176.238C7.74375 177.326 9.08775 177.87 10.6877 177.87H12.3197L12.4157 178.83H4.63975V172.206ZM0.319746 178.83C0.575747 178.19 0.831747 177.23 1.08775 175.95C1.34375 174.606 1.56775 173.134 1.75974 171.534C1.95175 169.934 2.04775 168.462 2.04775 167.118L3.10374 178.83H0.319746ZM2.14375 102.014H69.3438V108.254H2.14375V102.014ZM66.3677 76.0942H69.3438V102.302H66.3677V76.0942ZM34.7837 80.2222H37.6637L37.6637 102.302H34.7837L34.7837 80.2222ZM2.14375 76.0942H5.11975V102.302H2.14375V76.0942ZM53.7917 70.2382L69.3438 75.8062V91.7422L66.3677 88.2862C66.3677 84.8942 65.8557 82.1422 64.8317 80.0302C63.7437 77.8542 62.2397 76.0942 60.3197 74.7502C58.3997 73.4062 56.2237 72.2222 53.7917 71.1982V70.2382ZM37.4717 80.2222H43.8077V81.1822H42.3677C41.0877 81.1822 39.9997 81.6302 39.1037 82.5262C38.1437 83.4222 37.6637 84.5102 37.6637 85.7902H37.4717V80.2222ZM28.6397 80.2222H34.9757V85.7902H34.7837C34.7197 84.5102 34.2397 83.4222 33.3437 82.5262C32.3837 81.6302 31.2637 81.1822 29.9837 81.1822H28.6397V80.2222ZM4.83175 76.0942H12.5117V77.0542H10.7837C9.24775 77.0542 7.93575 77.5982 6.84775 78.6862C5.69575 79.7742 5.08775 81.1182 5.02375 82.7182H4.83175V76.0942ZM0.415745 76.0942H3.19975L2.14375 87.8062C2.14375 86.3982 2.04775 84.9262 1.85575 83.3902C1.66375 81.7902 1.43975 80.3182 1.18375 78.9742C0.927746 77.6302 0.671745 76.6702 0.415745 76.0942ZM62.3357 107.966H69.3438V115.646H68.3837C68.3837 115.646 68.3837 115.454 68.3837 115.07C68.3837 114.622 68.3837 114.398 68.3837 114.398C68.3837 112.734 67.8077 111.326 66.6557 110.174C65.4397 108.958 63.9997 108.318 62.3357 108.254V107.966ZM9.15175 107.966V108.254C7.48775 108.254 6.07975 108.862 4.92775 110.078C3.71175 111.294 3.10374 112.734 3.10374 114.398C3.10374 114.398 3.10374 114.59 3.10374 114.974C3.10374 115.358 3.10374 115.55 3.10374 115.55L2.14375 115.646V107.966H9.15175ZM2.14375 48.7935V35.2575C2.14375 32.3775 2.55975 29.7855 3.39175 27.4815C4.22375 25.1135 5.43975 23.1295 7.03975 21.5295C8.57575 19.9295 10.4637 18.7135 12.7037 17.8815C14.8797 16.9855 17.3757 16.5375 20.1917 16.5375C23.2637 16.5375 26.2077 17.2735 29.0237 18.7455C31.8397 20.1535 34.1437 22.1055 35.9357 24.6015C37.6637 27.0335 38.5277 29.7855 38.5277 32.8575C38.9757 31.7695 39.9037 30.5855 41.3117 29.3055C42.6557 28.0255 43.9677 26.9055 45.2477 25.9455C45.2477 25.9455 45.8877 25.5295 47.1677 24.6975C48.3837 23.8015 49.8877 22.7135 51.6797 21.4335C53.4717 20.0895 55.2317 18.7455 56.9597 17.4015C58.6877 16.0575 60.0637 14.9055 61.0877 13.9455C62.4957 12.6655 63.7437 11.3855 64.8317 10.1055C65.9197 8.8255 66.7837 7.4495 67.4237 5.9775C68.0637 4.4415 68.3837 2.7455 68.3837 0.889498H69.3438V6.1695C69.3438 9.1135 68.8957 11.6735 67.9997 13.8495C67.1037 15.9615 66.0157 17.7535 64.7357 19.2255C63.3917 20.6975 62.1117 21.9455 60.8957 22.9695C60.6397 23.1615 59.9037 23.7055 58.6877 24.6015C57.4717 25.4335 56.0317 26.4575 54.3677 27.6735C52.6397 28.8255 50.9437 29.9775 49.2797 31.1295C47.6157 32.2815 46.2077 33.2735 45.0557 34.1055C43.8397 34.9375 43.1357 35.4175 42.9437 35.5455C41.3437 36.7615 39.8717 38.1055 38.5277 39.5775C37.1837 41.0495 36.5117 42.6495 36.5117 44.3775H35.5517C35.5517 44.3775 35.5837 43.8975 35.6477 42.9375C35.6477 41.9135 35.6157 40.6975 35.5517 39.2895C35.4877 37.6255 35.2317 35.8015 34.7837 33.8175C34.3357 31.8335 33.4077 29.9775 31.9997 28.2495C30.5917 26.5215 28.4477 25.2095 25.5677 24.3135C24.8637 24.1215 23.9997 23.9615 22.9757 23.8335C21.8877 23.7055 20.8317 23.6735 19.8077 23.7375C15.4557 23.8015 11.9997 24.9215 9.43975 27.0975C6.81575 29.2095 5.40775 32.0575 5.21575 35.6415C5.08775 37.4335 5.05575 39.2895 5.11975 41.2095C5.11975 43.0655 5.11975 44.6335 5.11975 45.9135C5.11975 47.1935 5.11975 47.8335 5.11975 47.8335C5.05575 47.8335 4.79975 47.9295 4.35175 48.1215C3.83974 48.2495 3.35975 48.4095 2.91175 48.6015C2.39975 48.7295 2.14375 48.7935 2.14375 48.7935ZM2.14375 47.5455H69.3438V53.7855H2.14375V47.5455ZM62.3357 53.4975H69.3438V61.1775H68.3837C68.3837 61.1775 68.3837 60.9855 68.3837 60.6015C68.3837 60.1535 68.3837 59.9295 68.3837 59.9295C68.3837 58.2655 67.8077 56.8575 66.6557 55.7055C65.4397 54.4895 63.9997 53.8495 62.3357 53.7855V53.4975ZM9.15175 53.4975V53.7855C7.48775 53.8495 6.07975 54.4895 4.92775 55.7055C3.71175 56.8575 3.10374 58.2655 3.10374 59.9295C3.10374 59.9295 3.10374 60.1535 3.10374 60.6015C3.10374 60.9855 3.10374 61.1775 3.10374 61.1775H2.14375V53.4975H9.15175ZM62.3357 47.8335V47.5455C63.9997 47.5455 65.4397 46.9375 66.6557 45.7215C67.8077 44.5055 68.3837 43.0655 68.3837 41.4015C68.3837 41.4015 68.3837 41.2095 68.3837 40.8255C68.3837 40.4415 68.3837 40.2495 68.3837 40.2495H69.3438V47.8335H62.3357Z" fill="#616161"/>
</svg>
