<svg width="163" height="70" viewBox="0 0 163 70" fill="none" xmlns="http://www.w3.org/2000/svg">
<path d="M5.272 0.799998V26H2.932V0.799998H5.272ZM3.04 23.372V26H0.16V25.64C0.16 25.64 0.232 25.64 0.376 25.64C0.544 25.64 0.628 25.64 0.628 25.64C1.252 25.64 1.78 25.424 2.212 24.992C2.668 24.536 2.908 23.996 2.932 23.372H3.04ZM3.04 3.428H2.932C2.908 2.804 2.668 2.276 2.212 1.844C1.78 1.388 1.252 1.16 0.628 1.16C0.628 1.16 0.544 1.16 0.376 1.16C0.232 1.16 0.16 1.16 0.16 1.16V0.799998H3.04V3.428ZM5.164 23.372H5.272C5.296 23.996 5.524 24.536 5.956 24.992C6.412 25.424 6.952 25.64 7.576 25.64C7.576 25.64 7.648 25.64 7.792 25.64C7.936 25.64 8.02 25.64 8.044 25.64V26H5.164V23.372ZM5.164 3.428V0.799998H8.044V1.16C8.02 1.16 7.936 1.16 7.792 1.16C7.648 1.16 7.576 1.16 7.576 1.16C6.952 1.16 6.412 1.388 5.956 1.844C5.524 2.276 5.296 2.804 5.272 3.428H5.164ZM14.0521 3.86L33.9961 22.652L34.3561 26.504L14.4121 7.604L14.0521 3.86ZM14.1241 23.768V26H11.4241V25.64C11.4241 25.64 11.5201 25.64 11.7121 25.64C11.9281 25.64 12.0361 25.64 12.0361 25.64C12.5881 25.64 13.0561 25.46 13.4401 25.1C13.8241 24.74 14.0161 24.296 14.0161 23.768H14.1241ZM15.6361 23.768C15.6361 24.296 15.8281 24.74 16.2121 25.1C16.6201 25.46 17.0881 25.64 17.6161 25.64C17.6161 25.64 17.7121 25.64 17.9041 25.64C18.1201 25.64 18.2281 25.64 18.2281 25.64V26H15.5281V23.768H15.6361ZM14.0521 3.86L15.6001 5.876L15.6361 26H14.0161V8.36C14.0161 7.136 13.9561 6.08 13.8361 5.192C13.7401 4.304 13.6921 3.86 13.6921 3.86H14.0521ZM34.3561 4.4V21.896C34.3561 22.664 34.3801 23.408 34.4281 24.128C34.4761 24.824 34.5241 25.4 34.5721 25.856C34.6441 26.288 34.6801 26.504 34.6801 26.504H34.3561L32.7721 24.596V4.4H34.3561ZM34.2481 6.632V4.4H36.9481V4.76C36.9481 4.76 36.8401 4.76 36.6241 4.76C36.4321 4.76 36.3361 4.76 36.3361 4.76C35.8081 4.76 35.3401 4.94 34.9321 5.3C34.5481 5.66 34.3561 6.104 34.3561 6.632H34.2481ZM32.7721 6.632C32.7481 6.104 32.5441 5.66 32.1601 5.3C31.7761 4.94 31.3081 4.76 30.7561 4.76C30.7561 4.76 30.6481 4.76 30.4321 4.76C30.2401 4.76 30.1441 4.76 30.1441 4.76V4.4H32.8441V6.632H32.7721ZM49.8108 4.508V26H47.4707V4.508H49.8108ZM58.5228 4.364V5.444H38.7588V4.364H58.5228ZM58.5228 5.372V7.856H58.1268V7.28C58.1268 6.776 57.9588 6.356 57.6228 6.02C57.3108 5.66 56.8788 5.468 56.3268 5.444V5.372H58.5228ZM58.5228 3.788V4.724L54.4908 4.364C54.9708 4.364 55.4748 4.34 56.0028 4.292C56.5548 4.22 57.0588 4.136 57.5148 4.04C57.9708 3.944 58.3068 3.86 58.5228 3.788ZM47.5428 23.696V26H44.9148V25.64C44.9388 25.64 45.0108 25.64 45.1308 25.64C45.2748 25.64 45.3468 25.64 45.3468 25.64C45.9228 25.64 46.4148 25.448 46.8228 25.064C47.2308 24.68 47.4468 24.224 47.4707 23.696H47.5428ZM49.7028 23.696H49.8108C49.8348 24.224 50.0508 24.68 50.4588 25.064C50.8668 25.448 51.3588 25.64 51.9348 25.64C51.9348 25.64 51.9948 25.64 52.1148 25.64C52.2588 25.64 52.3308 25.64 52.3308 25.64V26H49.7028V23.696ZM40.9548 5.372V5.444C40.4028 5.468 39.9588 5.66 39.6228 6.02C39.3108 6.356 39.1548 6.776 39.1548 7.28V7.856H38.7588V5.372H40.9548ZM38.7588 3.788C38.9748 3.86 39.2988 3.944 39.7308 4.04C40.1868 4.136 40.6908 4.22 41.2428 4.292C41.7948 4.34 42.3108 4.364 42.7908 4.364L38.7588 4.724V3.788ZM65.9073 4.4V26H63.6033V4.4H65.9073ZM75.5913 24.884L75.5193 26H65.8353V24.884H75.5913ZM73.8993 14.66V15.74H65.8353V14.66H73.8993ZM75.5553 4.4V5.516H65.8353V4.4H75.5553ZM77.6073 20.852L75.6273 26H70.1553L71.3793 24.884C72.5793 24.884 73.5393 24.716 74.2593 24.38C75.0033 24.02 75.6033 23.54 76.0593 22.94C76.5153 22.316 76.9113 21.62 77.2473 20.852H77.6073ZM73.8993 15.668V17.72H73.5033V17.252C73.5033 16.844 73.3833 16.496 73.1433 16.208C72.9033 15.896 72.5313 15.74 72.0273 15.74V15.668H73.8993ZM73.8993 12.68V14.732H72.0273V14.66C72.5313 14.66 72.9033 14.516 73.1433 14.228C73.3833 13.916 73.5033 13.556 73.5033 13.148V12.68H73.8993ZM75.5553 5.408V7.892H75.1593V7.352C75.1593 6.848 74.9913 6.416 74.6553 6.056C74.3433 5.696 73.9113 5.516 73.3593 5.516V5.408H75.5553ZM75.5553 3.824V4.76L71.4513 4.4C72.1953 4.4 72.9873 4.34 73.8273 4.22C74.6673 4.076 75.2433 3.944 75.5553 3.824ZM63.6753 23.696L64.1433 26H61.0113V25.64C61.0113 25.64 61.0953 25.64 61.2633 25.64C61.4313 25.64 61.5153 25.64 61.5153 25.64C62.1153 25.64 62.6073 25.448 62.9913 25.064C63.3753 24.68 63.5793 24.224 63.6033 23.696H63.6753ZM63.6753 6.668H63.6033C63.5793 6.116 63.3753 5.66 62.9913 5.3C62.6073 4.94 62.1153 4.76 61.5153 4.76C61.5153 4.76 61.4313 4.76 61.2633 4.76C61.0953 4.76 61.0113 4.76 61.0113 4.76V4.4H64.1433L63.6753 6.668ZM84.704 4.4H89.348C90.476 4.4 91.484 4.532 92.372 4.796C93.284 5.06 94.052 5.444 94.676 5.948C95.324 6.452 95.816 7.064 96.152 7.784C96.488 8.504 96.656 9.32 96.656 10.232C96.656 11.24 96.416 12.176 95.936 13.04C95.456 13.904 94.784 14.612 93.92 15.164C93.08 15.716 92.12 16.052 91.04 16.172C91.448 16.34 91.916 16.712 92.444 17.288C92.996 17.864 93.464 18.428 93.848 18.98C93.848 18.98 94.004 19.196 94.316 19.628C94.628 20.036 95.024 20.552 95.504 21.176C96.008 21.776 96.5 22.352 96.98 22.904C97.484 23.456 97.94 23.936 98.348 24.344C98.78 24.752 99.236 25.076 99.716 25.316C100.22 25.532 100.796 25.64 101.444 25.64V26H100.328C99.008 26 97.916 25.832 97.052 25.496C96.212 25.16 95.528 24.752 95 24.272C94.472 23.768 94.016 23.288 93.632 22.832C93.536 22.712 93.308 22.412 92.948 21.932C92.612 21.428 92.24 20.888 91.832 20.312C91.424 19.736 91.052 19.22 90.716 18.764C90.38 18.284 90.176 17.996 90.104 17.9C89.624 17.276 89.072 16.724 88.448 16.244C87.824 15.74 87.164 15.488 86.468 15.488V15.128C86.468 15.128 86.66 15.14 87.044 15.164C87.428 15.164 87.92 15.152 88.52 15.128C89.192 15.104 89.864 15.056 90.536 14.984C91.208 14.888 91.832 14.624 92.408 14.192C93.008 13.76 93.476 13.04 93.812 12.032C93.908 11.768 93.98 11.456 94.028 11.096C94.076 10.736 94.088 10.364 94.064 9.98C94.04 9.308 93.908 8.708 93.668 8.18C93.452 7.652 93.128 7.196 92.696 6.812C92.288 6.428 91.796 6.128 91.22 5.912C90.644 5.696 89.996 5.576 89.276 5.552C88.148 5.504 87.164 5.492 86.324 5.516C85.484 5.54 85.064 5.54 85.064 5.516C85.064 5.492 85.028 5.396 84.956 5.228C84.908 5.036 84.848 4.856 84.776 4.688C84.728 4.496 84.704 4.4 84.704 4.4ZM85.136 4.4V26H82.832V4.4H85.136ZM82.94 23.696L83.372 26H80.312V25.64C80.312 25.64 80.396 25.64 80.564 25.64C80.732 25.64 80.816 25.64 80.816 25.64C81.392 25.64 81.872 25.448 82.256 25.064C82.64 24.68 82.844 24.224 82.868 23.696H82.94ZM82.94 6.668H82.868C82.844 6.116 82.64 5.66 82.256 5.3C81.872 4.94 81.392 4.76 80.816 4.76C80.816 4.76 80.732 4.76 80.564 4.76C80.396 4.76 80.312 4.76 80.312 4.76V4.4H83.372L82.94 6.668ZM85.028 23.696H85.136C85.16 24.224 85.364 24.68 85.748 25.064C86.132 25.448 86.612 25.64 87.188 25.64C87.188 25.64 87.26 25.64 87.404 25.64C87.572 25.64 87.656 25.64 87.656 25.64L87.692 26H84.596L85.028 23.696ZM108.102 4.4V26H105.834V4.4H108.102ZM105.942 23.696V26H102.882V25.64C102.882 25.64 102.966 25.64 103.134 25.64C103.302 25.64 103.386 25.64 103.386 25.64C104.058 25.64 104.622 25.448 105.078 25.064C105.558 24.68 105.81 24.224 105.834 23.696H105.942ZM107.994 23.696H108.102C108.126 24.224 108.366 24.68 108.822 25.064C109.302 25.448 109.878 25.64 110.55 25.64C110.55 25.64 110.622 25.64 110.766 25.64C110.934 25.64 111.018 25.64 111.018 25.64L111.054 26H107.994V23.696ZM107.994 6.704V4.4H111.054L111.018 4.76C111.018 4.76 110.934 4.76 110.766 4.76C110.622 4.76 110.55 4.76 110.55 4.76C109.878 4.76 109.302 4.952 108.822 5.336C108.366 5.696 108.126 6.152 108.102 6.704H107.994ZM105.942 6.704H105.834C105.81 6.152 105.558 5.696 105.078 5.336C104.622 4.952 104.058 4.76 103.386 4.76C103.362 4.76 103.266 4.76 103.098 4.76C102.954 4.76 102.882 4.76 102.882 4.76V4.4H105.942V6.704ZM126.401 3.896C128.081 3.896 129.653 4.172 131.117 4.724C132.605 5.252 133.901 6.02 135.005 7.028C136.133 8.036 137.009 9.236 137.633 10.628C138.257 11.996 138.569 13.52 138.569 15.2C138.569 16.88 138.257 18.416 137.633 19.808C137.009 21.176 136.133 22.364 135.005 23.372C133.901 24.38 132.605 25.16 131.117 25.712C129.653 26.24 128.081 26.504 126.401 26.504C124.721 26.504 123.149 26.24 121.685 25.712C120.221 25.16 118.925 24.38 117.797 23.372C116.693 22.364 115.829 21.176 115.205 19.808C114.581 18.416 114.269 16.88 114.269 15.2C114.269 13.52 114.581 11.996 115.205 10.628C115.829 9.236 116.693 8.036 117.797 7.028C118.925 6.02 120.221 5.252 121.685 4.724C123.149 4.172 124.721 3.896 126.401 3.896ZM126.401 25.424C128.177 25.424 129.785 24.992 131.225 24.128C132.665 23.264 133.805 22.064 134.645 20.528C135.485 18.992 135.905 17.216 135.905 15.2C135.905 13.16 135.485 11.384 134.645 9.872C133.805 8.336 132.665 7.136 131.225 6.272C129.785 5.408 128.177 4.976 126.401 4.976C124.649 4.976 123.053 5.408 121.613 6.272C120.173 7.136 119.033 8.336 118.193 9.872C117.353 11.384 116.933 13.16 116.933 15.2C116.933 17.216 117.353 18.992 118.193 20.528C119.033 22.064 120.173 23.264 121.613 24.128C123.053 24.992 124.649 25.424 126.401 25.424ZM146.192 4.4H150.836C151.964 4.4 152.972 4.532 153.86 4.796C154.772 5.06 155.54 5.444 156.164 5.948C156.812 6.452 157.304 7.064 157.64 7.784C157.976 8.504 158.144 9.32 158.144 10.232C158.144 11.24 157.904 12.176 157.424 13.04C156.944 13.904 156.272 14.612 155.408 15.164C154.568 15.716 153.608 16.052 152.528 16.172C152.936 16.34 153.404 16.712 153.932 17.288C154.484 17.864 154.952 18.428 155.336 18.98C155.336 18.98 155.492 19.196 155.804 19.628C156.116 20.036 156.512 20.552 156.992 21.176C157.496 21.776 157.988 22.352 158.468 22.904C158.972 23.456 159.428 23.936 159.836 24.344C160.268 24.752 160.724 25.076 161.204 25.316C161.708 25.532 162.284 25.64 162.932 25.64V26H161.816C160.496 26 159.404 25.832 158.54 25.496C157.7 25.16 157.016 24.752 156.488 24.272C155.96 23.768 155.504 23.288 155.12 22.832C155.024 22.712 154.796 22.412 154.436 21.932C154.1 21.428 153.728 20.888 153.32 20.312C152.912 19.736 152.54 19.22 152.204 18.764C151.868 18.284 151.664 17.996 151.592 17.9C151.112 17.276 150.56 16.724 149.936 16.244C149.312 15.74 148.652 15.488 147.956 15.488V15.128C147.956 15.128 148.148 15.14 148.532 15.164C148.916 15.164 149.408 15.152 150.008 15.128C150.68 15.104 151.352 15.056 152.024 14.984C152.696 14.888 153.32 14.624 153.896 14.192C154.496 13.76 154.964 13.04 155.3 12.032C155.396 11.768 155.468 11.456 155.516 11.096C155.564 10.736 155.576 10.364 155.552 9.98C155.528 9.308 155.396 8.708 155.156 8.18C154.94 7.652 154.616 7.196 154.184 6.812C153.776 6.428 153.284 6.128 152.708 5.912C152.132 5.696 151.484 5.576 150.764 5.552C149.636 5.504 148.652 5.492 147.812 5.516C146.972 5.54 146.552 5.54 146.552 5.516C146.552 5.492 146.516 5.396 146.444 5.228C146.396 5.036 146.336 4.856 146.264 4.688C146.216 4.496 146.192 4.4 146.192 4.4ZM146.624 4.4V26H144.32V4.4H146.624ZM144.428 23.696L144.86 26H141.8V25.64C141.8 25.64 141.884 25.64 142.052 25.64C142.22 25.64 142.304 25.64 142.304 25.64C142.88 25.64 143.36 25.448 143.744 25.064C144.128 24.68 144.332 24.224 144.356 23.696H144.428ZM144.428 6.668H144.356C144.332 6.116 144.128 5.66 143.744 5.3C143.36 4.94 142.88 4.76 142.304 4.76C142.304 4.76 142.22 4.76 142.052 4.76C141.884 4.76 141.8 4.76 141.8 4.76V4.4H144.86L144.428 6.668ZM146.516 23.696H146.624C146.648 24.224 146.852 24.68 147.236 25.064C147.62 25.448 148.1 25.64 148.676 25.64C148.676 25.64 148.748 25.64 148.892 25.64C149.06 25.64 149.144 25.64 149.144 25.64L149.18 26H146.084L146.516 23.696ZM12.364 43.8C14.932 43.8 17.176 44.328 19.096 45.384C21.04 46.416 22.552 47.88 23.632 49.776C24.736 51.672 25.288 53.88 25.288 56.4C25.288 58.92 24.736 61.128 23.632 63.024C22.552 64.896 21.04 66.36 19.096 67.416C17.176 68.472 14.932 69 12.364 69H4.66L4.624 67.92C4.624 67.92 4.876 67.92 5.38 67.92C5.908 67.92 6.556 67.92 7.324 67.92C8.116 67.92 8.896 67.92 9.664 67.92C10.432 67.92 11.068 67.92 11.572 67.92C12.1 67.92 12.364 67.92 12.364 67.92C14.428 67.92 16.216 67.44 17.728 66.48C19.264 65.52 20.452 64.176 21.292 62.448C22.156 60.72 22.588 58.704 22.588 56.4C22.588 54.096 22.156 52.08 21.292 50.352C20.452 48.624 19.264 47.28 17.728 46.32C16.192 45.36 14.404 44.88 12.364 44.88C12.364 44.88 12.088 44.88 11.536 44.88C11.008 44.88 10.336 44.88 9.52 44.88C8.728 44.88 7.924 44.88 7.108 44.88C6.316 44.88 5.644 44.88 5.092 44.88C4.54 44.88 4.264 44.88 4.264 44.88V43.8H12.364ZM5.272 43.8V69H2.932V43.8H5.272ZM3.04 66.372V69H0.16V68.64C0.16 68.64 0.232 68.64 0.376 68.64C0.544 68.64 0.628 68.64 0.628 68.64C1.252 68.64 1.78 68.424 2.212 67.992C2.668 67.536 2.908 66.996 2.932 66.372H3.04ZM3.04 46.428H2.932C2.932 45.804 2.704 45.276 2.248 44.844C1.792 44.388 1.252 44.16 0.628 44.16C0.628 44.16 0.556 44.16 0.412 44.16C0.268 44.16 0.196 44.16 0.196 44.16L0.16 43.8H3.04V46.428ZM33.2119 47.4V69H30.9079V47.4H33.2119ZM42.8959 67.884L42.8239 69H33.1399V67.884H42.8959ZM41.2039 57.66V58.74H33.1399V57.66H41.2039ZM42.8599 47.4V48.516H33.1399V47.4H42.8599ZM44.9119 63.852L42.9319 69H37.4599L38.6839 67.884C39.8839 67.884 40.8439 67.716 41.5639 67.38C42.3079 67.02 42.9079 66.54 43.3639 65.94C43.8199 65.316 44.2159 64.62 44.5519 63.852H44.9119ZM41.2039 58.668V60.72H40.8079V60.252C40.8079 59.844 40.6879 59.496 40.4479 59.208C40.2079 58.896 39.8359 58.74 39.3319 58.74V58.668H41.2039ZM41.2039 55.68V57.732H39.3319V57.66C39.8359 57.66 40.2079 57.516 40.4479 57.228C40.6879 56.916 40.8079 56.556 40.8079 56.148V55.68H41.2039ZM42.8599 48.408V50.892H42.4639V50.352C42.4639 49.848 42.2959 49.416 41.9599 49.056C41.6479 48.696 41.2159 48.516 40.6639 48.516V48.408H42.8599ZM42.8599 46.824V47.76L38.7559 47.4C39.4999 47.4 40.2919 47.34 41.1319 47.22C41.9719 47.076 42.5479 46.944 42.8599 46.824ZM30.9799 66.696L31.4479 69H28.3159V68.64C28.3159 68.64 28.3999 68.64 28.5679 68.64C28.7359 68.64 28.8199 68.64 28.8199 68.64C29.4199 68.64 29.9119 68.448 30.2959 68.064C30.6799 67.68 30.8839 67.224 30.9079 66.696H30.9799ZM30.9799 49.668H30.9079C30.8839 49.116 30.6799 48.66 30.2959 48.3C29.9119 47.94 29.4199 47.76 28.8199 47.76C28.8199 47.76 28.7359 47.76 28.5679 47.76C28.3999 47.76 28.3159 47.76 28.3159 47.76V47.4H31.4479L30.9799 49.668ZM54.4123 46.896C55.0843 46.896 55.6723 46.92 56.1763 46.968C56.6803 47.016 57.1123 47.076 57.4723 47.148C57.8563 47.196 58.1803 47.268 58.4443 47.364C58.7323 47.436 58.9843 47.508 59.2003 47.58L59.2363 51.144H58.8043C58.8043 50.16 58.4683 49.392 57.7963 48.84C57.1243 48.264 56.0803 47.976 54.6643 47.976C53.4643 47.976 52.4323 48.312 51.5683 48.984C50.7283 49.632 50.3203 50.436 50.3443 51.396C50.3443 51.708 50.3803 52.032 50.4523 52.368C50.5483 52.68 50.6923 52.992 50.8843 53.304C51.1003 53.616 51.3883 53.928 51.7483 54.24L59.0203 59.856C59.5723 60.312 59.9803 60.9 60.2443 61.62C60.5083 62.316 60.6523 63.012 60.6763 63.708C60.7003 64.764 60.4243 65.736 59.8483 66.624C59.2723 67.512 58.4923 68.22 57.5083 68.748C56.5483 69.252 55.4803 69.504 54.3043 69.504C53.6083 69.504 52.8523 69.444 52.0363 69.324C51.2443 69.204 50.5003 69.024 49.8043 68.784C49.1083 68.52 48.5323 68.196 48.0763 67.812C48.0043 67.476 47.9683 67.056 47.9683 66.552C47.9683 66.024 48.0043 65.472 48.0763 64.896C48.1723 64.32 48.2923 63.804 48.4363 63.348H48.8683C48.7723 64.428 48.9283 65.352 49.3363 66.12C49.7443 66.888 50.3443 67.476 51.1363 67.884C51.9283 68.268 52.8523 68.448 53.9083 68.424C55.3963 68.376 56.5603 68.004 57.4003 67.308C58.2643 66.588 58.6963 65.64 58.6963 64.464C58.6963 63.888 58.5883 63.372 58.3723 62.916C58.1803 62.436 57.8563 61.992 57.4003 61.584L50.2003 56.04C49.5283 55.464 49.0723 54.828 48.8323 54.132C48.5923 53.436 48.4723 52.776 48.4723 52.152C48.4723 51.168 48.7363 50.28 49.2643 49.488C49.7923 48.696 50.5003 48.072 51.3883 47.616C52.3003 47.136 53.3083 46.896 54.4123 46.896ZM59.1643 47.22L59.2003 47.868H56.6443V47.22H59.1643ZM69.8172 47.4V69H67.5492V47.4H69.8172ZM67.6572 66.696V69H64.5972V68.64C64.5972 68.64 64.6812 68.64 64.8492 68.64C65.0172 68.64 65.1012 68.64 65.1012 68.64C65.7732 68.64 66.3372 68.448 66.7932 68.064C67.2732 67.68 67.5252 67.224 67.5492 66.696H67.6572ZM69.7092 66.696H69.8172C69.8412 67.224 70.0812 67.68 70.5372 68.064C71.0172 68.448 71.5932 68.64 72.2652 68.64C72.2652 68.64 72.3372 68.64 72.4812 68.64C72.6492 68.64 72.7332 68.64 72.7332 68.64L72.7692 69H69.7092V66.696ZM69.7092 49.704V47.4H72.7692L72.7332 47.76C72.7332 47.76 72.6492 47.76 72.4812 47.76C72.3372 47.76 72.2652 47.76 72.2652 47.76C71.5932 47.76 71.0172 47.952 70.5372 48.336C70.0812 48.696 69.8412 49.152 69.8172 49.704H69.7092ZM67.6572 49.704H67.5492C67.5252 49.152 67.2732 48.696 66.7932 48.336C66.3372 47.952 65.7732 47.76 65.1012 47.76C65.0772 47.76 64.9812 47.76 64.8132 47.76C64.6692 47.76 64.5972 47.76 64.5972 47.76V47.4H67.6572V49.704ZM87.7916 46.896C88.8956 46.896 89.9276 46.98 90.8876 47.148C91.8716 47.292 92.7956 47.532 93.6596 47.868C94.5476 48.18 95.3876 48.588 96.1796 49.092L96.9716 54.168H96.6476C96.3116 52.752 95.7596 51.588 94.9916 50.676C94.2476 49.764 93.2756 49.092 92.0756 48.66C90.8756 48.204 89.4356 47.976 87.7556 47.976C85.9316 47.976 84.3236 48.396 82.9316 49.236C81.5636 50.052 80.4956 51.228 79.7276 52.764C78.9596 54.276 78.5756 56.088 78.5756 58.2C78.5756 60.288 78.9596 62.1 79.7276 63.636C80.4956 65.172 81.5756 66.36 82.9676 67.2C84.3596 68.016 85.9676 68.424 87.7916 68.424C88.7996 68.424 89.7596 68.316 90.6716 68.1C91.5836 67.884 92.4596 67.548 93.2996 67.092C94.1636 66.612 94.9676 66.012 95.7116 65.292L95.7476 60.504C95.7716 60.048 95.6276 59.7 95.3156 59.46C95.0276 59.22 94.6196 59.1 94.0916 59.1H93.5876V58.74H100.176V59.1H99.6716C98.5916 59.1 98.0516 59.58 98.0516 60.54V64.86C97.4996 65.556 96.7436 66.264 95.7836 66.984C94.8236 67.704 93.6716 68.304 92.3276 68.784C91.0076 69.264 89.4956 69.504 87.7916 69.504C85.4156 69.48 83.3396 69.012 81.5636 68.1C79.8116 67.188 78.4436 65.892 77.4596 64.212C76.4756 62.532 75.9836 60.528 75.9836 58.2C75.9836 55.848 76.4756 53.832 77.4596 52.152C78.4436 50.472 79.8236 49.176 81.5996 48.264C83.3756 47.352 85.4396 46.896 87.7916 46.896ZM104.79 46.86L124.734 65.652L125.094 69.504L105.15 50.604L104.79 46.86ZM104.862 66.768V69H102.162V68.64C102.162 68.64 102.258 68.64 102.45 68.64C102.666 68.64 102.774 68.64 102.774 68.64C103.326 68.64 103.794 68.46 104.178 68.1C104.562 67.74 104.754 67.296 104.754 66.768H104.862ZM106.374 66.768C106.374 67.296 106.566 67.74 106.95 68.1C107.358 68.46 107.826 68.64 108.354 68.64C108.354 68.64 108.45 68.64 108.642 68.64C108.858 68.64 108.966 68.64 108.966 68.64V69H106.266V66.768H106.374ZM104.79 46.86L106.338 48.876L106.374 69H104.754V51.36C104.754 50.136 104.694 49.08 104.574 48.192C104.478 47.304 104.43 46.86 104.43 46.86H104.79ZM125.094 47.4V64.896C125.094 65.664 125.118 66.408 125.166 67.128C125.214 67.824 125.262 68.4 125.31 68.856C125.382 69.288 125.418 69.504 125.418 69.504H125.094L123.51 67.596V47.4H125.094ZM124.986 49.632V47.4H127.686V47.76C127.686 47.76 127.578 47.76 127.362 47.76C127.17 47.76 127.074 47.76 127.074 47.76C126.546 47.76 126.078 47.94 125.67 48.3C125.286 48.66 125.094 49.104 125.094 49.632H124.986ZM123.51 49.632C123.486 49.104 123.282 48.66 122.898 48.3C122.514 47.94 122.046 47.76 121.494 47.76C121.494 47.76 121.386 47.76 121.17 47.76C120.978 47.76 120.882 47.76 120.882 47.76V47.4H123.582V49.632H123.51Z" fill="#98AAA8"/>
</svg>
