<svg width="131" height="70" viewBox="0 0 131 70" fill="none" xmlns="http://www.w3.org/2000/svg">
<path d="M15.364 0.799998C17.932 0.799998 20.176 1.328 22.096 2.384C24.04 3.416 25.552 4.88 26.632 6.776C27.736 8.672 28.288 10.88 28.288 13.4C28.288 15.92 27.736 18.128 26.632 20.024C25.552 21.896 24.04 23.36 22.096 24.416C20.176 25.472 17.932 26 15.364 26H7.66L7.624 24.92C7.624 24.92 7.876 24.92 8.38 24.92C8.908 24.92 9.556 24.92 10.324 24.92C11.116 24.92 11.896 24.92 12.664 24.92C13.432 24.92 14.068 24.92 14.572 24.92C15.1 24.92 15.364 24.92 15.364 24.92C17.428 24.92 19.216 24.44 20.728 23.48C22.264 22.52 23.452 21.176 24.292 19.448C25.156 17.72 25.588 15.704 25.588 13.4C25.588 11.096 25.156 9.08 24.292 7.352C23.452 5.624 22.264 4.28 20.728 3.32C19.192 2.36 17.404 1.88 15.364 1.88C15.364 1.88 15.088 1.88 14.536 1.88C14.008 1.88 13.336 1.88 12.52 1.88C11.728 1.88 10.924 1.88 10.108 1.88C9.316 1.88 8.644 1.88 8.092 1.88C7.54 1.88 7.264 1.88 7.264 1.88V0.799998H15.364ZM8.272 0.799998V26H5.932V0.799998H8.272ZM6.04 23.372V26H3.16V25.64C3.16 25.64 3.232 25.64 3.376 25.64C3.544 25.64 3.628 25.64 3.628 25.64C4.252 25.64 4.78 25.424 5.212 24.992C5.668 24.536 5.908 23.996 5.932 23.372H6.04ZM6.04 3.428H5.932C5.932 2.804 5.704 2.276 5.248 1.844C4.792 1.388 4.252 1.16 3.628 1.16C3.628 1.16 3.556 1.16 3.412 1.16C3.268 1.16 3.196 1.16 3.196 1.16L3.16 0.799998H6.04V3.428ZM36.2119 4.4V26H33.9079V4.4H36.2119ZM45.8959 24.884L45.8239 26H36.1399V24.884H45.8959ZM44.2039 14.66V15.74H36.1399V14.66H44.2039ZM45.8599 4.4V5.516H36.1399V4.4H45.8599ZM47.9119 20.852L45.9319 26H40.4599L41.6839 24.884C42.8839 24.884 43.8439 24.716 44.5639 24.38C45.3079 24.02 45.9079 23.54 46.3639 22.94C46.8199 22.316 47.2159 21.62 47.5519 20.852H47.9119ZM44.2039 15.668V17.72H43.8079V17.252C43.8079 16.844 43.6879 16.496 43.4479 16.208C43.2079 15.896 42.8359 15.74 42.3319 15.74V15.668H44.2039ZM44.2039 12.68V14.732H42.3319V14.66C42.8359 14.66 43.2079 14.516 43.4479 14.228C43.6879 13.916 43.8079 13.556 43.8079 13.148V12.68H44.2039ZM45.8599 5.408V7.892H45.4639V7.352C45.4639 6.848 45.2959 6.416 44.9599 6.056C44.6479 5.696 44.2159 5.516 43.6639 5.516V5.408H45.8599ZM45.8599 3.824V4.76L41.7559 4.4C42.4999 4.4 43.2919 4.34 44.1319 4.22C44.9719 4.076 45.5479 3.944 45.8599 3.824ZM33.9799 23.696L34.4479 26H31.3159V25.64C31.3159 25.64 31.3999 25.64 31.5679 25.64C31.7359 25.64 31.8199 25.64 31.8199 25.64C32.4199 25.64 32.9119 25.448 33.2959 25.064C33.6799 24.68 33.8839 24.224 33.9079 23.696H33.9799ZM33.9799 6.668H33.9079C33.8839 6.116 33.6799 5.66 33.2959 5.3C32.9119 4.94 32.4199 4.76 31.8199 4.76C31.8199 4.76 31.7359 4.76 31.5679 4.76C31.3999 4.76 31.3159 4.76 31.3159 4.76V4.4H34.4479L33.9799 6.668ZM57.4123 3.896C58.0843 3.896 58.6723 3.92 59.1763 3.968C59.6803 4.016 60.1123 4.076 60.4723 4.148C60.8563 4.196 61.1803 4.268 61.4443 4.364C61.7323 4.436 61.9843 4.508 62.2003 4.58L62.2363 8.144H61.8043C61.8043 7.16 61.4683 6.392 60.7963 5.84C60.1243 5.264 59.0803 4.976 57.6643 4.976C56.4643 4.976 55.4323 5.312 54.5683 5.984C53.7283 6.632 53.3203 7.436 53.3443 8.396C53.3443 8.708 53.3803 9.032 53.4523 9.368C53.5483 9.68 53.6923 9.992 53.8843 10.304C54.1003 10.616 54.3883 10.928 54.7483 11.24L62.0203 16.856C62.5723 17.312 62.9803 17.9 63.2443 18.62C63.5083 19.316 63.6523 20.012 63.6763 20.708C63.7003 21.764 63.4243 22.736 62.8483 23.624C62.2723 24.512 61.4923 25.22 60.5083 25.748C59.5483 26.252 58.4803 26.504 57.3043 26.504C56.6083 26.504 55.8523 26.444 55.0363 26.324C54.2443 26.204 53.5003 26.024 52.8043 25.784C52.1083 25.52 51.5323 25.196 51.0763 24.812C51.0043 24.476 50.9683 24.056 50.9683 23.552C50.9683 23.024 51.0043 22.472 51.0763 21.896C51.1723 21.32 51.2923 20.804 51.4363 20.348H51.8683C51.7723 21.428 51.9283 22.352 52.3363 23.12C52.7443 23.888 53.3443 24.476 54.1363 24.884C54.9283 25.268 55.8523 25.448 56.9083 25.424C58.3963 25.376 59.5603 25.004 60.4003 24.308C61.2643 23.588 61.6963 22.64 61.6963 21.464C61.6963 20.888 61.5883 20.372 61.3723 19.916C61.1803 19.436 60.8563 18.992 60.4003 18.584L53.2003 13.04C52.5283 12.464 52.0723 11.828 51.8323 11.132C51.5923 10.436 51.4723 9.776 51.4723 9.152C51.4723 8.168 51.7363 7.28 52.2643 6.488C52.7923 5.696 53.5003 5.072 54.3883 4.616C55.3003 4.136 56.3083 3.896 57.4123 3.896ZM62.1643 4.22L62.2003 4.868H59.6443V4.22H62.1643ZM72.8172 4.4V26H70.5492V4.4H72.8172ZM70.6572 23.696V26H67.5972V25.64C67.5972 25.64 67.6812 25.64 67.8492 25.64C68.0172 25.64 68.1012 25.64 68.1012 25.64C68.7732 25.64 69.3372 25.448 69.7932 25.064C70.2732 24.68 70.5252 24.224 70.5492 23.696H70.6572ZM72.7092 23.696H72.8172C72.8412 24.224 73.0812 24.68 73.5372 25.064C74.0172 25.448 74.5932 25.64 75.2652 25.64C75.2652 25.64 75.3372 25.64 75.4812 25.64C75.6492 25.64 75.7332 25.64 75.7332 25.64L75.7692 26H72.7092V23.696ZM72.7092 6.704V4.4H75.7692L75.7332 4.76C75.7332 4.76 75.6492 4.76 75.4812 4.76C75.3372 4.76 75.2652 4.76 75.2652 4.76C74.5932 4.76 74.0172 4.952 73.5372 5.336C73.0812 5.696 72.8412 6.152 72.8172 6.704H72.7092ZM70.6572 6.704H70.5492C70.5252 6.152 70.2732 5.696 69.7932 5.336C69.3372 4.952 68.7732 4.76 68.1012 4.76C68.0772 4.76 67.9812 4.76 67.8132 4.76C67.6692 4.76 67.5972 4.76 67.5972 4.76V4.4H70.6572V6.704ZM90.7916 3.896C91.8956 3.896 92.9276 3.98 93.8876 4.148C94.8716 4.292 95.7956 4.532 96.6596 4.868C97.5476 5.18 98.3876 5.588 99.1796 6.092L99.9716 11.168H99.6476C99.3116 9.752 98.7596 8.588 97.9916 7.676C97.2476 6.764 96.2756 6.092 95.0756 5.66C93.8756 5.204 92.4356 4.976 90.7556 4.976C88.9316 4.976 87.3236 5.396 85.9316 6.236C84.5636 7.052 83.4956 8.228 82.7276 9.764C81.9596 11.276 81.5756 13.088 81.5756 15.2C81.5756 17.288 81.9596 19.1 82.7276 20.636C83.4956 22.172 84.5756 23.36 85.9676 24.2C87.3596 25.016 88.9676 25.424 90.7916 25.424C91.7996 25.424 92.7596 25.316 93.6716 25.1C94.5836 24.884 95.4596 24.548 96.2996 24.092C97.1636 23.612 97.9676 23.012 98.7116 22.292L98.7476 17.504C98.7716 17.048 98.6276 16.7 98.3156 16.46C98.0276 16.22 97.6196 16.1 97.0916 16.1H96.5876V15.74H103.176V16.1H102.672C101.592 16.1 101.052 16.58 101.052 17.54V21.86C100.5 22.556 99.7436 23.264 98.7836 23.984C97.8236 24.704 96.6716 25.304 95.3276 25.784C94.0076 26.264 92.4956 26.504 90.7916 26.504C88.4156 26.48 86.3396 26.012 84.5636 25.1C82.8116 24.188 81.4436 22.892 80.4596 21.212C79.4756 19.532 78.9836 17.528 78.9836 15.2C78.9836 12.848 79.4756 10.832 80.4596 9.152C81.4436 7.472 82.8236 6.176 84.5996 5.264C86.3756 4.352 88.4396 3.896 90.7916 3.896ZM107.79 3.86L127.734 22.652L128.094 26.504L108.15 7.604L107.79 3.86ZM107.862 23.768V26H105.162V25.64C105.162 25.64 105.258 25.64 105.45 25.64C105.666 25.64 105.774 25.64 105.774 25.64C106.326 25.64 106.794 25.46 107.178 25.1C107.562 24.74 107.754 24.296 107.754 23.768H107.862ZM109.374 23.768C109.374 24.296 109.566 24.74 109.95 25.1C110.358 25.46 110.826 25.64 111.354 25.64C111.354 25.64 111.45 25.64 111.642 25.64C111.858 25.64 111.966 25.64 111.966 25.64V26H109.266V23.768H109.374ZM107.79 3.86L109.338 5.876L109.374 26H107.754V8.36C107.754 7.136 107.694 6.08 107.574 5.192C107.478 4.304 107.43 3.86 107.43 3.86H107.79ZM128.094 4.4V21.896C128.094 22.664 128.118 23.408 128.166 24.128C128.214 24.824 128.262 25.4 128.31 25.856C128.382 26.288 128.418 26.504 128.418 26.504H128.094L126.51 24.596V4.4H128.094ZM127.986 6.632V4.4H130.686V4.76C130.686 4.76 130.578 4.76 130.362 4.76C130.17 4.76 130.074 4.76 130.074 4.76C129.546 4.76 129.078 4.94 128.67 5.3C128.286 5.66 128.094 6.104 128.094 6.632H127.986ZM126.51 6.632C126.486 6.104 126.282 5.66 125.898 5.3C125.514 4.94 125.046 4.76 124.494 4.76C124.494 4.76 124.386 4.76 124.17 4.76C123.978 4.76 123.882 4.76 123.882 4.76V4.4H126.582V6.632H126.51ZM3.268 44.016H6.184L12.88 65.508L12.268 69.432L3.268 44.016ZM19.396 43.224L19.684 46.14L13.348 65.436C13.348 65.436 13.288 65.652 13.168 66.084C13.048 66.492 12.928 67.008 12.808 67.632C12.688 68.232 12.616 68.832 12.592 69.432H12.268L11.62 66.228L19.072 43.224H19.396ZM19.396 43.26L26.956 64.464L26.164 69.432L18.172 47.148L19.396 43.26ZM34.012 44.016L27.28 65.436C27.28 65.436 27.22 65.652 27.1 66.084C26.98 66.516 26.848 67.044 26.704 67.668C26.584 68.268 26.512 68.856 26.488 69.432H26.164L25.732 65.868L31.996 44.016H34.012ZM31.312 46.392C31.504 45.672 31.444 45.12 31.132 44.736C30.82 44.352 30.424 44.16 29.944 44.16H29.62V43.8H36.712V44.16C36.712 44.16 36.664 44.16 36.568 44.16C36.472 44.16 36.424 44.16 36.424 44.16C35.872 44.16 35.272 44.34 34.624 44.7C33.976 45.036 33.52 45.6 33.256 46.392H31.312ZM6.94 46.392H4.096C3.808 45.6 3.34 45.036 2.692 44.7C2.068 44.34 1.48 44.16 0.928 44.16C0.928 44.16 0.88 44.16 0.784 44.16C0.688 44.16 0.64 44.16 0.64 44.16V43.8H8.632V44.16H8.308C7.852 44.16 7.444 44.352 7.084 44.736C6.748 45.12 6.7 45.672 6.94 46.392ZM49.0336 46.896C50.7136 46.896 52.2856 47.172 53.7496 47.724C55.2376 48.252 56.5336 49.02 57.6376 50.028C58.7656 51.036 59.6416 52.236 60.2656 53.628C60.8896 54.996 61.2016 56.52 61.2016 58.2C61.2016 59.88 60.8896 61.416 60.2656 62.808C59.6416 64.176 58.7656 65.364 57.6376 66.372C56.5336 67.38 55.2376 68.16 53.7496 68.712C52.2856 69.24 50.7136 69.504 49.0336 69.504C47.3536 69.504 45.7816 69.24 44.3176 68.712C42.8536 68.16 41.5576 67.38 40.4296 66.372C39.3256 65.364 38.4616 64.176 37.8376 62.808C37.2136 61.416 36.9016 59.88 36.9016 58.2C36.9016 56.52 37.2136 54.996 37.8376 53.628C38.4616 52.236 39.3256 51.036 40.4296 50.028C41.5576 49.02 42.8536 48.252 44.3176 47.724C45.7816 47.172 47.3536 46.896 49.0336 46.896ZM49.0336 68.424C50.8096 68.424 52.4176 67.992 53.8576 67.128C55.2976 66.264 56.4376 65.064 57.2776 63.528C58.1176 61.992 58.5376 60.216 58.5376 58.2C58.5376 56.16 58.1176 54.384 57.2776 52.872C56.4376 51.336 55.2976 50.136 53.8576 49.272C52.4176 48.408 50.8096 47.976 49.0336 47.976C47.2816 47.976 45.6856 48.408 44.2456 49.272C42.8056 50.136 41.6656 51.336 40.8256 52.872C39.9856 54.384 39.5656 56.16 39.5656 58.2C39.5656 60.216 39.9856 61.992 40.8256 63.528C41.6656 65.064 42.8056 66.264 44.2456 67.128C45.6856 67.992 47.2816 68.424 49.0336 68.424ZM68.8251 47.4H73.4691C74.5971 47.4 75.6051 47.532 76.4931 47.796C77.4051 48.06 78.1731 48.444 78.7971 48.948C79.4451 49.452 79.9371 50.064 80.2731 50.784C80.6091 51.504 80.7771 52.32 80.7771 53.232C80.7771 54.24 80.5371 55.176 80.0571 56.04C79.5771 56.904 78.9051 57.612 78.0411 58.164C77.2011 58.716 76.2411 59.052 75.1611 59.172C75.5691 59.34 76.0371 59.712 76.5651 60.288C77.1171 60.864 77.5851 61.428 77.9691 61.98C77.9691 61.98 78.1251 62.196 78.4371 62.628C78.7491 63.036 79.1451 63.552 79.6251 64.176C80.1291 64.776 80.6211 65.352 81.1011 65.904C81.6051 66.456 82.0611 66.936 82.4691 67.344C82.9011 67.752 83.3571 68.076 83.8371 68.316C84.3411 68.532 84.9171 68.64 85.5651 68.64V69H84.4491C83.1291 69 82.0371 68.832 81.1731 68.496C80.3331 68.16 79.6491 67.752 79.1211 67.272C78.5931 66.768 78.1371 66.288 77.7531 65.832C77.6571 65.712 77.4291 65.412 77.0691 64.932C76.7331 64.428 76.3611 63.888 75.9531 63.312C75.5451 62.736 75.1731 62.22 74.8371 61.764C74.5011 61.284 74.2971 60.996 74.2251 60.9C73.7451 60.276 73.1931 59.724 72.5691 59.244C71.9451 58.74 71.2851 58.488 70.5891 58.488V58.128C70.5891 58.128 70.7811 58.14 71.1651 58.164C71.5491 58.164 72.0411 58.152 72.6411 58.128C73.3131 58.104 73.9851 58.056 74.6571 57.984C75.3291 57.888 75.9531 57.624 76.5291 57.192C77.1291 56.76 77.5971 56.04 77.9331 55.032C78.0291 54.768 78.1011 54.456 78.1491 54.096C78.1971 53.736 78.2091 53.364 78.1851 52.98C78.1611 52.308 78.0291 51.708 77.7891 51.18C77.5731 50.652 77.2491 50.196 76.8171 49.812C76.4091 49.428 75.9171 49.128 75.3411 48.912C74.7651 48.696 74.1171 48.576 73.3971 48.552C72.2691 48.504 71.2851 48.492 70.4451 48.516C69.6051 48.54 69.1851 48.54 69.1851 48.516C69.1851 48.492 69.1491 48.396 69.0771 48.228C69.0291 48.036 68.9691 47.856 68.8971 47.688C68.8491 47.496 68.8251 47.4 68.8251 47.4ZM69.2571 47.4V69H66.9531V47.4H69.2571ZM67.0611 66.696L67.4931 69H64.4331V68.64C64.4331 68.64 64.5171 68.64 64.6851 68.64C64.8531 68.64 64.9371 68.64 64.9371 68.64C65.5131 68.64 65.9931 68.448 66.3771 68.064C66.7611 67.68 66.9651 67.224 66.9891 66.696H67.0611ZM67.0611 49.668H66.9891C66.9651 49.116 66.7611 48.66 66.3771 48.3C65.9931 47.94 65.5131 47.76 64.9371 47.76C64.9371 47.76 64.8531 47.76 64.6851 47.76C64.5171 47.76 64.4331 47.76 64.4331 47.76V47.4H67.4931L67.0611 49.668ZM69.1491 66.696H69.2571C69.2811 67.224 69.4851 67.68 69.8691 68.064C70.2531 68.448 70.7331 68.64 71.3091 68.64C71.3091 68.64 71.3811 68.64 71.5251 68.64C71.6931 68.64 71.7771 68.64 71.7771 68.64L71.8131 69H68.7171L69.1491 66.696ZM95.1394 56.94L104.535 67.164C104.943 67.644 105.375 68.004 105.831 68.244C106.287 68.484 106.899 68.616 107.667 68.64V69H106.335C106.047 69 105.687 68.988 105.255 68.964C104.847 68.916 104.391 68.832 103.887 68.712C103.407 68.568 102.915 68.364 102.411 68.1C101.931 67.812 101.475 67.428 101.043 66.948C101.043 66.948 100.851 66.744 100.467 66.336C100.107 65.904 99.6274 65.364 99.0274 64.716C98.4274 64.044 97.7794 63.348 97.0834 62.628C96.4114 61.884 95.7754 61.188 95.1754 60.54C94.5754 59.868 94.0834 59.328 93.6994 58.92C93.3154 58.488 93.1234 58.272 93.1234 58.272L95.1394 56.94ZM104.751 47.652L94.8154 58.272H93.1234L102.159 47.652H104.751ZM107.091 47.4V47.76H106.947C106.203 47.76 105.507 47.88 104.859 48.12C104.235 48.36 103.719 48.72 103.311 49.2L100.863 49.164C101.127 48.828 101.163 48.516 100.971 48.228C100.803 47.916 100.503 47.76 100.071 47.76H99.7474V47.4H106.947H107.091ZM91.8634 47.4V69H89.5594V47.4H91.8634ZM89.6314 66.696V69H87.0034V68.64C87.0034 68.64 87.0754 68.64 87.2194 68.64C87.3634 68.64 87.4354 68.64 87.4354 68.64C88.0114 68.64 88.5034 68.448 88.9114 68.064C89.3194 67.68 89.5354 67.224 89.5594 66.696H89.6314ZM91.7554 66.696H91.8634C91.8634 67.224 92.0674 67.68 92.4754 68.064C92.8834 68.448 93.3874 68.64 93.9874 68.64C93.9874 68.64 94.0474 68.64 94.1674 68.64C94.3114 68.64 94.3834 68.64 94.3834 68.64V69H91.7554V66.696ZM91.7554 49.704V47.4H94.3834V47.76C94.3834 47.76 94.3114 47.76 94.1674 47.76C94.0474 47.76 93.9754 47.76 93.9514 47.76C93.3754 47.76 92.8834 47.952 92.4754 48.336C92.0674 48.696 91.8634 49.152 91.8634 49.704H91.7554ZM89.6314 49.704H89.5594C89.5354 49.152 89.3194 48.696 88.9114 48.336C88.5034 47.952 88.0114 47.76 87.4354 47.76C87.4354 47.76 87.3634 47.76 87.2194 47.76C87.0754 47.76 87.0034 47.76 87.0034 47.76V47.4H89.6314V49.704ZM115.912 46.896C116.584 46.896 117.172 46.92 117.676 46.968C118.18 47.016 118.612 47.076 118.972 47.148C119.356 47.196 119.68 47.268 119.944 47.364C120.232 47.436 120.484 47.508 120.7 47.58L120.736 51.144H120.304C120.304 50.16 119.968 49.392 119.296 48.84C118.624 48.264 117.58 47.976 116.164 47.976C114.964 47.976 113.932 48.312 113.068 48.984C112.228 49.632 111.82 50.436 111.844 51.396C111.844 51.708 111.88 52.032 111.952 52.368C112.048 52.68 112.192 52.992 112.384 53.304C112.6 53.616 112.888 53.928 113.248 54.24L120.52 59.856C121.072 60.312 121.48 60.9 121.744 61.62C122.008 62.316 122.152 63.012 122.176 63.708C122.2 64.764 121.924 65.736 121.348 66.624C120.772 67.512 119.992 68.22 119.008 68.748C118.048 69.252 116.98 69.504 115.804 69.504C115.108 69.504 114.352 69.444 113.536 69.324C112.744 69.204 112 69.024 111.304 68.784C110.608 68.52 110.032 68.196 109.576 67.812C109.504 67.476 109.468 67.056 109.468 66.552C109.468 66.024 109.504 65.472 109.576 64.896C109.672 64.32 109.792 63.804 109.936 63.348H110.368C110.272 64.428 110.428 65.352 110.836 66.12C111.244 66.888 111.844 67.476 112.636 67.884C113.428 68.268 114.352 68.448 115.408 68.424C116.896 68.376 118.06 68.004 118.9 67.308C119.764 66.588 120.196 65.64 120.196 64.464C120.196 63.888 120.088 63.372 119.872 62.916C119.68 62.436 119.356 61.992 118.9 61.584L111.7 56.04C111.028 55.464 110.572 54.828 110.332 54.132C110.092 53.436 109.972 52.776 109.972 52.152C109.972 51.168 110.236 50.28 110.764 49.488C111.292 48.696 112 48.072 112.888 47.616C113.8 47.136 114.808 46.896 115.912 46.896ZM120.664 47.22L120.7 47.868H118.144V47.22H120.664Z" fill="#98AAA8"/>
</svg>
