<svg width="58" height="400" viewBox="0 0 58 400" fill="none" xmlns="http://www.w3.org/2000/svg">
<mask id="path-1-outside-1_312_6260" maskUnits="userSpaceOnUse" x="0.767988" y="0.439939" width="57" height="400" fill="black">
<rect fill="white" x="0.767988" y="0.439939" width="57" height="400"/>
<path d="M53.184 24.6239L3 24.6239L3 19.9439L53.184 19.9439L53.184 24.6239ZM53.472 43.1279L51.312 43.1279L51.312 1.43994L53.472 1.43994L53.472 43.1279ZM51.528 43.1279L45.696 43.1279L45.768 42.4079L46.992 42.4079C48.192 42.4079 49.2 41.9759 50.016 41.1119C50.832 40.2959 51.264 39.3119 51.312 38.1599L51.528 38.1599L51.528 43.1279ZM54.768 43.1279L52.68 43.1279L53.472 34.3439C53.472 35.3999 53.544 36.5039 53.688 37.6559C53.832 38.8559 54 39.9599 54.192 40.9679C54.384 41.9759 54.576 42.6959 54.768 43.1279ZM8.256 20.1599L3 20.1599L3 14.3999L3.72 14.3999C3.72 14.3999 3.72 14.5439 3.72 14.8319C3.72 15.1679 3.72 15.3359 3.72 15.3359C3.72 16.5839 4.152 17.6399 5.016 18.5039C5.928 19.4159 7.008 19.8959 8.256 19.9439L8.256 20.1599ZM8.256 24.4079L8.256 24.6239C7.008 24.6719 5.928 25.1279 5.016 25.9919C4.152 26.9039 3.72 27.9839 3.72 29.2319C3.72 29.2319 3.72 29.3759 3.72 29.6639C3.72 29.9999 3.72 30.1679 3.72 30.1679L3 30.1679L3 24.4079L8.256 24.4079ZM51.528 6.40794L51.312 6.40794C51.264 5.20794 50.832 4.19994 50.016 3.38394C49.2 2.56794 48.192 2.15994 46.992 2.15994L45.768 2.15994L45.696 1.43994L51.528 1.43994L51.528 6.40794ZM54.768 1.43994C54.576 1.91994 54.384 2.63994 54.192 3.59994C54 4.60794 53.832 5.71194 53.688 6.91194C53.544 8.11194 53.472 9.21594 53.472 10.2239L52.68 1.43994L54.768 1.43994Z"/>
<path d="M54.408 65.2933L3.432 86.6053L3.432 80.4853L47.568 63.8533L54.408 65.2933ZM8.25599 49.8133C7.29599 49.4773 6.48 49.4293 5.808 49.6693C5.136 49.9093 4.608 50.2933 4.224 50.8213C3.888 51.3973 3.72 51.9733 3.72 52.5493L3.72 53.1973L3 53.1973L3 38.7253L3.72 38.7253C3.72 38.7253 3.72 38.8453 3.72 39.0853C3.72 39.2773 3.72 39.3733 3.72 39.3733C3.72 40.4773 4.056 41.6053 4.728 42.7573C5.44799 43.9573 6.62399 44.9413 8.25599 45.7093L8.25599 49.8133ZM54.408 65.2933L49.368 65.9413L3.216 47.8693L3.216 43.5493L46.992 61.9813C46.992 61.9813 47.28 62.1013 47.856 62.3413C48.48 62.6293 49.224 62.9413 50.088 63.2773C50.952 63.6613 51.792 63.9733 52.608 64.2133C53.424 64.5013 54.024 64.6453 54.408 64.6453L54.408 65.2933ZM22.656 75.4453L20.496 75.4452L20.496 52.9093L22.656 52.9093L22.656 75.4453ZM8.25599 78.6852L8.25599 84.5893C6.62399 85.3093 5.44799 86.2692 4.72799 87.4693C4.05599 88.6693 3.72 89.8213 3.72 90.9253C3.72 90.9253 3.72 91.0213 3.72 91.2133C3.72 91.4053 3.72 91.5012 3.72 91.5012L3 91.5012L3 75.3013L3.72 75.3013L3.72 75.9493C3.72 76.8613 4.104 77.6773 4.872 78.3973C5.688 79.1173 6.81599 79.2132 8.25599 78.6852Z"/>
<path d="M53.4 105.247L3 105.247L3 100.567L53.4 100.567L53.4 105.247ZM5.232 124.687L2.99999 124.687L3 105.031L5.232 105.031L5.232 124.687ZM14.664 129.079L2.99999 124.903L3 112.951L5.232 115.543C5.232 118.087 5.616 120.151 6.384 121.735C7.2 123.367 8.328 124.687 9.768 125.695C11.208 126.703 12.84 127.591 14.664 128.359L14.664 129.079ZM8.25599 100.783L3 100.783L3 95.0231L3.72 95.0231C3.72 95.0231 3.72 95.1671 3.72 95.4551C3.72 95.7911 3.72 95.9591 3.72 95.9591C3.72 97.2071 4.15199 98.2631 5.01599 99.1271C5.92799 100.039 7.00799 100.519 8.25599 100.567L8.25599 100.783ZM48.144 100.783L48.144 100.567C49.392 100.519 50.448 100.039 51.312 99.1271C52.224 98.2631 52.68 97.2071 52.68 95.9591C52.68 95.9591 52.68 95.7911 52.68 95.4551C52.68 95.1671 52.68 95.0231 52.68 95.0231L53.4 95.0231L53.4 100.783L48.144 100.783ZM48.144 105.031L53.4 105.031L53.4 110.791L52.68 110.791C52.68 110.743 52.68 110.575 52.68 110.287C52.68 109.999 52.68 109.855 52.68 109.855C52.68 108.607 52.224 107.527 51.312 106.615C50.448 105.751 49.392 105.295 48.144 105.247L48.144 105.031Z"/>
<path d="M30.72 150.886L6.67199 171.334C5.71199 172.342 4.99199 173.35 4.51199 174.358C4.03199 175.414 3.76799 176.686 3.71999 178.174L2.99999 178.174L2.99999 175.078C2.99999 174.598 3.02399 173.902 3.07199 172.99C3.16799 172.126 3.33599 171.166 3.57599 170.11C3.86399 169.102 4.272 168.07 4.8 167.014C5.376 166.006 6.144 165.094 7.104 164.278C7.104 164.278 7.60799 163.846 8.61599 162.982C9.62399 162.166 10.92 161.086 12.504 159.742C14.088 158.446 15.768 157.054 17.544 155.566C19.368 154.126 21.072 152.734 22.656 151.39C24.24 150.094 25.536 149.014 26.544 148.15C27.552 147.334 28.056 146.926 28.056 146.926L30.72 150.886ZM52.896 171.694L28.056 150.166L28.056 146.926L52.896 166.726L52.896 171.694ZM53.4 176.662L52.752 176.662L52.752 176.374C52.752 174.79 52.44 173.302 51.816 171.91C51.192 170.566 50.328 169.414 49.224 168.454L49.368 163.918C50.184 164.542 50.952 164.638 51.672 164.206C52.392 163.822 52.752 163.15 52.752 162.19L52.752 161.47L53.4 161.47L53.4 176.374L53.4 176.662ZM53.4 144.622L2.99999 144.622L2.99999 139.942L53.4 139.942L53.4 144.622ZM8.25599 140.158L2.99999 140.158L2.99999 134.398L3.72 134.398C3.72 134.398 3.72 134.542 3.72 134.83C3.72 135.166 3.72 135.334 3.72 135.334C3.72 136.582 4.15199 137.638 5.01599 138.502C5.92799 139.414 7.00799 139.894 8.25599 139.942L8.25599 140.158ZM48.144 140.158L48.144 139.942C49.392 139.894 50.448 139.414 51.312 138.502C52.224 137.638 52.68 136.582 52.68 135.334C52.68 135.334 52.68 135.166 52.68 134.83C52.68 134.542 52.68 134.398 52.68 134.398L53.4 134.398L53.4 140.158L48.144 140.158ZM8.25599 144.406L8.25599 144.622C7.00799 144.67 5.92799 145.126 5.01599 145.99C4.15199 146.902 3.71999 147.982 3.71999 149.23C3.71999 149.23 3.71999 149.374 3.71999 149.662C3.71999 149.95 3.71999 150.118 3.71999 150.166L2.99999 150.166L2.99999 144.406L8.25599 144.406ZM48.144 144.406L53.4 144.406L53.4 150.166L52.68 150.166C52.68 150.118 52.68 149.95 52.68 149.662C52.68 149.374 52.68 149.23 52.68 149.23C52.68 147.982 52.224 146.902 51.312 145.99C50.448 145.126 49.392 144.67 48.144 144.622L48.144 144.406Z"/>
<path d="M54.408 195.47C54.408 196.238 54.36 197.054 54.264 197.918C54.168 198.83 54.024 199.694 53.832 200.51C53.688 201.374 53.52 202.142 53.328 202.814C53.184 203.534 53.016 204.086 52.824 204.47L44.832 204.47L44.832 203.822C47.136 203.822 48.936 203.03 50.232 201.446C51.576 199.862 52.248 197.942 52.248 195.686C52.248 193.046 51.408 190.91 49.728 189.278C48.096 187.646 46.176 186.83 43.968 186.83C43.056 186.83 41.976 187.022 40.728 187.406C39.528 187.838 38.4 188.606 37.344 189.71L24.24 203.894C22.896 205.334 21.456 206.294 19.92 206.774C18.384 207.254 16.896 207.494 15.456 207.494C11.472 207.494 8.23199 206.27 5.73599 203.822C3.23999 201.422 1.99199 198.158 1.99199 194.03C1.99199 192.878 2.11199 191.51 2.35199 189.926C2.59199 188.39 2.99999 186.878 3.57599 185.39C4.19999 183.95 4.992 182.75 5.952 181.79C6.72 181.646 7.67999 181.574 8.83199 181.574C9.98399 181.574 11.184 181.67 12.432 181.862C13.728 182.054 14.904 182.318 15.96 182.654L15.96 183.302C13.512 183.062 11.376 183.374 9.55199 184.238C7.72799 185.102 6.33599 186.35 5.37599 187.982C4.46399 189.662 4.05599 191.558 4.15199 193.67C4.29599 196.31 5.20799 198.566 6.88799 200.438C8.61599 202.358 10.92 203.318 13.8 203.318C15.192 203.318 16.44 203.078 17.544 202.598C18.696 202.118 19.68 201.422 20.496 200.51L33.312 186.686C34.656 185.246 36.12 184.238 37.704 183.662C39.336 183.086 40.848 182.798 42.24 182.798C44.256 182.798 46.2 183.278 48.072 184.238C49.944 185.198 51.456 186.614 52.608 188.486C53.808 190.406 54.408 192.734 54.408 195.47ZM53.688 204.47L52.176 204.47L52.176 198.998L53.688 198.998L53.688 204.47Z"/>
<path d="M53.4 260.242L2.99999 260.242L2.99999 255.562L53.4 255.562L53.4 260.242ZM53.4 226.114L2.99999 226.114L2.99999 221.434L53.4 221.434L53.4 226.114ZM28.992 256.21L26.832 256.21L26.832 225.394L28.992 225.394L28.992 256.21ZM8.25599 221.65L2.99999 221.65L2.99999 215.89L3.71999 215.89C3.71999 215.89 3.71999 216.034 3.71999 216.322C3.71999 216.658 3.71999 216.826 3.71999 216.826C3.71999 218.074 4.15199 219.13 5.01599 219.994C5.92799 220.906 7.00799 221.386 8.25599 221.434L8.25599 221.65ZM48.144 221.65L48.144 221.434C49.392 221.386 50.448 220.906 51.312 219.994C52.224 219.13 52.68 218.074 52.68 216.826C52.68 216.826 52.68 216.658 52.68 216.322C52.68 216.034 52.68 215.89 52.68 215.89L53.4 215.89L53.4 221.65L48.144 221.65ZM8.25599 225.898L8.25599 226.114C7.00799 226.162 5.92799 226.618 5.01599 227.482C4.15199 228.394 3.71999 229.474 3.71999 230.722C3.71999 230.722 3.71999 230.866 3.71999 231.154C3.71999 231.442 3.71999 231.61 3.71999 231.658L2.99999 231.658L2.99999 225.898L8.25599 225.898ZM48.144 225.898L53.4 225.898L53.4 231.658L52.68 231.658C52.68 231.61 52.68 231.442 52.68 231.154C52.68 230.866 52.68 230.722 52.68 230.722C52.68 229.474 52.224 228.394 51.312 227.482C50.448 226.618 49.392 226.162 48.144 226.114L48.144 225.898ZM8.25599 255.778L2.99999 255.778L2.99999 250.018L3.71999 250.018C3.71999 250.066 3.71999 250.234 3.71999 250.522C3.71999 250.81 3.71999 250.954 3.71999 250.954C3.71999 252.202 4.15199 253.282 5.01599 254.194C5.92799 255.106 7.00799 255.562 8.25599 255.562L8.25599 255.778ZM48.144 255.778L48.144 255.562C49.392 255.562 50.448 255.106 51.312 254.194C52.224 253.282 52.68 252.202 52.68 250.954C52.68 250.954 52.68 250.81 52.68 250.522C52.68 250.234 52.68 250.066 52.68 250.018L53.4 250.018L53.4 255.778L48.144 255.778ZM8.25599 260.026L8.25599 260.242C7.00799 260.29 5.92799 260.746 5.01599 261.61C4.15199 262.522 3.71999 263.602 3.71999 264.85C3.71999 264.85 3.71999 264.994 3.71999 265.282C3.71999 265.618 3.71999 265.786 3.71999 265.786L2.99999 265.786L2.99999 260.026L8.25599 260.026ZM48.144 260.026L53.4 260.026L53.4 265.786L52.68 265.786C52.68 265.786 52.68 265.618 52.68 265.282C52.68 264.994 52.68 264.85 52.68 264.85C52.68 263.602 52.224 262.522 51.312 261.61C50.448 260.746 49.392 260.29 48.144 260.242L48.144 260.026Z"/>
<path d="M54.408 299.622C54.408 304.758 53.304 309.27 51.096 313.158C48.936 317.046 45.888 320.07 41.952 322.23C38.016 324.438 33.432 325.542 28.2 325.542C22.968 325.542 18.384 324.438 14.448 322.23C10.512 320.07 7.43999 317.046 5.23199 313.158C3.07199 309.27 1.99198 304.758 1.99198 299.622C1.99198 294.534 3.07199 290.046 5.23199 286.158C7.43999 282.27 10.512 279.222 14.448 277.014C18.384 274.854 22.968 273.774 28.2 273.774C33.432 273.774 38.016 274.854 41.952 277.014C45.888 279.222 48.936 282.27 51.096 286.158C53.304 290.046 54.408 294.534 54.408 299.622ZM4.15199 299.622C4.15199 303.702 5.15999 307.254 7.17599 310.278C9.19199 313.35 12 315.726 15.6 317.406C19.2 319.134 23.4 319.998 28.2 319.998C33 319.998 37.2 319.134 40.8 317.406C44.4 315.726 47.208 313.35 49.224 310.278C51.24 307.254 52.248 303.702 52.248 299.622C52.248 295.59 51.24 292.038 49.224 288.966C47.208 285.942 44.4 283.566 40.8 281.838C37.2 280.158 33 279.318 28.2 279.318C23.4 279.318 19.2 280.158 15.6 281.838C12 283.566 9.19199 285.942 7.17599 288.966C5.15999 292.038 4.15199 295.59 4.15199 299.622Z"/>
<path d="M52.968 331.77L52.968 337.602L9.98399 350.994L2.13599 349.77L52.968 331.77ZM54.552 364.026L48.72 364.602L10.128 351.93C10.128 351.93 9.69599 351.81 8.83199 351.57C8.01599 351.33 6.98398 351.09 5.73598 350.85C4.53598 350.61 3.33599 350.466 2.13599 350.418L2.13599 349.77L8.54398 348.474L54.552 363.378L54.552 364.026ZM54.48 364.026L12.072 379.146L2.13599 377.562L46.704 361.578L54.48 364.026ZM52.968 393.258L10.128 379.794C10.128 379.794 9.69598 379.674 8.83198 379.434C7.96798 379.194 6.91198 378.93 5.66398 378.642C4.46398 378.402 3.28799 378.258 2.13599 378.21L2.13599 377.562L9.26398 376.698L52.968 389.226L52.968 393.258ZM48.216 387.858C49.656 388.242 50.76 388.122 51.528 387.498C52.296 386.874 52.68 386.082 52.68 385.122L52.68 384.474L53.4 384.474L53.4 398.658L52.68 398.658C52.68 398.658 52.68 398.562 52.68 398.37C52.68 398.178 52.68 398.082 52.68 398.082C52.68 396.978 52.32 395.778 51.6 394.482C50.928 393.186 49.8 392.274 48.216 391.746L48.216 387.858ZM48.216 339.114L48.216 333.426C49.8 332.85 50.928 331.914 51.6 330.618C52.32 329.37 52.68 328.194 52.68 327.09C52.68 327.09 52.68 326.994 52.68 326.802C52.68 326.61 52.68 326.514 52.68 326.514L53.4 326.514L53.4 342.498L52.68 342.498L52.68 341.85C52.68 340.938 52.296 340.122 51.528 339.402C50.76 338.73 49.656 338.634 48.216 339.114Z"/>
</mask>
<path d="M53.184 24.6239L3 24.6239L3 19.9439L53.184 19.9439L53.184 24.6239ZM53.472 43.1279L51.312 43.1279L51.312 1.43994L53.472 1.43994L53.472 43.1279ZM51.528 43.1279L45.696 43.1279L45.768 42.4079L46.992 42.4079C48.192 42.4079 49.2 41.9759 50.016 41.1119C50.832 40.2959 51.264 39.3119 51.312 38.1599L51.528 38.1599L51.528 43.1279ZM54.768 43.1279L52.68 43.1279L53.472 34.3439C53.472 35.3999 53.544 36.5039 53.688 37.6559C53.832 38.8559 54 39.9599 54.192 40.9679C54.384 41.9759 54.576 42.6959 54.768 43.1279ZM8.256 20.1599L3 20.1599L3 14.3999L3.72 14.3999C3.72 14.3999 3.72 14.5439 3.72 14.8319C3.72 15.1679 3.72 15.3359 3.72 15.3359C3.72 16.5839 4.152 17.6399 5.016 18.5039C5.928 19.4159 7.008 19.8959 8.256 19.9439L8.256 20.1599ZM8.256 24.4079L8.256 24.6239C7.008 24.6719 5.928 25.1279 5.016 25.9919C4.152 26.9039 3.72 27.9839 3.72 29.2319C3.72 29.2319 3.72 29.3759 3.72 29.6639C3.72 29.9999 3.72 30.1679 3.72 30.1679L3 30.1679L3 24.4079L8.256 24.4079ZM51.528 6.40794L51.312 6.40794C51.264 5.20794 50.832 4.19994 50.016 3.38394C49.2 2.56794 48.192 2.15994 46.992 2.15994L45.768 2.15994L45.696 1.43994L51.528 1.43994L51.528 6.40794ZM54.768 1.43994C54.576 1.91994 54.384 2.63994 54.192 3.59994C54 4.60794 53.832 5.71194 53.688 6.91194C53.544 8.11194 53.472 9.21594 53.472 10.2239L52.68 1.43994L54.768 1.43994Z" stroke="#E0E0E0" stroke-width="2" mask="url(#path-1-outside-1_312_6260)"/>
<path d="M54.408 65.2933L3.432 86.6053L3.432 80.4853L47.568 63.8533L54.408 65.2933ZM8.25599 49.8133C7.29599 49.4773 6.48 49.4293 5.808 49.6693C5.136 49.9093 4.608 50.2933 4.224 50.8213C3.888 51.3973 3.72 51.9733 3.72 52.5493L3.72 53.1973L3 53.1973L3 38.7253L3.72 38.7253C3.72 38.7253 3.72 38.8453 3.72 39.0853C3.72 39.2773 3.72 39.3733 3.72 39.3733C3.72 40.4773 4.056 41.6053 4.728 42.7573C5.44799 43.9573 6.62399 44.9413 8.25599 45.7093L8.25599 49.8133ZM54.408 65.2933L49.368 65.9413L3.216 47.8693L3.216 43.5493L46.992 61.9813C46.992 61.9813 47.28 62.1013 47.856 62.3413C48.48 62.6293 49.224 62.9413 50.088 63.2773C50.952 63.6613 51.792 63.9733 52.608 64.2133C53.424 64.5013 54.024 64.6453 54.408 64.6453L54.408 65.2933ZM22.656 75.4453L20.496 75.4452L20.496 52.9093L22.656 52.9093L22.656 75.4453ZM8.25599 78.6852L8.25599 84.5893C6.62399 85.3093 5.44799 86.2692 4.72799 87.4693C4.05599 88.6693 3.72 89.8213 3.72 90.9253C3.72 90.9253 3.72 91.0213 3.72 91.2133C3.72 91.4053 3.72 91.5012 3.72 91.5012L3 91.5012L3 75.3013L3.72 75.3013L3.72 75.9493C3.72 76.8613 4.104 77.6773 4.872 78.3973C5.688 79.1173 6.81599 79.2132 8.25599 78.6852Z" stroke="#E0E0E0" stroke-width="2" mask="url(#path-1-outside-1_312_6260)"/>
<path d="M53.4 105.247L3 105.247L3 100.567L53.4 100.567L53.4 105.247ZM5.232 124.687L2.99999 124.687L3 105.031L5.232 105.031L5.232 124.687ZM14.664 129.079L2.99999 124.903L3 112.951L5.232 115.543C5.232 118.087 5.616 120.151 6.384 121.735C7.2 123.367 8.328 124.687 9.768 125.695C11.208 126.703 12.84 127.591 14.664 128.359L14.664 129.079ZM8.25599 100.783L3 100.783L3 95.0231L3.72 95.0231C3.72 95.0231 3.72 95.1671 3.72 95.4551C3.72 95.7911 3.72 95.9591 3.72 95.9591C3.72 97.2071 4.15199 98.2631 5.01599 99.1271C5.92799 100.039 7.00799 100.519 8.25599 100.567L8.25599 100.783ZM48.144 100.783L48.144 100.567C49.392 100.519 50.448 100.039 51.312 99.1271C52.224 98.2631 52.68 97.2071 52.68 95.9591C52.68 95.9591 52.68 95.7911 52.68 95.4551C52.68 95.1671 52.68 95.0231 52.68 95.0231L53.4 95.0231L53.4 100.783L48.144 100.783ZM48.144 105.031L53.4 105.031L53.4 110.791L52.68 110.791C52.68 110.743 52.68 110.575 52.68 110.287C52.68 109.999 52.68 109.855 52.68 109.855C52.68 108.607 52.224 107.527 51.312 106.615C50.448 105.751 49.392 105.295 48.144 105.247L48.144 105.031Z" stroke="#E0E0E0" stroke-width="2" mask="url(#path-1-outside-1_312_6260)"/>
<path d="M30.72 150.886L6.67199 171.334C5.71199 172.342 4.99199 173.35 4.51199 174.358C4.03199 175.414 3.76799 176.686 3.71999 178.174L2.99999 178.174L2.99999 175.078C2.99999 174.598 3.02399 173.902 3.07199 172.99C3.16799 172.126 3.33599 171.166 3.57599 170.11C3.86399 169.102 4.272 168.07 4.8 167.014C5.376 166.006 6.144 165.094 7.104 164.278C7.104 164.278 7.60799 163.846 8.61599 162.982C9.62399 162.166 10.92 161.086 12.504 159.742C14.088 158.446 15.768 157.054 17.544 155.566C19.368 154.126 21.072 152.734 22.656 151.39C24.24 150.094 25.536 149.014 26.544 148.15C27.552 147.334 28.056 146.926 28.056 146.926L30.72 150.886ZM52.896 171.694L28.056 150.166L28.056 146.926L52.896 166.726L52.896 171.694ZM53.4 176.662L52.752 176.662L52.752 176.374C52.752 174.79 52.44 173.302 51.816 171.91C51.192 170.566 50.328 169.414 49.224 168.454L49.368 163.918C50.184 164.542 50.952 164.638 51.672 164.206C52.392 163.822 52.752 163.15 52.752 162.19L52.752 161.47L53.4 161.47L53.4 176.374L53.4 176.662ZM53.4 144.622L2.99999 144.622L2.99999 139.942L53.4 139.942L53.4 144.622ZM8.25599 140.158L2.99999 140.158L2.99999 134.398L3.72 134.398C3.72 134.398 3.72 134.542 3.72 134.83C3.72 135.166 3.72 135.334 3.72 135.334C3.72 136.582 4.15199 137.638 5.01599 138.502C5.92799 139.414 7.00799 139.894 8.25599 139.942L8.25599 140.158ZM48.144 140.158L48.144 139.942C49.392 139.894 50.448 139.414 51.312 138.502C52.224 137.638 52.68 136.582 52.68 135.334C52.68 135.334 52.68 135.166 52.68 134.83C52.68 134.542 52.68 134.398 52.68 134.398L53.4 134.398L53.4 140.158L48.144 140.158ZM8.25599 144.406L8.25599 144.622C7.00799 144.67 5.92799 145.126 5.01599 145.99C4.15199 146.902 3.71999 147.982 3.71999 149.23C3.71999 149.23 3.71999 149.374 3.71999 149.662C3.71999 149.95 3.71999 150.118 3.71999 150.166L2.99999 150.166L2.99999 144.406L8.25599 144.406ZM48.144 144.406L53.4 144.406L53.4 150.166L52.68 150.166C52.68 150.118 52.68 149.95 52.68 149.662C52.68 149.374 52.68 149.23 52.68 149.23C52.68 147.982 52.224 146.902 51.312 145.99C50.448 145.126 49.392 144.67 48.144 144.622L48.144 144.406Z" stroke="#E0E0E0" stroke-width="2" mask="url(#path-1-outside-1_312_6260)"/>
<path d="M54.408 195.47C54.408 196.238 54.36 197.054 54.264 197.918C54.168 198.83 54.024 199.694 53.832 200.51C53.688 201.374 53.52 202.142 53.328 202.814C53.184 203.534 53.016 204.086 52.824 204.47L44.832 204.47L44.832 203.822C47.136 203.822 48.936 203.03 50.232 201.446C51.576 199.862 52.248 197.942 52.248 195.686C52.248 193.046 51.408 190.91 49.728 189.278C48.096 187.646 46.176 186.83 43.968 186.83C43.056 186.83 41.976 187.022 40.728 187.406C39.528 187.838 38.4 188.606 37.344 189.71L24.24 203.894C22.896 205.334 21.456 206.294 19.92 206.774C18.384 207.254 16.896 207.494 15.456 207.494C11.472 207.494 8.23199 206.27 5.73599 203.822C3.23999 201.422 1.99199 198.158 1.99199 194.03C1.99199 192.878 2.11199 191.51 2.35199 189.926C2.59199 188.39 2.99999 186.878 3.57599 185.39C4.19999 183.95 4.992 182.75 5.952 181.79C6.72 181.646 7.67999 181.574 8.83199 181.574C9.98399 181.574 11.184 181.67 12.432 181.862C13.728 182.054 14.904 182.318 15.96 182.654L15.96 183.302C13.512 183.062 11.376 183.374 9.55199 184.238C7.72799 185.102 6.33599 186.35 5.37599 187.982C4.46399 189.662 4.05599 191.558 4.15199 193.67C4.29599 196.31 5.20799 198.566 6.88799 200.438C8.61599 202.358 10.92 203.318 13.8 203.318C15.192 203.318 16.44 203.078 17.544 202.598C18.696 202.118 19.68 201.422 20.496 200.51L33.312 186.686C34.656 185.246 36.12 184.238 37.704 183.662C39.336 183.086 40.848 182.798 42.24 182.798C44.256 182.798 46.2 183.278 48.072 184.238C49.944 185.198 51.456 186.614 52.608 188.486C53.808 190.406 54.408 192.734 54.408 195.47ZM53.688 204.47L52.176 204.47L52.176 198.998L53.688 198.998L53.688 204.47Z" stroke="#E0E0E0" stroke-width="2" mask="url(#path-1-outside-1_312_6260)"/>
<path d="M53.4 260.242L2.99999 260.242L2.99999 255.562L53.4 255.562L53.4 260.242ZM53.4 226.114L2.99999 226.114L2.99999 221.434L53.4 221.434L53.4 226.114ZM28.992 256.21L26.832 256.21L26.832 225.394L28.992 225.394L28.992 256.21ZM8.25599 221.65L2.99999 221.65L2.99999 215.89L3.71999 215.89C3.71999 215.89 3.71999 216.034 3.71999 216.322C3.71999 216.658 3.71999 216.826 3.71999 216.826C3.71999 218.074 4.15199 219.13 5.01599 219.994C5.92799 220.906 7.00799 221.386 8.25599 221.434L8.25599 221.65ZM48.144 221.65L48.144 221.434C49.392 221.386 50.448 220.906 51.312 219.994C52.224 219.13 52.68 218.074 52.68 216.826C52.68 216.826 52.68 216.658 52.68 216.322C52.68 216.034 52.68 215.89 52.68 215.89L53.4 215.89L53.4 221.65L48.144 221.65ZM8.25599 225.898L8.25599 226.114C7.00799 226.162 5.92799 226.618 5.01599 227.482C4.15199 228.394 3.71999 229.474 3.71999 230.722C3.71999 230.722 3.71999 230.866 3.71999 231.154C3.71999 231.442 3.71999 231.61 3.71999 231.658L2.99999 231.658L2.99999 225.898L8.25599 225.898ZM48.144 225.898L53.4 225.898L53.4 231.658L52.68 231.658C52.68 231.61 52.68 231.442 52.68 231.154C52.68 230.866 52.68 230.722 52.68 230.722C52.68 229.474 52.224 228.394 51.312 227.482C50.448 226.618 49.392 226.162 48.144 226.114L48.144 225.898ZM8.25599 255.778L2.99999 255.778L2.99999 250.018L3.71999 250.018C3.71999 250.066 3.71999 250.234 3.71999 250.522C3.71999 250.81 3.71999 250.954 3.71999 250.954C3.71999 252.202 4.15199 253.282 5.01599 254.194C5.92799 255.106 7.00799 255.562 8.25599 255.562L8.25599 255.778ZM48.144 255.778L48.144 255.562C49.392 255.562 50.448 255.106 51.312 254.194C52.224 253.282 52.68 252.202 52.68 250.954C52.68 250.954 52.68 250.81 52.68 250.522C52.68 250.234 52.68 250.066 52.68 250.018L53.4 250.018L53.4 255.778L48.144 255.778ZM8.25599 260.026L8.25599 260.242C7.00799 260.29 5.92799 260.746 5.01599 261.61C4.15199 262.522 3.71999 263.602 3.71999 264.85C3.71999 264.85 3.71999 264.994 3.71999 265.282C3.71999 265.618 3.71999 265.786 3.71999 265.786L2.99999 265.786L2.99999 260.026L8.25599 260.026ZM48.144 260.026L53.4 260.026L53.4 265.786L52.68 265.786C52.68 265.786 52.68 265.618 52.68 265.282C52.68 264.994 52.68 264.85 52.68 264.85C52.68 263.602 52.224 262.522 51.312 261.61C50.448 260.746 49.392 260.29 48.144 260.242L48.144 260.026Z" stroke="#E0E0E0" stroke-width="2" mask="url(#path-1-outside-1_312_6260)"/>
<path d="M54.408 299.622C54.408 304.758 53.304 309.27 51.096 313.158C48.936 317.046 45.888 320.07 41.952 322.23C38.016 324.438 33.432 325.542 28.2 325.542C22.968 325.542 18.384 324.438 14.448 322.23C10.512 320.07 7.43999 317.046 5.23199 313.158C3.07199 309.27 1.99198 304.758 1.99198 299.622C1.99198 294.534 3.07199 290.046 5.23199 286.158C7.43999 282.27 10.512 279.222 14.448 277.014C18.384 274.854 22.968 273.774 28.2 273.774C33.432 273.774 38.016 274.854 41.952 277.014C45.888 279.222 48.936 282.27 51.096 286.158C53.304 290.046 54.408 294.534 54.408 299.622ZM4.15199 299.622C4.15199 303.702 5.15999 307.254 7.17599 310.278C9.19199 313.35 12 315.726 15.6 317.406C19.2 319.134 23.4 319.998 28.2 319.998C33 319.998 37.2 319.134 40.8 317.406C44.4 315.726 47.208 313.35 49.224 310.278C51.24 307.254 52.248 303.702 52.248 299.622C52.248 295.59 51.24 292.038 49.224 288.966C47.208 285.942 44.4 283.566 40.8 281.838C37.2 280.158 33 279.318 28.2 279.318C23.4 279.318 19.2 280.158 15.6 281.838C12 283.566 9.19199 285.942 7.17599 288.966C5.15999 292.038 4.15199 295.59 4.15199 299.622Z" stroke="#E0E0E0" stroke-width="2" mask="url(#path-1-outside-1_312_6260)"/>
<path d="M52.968 331.77L52.968 337.602L9.98399 350.994L2.13599 349.77L52.968 331.77ZM54.552 364.026L48.72 364.602L10.128 351.93C10.128 351.93 9.69599 351.81 8.83199 351.57C8.01599 351.33 6.98398 351.09 5.73598 350.85C4.53598 350.61 3.33599 350.466 2.13599 350.418L2.13599 349.77L8.54398 348.474L54.552 363.378L54.552 364.026ZM54.48 364.026L12.072 379.146L2.13599 377.562L46.704 361.578L54.48 364.026ZM52.968 393.258L10.128 379.794C10.128 379.794 9.69598 379.674 8.83198 379.434C7.96798 379.194 6.91198 378.93 5.66398 378.642C4.46398 378.402 3.28799 378.258 2.13599 378.21L2.13599 377.562L9.26398 376.698L52.968 389.226L52.968 393.258ZM48.216 387.858C49.656 388.242 50.76 388.122 51.528 387.498C52.296 386.874 52.68 386.082 52.68 385.122L52.68 384.474L53.4 384.474L53.4 398.658L52.68 398.658C52.68 398.658 52.68 398.562 52.68 398.37C52.68 398.178 52.68 398.082 52.68 398.082C52.68 396.978 52.32 395.778 51.6 394.482C50.928 393.186 49.8 392.274 48.216 391.746L48.216 387.858ZM48.216 339.114L48.216 333.426C49.8 332.85 50.928 331.914 51.6 330.618C52.32 329.37 52.68 328.194 52.68 327.09C52.68 327.09 52.68 326.994 52.68 326.802C52.68 326.61 52.68 326.514 52.68 326.514L53.4 326.514L53.4 342.498L52.68 342.498L52.68 341.85C52.68 340.938 52.296 340.122 51.528 339.402C50.76 338.73 49.656 338.634 48.216 339.114Z" stroke="#E0E0E0" stroke-width="2" mask="url(#path-1-outside-1_312_6260)"/>
</svg>
