<svg width="257" height="10" viewBox="0 0 257 10" fill="none" xmlns="http://www.w3.org/2000/svg">
<path d="M8.20301 0.599999V9H7.42301V0.599999H8.20301ZM2.51501 0.599999V9H1.73501V0.599999H2.51501ZM7.53101 4.668V5.028H2.39501V4.668H7.53101ZM1.77101 8.124V9H0.811011V8.88C0.811011 8.88 0.835011 8.88 0.883011 8.88C0.939011 8.88 0.967011 8.88 0.967011 8.88C1.17501 8.88 1.35101 8.808 1.49501 8.664C1.64701 8.512 1.72701 8.332 1.73501 8.124H1.77101ZM1.77101 1.476H1.73501C1.72701 1.268 1.64701 1.092 1.49501 0.948C1.35101 0.796 1.17501 0.719999 0.967011 0.719999C0.967011 0.719999 0.939011 0.719999 0.883011 0.719999C0.835011 0.719999 0.811011 0.719999 0.811011 0.719999V0.599999H1.77101V1.476ZM2.47901 8.124H2.51501C2.52301 8.332 2.59901 8.512 2.74301 8.664C2.89501 8.808 3.07501 8.88 3.28301 8.88C3.28301 8.88 3.30701 8.88 3.35501 8.88C3.40301 8.88 3.43101 8.88 3.43901 8.88V9H2.47901V8.124ZM2.47901 1.476V0.599999H3.43901V0.719999C3.43101 0.719999 3.40301 0.719999 3.35501 0.719999C3.30701 0.719999 3.28301 0.719999 3.28301 0.719999C3.07501 0.719999 2.89501 0.796 2.74301 0.948C2.59901 1.092 2.52301 1.268 2.51501 1.476H2.47901ZM7.45901 8.124V9H6.49901V8.88C6.50701 8.88 6.53501 8.88 6.58301 8.88C6.63101 8.88 6.65501 8.88 6.65501 8.88C6.86301 8.88 7.04301 8.808 7.19501 8.664C7.34701 8.512 7.42301 8.332 7.42301 8.124H7.45901ZM7.45901 1.476H7.42301C7.42301 1.268 7.34701 1.092 7.19501 0.948C7.04301 0.796 6.86301 0.719999 6.65501 0.719999C6.65501 0.719999 6.63101 0.719999 6.58301 0.719999C6.53501 0.719999 6.50701 0.719999 6.49901 0.719999V0.599999H7.45901V1.476ZM8.16701 8.124H8.20301C8.21101 8.332 8.28701 8.512 8.43101 8.664C8.58301 8.808 8.76301 8.88 8.97101 8.88C8.97101 8.88 8.99501 8.88 9.04301 8.88C9.09901 8.88 9.12701 8.88 9.12701 8.88V9H8.16701V8.124ZM8.16701 1.476V0.599999H9.12701V0.719999C9.12701 0.719999 9.09901 0.719999 9.04301 0.719999C8.99501 0.719999 8.97101 0.719999 8.97101 0.719999C8.76301 0.719999 8.58301 0.796 8.43101 0.948C8.28701 1.092 8.21101 1.268 8.20301 1.476H8.16701ZM17.1664 0.431999C18.0224 0.431999 18.7744 0.615999 19.4224 0.983999C20.0704 1.344 20.5744 1.852 20.9344 2.508C21.3024 3.164 21.4864 3.928 21.4864 4.8C21.4864 5.672 21.3024 6.436 20.9344 7.092C20.5744 7.748 20.0704 8.26 19.4224 8.628C18.7744 8.988 18.0224 9.168 17.1664 9.168C16.3184 9.168 15.5704 8.988 14.9224 8.628C14.2744 8.26 13.7664 7.748 13.3984 7.092C13.0384 6.436 12.8584 5.672 12.8584 4.8C12.8584 3.928 13.0384 3.164 13.3984 2.508C13.7664 1.852 14.2744 1.344 14.9224 0.983999C15.5704 0.615999 16.3184 0.431999 17.1664 0.431999ZM17.1664 8.808C17.8464 8.808 18.4384 8.64 18.9424 8.304C19.4544 7.968 19.8504 7.5 20.1304 6.9C20.4184 6.3 20.5624 5.6 20.5624 4.8C20.5624 4 20.4184 3.3 20.1304 2.7C19.8504 2.1 19.4544 1.632 18.9424 1.296C18.4384 0.96 17.8464 0.792 17.1664 0.792C16.4944 0.792 15.9024 0.96 15.3904 1.296C14.8864 1.632 14.4904 2.1 14.2024 2.7C13.9224 3.3 13.7824 4 13.7824 4.8C13.7824 5.6 13.9224 6.3 14.2024 6.9C14.4904 7.5 14.8864 7.968 15.3904 8.304C15.9024 8.64 16.4944 8.808 17.1664 8.808ZM26.6627 0.599999V9H25.8827V0.599999H26.6627ZM29.9027 8.628V9H26.6267V8.628H29.9027ZM30.6347 7.056L29.9387 9H27.9467L28.3787 8.628C28.8027 8.628 29.1467 8.564 29.4107 8.436C29.6827 8.3 29.9027 8.112 30.0707 7.872C30.2387 7.632 30.3867 7.36 30.5147 7.056H30.6347ZM25.9187 8.124V9H24.9587V8.88C24.9587 8.88 24.9827 8.88 25.0307 8.88C25.0867 8.88 25.1147 8.88 25.1147 8.88C25.3227 8.88 25.4987 8.808 25.6427 8.664C25.7947 8.512 25.8747 8.332 25.8827 8.124H25.9187ZM25.9187 1.476H25.8827C25.8747 1.268 25.7947 1.092 25.6427 0.948C25.4987 0.796 25.3227 0.719999 25.1147 0.719999C25.1147 0.719999 25.0867 0.719999 25.0307 0.719999C24.9827 0.719999 24.9587 0.719999 24.9587 0.719999V0.599999H25.9187V1.476ZM26.6267 1.476V0.599999H27.5867V0.719999C27.5787 0.719999 27.5507 0.719999 27.5027 0.719999C27.4547 0.719999 27.4307 0.719999 27.4307 0.719999C27.2227 0.719999 27.0427 0.796 26.8907 0.948C26.7467 1.092 26.6707 1.268 26.6627 1.476H26.6267ZM37.6849 0.431999L41.2369 8.928H40.2169L37.4449 1.572L37.6849 0.431999ZM35.1049 8.124C35.0489 8.284 35.0409 8.42 35.0809 8.532C35.1209 8.644 35.1849 8.732 35.2729 8.796C35.3689 8.852 35.4649 8.88 35.5609 8.88H35.6689V9H33.2569V8.88C33.2569 8.88 33.2769 8.88 33.3169 8.88C33.3489 8.88 33.3649 8.88 33.3649 8.88C33.5489 8.88 33.7369 8.824 33.9289 8.712C34.1289 8.592 34.2929 8.396 34.4209 8.124H35.1049ZM37.6849 0.431999L37.7929 1.272L34.7809 8.964H34.0609L37.1329 1.668C37.1329 1.668 37.1529 1.62 37.1929 1.524C37.2409 1.42 37.2929 1.296 37.3489 1.152C37.4129 1.008 37.4649 0.868 37.5049 0.732C37.5529 0.596 37.5769 0.496 37.5769 0.431999H37.6849ZM39.3769 5.724V6.084H35.6209V5.724H39.3769ZM39.9169 8.124H40.9009C41.0209 8.396 41.1809 8.592 41.3809 8.712C41.5809 8.824 41.7729 8.88 41.9569 8.88C41.9569 8.88 41.9729 8.88 42.0049 8.88C42.0369 8.88 42.0529 8.88 42.0529 8.88V9H39.3529V8.88H39.4609C39.6129 8.88 39.7489 8.816 39.8689 8.688C39.9889 8.552 40.0049 8.364 39.9169 8.124ZM51.0999 9.048C50.9479 9.048 50.8199 8.996 50.7159 8.892C50.6119 8.788 50.5599 8.66 50.5599 8.508C50.5599 8.356 50.6119 8.228 50.7159 8.124C50.8199 8.02 50.9479 7.968 51.0999 7.968C51.2519 7.968 51.3799 8.02 51.4839 8.124C51.5879 8.228 51.6399 8.356 51.6399 8.508C51.6399 8.66 51.5879 8.788 51.4839 8.892C51.3799 8.996 51.2519 9.048 51.0999 9.048ZM51.1479 6.96H51.0279L50.7879 4.164L50.6439 0.576H51.5439L51.3999 4.164L51.1479 6.96ZM62.7095 0.599999V9H61.9295V0.599999H62.7095ZM65.9495 8.628V9H62.6735V8.628H65.9495ZM66.6815 7.056L65.9855 9H63.9935L64.4255 8.628C64.8495 8.628 65.1935 8.564 65.4575 8.436C65.7295 8.3 65.9495 8.112 66.1175 7.872C66.2855 7.632 66.4335 7.36 66.5615 7.056H66.6815ZM61.9655 8.124V9H61.0055V8.88C61.0055 8.88 61.0295 8.88 61.0775 8.88C61.1335 8.88 61.1615 8.88 61.1615 8.88C61.3695 8.88 61.5455 8.808 61.6895 8.664C61.8415 8.512 61.9215 8.332 61.9295 8.124H61.9655ZM61.9655 1.476H61.9295C61.9215 1.268 61.8415 1.092 61.6895 0.948C61.5455 0.796 61.3695 0.719999 61.1615 0.719999C61.1615 0.719999 61.1335 0.719999 61.0775 0.719999C61.0295 0.719999 61.0055 0.719999 61.0055 0.719999V0.599999H61.9655V1.476ZM62.6735 1.476V0.599999H63.6335V0.719999C63.6255 0.719999 63.5975 0.719999 63.5495 0.719999C63.5015 0.719999 63.4775 0.719999 63.4775 0.719999C63.2695 0.719999 63.0895 0.796 62.9375 0.948C62.7935 1.092 62.7175 1.268 62.7095 1.476H62.6735ZM71.672 0.599999V9H70.892V0.599999H71.672ZM74.912 8.628V9H71.636V8.628H74.912ZM74.396 4.68V5.04H71.636V4.68H74.396ZM74.912 0.599999V0.972H71.636V0.599999H74.912ZM75.644 7.056L74.948 9H72.956L73.388 8.628C73.812 8.628 74.156 8.564 74.42 8.436C74.692 8.3 74.912 8.112 75.08 7.872C75.248 7.632 75.396 7.36 75.524 7.056H75.644ZM74.396 5.016V5.808H74.276V5.628C74.276 5.468 74.22 5.332 74.108 5.22C73.996 5.1 73.86 5.04 73.7 5.04V5.016H74.396ZM74.396 3.912V4.704H73.7V4.68C73.86 4.672 73.996 4.612 74.108 4.5C74.22 4.38 74.276 4.24 74.276 4.08V3.912H74.396ZM74.912 0.935999V1.896H74.792V1.68C74.792 1.488 74.724 1.324 74.588 1.188C74.452 1.044 74.284 0.968 74.084 0.96V0.935999H74.912ZM74.912 0.383999V0.732L73.448 0.599999C73.624 0.599999 73.808 0.588 74 0.564C74.2 0.54 74.384 0.512 74.552 0.48C74.72 0.447999 74.84 0.415999 74.912 0.383999ZM70.928 8.124V9H69.968V8.88C69.968 8.88 69.992 8.88 70.04 8.88C70.096 8.88 70.124 8.88 70.124 8.88C70.332 8.88 70.508 8.808 70.652 8.664C70.804 8.512 70.884 8.332 70.892 8.124H70.928ZM70.928 1.476H70.892C70.892 1.268 70.816 1.092 70.664 0.948C70.512 0.796 70.332 0.719999 70.124 0.719999C70.124 0.719999 70.1 0.719999 70.052 0.719999C70.004 0.719999 69.98 0.719999 69.98 0.719999L69.968 0.599999H70.928V1.476ZM82.8818 0.431999L86.4338 8.928H85.4138L82.6418 1.572L82.8818 0.431999ZM80.3018 8.124C80.2458 8.284 80.2378 8.42 80.2778 8.532C80.3178 8.644 80.3818 8.732 80.4698 8.796C80.5658 8.852 80.6618 8.88 80.7578 8.88H80.8658V9H78.4538V8.88C78.4538 8.88 78.4738 8.88 78.5138 8.88C78.5458 8.88 78.5618 8.88 78.5618 8.88C78.7458 8.88 78.9338 8.824 79.1258 8.712C79.3258 8.592 79.4898 8.396 79.6178 8.124H80.3018ZM82.8818 0.431999L82.9898 1.272L79.9778 8.964H79.2578L82.3298 1.668C82.3298 1.668 82.3498 1.62 82.3898 1.524C82.4378 1.42 82.4898 1.296 82.5458 1.152C82.6098 1.008 82.6618 0.868 82.7018 0.732C82.7498 0.596 82.7738 0.496 82.7738 0.431999H82.8818ZM84.5738 5.724V6.084H80.8178V5.724H84.5738ZM85.1138 8.124H86.0978C86.2178 8.396 86.3778 8.592 86.5778 8.712C86.7778 8.824 86.9698 8.88 87.1538 8.88C87.1538 8.88 87.1698 8.88 87.2018 8.88C87.2338 8.88 87.2498 8.88 87.2498 8.88V9H84.5498V8.88H84.6578C84.8098 8.88 84.9458 8.816 85.0658 8.688C85.1858 8.552 85.2018 8.364 85.1138 8.124ZM91.7848 0.599999H93.4768C93.8368 0.599999 94.1608 0.651999 94.4488 0.756C94.7448 0.86 94.9928 1.012 95.1928 1.212C95.3928 1.404 95.5448 1.64 95.6488 1.92C95.7608 2.192 95.8168 2.504 95.8168 2.856C95.8168 3.24 95.7248 3.608 95.5408 3.96C95.3648 4.312 95.1208 4.6 94.8088 4.824C94.5048 5.04 94.1608 5.148 93.7768 5.148C93.9128 5.204 94.0608 5.32 94.2208 5.496C94.3808 5.664 94.5208 5.828 94.6408 5.988C94.6408 5.988 94.6928 6.068 94.7968 6.228C94.9088 6.38 95.0448 6.568 95.2048 6.792C95.3728 7.016 95.5408 7.236 95.7088 7.452C95.8768 7.668 96.0208 7.84 96.1408 7.968C96.3008 8.144 96.4608 8.3 96.6208 8.436C96.7808 8.572 96.9528 8.68 97.1368 8.76C97.3288 8.84 97.5408 8.88 97.7728 8.88V9H97.1128C96.7448 9 96.4248 8.944 96.1528 8.832C95.8888 8.72 95.6648 8.584 95.4808 8.424C95.2968 8.256 95.1408 8.096 95.0128 7.944C94.9888 7.912 94.9208 7.82 94.8088 7.668C94.7048 7.516 94.5768 7.336 94.4248 7.128C94.2808 6.912 94.1368 6.7 93.9928 6.492C93.8488 6.284 93.7248 6.108 93.6208 5.964C93.5168 5.812 93.4568 5.724 93.4408 5.7C93.2888 5.5 93.1208 5.316 92.9368 5.148C92.7528 4.98 92.5528 4.896 92.3368 4.896V4.776C92.3368 4.776 92.3968 4.78 92.5168 4.788C92.6448 4.788 92.7968 4.784 92.9728 4.776C93.1808 4.768 93.4088 4.736 93.6568 4.68C93.9048 4.624 94.1368 4.508 94.3528 4.332C94.5688 4.156 94.7328 3.888 94.8448 3.528C94.8688 3.44 94.8888 3.332 94.9048 3.204C94.9208 3.068 94.9248 2.936 94.9168 2.808C94.9088 2.264 94.7688 1.832 94.4968 1.512C94.2328 1.184 93.8768 1.008 93.4288 0.983999C93.2048 0.968 92.9728 0.964 92.7328 0.972C92.5008 0.972 92.3048 0.972 92.1448 0.972C91.9848 0.972 91.9048 0.972 91.9048 0.972C91.9048 0.964 91.8928 0.932 91.8688 0.875999C91.8528 0.811999 91.8328 0.751999 91.8088 0.696C91.7928 0.631999 91.7848 0.599999 91.7848 0.599999ZM91.9408 0.599999V9H91.1608V0.599999H91.9408ZM91.1968 8.124V9H90.2368V8.88C90.2368 8.88 90.2608 8.88 90.3088 8.88C90.3648 8.88 90.3928 8.88 90.3928 8.88C90.6008 8.88 90.7768 8.808 90.9208 8.664C91.0728 8.512 91.1528 8.332 91.1608 8.124H91.1968ZM91.1968 1.476H91.1608C91.1528 1.268 91.0728 1.092 90.9208 0.948C90.7768 0.796 90.6008 0.719999 90.3928 0.719999C90.3928 0.719999 90.3648 0.719999 90.3088 0.719999C90.2608 0.719999 90.2368 0.719999 90.2368 0.719999V0.599999H91.1968V1.476ZM91.9048 8.124H91.9408C91.9408 8.332 92.0168 8.512 92.1688 8.664C92.3208 8.808 92.5008 8.88 92.7088 8.88C92.7088 8.88 92.7328 8.88 92.7808 8.88C92.8288 8.88 92.8528 8.88 92.8528 8.88V9H91.9048V8.124ZM101.187 0.42L108.159 7.86L108.267 9.168L101.295 1.74L101.187 0.42ZM101.211 8.148V9H100.215V8.88C100.215 8.88 100.251 8.88 100.323 8.88C100.395 8.88 100.435 8.88 100.443 8.88C100.643 8.88 100.815 8.808 100.959 8.664C101.103 8.52 101.175 8.348 101.175 8.148H101.211ZM101.727 8.148C101.727 8.348 101.799 8.52 101.943 8.664C102.087 8.808 102.259 8.88 102.459 8.88C102.467 8.88 102.507 8.88 102.579 8.88C102.651 8.88 102.687 8.88 102.687 8.88V9H101.691V8.148H101.727ZM101.187 0.42L101.715 1.092L101.727 9H101.175V1.92C101.175 1.512 101.155 1.16 101.115 0.864C101.083 0.568 101.067 0.42 101.067 0.42H101.187ZM108.267 0.599999V7.632C108.267 7.888 108.275 8.136 108.291 8.376C108.307 8.608 108.323 8.8 108.339 8.952C108.363 9.096 108.375 9.168 108.375 9.168H108.267L107.727 8.532V0.599999H108.267ZM109.227 0.599999V0.719999C109.227 0.719999 109.191 0.719999 109.119 0.719999C109.047 0.719999 109.011 0.719999 109.011 0.719999C108.811 0.719999 108.639 0.791999 108.495 0.935999C108.351 1.072 108.275 1.244 108.267 1.452H108.231V0.599999H109.227ZM106.755 0.599999H107.751V1.452H107.727C107.719 1.244 107.643 1.072 107.499 0.935999C107.363 0.791999 107.191 0.719999 106.983 0.719999C106.983 0.719999 106.947 0.719999 106.875 0.719999C106.803 0.719999 106.763 0.719999 106.755 0.719999V0.599999ZM114.471 0.599999V9H113.691V0.599999H114.471ZM113.727 8.124V9H112.767V8.88C112.767 8.88 112.791 8.88 112.839 8.88C112.895 8.88 112.923 8.88 112.923 8.88C113.131 8.88 113.307 8.808 113.451 8.664C113.603 8.512 113.683 8.332 113.691 8.124H113.727ZM113.727 1.476H113.691C113.683 1.268 113.603 1.092 113.451 0.948C113.307 0.796 113.131 0.719999 112.923 0.719999C112.923 0.719999 112.895 0.719999 112.839 0.719999C112.791 0.719999 112.767 0.719999 112.767 0.719999V0.599999H113.727V1.476ZM114.435 8.124H114.471C114.479 8.332 114.555 8.512 114.699 8.664C114.851 8.808 115.031 8.88 115.239 8.88C115.239 8.88 115.263 8.88 115.311 8.88C115.359 8.88 115.387 8.88 115.395 8.88V9H114.435V8.124ZM114.435 1.476V0.599999H115.395V0.719999C115.387 0.719999 115.359 0.719999 115.311 0.719999C115.263 0.719999 115.239 0.719999 115.239 0.719999C115.031 0.719999 114.851 0.796 114.699 0.948C114.555 1.092 114.479 1.268 114.471 1.476H114.435ZM120.014 0.42L126.986 7.86L127.094 9.168L120.122 1.74L120.014 0.42ZM120.038 8.148V9H119.042V8.88C119.042 8.88 119.078 8.88 119.15 8.88C119.222 8.88 119.262 8.88 119.27 8.88C119.47 8.88 119.642 8.808 119.786 8.664C119.93 8.52 120.002 8.348 120.002 8.148H120.038ZM120.554 8.148C120.554 8.348 120.626 8.52 120.77 8.664C120.914 8.808 121.086 8.88 121.286 8.88C121.294 8.88 121.334 8.88 121.406 8.88C121.478 8.88 121.514 8.88 121.514 8.88V9H120.518V8.148H120.554ZM120.014 0.42L120.542 1.092L120.554 9H120.002V1.92C120.002 1.512 119.982 1.16 119.942 0.864C119.91 0.568 119.894 0.42 119.894 0.42H120.014ZM127.094 0.599999V7.632C127.094 7.888 127.102 8.136 127.118 8.376C127.134 8.608 127.15 8.8 127.166 8.952C127.19 9.096 127.202 9.168 127.202 9.168H127.094L126.554 8.532V0.599999H127.094ZM128.054 0.599999V0.719999C128.054 0.719999 128.018 0.719999 127.946 0.719999C127.874 0.719999 127.838 0.719999 127.838 0.719999C127.638 0.719999 127.466 0.791999 127.322 0.935999C127.178 1.072 127.102 1.244 127.094 1.452H127.058V0.599999H128.054ZM125.582 0.599999H126.578V1.452H126.554C126.546 1.244 126.47 1.072 126.326 0.935999C126.19 0.791999 126.018 0.719999 125.81 0.719999C125.81 0.719999 125.774 0.719999 125.702 0.719999C125.63 0.719999 125.59 0.719999 125.582 0.719999V0.599999ZM139.265 5.64V7.62C139.081 7.86 138.833 8.1 138.521 8.34C138.209 8.58 137.825 8.78 137.369 8.94C136.921 9.092 136.393 9.168 135.785 9.168C134.937 9.16 134.189 8.976 133.541 8.616C132.893 8.248 132.385 7.74 132.017 7.092C131.657 6.436 131.477 5.672 131.477 4.8C131.477 3.928 131.657 3.164 132.017 2.508C132.385 1.852 132.893 1.344 133.541 0.983999C134.189 0.615999 134.937 0.431999 135.785 0.431999C136.225 0.431999 136.621 0.467999 136.973 0.539999C137.325 0.612 137.641 0.712 137.921 0.84C138.209 0.96 138.469 1.096 138.701 1.248L138.941 2.94H138.833C138.713 2.476 138.513 2.088 138.233 1.776C137.961 1.456 137.617 1.212 137.201 1.044C136.785 0.876 136.313 0.792 135.785 0.792C135.113 0.792 134.521 0.96 134.009 1.296C133.497 1.632 133.097 2.1 132.809 2.7C132.521 3.3 132.377 4 132.377 4.8C132.377 5.6 132.521 6.3 132.809 6.9C133.097 7.5 133.497 7.968 134.009 8.304C134.521 8.632 135.113 8.8 135.785 8.808C136.137 8.808 136.473 8.768 136.793 8.688C137.121 8.6 137.429 8.48 137.717 8.328C138.005 8.168 138.261 7.98 138.485 7.764L138.497 5.64C138.497 5.28 138.293 5.1 137.885 5.1H137.693V4.98H140.045V5.1H139.865C139.449 5.1 139.249 5.28 139.265 5.64ZM148.888 0.672H149.86L152.092 7.836L151.888 9.144L148.888 0.672ZM154.264 0.408L154.36 1.38L152.248 7.812C152.248 7.812 152.228 7.884 152.188 8.028C152.148 8.164 152.108 8.336 152.068 8.544C152.028 8.744 152.004 8.944 151.996 9.144H151.888L151.672 8.076L154.156 0.408H154.264ZM154.264 0.42L156.784 7.488L156.52 9.144L153.856 1.716L154.264 0.42ZM159.136 0.672L156.892 7.812C156.892 7.812 156.872 7.884 156.832 8.028C156.792 8.172 156.748 8.348 156.7 8.556C156.66 8.756 156.636 8.952 156.628 9.144H156.52L156.376 7.956L158.464 0.672H159.136ZM158.236 1.464C158.3 1.224 158.28 1.04 158.176 0.912C158.072 0.783999 157.94 0.719999 157.78 0.719999H157.672V0.599999H160.036V0.719999C160.036 0.719999 160.02 0.719999 159.988 0.719999C159.956 0.719999 159.94 0.719999 159.94 0.719999C159.756 0.719999 159.556 0.779999 159.34 0.9C159.124 1.012 158.972 1.2 158.884 1.464H158.236ZM150.112 1.464H149.164C149.068 1.2 148.912 1.012 148.696 0.9C148.488 0.779999 148.292 0.719999 148.108 0.719999C148.108 0.719999 148.092 0.719999 148.06 0.719999C148.028 0.719999 148.012 0.719999 148.012 0.719999V0.599999H150.676V0.719999H150.568C150.416 0.719999 150.28 0.783999 150.16 0.912C150.048 1.04 150.032 1.224 150.112 1.464ZM164.745 0.599999V9H163.965V0.599999H164.745ZM164.001 8.124V9H163.041V8.88C163.041 8.88 163.065 8.88 163.113 8.88C163.169 8.88 163.197 8.88 163.197 8.88C163.405 8.88 163.581 8.808 163.725 8.664C163.877 8.512 163.957 8.332 163.965 8.124H164.001ZM164.001 1.476H163.965C163.957 1.268 163.877 1.092 163.725 0.948C163.581 0.796 163.405 0.719999 163.197 0.719999C163.197 0.719999 163.169 0.719999 163.113 0.719999C163.065 0.719999 163.041 0.719999 163.041 0.719999V0.599999H164.001V1.476ZM164.709 8.124H164.745C164.753 8.332 164.829 8.512 164.973 8.664C165.125 8.808 165.305 8.88 165.513 8.88C165.513 8.88 165.537 8.88 165.585 8.88C165.633 8.88 165.661 8.88 165.669 8.88V9H164.709V8.124ZM164.709 1.476V0.599999H165.669V0.719999C165.661 0.719999 165.633 0.719999 165.585 0.719999C165.537 0.719999 165.513 0.719999 165.513 0.719999C165.305 0.719999 165.125 0.796 164.973 0.948C164.829 1.092 164.753 1.268 164.745 1.476H164.709ZM172.879 0.636V9H172.099V0.636H172.879ZM175.963 0.588V0.948H169.015V0.588H175.963ZM175.963 0.912V1.884L175.843 1.872V1.668C175.843 1.468 175.771 1.3 175.627 1.164C175.491 1.028 175.327 0.956 175.135 0.948V0.912H175.963ZM175.963 0.372V0.719999L174.499 0.588C174.675 0.588 174.859 0.575999 175.051 0.551999C175.251 0.528 175.435 0.5 175.603 0.468C175.771 0.436 175.891 0.404 175.963 0.372ZM172.135 8.124V9H171.175V8.88C171.175 8.88 171.199 8.88 171.247 8.88C171.303 8.88 171.331 8.88 171.331 8.88C171.539 8.88 171.715 8.808 171.859 8.664C172.011 8.512 172.091 8.332 172.099 8.124H172.135ZM172.843 8.124H172.879C172.887 8.332 172.963 8.512 173.107 8.664C173.259 8.808 173.439 8.88 173.647 8.88C173.647 8.88 173.671 8.88 173.719 8.88C173.775 8.88 173.803 8.88 173.803 8.88V9H172.843V8.124ZM169.843 0.912V0.948C169.643 0.956 169.475 1.028 169.339 1.164C169.203 1.3 169.135 1.468 169.135 1.668V1.872L169.015 1.884V0.912H169.843ZM169.015 0.372C169.095 0.404 169.215 0.436 169.375 0.468C169.543 0.5 169.727 0.528 169.927 0.551999C170.127 0.575999 170.311 0.588 170.479 0.588L169.015 0.719999V0.372ZM186.705 0.599999V9H185.925V0.599999H186.705ZM181.017 0.599999V9H180.237V0.599999H181.017ZM186.033 4.668V5.028H180.897V4.668H186.033ZM180.273 8.124V9H179.313V8.88C179.313 8.88 179.337 8.88 179.385 8.88C179.441 8.88 179.469 8.88 179.469 8.88C179.677 8.88 179.853 8.808 179.997 8.664C180.149 8.512 180.229 8.332 180.237 8.124H180.273ZM180.273 1.476H180.237C180.229 1.268 180.149 1.092 179.997 0.948C179.853 0.796 179.677 0.719999 179.469 0.719999C179.469 0.719999 179.441 0.719999 179.385 0.719999C179.337 0.719999 179.313 0.719999 179.313 0.719999V0.599999H180.273V1.476ZM180.981 8.124H181.017C181.025 8.332 181.101 8.512 181.245 8.664C181.397 8.808 181.577 8.88 181.785 8.88C181.785 8.88 181.809 8.88 181.857 8.88C181.905 8.88 181.933 8.88 181.941 8.88V9H180.981V8.124ZM180.981 1.476V0.599999H181.941V0.719999C181.933 0.719999 181.905 0.719999 181.857 0.719999C181.809 0.719999 181.785 0.719999 181.785 0.719999C181.577 0.719999 181.397 0.796 181.245 0.948C181.101 1.092 181.025 1.268 181.017 1.476H180.981ZM185.961 8.124V9H185.001V8.88C185.009 8.88 185.037 8.88 185.085 8.88C185.133 8.88 185.157 8.88 185.157 8.88C185.365 8.88 185.545 8.808 185.697 8.664C185.849 8.512 185.925 8.332 185.925 8.124H185.961ZM185.961 1.476H185.925C185.925 1.268 185.849 1.092 185.697 0.948C185.545 0.796 185.365 0.719999 185.157 0.719999C185.157 0.719999 185.133 0.719999 185.085 0.719999C185.037 0.719999 185.009 0.719999 185.001 0.719999V0.599999H185.961V1.476ZM186.669 8.124H186.705C186.713 8.332 186.789 8.512 186.933 8.664C187.085 8.808 187.265 8.88 187.473 8.88C187.473 8.88 187.497 8.88 187.545 8.88C187.601 8.88 187.629 8.88 187.629 8.88V9H186.669V8.124ZM186.669 1.476V0.599999H187.629V0.719999C187.629 0.719999 187.601 0.719999 187.545 0.719999C187.497 0.719999 187.473 0.719999 187.473 0.719999C187.265 0.719999 187.085 0.796 186.933 0.948C186.789 1.092 186.713 1.268 186.705 1.476H186.669ZM205.047 0.431999L205.143 1.236L202.131 7.944C202.131 7.944 202.099 8.012 202.035 8.148C201.979 8.284 201.919 8.448 201.855 8.64C201.791 8.824 201.747 9 201.723 9.168H201.603L201.435 8.412L205.047 0.431999ZM197.667 8.124V9H196.335V8.88C196.343 8.88 196.375 8.88 196.431 8.88C196.495 8.88 196.527 8.88 196.527 8.88C196.743 8.88 196.935 8.816 197.103 8.688C197.271 8.552 197.371 8.364 197.403 8.124H197.667ZM198.015 8.316C198.015 8.324 198.015 8.332 198.015 8.34C198.015 8.348 198.015 8.36 198.015 8.376C198.015 8.504 198.059 8.624 198.147 8.736C198.243 8.84 198.355 8.892 198.483 8.892H198.663V9H197.931V8.316H198.015ZM198.303 0.431999H198.423L198.663 1.14L197.955 9H197.307L198.303 0.431999ZM198.423 0.431999L201.879 7.908L201.603 9.168L198.195 1.776L198.423 0.431999ZM205.155 0.431999L206.187 9H205.251L204.591 1.728L205.047 0.431999H205.155ZM205.827 8.124H206.079C206.119 8.364 206.223 8.552 206.391 8.688C206.559 8.816 206.747 8.88 206.955 8.88C206.955 8.88 206.987 8.88 207.051 8.88C207.115 8.88 207.147 8.88 207.147 8.88V9H205.827V8.124ZM205.191 8.316H205.275V9H204.543V8.892H204.723C204.859 8.892 204.971 8.84 205.059 8.736C205.147 8.624 205.191 8.504 205.191 8.376C205.191 8.36 205.191 8.348 205.191 8.34C205.191 8.332 205.191 8.324 205.191 8.316ZM214.031 0.431999L217.583 8.928H216.563L213.791 1.572L214.031 0.431999ZM211.451 8.124C211.395 8.284 211.387 8.42 211.427 8.532C211.467 8.644 211.531 8.732 211.619 8.796C211.715 8.852 211.811 8.88 211.907 8.88H212.015V9H209.603V8.88C209.603 8.88 209.623 8.88 209.663 8.88C209.695 8.88 209.711 8.88 209.711 8.88C209.895 8.88 210.083 8.824 210.275 8.712C210.475 8.592 210.639 8.396 210.767 8.124H211.451ZM214.031 0.431999L214.139 1.272L211.127 8.964H210.407L213.479 1.668C213.479 1.668 213.499 1.62 213.539 1.524C213.587 1.42 213.639 1.296 213.695 1.152C213.759 1.008 213.811 0.868 213.851 0.732C213.899 0.596 213.923 0.496 213.923 0.431999H214.031ZM215.723 5.724V6.084H211.967V5.724H215.723ZM216.263 8.124H217.247C217.367 8.396 217.527 8.592 217.727 8.712C217.927 8.824 218.119 8.88 218.303 8.88C218.303 8.88 218.319 8.88 218.351 8.88C218.383 8.88 218.399 8.88 218.399 8.88V9H215.699V8.88H215.807C215.959 8.88 216.095 8.816 216.215 8.688C216.335 8.552 216.351 8.364 216.263 8.124ZM223.678 0.431999C223.806 0.431999 223.942 0.44 224.086 0.456C224.238 0.472 224.382 0.496 224.518 0.528C224.662 0.552 224.79 0.58 224.902 0.611999C225.022 0.635999 225.114 0.664 225.178 0.696V2.028H225.07C225.07 1.644 224.938 1.344 224.674 1.128C224.41 0.904 224.09 0.792 223.714 0.792C223.274 0.792 222.918 0.932 222.646 1.212C222.374 1.484 222.238 1.804 222.238 2.172C222.238 2.324 222.27 2.504 222.334 2.712C222.406 2.912 222.534 3.1 222.718 3.276L225.082 5.46C225.322 5.684 225.482 5.924 225.562 6.18C225.642 6.436 225.682 6.684 225.682 6.924C225.682 7.588 225.478 8.128 225.07 8.544C224.67 8.96 224.126 9.168 223.438 9.168C223.246 9.168 223.018 9.148 222.754 9.108C222.498 9.068 222.246 9 221.998 8.904C221.758 8.8 221.558 8.668 221.398 8.508C221.374 8.38 221.362 8.22 221.362 8.028C221.362 7.836 221.378 7.636 221.41 7.428C221.442 7.212 221.486 7.016 221.542 6.84H221.65C221.61 7.248 221.662 7.604 221.806 7.908C221.95 8.212 222.158 8.444 222.43 8.604C222.71 8.756 223.026 8.824 223.378 8.808C223.818 8.784 224.194 8.632 224.506 8.352C224.826 8.064 224.986 7.68 224.986 7.2C224.986 6.968 224.946 6.76 224.866 6.576C224.786 6.384 224.67 6.22 224.518 6.084L222.214 3.948C221.974 3.724 221.806 3.48 221.71 3.216C221.614 2.944 221.566 2.692 221.566 2.46C221.566 2.124 221.646 1.8 221.806 1.488C221.966 1.176 222.202 0.924 222.514 0.732C222.834 0.532 223.222 0.431999 223.678 0.431999ZM225.178 0.551999V0.804H224.266V0.551999H225.178ZM232.865 0.636V9H232.085V0.636H232.865ZM235.949 0.588V0.948H229.001V0.588H235.949ZM235.949 0.912V1.884L235.829 1.872V1.668C235.829 1.468 235.757 1.3 235.613 1.164C235.477 1.028 235.313 0.956 235.121 0.948V0.912H235.949ZM235.949 0.372V0.719999L234.485 0.588C234.661 0.588 234.845 0.575999 235.037 0.551999C235.237 0.528 235.421 0.5 235.589 0.468C235.757 0.436 235.877 0.404 235.949 0.372ZM232.121 8.124V9H231.161V8.88C231.161 8.88 231.185 8.88 231.233 8.88C231.289 8.88 231.317 8.88 231.317 8.88C231.525 8.88 231.701 8.808 231.845 8.664C231.997 8.512 232.077 8.332 232.085 8.124H232.121ZM232.829 8.124H232.865C232.873 8.332 232.949 8.512 233.093 8.664C233.245 8.808 233.425 8.88 233.633 8.88C233.633 8.88 233.657 8.88 233.705 8.88C233.761 8.88 233.789 8.88 233.789 8.88V9H232.829V8.124ZM229.829 0.912V0.948C229.629 0.956 229.461 1.028 229.325 1.164C229.189 1.3 229.121 1.468 229.121 1.668V1.872L229.001 1.884V0.912H229.829ZM229.001 0.372C229.081 0.404 229.201 0.436 229.361 0.468C229.529 0.5 229.713 0.528 229.913 0.551999C230.113 0.575999 230.297 0.588 230.465 0.588L229.001 0.719999V0.372ZM241.003 0.599999V9H240.223V0.599999H241.003ZM244.243 8.628V9H240.967V8.628H244.243ZM243.727 4.68V5.04H240.967V4.68H243.727ZM244.243 0.599999V0.972H240.967V0.599999H244.243ZM244.975 7.056L244.279 9H242.287L242.719 8.628C243.143 8.628 243.487 8.564 243.751 8.436C244.023 8.3 244.243 8.112 244.411 7.872C244.579 7.632 244.727 7.36 244.855 7.056H244.975ZM243.727 5.016V5.808H243.607V5.628C243.607 5.468 243.551 5.332 243.439 5.22C243.327 5.1 243.191 5.04 243.031 5.04V5.016H243.727ZM243.727 3.912V4.704H243.031V4.68C243.191 4.672 243.327 4.612 243.439 4.5C243.551 4.38 243.607 4.24 243.607 4.08V3.912H243.727ZM244.243 0.935999V1.896H244.123V1.68C244.123 1.488 244.055 1.324 243.919 1.188C243.783 1.044 243.615 0.968 243.415 0.96V0.935999H244.243ZM244.243 0.383999V0.732L242.779 0.599999C242.955 0.599999 243.139 0.588 243.331 0.564C243.531 0.54 243.715 0.512 243.883 0.48C244.051 0.447999 244.171 0.415999 244.243 0.383999ZM240.259 8.124V9H239.299V8.88C239.299 8.88 239.323 8.88 239.371 8.88C239.427 8.88 239.455 8.88 239.455 8.88C239.663 8.88 239.839 8.808 239.983 8.664C240.135 8.512 240.215 8.332 240.223 8.124H240.259ZM240.259 1.476H240.223C240.223 1.268 240.147 1.092 239.995 0.948C239.843 0.796 239.663 0.719999 239.455 0.719999C239.455 0.719999 239.431 0.719999 239.383 0.719999C239.335 0.719999 239.311 0.719999 239.311 0.719999L239.299 0.599999H240.259V1.476ZM250.056 0.599999H251.748C252.108 0.599999 252.432 0.651999 252.72 0.756C253.016 0.86 253.264 1.012 253.464 1.212C253.664 1.404 253.816 1.64 253.92 1.92C254.032 2.192 254.088 2.504 254.088 2.856C254.088 3.24 253.996 3.608 253.812 3.96C253.636 4.312 253.392 4.6 253.08 4.824C252.776 5.04 252.432 5.148 252.048 5.148C252.184 5.204 252.332 5.32 252.492 5.496C252.652 5.664 252.792 5.828 252.912 5.988C252.912 5.988 252.964 6.068 253.068 6.228C253.18 6.38 253.316 6.568 253.476 6.792C253.644 7.016 253.812 7.236 253.98 7.452C254.148 7.668 254.292 7.84 254.412 7.968C254.572 8.144 254.732 8.3 254.892 8.436C255.052 8.572 255.224 8.68 255.408 8.76C255.6 8.84 255.812 8.88 256.044 8.88V9H255.384C255.016 9 254.696 8.944 254.424 8.832C254.16 8.72 253.936 8.584 253.752 8.424C253.568 8.256 253.412 8.096 253.284 7.944C253.26 7.912 253.192 7.82 253.08 7.668C252.976 7.516 252.848 7.336 252.696 7.128C252.552 6.912 252.408 6.7 252.264 6.492C252.12 6.284 251.996 6.108 251.892 5.964C251.788 5.812 251.728 5.724 251.712 5.7C251.56 5.5 251.392 5.316 251.208 5.148C251.024 4.98 250.824 4.896 250.608 4.896V4.776C250.608 4.776 250.668 4.78 250.788 4.788C250.916 4.788 251.068 4.784 251.244 4.776C251.452 4.768 251.68 4.736 251.928 4.68C252.176 4.624 252.408 4.508 252.624 4.332C252.84 4.156 253.004 3.888 253.116 3.528C253.14 3.44 253.16 3.332 253.176 3.204C253.192 3.068 253.196 2.936 253.188 2.808C253.18 2.264 253.04 1.832 252.768 1.512C252.504 1.184 252.148 1.008 251.7 0.983999C251.476 0.968 251.244 0.964 251.004 0.972C250.772 0.972 250.576 0.972 250.416 0.972C250.256 0.972 250.176 0.972 250.176 0.972C250.176 0.964 250.164 0.932 250.14 0.875999C250.124 0.811999 250.104 0.751999 250.08 0.696C250.064 0.631999 250.056 0.599999 250.056 0.599999ZM250.212 0.599999V9H249.432V0.599999H250.212ZM249.468 8.124V9H248.508V8.88C248.508 8.88 248.532 8.88 248.58 8.88C248.636 8.88 248.664 8.88 248.664 8.88C248.872 8.88 249.048 8.808 249.192 8.664C249.344 8.512 249.424 8.332 249.432 8.124H249.468ZM249.468 1.476H249.432C249.424 1.268 249.344 1.092 249.192 0.948C249.048 0.796 248.872 0.719999 248.664 0.719999C248.664 0.719999 248.636 0.719999 248.58 0.719999C248.532 0.719999 248.508 0.719999 248.508 0.719999V0.599999H249.468V1.476ZM250.176 8.124H250.212C250.212 8.332 250.288 8.512 250.44 8.664C250.592 8.808 250.772 8.88 250.98 8.88C250.98 8.88 251.004 8.88 251.052 8.88C251.1 8.88 251.124 8.88 251.124 8.88V9H250.176V8.124Z" fill="#616161"/>
</svg>
