<svg width="64" height="13" viewBox="0 0 64 13" fill="none" xmlns="http://www.w3.org/2000/svg">
<path d="M11.856 0.575999L11.984 1.648L7.968 10.592C7.968 10.592 7.92533 10.6827 7.84 10.864C7.76533 11.0453 7.68533 11.264 7.6 11.52C7.51467 11.7653 7.456 12 7.424 12.224H7.264L7.04 11.216L11.856 0.575999ZM2.016 10.832V12H0.24V11.84C0.250667 11.84 0.293333 11.84 0.368 11.84C0.453333 11.84 0.496 11.84 0.496 11.84C0.784 11.84 1.04 11.7547 1.264 11.584C1.488 11.4027 1.62133 11.152 1.664 10.832H2.016ZM2.48 11.088C2.48 11.0987 2.48 11.1093 2.48 11.12C2.48 11.1307 2.48 11.1467 2.48 11.168C2.48 11.3387 2.53867 11.4987 2.656 11.648C2.784 11.7867 2.93333 11.856 3.104 11.856H3.344V12H2.368V11.088H2.48ZM2.864 0.575999H3.024L3.344 1.52L2.4 12H1.536L2.864 0.575999ZM3.024 0.575999L7.632 10.544L7.264 12.224L2.72 2.368L3.024 0.575999ZM12 0.575999L13.376 12H12.128L11.248 2.304L11.856 0.575999H12ZM12.896 10.832H13.232C13.2853 11.152 13.424 11.4027 13.648 11.584C13.872 11.7547 14.1227 11.84 14.4 11.84C14.4 11.84 14.4427 11.84 14.528 11.84C14.6133 11.84 14.656 11.84 14.656 11.84V12H12.896V10.832ZM12.048 11.088H12.16V12H11.184V11.856H11.424C11.6053 11.856 11.7547 11.7867 11.872 11.648C11.9893 11.4987 12.048 11.3387 12.048 11.168C12.048 11.1467 12.048 11.1307 12.048 11.12C12.048 11.1093 12.048 11.0987 12.048 11.088ZM20.6346 0.575999L25.3706 11.904H24.0106L20.3146 2.096L20.6346 0.575999ZM17.1946 10.832C17.12 11.0453 17.1093 11.2267 17.1626 11.376C17.216 11.5253 17.3013 11.6427 17.4186 11.728C17.5466 11.8027 17.6746 11.84 17.8026 11.84H17.9466V12H14.7306V11.84C14.7306 11.84 14.7573 11.84 14.8106 11.84C14.8533 11.84 14.8746 11.84 14.8746 11.84C15.12 11.84 15.3706 11.7653 15.6266 11.616C15.8933 11.456 16.112 11.1947 16.2826 10.832H17.1946ZM20.6346 0.575999L20.7786 1.696L16.7626 11.952H15.8026L19.8986 2.224C19.8986 2.224 19.9253 2.16 19.9786 2.032C20.0426 1.89333 20.112 1.728 20.1866 1.536C20.272 1.344 20.3413 1.15733 20.3946 0.976C20.4586 0.794666 20.4906 0.661333 20.4906 0.575999H20.6346ZM22.8906 7.632V8.112H17.8826V7.632H22.8906ZM23.6106 10.832H24.9226C25.0826 11.1947 25.296 11.456 25.5626 11.616C25.8293 11.7653 26.0853 11.84 26.3306 11.84C26.3306 11.84 26.352 11.84 26.3946 11.84C26.4373 11.84 26.4586 11.84 26.4586 11.84V12H22.8586V11.84H23.0026C23.2053 11.84 23.3866 11.7547 23.5466 11.584C23.7066 11.4027 23.728 11.152 23.6106 10.832ZM30.2973 0.575999C30.4679 0.575999 30.6493 0.586666 30.8413 0.608C31.0439 0.629333 31.2359 0.661333 31.4173 0.704C31.6093 0.736 31.7799 0.773333 31.9293 0.815999C32.0893 0.847999 32.2119 0.885333 32.2973 0.927999V2.704H32.1533C32.1533 2.192 31.9773 1.792 31.6253 1.504C31.2733 1.20533 30.8466 1.056 30.3453 1.056C29.7586 1.056 29.2839 1.24267 28.9213 1.616C28.5586 1.97867 28.3773 2.40533 28.3773 2.896C28.3773 3.09867 28.4199 3.33867 28.5053 3.616C28.6013 3.88267 28.7719 4.13333 29.0173 4.368L32.1693 7.28C32.4893 7.57867 32.7026 7.89867 32.8093 8.24C32.9159 8.58133 32.9693 8.912 32.9693 9.232C32.9693 10.1173 32.6973 10.8373 32.1533 11.392C31.6199 11.9467 30.8946 12.224 29.9773 12.224C29.7213 12.224 29.4173 12.1973 29.0653 12.144C28.7239 12.0907 28.3879 12 28.0573 11.872C27.7373 11.7333 27.4706 11.5573 27.2573 11.344C27.2253 11.1733 27.2093 10.96 27.2093 10.704C27.2093 10.448 27.2306 10.1813 27.2733 9.904C27.3159 9.616 27.3746 9.35467 27.4493 9.12H27.5933C27.5399 9.664 27.6093 10.1387 27.8013 10.544C27.9933 10.9493 28.2706 11.2587 28.6332 11.472C29.0066 11.6747 29.4279 11.7653 29.8973 11.744C30.4839 11.712 30.9853 11.5093 31.4013 11.136C31.8279 10.752 32.0413 10.24 32.0413 9.6C32.0413 9.29067 31.9879 9.01333 31.8813 8.768C31.7746 8.512 31.6199 8.29333 31.4173 8.112L28.3453 5.264C28.0253 4.96533 27.8013 4.64 27.6733 4.288C27.5453 3.92533 27.4813 3.58933 27.4813 3.28C27.4813 2.832 27.5879 2.4 27.8013 1.984C28.0146 1.568 28.3293 1.232 28.7453 0.976C29.1719 0.709333 29.6893 0.575999 30.2973 0.575999ZM32.2973 0.735999V1.072H31.0813V0.735999H32.2973ZM39.347 0.848V12H38.307V0.848H39.347ZM43.459 0.783999V1.264H34.195V0.783999H43.459ZM43.459 1.216V2.512L43.299 2.496V2.224C43.299 1.95733 43.203 1.73333 43.011 1.552C42.8297 1.37067 42.611 1.27467 42.355 1.264V1.216H43.459ZM43.459 0.495999V0.959999L41.507 0.783999C41.7417 0.783999 41.987 0.767999 42.243 0.735999C42.5097 0.704 42.755 0.666666 42.979 0.624C43.203 0.581333 43.363 0.538666 43.459 0.495999ZM38.355 10.832V12H37.075V11.84C37.075 11.84 37.107 11.84 37.171 11.84C37.2457 11.84 37.283 11.84 37.283 11.84C37.5603 11.84 37.795 11.744 37.987 11.552C38.1897 11.3493 38.2963 11.1093 38.307 10.832H38.355ZM39.299 10.832H39.347C39.3577 11.1093 39.459 11.3493 39.651 11.552C39.8537 11.744 40.0937 11.84 40.371 11.84C40.371 11.84 40.403 11.84 40.467 11.84C40.5417 11.84 40.579 11.84 40.579 11.84V12H39.299V10.832ZM35.299 1.216V1.264C35.0323 1.27467 34.8083 1.37067 34.627 1.552C34.4457 1.73333 34.355 1.95733 34.355 2.224V2.496L34.195 2.512V1.216H35.299ZM34.195 0.495999C34.3017 0.538666 34.4617 0.581333 34.675 0.624C34.899 0.666666 35.1443 0.704 35.411 0.735999C35.6777 0.767999 35.923 0.783999 36.147 0.783999L34.195 0.959999V0.495999ZM46.9976 0.799999V12H45.9576V0.799999H46.9976ZM51.3176 11.504V12H46.9496V11.504H51.3176ZM50.6296 6.24V6.72H46.9496V6.24H50.6296ZM51.3176 0.799999V1.296H46.9496V0.799999H51.3176ZM52.2936 9.408L51.3656 12H48.7096L49.2856 11.504C49.851 11.504 50.3096 11.4187 50.6616 11.248C51.0243 11.0667 51.3176 10.816 51.5416 10.496C51.7656 10.176 51.963 9.81333 52.1336 9.408H52.2936ZM50.6296 6.688V7.744H50.4696V7.504C50.4696 7.29067 50.395 7.10933 50.2456 6.96C50.0963 6.8 49.915 6.72 49.7016 6.72V6.688H50.6296ZM50.6296 5.216V6.272H49.7016V6.24C49.915 6.22933 50.0963 6.14933 50.2456 6C50.395 5.84 50.4696 5.65333 50.4696 5.44V5.216H50.6296ZM51.3176 1.248V2.528H51.1576V2.24C51.1576 1.984 51.067 1.76533 50.8856 1.584C50.7043 1.392 50.4803 1.29067 50.2136 1.28V1.248H51.3176ZM51.3176 0.511999V0.976L49.3656 0.799999C49.6003 0.799999 49.8456 0.783999 50.1016 0.752C50.3683 0.72 50.6136 0.682666 50.8376 0.639999C51.0616 0.597333 51.2216 0.554666 51.3176 0.511999ZM46.0056 10.832V12H44.7256V11.84C44.7256 11.84 44.7576 11.84 44.8216 11.84C44.8963 11.84 44.9336 11.84 44.9336 11.84C45.211 11.84 45.4456 11.744 45.6376 11.552C45.8403 11.3493 45.947 11.1093 45.9576 10.832H46.0056ZM46.0056 1.968H45.9576C45.9576 1.69067 45.8563 1.456 45.6536 1.264C45.451 1.06133 45.211 0.959999 44.9336 0.959999C44.9336 0.959999 44.9016 0.959999 44.8376 0.959999C44.7736 0.959999 44.7416 0.959999 44.7416 0.959999L44.7256 0.799999H46.0056V1.968ZM55.8678 0.799999H58.1238C58.6038 0.799999 59.0358 0.869333 59.4198 1.008C59.8144 1.14667 60.1451 1.34933 60.4118 1.616C60.6784 1.872 60.8811 2.18667 61.0198 2.56C61.1691 2.92267 61.2438 3.33867 61.2438 3.808C61.2438 4.32 61.1211 4.81067 60.8758 5.28C60.6411 5.74933 60.3158 6.13333 59.8998 6.432C59.4944 6.72 59.0358 6.864 58.5238 6.864C58.7051 6.93867 58.9024 7.09333 59.1158 7.328C59.3291 7.552 59.5158 7.77067 59.6758 7.984C59.6758 7.984 59.7451 8.09067 59.8838 8.304C60.0331 8.50667 60.2144 8.75733 60.4278 9.056C60.6518 9.35467 60.8758 9.648 61.0998 9.936C61.3238 10.224 61.5158 10.4533 61.6758 10.624C61.8891 10.8587 62.1024 11.0667 62.3158 11.248C62.5291 11.4293 62.7584 11.5733 63.0038 11.68C63.2598 11.7867 63.5424 11.84 63.8518 11.84V12H62.9718C62.4811 12 62.0544 11.9253 61.6918 11.776C61.3398 11.6267 61.0411 11.4453 60.7958 11.232C60.5504 11.008 60.3424 10.7947 60.1718 10.592C60.1398 10.5493 60.0491 10.4267 59.8998 10.224C59.7611 10.0213 59.5904 9.78133 59.3878 9.504C59.1958 9.216 59.0038 8.93333 58.8118 8.656C58.6198 8.37867 58.4544 8.144 58.3158 7.952C58.1771 7.74933 58.0971 7.632 58.0758 7.6C57.8731 7.33333 57.6491 7.088 57.4038 6.864C57.1584 6.64 56.8918 6.528 56.6038 6.528V6.368C56.6038 6.368 56.6838 6.37333 56.8438 6.384C57.0144 6.384 57.2171 6.37867 57.4518 6.368C57.7291 6.35733 58.0331 6.31467 58.3638 6.24C58.6944 6.16533 59.0038 6.01067 59.2918 5.776C59.5798 5.54133 59.7984 5.184 59.9478 4.704C59.9798 4.58667 60.0064 4.44267 60.0278 4.272C60.0491 4.09067 60.0544 3.91467 60.0438 3.744C60.0331 3.01867 59.8464 2.44267 59.4838 2.016C59.1318 1.57867 58.6571 1.344 58.0598 1.312C57.7611 1.29067 57.4518 1.28533 57.1318 1.296C56.8224 1.296 56.5611 1.296 56.3478 1.296C56.1344 1.296 56.0278 1.296 56.0278 1.296C56.0278 1.28533 56.0118 1.24267 55.9798 1.168C55.9584 1.08267 55.9318 1.00267 55.8998 0.927999C55.8784 0.842666 55.8678 0.799999 55.8678 0.799999ZM56.0758 0.799999V12H55.0358V0.799999H56.0758ZM55.0838 10.832V12H53.8038V11.84C53.8038 11.84 53.8358 11.84 53.8997 11.84C53.9744 11.84 54.0118 11.84 54.0118 11.84C54.2891 11.84 54.5238 11.744 54.7158 11.552C54.9184 11.3493 55.0251 11.1093 55.0358 10.832H55.0838ZM55.0838 1.968H55.0358C55.0251 1.69067 54.9184 1.456 54.7158 1.264C54.5238 1.06133 54.2891 0.959999 54.0118 0.959999C54.0118 0.959999 53.9744 0.959999 53.8997 0.959999C53.8358 0.959999 53.8038 0.959999 53.8038 0.959999V0.799999H55.0838V1.968ZM56.0278 10.832H56.0758C56.0758 11.1093 56.1771 11.3493 56.3798 11.552C56.5824 11.744 56.8224 11.84 57.0998 11.84C57.0998 11.84 57.1318 11.84 57.1958 11.84C57.2598 11.84 57.2918 11.84 57.2918 11.84V12H56.0278V10.832Z" fill="#616161"/>
</svg>
