<svg width="325" height="47" viewBox="0 0 325 47" fill="none" xmlns="http://www.w3.org/2000/svg">
<mask id="path-1-outside-1_499_2591" maskUnits="userSpaceOnUse" x="0.171875" y="0" width="325" height="47" fill="black">
<rect fill="white" x="0.171875" width="325" height="47"/>
<path d="M19.9805 4.28506L19.9805 44.9981H16.1837L16.1837 4.28506L19.9805 4.28506ZM34.9923 4.05141V5.80377L1.17188 5.80377L1.17188 4.05141L34.9923 4.05141ZM34.9923 5.62853V10.3599L34.4082 10.3015V9.30847C34.4082 8.33494 34.0577 7.51718 33.3568 6.85518C32.6948 6.19318 31.8965 5.84271 30.9619 5.80377V5.62853H34.9923ZM34.9923 3V4.69394L27.8661 4.05141C28.7228 4.05141 29.6184 3.993 30.553 3.87618C31.5265 3.75935 32.4222 3.62306 33.2399 3.46729C34.0577 3.31153 34.6418 3.15577 34.9923 3ZM16.3589 40.734V44.9981H11.686V44.4139C11.686 44.4139 11.8028 44.4139 12.0365 44.4139C12.3091 44.4139 12.4453 44.4139 12.4453 44.4139C13.4578 44.4139 14.3145 44.0635 15.0155 43.3625C15.7553 42.6227 16.1448 41.7465 16.1837 40.734H16.3589ZM19.8052 40.734H19.9805C20.0194 41.7465 20.3893 42.6227 21.0903 43.3625C21.8302 44.0635 22.7063 44.4139 23.7188 44.4139C23.7188 44.4139 23.8356 44.4139 24.0693 44.4139C24.3419 44.4139 24.4782 44.4139 24.4782 44.4139V44.9981L19.8052 44.9981V40.734ZM5.20229 5.62853L5.20229 5.80377C4.22876 5.84271 3.41099 6.19318 2.74899 6.85518C2.08699 7.51718 1.75599 8.33494 1.75599 9.30847L1.75599 10.3015L1.17188 10.3599L1.17188 5.62853H5.20229ZM1.17188 3C1.56129 3.15577 2.1454 3.31153 2.92423 3.46729C3.74199 3.62306 4.63764 3.75935 5.61117 3.87618C6.5847 3.993 7.48035 4.05141 8.29811 4.05141L1.17188 4.69394L1.17188 3Z"/>
<path d="M52.9744 3.29206L70.2643 44.6476L65.2993 44.6476L51.8062 8.84118L52.9744 3.29206ZM40.4159 40.734C40.1433 41.5128 40.1044 42.1748 40.2991 42.72C40.4938 43.2652 40.8053 43.6935 41.2337 44.0051C41.701 44.2777 42.1683 44.4139 42.6356 44.4139H43.1613V44.9981H31.4205V44.4139C31.4205 44.4139 31.5179 44.4139 31.7126 44.4139C31.8683 44.4139 31.9462 44.4139 31.9462 44.4139C32.8419 44.4139 33.757 44.1414 34.6916 43.5962C35.6651 43.0121 36.4634 42.058 37.0864 40.734H40.4159ZM52.9744 3.29206L53.5001 7.38088L38.8388 44.8228H35.3341L50.2875 9.30847C50.2875 9.30847 50.3849 9.07483 50.5796 8.60753C50.8132 8.10129 51.0663 7.49771 51.3389 6.79676C51.6504 6.09582 51.9036 5.41435 52.0983 4.75236C52.3319 4.09035 52.4487 3.60359 52.4487 3.29206H52.9744ZM61.2105 29.0517V30.804L42.9276 30.804V29.0517L61.2105 29.0517ZM63.839 40.734L68.6288 40.734C69.2129 42.058 69.9917 43.0121 70.9653 43.5962C71.9388 44.1414 72.8734 44.4139 73.769 44.4139C73.769 44.4139 73.8469 44.4139 74.0027 44.4139C74.1584 44.4139 74.2363 44.4139 74.2363 44.4139V44.9981L61.0937 44.9981V44.4139H61.6194C62.3593 44.4139 63.0213 44.1024 63.6054 43.4794C64.1895 42.8174 64.2674 41.9022 63.839 40.734Z"/>
<path d="M85.3879 4.10982V44.9981H81.5912V4.10982L85.3879 4.10982ZM101.159 43.1873V44.9981H85.2127V43.1873H101.159ZM104.722 35.5354L101.334 44.9981H91.638L93.7408 43.1873C95.8047 43.1873 97.4792 42.8758 98.7642 42.2527C100.088 41.5907 101.159 40.6756 101.977 39.5074C102.795 38.3391 103.515 37.0151 104.138 35.5354H104.722ZM81.7664 40.734V44.9981H77.0935V44.4139C77.0935 44.4139 77.2103 44.4139 77.4439 44.4139C77.7165 44.4139 77.8528 44.4139 77.8528 44.4139C78.8653 44.4139 79.722 44.0635 80.4229 43.3625C81.1628 42.6227 81.5522 41.7465 81.5912 40.734H81.7664ZM81.7664 8.37388H81.5912C81.5522 7.36141 81.1628 6.50471 80.4229 5.80377C79.722 5.06388 78.8653 4.69394 77.8528 4.69394C77.8528 4.69394 77.7165 4.69394 77.4439 4.69394C77.2103 4.69394 77.0935 4.69394 77.0935 4.69394V4.10982H81.7664V8.37388ZM85.2127 8.37388V4.10982L89.8857 4.10982V4.69394C89.8467 4.69394 89.7104 4.69394 89.4768 4.69394C89.2431 4.69394 89.1263 4.69394 89.1263 4.69394C88.1138 4.69394 87.2377 5.06388 86.4978 5.80377C85.7968 6.50471 85.4269 7.36141 85.3879 8.37388H85.2127Z"/>
<path d="M122.414 22.5095L139.003 42.0191C139.82 42.7979 140.638 43.382 141.456 43.7714C142.313 44.1608 143.345 44.375 144.552 44.4139V44.9981H142.04C141.651 44.9981 141.086 44.9786 140.346 44.9397C139.645 44.8618 138.866 44.7255 138.01 44.5308C137.192 44.2971 136.355 43.9661 135.498 43.5378C134.68 43.0705 133.94 42.4474 133.278 41.6686C133.278 41.6686 132.928 41.2597 132.227 40.4419C131.565 39.6242 130.689 38.5728 129.598 37.2877C128.547 36.0026 127.418 34.6397 126.21 33.1989C125.042 31.7191 123.913 30.3367 122.823 29.0517C121.771 27.7666 120.895 26.7152 120.194 25.8974C119.532 25.0797 119.201 24.6708 119.201 24.6708L122.414 22.5095ZM139.295 4.51871L121.83 24.6708H119.201L135.264 4.51871L139.295 4.51871ZM143.325 4.10982V4.63553H143.091C141.806 4.63553 140.599 4.88865 139.47 5.39488C138.38 5.90112 137.445 6.60206 136.666 7.49771L132.986 7.38088C133.492 6.71888 133.57 6.09582 133.22 5.51171C132.908 4.92759 132.363 4.63553 131.584 4.63553H131V4.10982L143.091 4.10982H143.325ZM117.332 4.10982V44.9981H113.535V4.10982L117.332 4.10982ZM113.71 40.734V44.9981L109.037 44.9981V44.4139C109.037 44.4139 109.154 44.4139 109.388 44.4139C109.66 44.4139 109.797 44.4139 109.797 44.4139C110.809 44.4139 111.666 44.0635 112.367 43.3625C113.107 42.6227 113.496 41.7465 113.535 40.734H113.71ZM113.71 8.37388H113.535C113.496 7.36141 113.107 6.50471 112.367 5.80377C111.666 5.06388 110.809 4.69394 109.797 4.69394C109.797 4.69394 109.66 4.69394 109.388 4.69394C109.154 4.69394 109.037 4.69394 109.037 4.69394V4.10982H113.71V8.37388ZM117.157 40.734H117.332C117.371 41.7465 117.741 42.6227 118.442 43.3625C119.182 44.0635 120.058 44.4139 121.07 44.4139C121.07 44.4139 121.187 44.4139 121.421 44.4139C121.654 44.4139 121.791 44.4139 121.83 44.4139V44.9981H117.157V40.734ZM117.157 8.37388V4.10982L121.83 4.10982V4.69394C121.791 4.69394 121.654 4.69394 121.421 4.69394C121.187 4.69394 121.07 4.69394 121.07 4.69394C120.058 4.69394 119.182 5.06388 118.442 5.80377C117.741 6.50471 117.371 7.36141 117.332 8.37388H117.157Z"/>
<path d="M158.584 3.29206C159.207 3.29206 159.869 3.331 160.57 3.40888C161.31 3.48677 162.011 3.60359 162.673 3.75935C163.374 3.87618 163.997 4.01247 164.542 4.16823C165.126 4.28506 165.574 4.42135 165.885 4.57712V11.0608H165.36C165.36 9.19165 164.717 7.73136 163.432 6.67994C162.147 5.58959 160.589 5.04441 158.759 5.04441C156.617 5.04441 154.884 5.72588 153.56 7.08882C152.236 8.41282 151.574 9.97047 151.574 11.7618C151.574 12.5016 151.73 13.3778 152.042 14.3903C152.392 15.3638 153.015 16.2789 153.911 17.1356L165.418 27.7666C166.586 28.8569 167.365 30.0252 167.754 31.2713C168.144 32.5174 168.339 33.7246 168.339 34.8928C168.339 38.1249 167.346 40.7535 165.36 42.7784C163.413 44.8034 160.765 45.8158 157.416 45.8158C156.481 45.8158 155.371 45.7185 154.086 45.5238C152.84 45.3291 151.613 44.9981 150.406 44.5308C149.238 44.0245 148.264 43.382 147.486 42.6032C147.369 41.9801 147.31 41.2013 147.31 40.2667C147.31 39.3321 147.388 38.3586 147.544 37.3461C147.7 36.2947 147.914 35.3406 148.187 34.4839H148.712C148.518 36.4699 148.771 38.2028 149.472 39.6826C150.173 41.1624 151.185 42.2916 152.509 43.0705C153.872 43.8104 155.41 44.1414 157.124 44.0635C159.265 43.9466 161.096 43.2068 162.614 41.8438C164.172 40.4419 164.951 38.5728 164.951 36.2363C164.951 35.107 164.756 34.0945 164.367 33.1989C163.977 32.2643 163.413 31.466 162.673 30.804L151.458 20.4067C150.289 19.3164 149.472 18.1286 149.004 16.8436C148.537 15.5196 148.303 14.2929 148.303 13.1636C148.303 11.5281 148.693 9.951 149.472 8.43229C150.25 6.91359 151.399 5.68694 152.918 4.75236C154.476 3.77882 156.364 3.29206 158.584 3.29206ZM165.885 3.87618V5.10283L161.446 5.10283V3.87618L165.885 3.87618Z"/>
<path d="M211.132 4.10982V44.9981H207.335V4.10982L211.132 4.10982ZM183.444 4.10982V44.9981H179.648V4.10982L183.444 4.10982ZM207.861 23.9114V25.6638L182.86 25.6638V23.9114L207.861 23.9114ZM179.823 40.734V44.9981H175.15V44.4139C175.15 44.4139 175.267 44.4139 175.5 44.4139C175.773 44.4139 175.909 44.4139 175.909 44.4139C176.922 44.4139 177.778 44.0635 178.479 43.3625C179.219 42.6227 179.609 41.7465 179.648 40.734H179.823ZM179.823 8.37388H179.648C179.609 7.36141 179.219 6.50471 178.479 5.80377C177.778 5.06388 176.922 4.69394 175.909 4.69394C175.909 4.69394 175.773 4.69394 175.5 4.69394C175.267 4.69394 175.15 4.69394 175.15 4.69394V4.10982H179.823V8.37388ZM183.269 40.734H183.444C183.483 41.7465 183.853 42.6227 184.554 43.3625C185.294 44.0635 186.17 44.4139 187.183 44.4139C187.183 44.4139 187.3 44.4139 187.533 44.4139C187.767 44.4139 187.903 44.4139 187.942 44.4139V44.9981H183.269V40.734ZM183.269 8.37388V4.10982L187.942 4.10982V4.69394C187.903 4.69394 187.767 4.69394 187.533 4.69394C187.3 4.69394 187.183 4.69394 187.183 4.69394C186.17 4.69394 185.294 5.06388 184.554 5.80377C183.853 6.50471 183.483 7.36141 183.444 8.37388H183.269ZM207.51 40.734V44.9981H202.837V44.4139C202.876 44.4139 203.012 44.4139 203.246 44.4139C203.48 44.4139 203.596 44.4139 203.596 44.4139C204.609 44.4139 205.485 44.0635 206.225 43.3625C206.965 42.6227 207.335 41.7465 207.335 40.734H207.51ZM207.51 8.37388H207.335C207.335 7.36141 206.965 6.50471 206.225 5.80377C205.485 5.06388 204.609 4.69394 203.596 4.69394C203.596 4.69394 203.48 4.69394 203.246 4.69394C203.012 4.69394 202.876 4.69394 202.837 4.69394V4.10982L207.51 4.10982V8.37388ZM210.956 40.734H211.132C211.171 41.7465 211.54 42.6227 212.241 43.3625C212.981 44.0635 213.857 44.4139 214.87 44.4139C214.87 44.4139 214.987 44.4139 215.22 44.4139C215.493 44.4139 215.629 44.4139 215.629 44.4139V44.9981H210.956V40.734ZM210.956 8.37388V4.10982L215.629 4.10982V4.69394C215.629 4.69394 215.493 4.69394 215.22 4.69394C214.987 4.69394 214.87 4.69394 214.87 4.69394C213.857 4.69394 212.981 5.06388 212.241 5.80377C211.54 6.50471 211.171 7.36141 211.132 8.37388H210.956Z"/>
<path d="M243.08 3.29206C247.246 3.29206 250.907 4.18771 254.061 5.979C257.215 7.73135 259.669 10.2041 261.421 13.3973C263.212 16.5905 264.108 20.3094 264.108 24.5539C264.108 28.7985 263.212 32.5174 261.421 35.7106C259.669 38.9038 257.215 41.396 254.061 43.1873C250.907 44.9397 247.246 45.8158 243.08 45.8158C238.952 45.8158 235.311 44.9397 232.157 43.1873C229.002 41.396 226.53 38.9038 224.738 35.7106C222.986 32.5174 222.11 28.7985 222.11 24.5539C222.11 20.3094 222.986 16.5905 224.738 13.3973C226.53 10.2041 229.002 7.73135 232.157 5.979C235.311 4.18771 238.952 3.29206 243.08 3.29206ZM243.08 44.0635C246.39 44.0635 249.271 43.2457 251.725 41.6102C254.217 39.9747 256.144 37.6966 257.507 34.776C258.909 31.8554 259.61 28.4481 259.61 24.5539C259.61 20.6598 258.909 17.2525 257.507 14.3319C256.144 11.4113 254.217 9.13324 251.725 7.49771C249.271 5.86218 246.39 5.04441 243.08 5.04441C239.809 5.04441 236.927 5.86218 234.435 7.49771C231.981 9.13324 230.054 11.4113 228.652 14.3319C227.289 17.2525 226.608 20.6598 226.608 24.5539C226.608 28.4481 227.289 31.8554 228.652 34.776C230.054 37.6966 231.981 39.9747 234.435 41.6102C236.927 43.2457 239.809 44.0635 243.08 44.0635Z"/>
<path d="M269.16 4.4603L273.892 4.4603L284.756 39.3321L283.763 45.699L269.16 4.4603ZM295.329 3.17524L295.796 7.90659L285.516 39.2153C285.516 39.2153 285.418 39.5658 285.224 40.2667C285.029 40.9287 284.834 41.7659 284.64 42.7784C284.445 43.7519 284.328 44.7255 284.289 45.699H283.763L282.712 40.5004L294.803 3.17524H295.329ZM295.329 3.23365L307.595 37.6382L306.31 45.699L293.343 9.54212L295.329 3.23365ZM319.044 4.4603L308.121 39.2153C308.121 39.2153 308.024 39.5658 307.829 40.2667C307.634 40.9676 307.42 41.8244 307.187 42.8368C306.992 43.8104 306.875 44.7644 306.836 45.699H306.31L305.609 39.9162L315.773 4.4603L319.044 4.4603ZM314.663 8.31547C314.975 7.14724 314.877 6.25159 314.371 5.62853C313.865 5.00547 313.222 4.69394 312.444 4.69394H311.918V4.10982L323.425 4.10982V4.69394C323.425 4.69394 323.347 4.69394 323.191 4.69394C323.036 4.69394 322.958 4.69394 322.958 4.69394C322.062 4.69394 321.089 4.986 320.037 5.57012C318.986 6.1153 318.246 7.03041 317.817 8.31547H314.663ZM275.118 8.31547L270.504 8.31547C270.037 7.03041 269.277 6.1153 268.226 5.57012C267.213 4.986 266.259 4.69394 265.364 4.69394C265.364 4.69394 265.286 4.69394 265.13 4.69394C264.974 4.69394 264.896 4.69394 264.896 4.69394V4.10982L277.864 4.10982V4.69394H277.338C276.598 4.69394 275.936 5.00547 275.352 5.62853C274.807 6.25159 274.729 7.14724 275.118 8.31547Z"/>
</mask>
<path d="M19.9805 4.28506L19.9805 44.9981H16.1837L16.1837 4.28506L19.9805 4.28506ZM34.9923 4.05141V5.80377L1.17188 5.80377L1.17188 4.05141L34.9923 4.05141ZM34.9923 5.62853V10.3599L34.4082 10.3015V9.30847C34.4082 8.33494 34.0577 7.51718 33.3568 6.85518C32.6948 6.19318 31.8965 5.84271 30.9619 5.80377V5.62853H34.9923ZM34.9923 3V4.69394L27.8661 4.05141C28.7228 4.05141 29.6184 3.993 30.553 3.87618C31.5265 3.75935 32.4222 3.62306 33.2399 3.46729C34.0577 3.31153 34.6418 3.15577 34.9923 3ZM16.3589 40.734V44.9981H11.686V44.4139C11.686 44.4139 11.8028 44.4139 12.0365 44.4139C12.3091 44.4139 12.4453 44.4139 12.4453 44.4139C13.4578 44.4139 14.3145 44.0635 15.0155 43.3625C15.7553 42.6227 16.1448 41.7465 16.1837 40.734H16.3589ZM19.8052 40.734H19.9805C20.0194 41.7465 20.3893 42.6227 21.0903 43.3625C21.8302 44.0635 22.7063 44.4139 23.7188 44.4139C23.7188 44.4139 23.8356 44.4139 24.0693 44.4139C24.3419 44.4139 24.4782 44.4139 24.4782 44.4139V44.9981L19.8052 44.9981V40.734ZM5.20229 5.62853L5.20229 5.80377C4.22876 5.84271 3.41099 6.19318 2.74899 6.85518C2.08699 7.51718 1.75599 8.33494 1.75599 9.30847L1.75599 10.3015L1.17188 10.3599L1.17188 5.62853H5.20229ZM1.17188 3C1.56129 3.15577 2.1454 3.31153 2.92423 3.46729C3.74199 3.62306 4.63764 3.75935 5.61117 3.87618C6.5847 3.993 7.48035 4.05141 8.29811 4.05141L1.17188 4.69394L1.17188 3Z" stroke="#E0E0E0" stroke-width="1.6" mask="url(#path-1-outside-1_499_2591)"/>
<path d="M52.9744 3.29206L70.2643 44.6476L65.2993 44.6476L51.8062 8.84118L52.9744 3.29206ZM40.4159 40.734C40.1433 41.5128 40.1044 42.1748 40.2991 42.72C40.4938 43.2652 40.8053 43.6935 41.2337 44.0051C41.701 44.2777 42.1683 44.4139 42.6356 44.4139H43.1613V44.9981H31.4205V44.4139C31.4205 44.4139 31.5179 44.4139 31.7126 44.4139C31.8683 44.4139 31.9462 44.4139 31.9462 44.4139C32.8419 44.4139 33.757 44.1414 34.6916 43.5962C35.6651 43.0121 36.4634 42.058 37.0864 40.734H40.4159ZM52.9744 3.29206L53.5001 7.38088L38.8388 44.8228H35.3341L50.2875 9.30847C50.2875 9.30847 50.3849 9.07483 50.5796 8.60753C50.8132 8.10129 51.0663 7.49771 51.3389 6.79676C51.6504 6.09582 51.9036 5.41435 52.0983 4.75236C52.3319 4.09035 52.4487 3.60359 52.4487 3.29206H52.9744ZM61.2105 29.0517V30.804L42.9276 30.804V29.0517L61.2105 29.0517ZM63.839 40.734L68.6288 40.734C69.2129 42.058 69.9917 43.0121 70.9653 43.5962C71.9388 44.1414 72.8734 44.4139 73.769 44.4139C73.769 44.4139 73.8469 44.4139 74.0027 44.4139C74.1584 44.4139 74.2363 44.4139 74.2363 44.4139V44.9981L61.0937 44.9981V44.4139H61.6194C62.3593 44.4139 63.0213 44.1024 63.6054 43.4794C64.1895 42.8174 64.2674 41.9022 63.839 40.734Z" stroke="#E0E0E0" stroke-width="1.6" mask="url(#path-1-outside-1_499_2591)"/>
<path d="M85.3879 4.10982V44.9981H81.5912V4.10982L85.3879 4.10982ZM101.159 43.1873V44.9981H85.2127V43.1873H101.159ZM104.722 35.5354L101.334 44.9981H91.638L93.7408 43.1873C95.8047 43.1873 97.4792 42.8758 98.7642 42.2527C100.088 41.5907 101.159 40.6756 101.977 39.5074C102.795 38.3391 103.515 37.0151 104.138 35.5354H104.722ZM81.7664 40.734V44.9981H77.0935V44.4139C77.0935 44.4139 77.2103 44.4139 77.4439 44.4139C77.7165 44.4139 77.8528 44.4139 77.8528 44.4139C78.8653 44.4139 79.722 44.0635 80.4229 43.3625C81.1628 42.6227 81.5522 41.7465 81.5912 40.734H81.7664ZM81.7664 8.37388H81.5912C81.5522 7.36141 81.1628 6.50471 80.4229 5.80377C79.722 5.06388 78.8653 4.69394 77.8528 4.69394C77.8528 4.69394 77.7165 4.69394 77.4439 4.69394C77.2103 4.69394 77.0935 4.69394 77.0935 4.69394V4.10982H81.7664V8.37388ZM85.2127 8.37388V4.10982L89.8857 4.10982V4.69394C89.8467 4.69394 89.7104 4.69394 89.4768 4.69394C89.2431 4.69394 89.1263 4.69394 89.1263 4.69394C88.1138 4.69394 87.2377 5.06388 86.4978 5.80377C85.7968 6.50471 85.4269 7.36141 85.3879 8.37388H85.2127Z" stroke="#E0E0E0" stroke-width="1.6" mask="url(#path-1-outside-1_499_2591)"/>
<path d="M122.414 22.5095L139.003 42.0191C139.82 42.7979 140.638 43.382 141.456 43.7714C142.313 44.1608 143.345 44.375 144.552 44.4139V44.9981H142.04C141.651 44.9981 141.086 44.9786 140.346 44.9397C139.645 44.8618 138.866 44.7255 138.01 44.5308C137.192 44.2971 136.355 43.9661 135.498 43.5378C134.68 43.0705 133.94 42.4474 133.278 41.6686C133.278 41.6686 132.928 41.2597 132.227 40.4419C131.565 39.6242 130.689 38.5728 129.598 37.2877C128.547 36.0026 127.418 34.6397 126.21 33.1989C125.042 31.7191 123.913 30.3367 122.823 29.0517C121.771 27.7666 120.895 26.7152 120.194 25.8974C119.532 25.0797 119.201 24.6708 119.201 24.6708L122.414 22.5095ZM139.295 4.51871L121.83 24.6708H119.201L135.264 4.51871L139.295 4.51871ZM143.325 4.10982V4.63553H143.091C141.806 4.63553 140.599 4.88865 139.47 5.39488C138.38 5.90112 137.445 6.60206 136.666 7.49771L132.986 7.38088C133.492 6.71888 133.57 6.09582 133.22 5.51171C132.908 4.92759 132.363 4.63553 131.584 4.63553H131V4.10982L143.091 4.10982H143.325ZM117.332 4.10982V44.9981H113.535V4.10982L117.332 4.10982ZM113.71 40.734V44.9981L109.037 44.9981V44.4139C109.037 44.4139 109.154 44.4139 109.388 44.4139C109.66 44.4139 109.797 44.4139 109.797 44.4139C110.809 44.4139 111.666 44.0635 112.367 43.3625C113.107 42.6227 113.496 41.7465 113.535 40.734H113.71ZM113.71 8.37388H113.535C113.496 7.36141 113.107 6.50471 112.367 5.80377C111.666 5.06388 110.809 4.69394 109.797 4.69394C109.797 4.69394 109.66 4.69394 109.388 4.69394C109.154 4.69394 109.037 4.69394 109.037 4.69394V4.10982H113.71V8.37388ZM117.157 40.734H117.332C117.371 41.7465 117.741 42.6227 118.442 43.3625C119.182 44.0635 120.058 44.4139 121.07 44.4139C121.07 44.4139 121.187 44.4139 121.421 44.4139C121.654 44.4139 121.791 44.4139 121.83 44.4139V44.9981H117.157V40.734ZM117.157 8.37388V4.10982L121.83 4.10982V4.69394C121.791 4.69394 121.654 4.69394 121.421 4.69394C121.187 4.69394 121.07 4.69394 121.07 4.69394C120.058 4.69394 119.182 5.06388 118.442 5.80377C117.741 6.50471 117.371 7.36141 117.332 8.37388H117.157Z" stroke="#E0E0E0" stroke-width="1.6" mask="url(#path-1-outside-1_499_2591)"/>
<path d="M158.584 3.29206C159.207 3.29206 159.869 3.331 160.57 3.40888C161.31 3.48677 162.011 3.60359 162.673 3.75935C163.374 3.87618 163.997 4.01247 164.542 4.16823C165.126 4.28506 165.574 4.42135 165.885 4.57712V11.0608H165.36C165.36 9.19165 164.717 7.73136 163.432 6.67994C162.147 5.58959 160.589 5.04441 158.759 5.04441C156.617 5.04441 154.884 5.72588 153.56 7.08882C152.236 8.41282 151.574 9.97047 151.574 11.7618C151.574 12.5016 151.73 13.3778 152.042 14.3903C152.392 15.3638 153.015 16.2789 153.911 17.1356L165.418 27.7666C166.586 28.8569 167.365 30.0252 167.754 31.2713C168.144 32.5174 168.339 33.7246 168.339 34.8928C168.339 38.1249 167.346 40.7535 165.36 42.7784C163.413 44.8034 160.765 45.8158 157.416 45.8158C156.481 45.8158 155.371 45.7185 154.086 45.5238C152.84 45.3291 151.613 44.9981 150.406 44.5308C149.238 44.0245 148.264 43.382 147.486 42.6032C147.369 41.9801 147.31 41.2013 147.31 40.2667C147.31 39.3321 147.388 38.3586 147.544 37.3461C147.7 36.2947 147.914 35.3406 148.187 34.4839H148.712C148.518 36.4699 148.771 38.2028 149.472 39.6826C150.173 41.1624 151.185 42.2916 152.509 43.0705C153.872 43.8104 155.41 44.1414 157.124 44.0635C159.265 43.9466 161.096 43.2068 162.614 41.8438C164.172 40.4419 164.951 38.5728 164.951 36.2363C164.951 35.107 164.756 34.0945 164.367 33.1989C163.977 32.2643 163.413 31.466 162.673 30.804L151.458 20.4067C150.289 19.3164 149.472 18.1286 149.004 16.8436C148.537 15.5196 148.303 14.2929 148.303 13.1636C148.303 11.5281 148.693 9.951 149.472 8.43229C150.25 6.91359 151.399 5.68694 152.918 4.75236C154.476 3.77882 156.364 3.29206 158.584 3.29206ZM165.885 3.87618V5.10283L161.446 5.10283V3.87618L165.885 3.87618Z" stroke="#E0E0E0" stroke-width="1.6" mask="url(#path-1-outside-1_499_2591)"/>
<path d="M211.132 4.10982V44.9981H207.335V4.10982L211.132 4.10982ZM183.444 4.10982V44.9981H179.648V4.10982L183.444 4.10982ZM207.861 23.9114V25.6638L182.86 25.6638V23.9114L207.861 23.9114ZM179.823 40.734V44.9981H175.15V44.4139C175.15 44.4139 175.267 44.4139 175.5 44.4139C175.773 44.4139 175.909 44.4139 175.909 44.4139C176.922 44.4139 177.778 44.0635 178.479 43.3625C179.219 42.6227 179.609 41.7465 179.648 40.734H179.823ZM179.823 8.37388H179.648C179.609 7.36141 179.219 6.50471 178.479 5.80377C177.778 5.06388 176.922 4.69394 175.909 4.69394C175.909 4.69394 175.773 4.69394 175.5 4.69394C175.267 4.69394 175.15 4.69394 175.15 4.69394V4.10982H179.823V8.37388ZM183.269 40.734H183.444C183.483 41.7465 183.853 42.6227 184.554 43.3625C185.294 44.0635 186.17 44.4139 187.183 44.4139C187.183 44.4139 187.3 44.4139 187.533 44.4139C187.767 44.4139 187.903 44.4139 187.942 44.4139V44.9981H183.269V40.734ZM183.269 8.37388V4.10982L187.942 4.10982V4.69394C187.903 4.69394 187.767 4.69394 187.533 4.69394C187.3 4.69394 187.183 4.69394 187.183 4.69394C186.17 4.69394 185.294 5.06388 184.554 5.80377C183.853 6.50471 183.483 7.36141 183.444 8.37388H183.269ZM207.51 40.734V44.9981H202.837V44.4139C202.876 44.4139 203.012 44.4139 203.246 44.4139C203.48 44.4139 203.596 44.4139 203.596 44.4139C204.609 44.4139 205.485 44.0635 206.225 43.3625C206.965 42.6227 207.335 41.7465 207.335 40.734H207.51ZM207.51 8.37388H207.335C207.335 7.36141 206.965 6.50471 206.225 5.80377C205.485 5.06388 204.609 4.69394 203.596 4.69394C203.596 4.69394 203.48 4.69394 203.246 4.69394C203.012 4.69394 202.876 4.69394 202.837 4.69394V4.10982L207.51 4.10982V8.37388ZM210.956 40.734H211.132C211.171 41.7465 211.54 42.6227 212.241 43.3625C212.981 44.0635 213.857 44.4139 214.87 44.4139C214.87 44.4139 214.987 44.4139 215.22 44.4139C215.493 44.4139 215.629 44.4139 215.629 44.4139V44.9981H210.956V40.734ZM210.956 8.37388V4.10982L215.629 4.10982V4.69394C215.629 4.69394 215.493 4.69394 215.22 4.69394C214.987 4.69394 214.87 4.69394 214.87 4.69394C213.857 4.69394 212.981 5.06388 212.241 5.80377C211.54 6.50471 211.171 7.36141 211.132 8.37388H210.956Z" stroke="#E0E0E0" stroke-width="1.6" mask="url(#path-1-outside-1_499_2591)"/>
<path d="M243.08 3.29206C247.246 3.29206 250.907 4.18771 254.061 5.979C257.215 7.73135 259.669 10.2041 261.421 13.3973C263.212 16.5905 264.108 20.3094 264.108 24.5539C264.108 28.7985 263.212 32.5174 261.421 35.7106C259.669 38.9038 257.215 41.396 254.061 43.1873C250.907 44.9397 247.246 45.8158 243.08 45.8158C238.952 45.8158 235.311 44.9397 232.157 43.1873C229.002 41.396 226.53 38.9038 224.738 35.7106C222.986 32.5174 222.11 28.7985 222.11 24.5539C222.11 20.3094 222.986 16.5905 224.738 13.3973C226.53 10.2041 229.002 7.73135 232.157 5.979C235.311 4.18771 238.952 3.29206 243.08 3.29206ZM243.08 44.0635C246.39 44.0635 249.271 43.2457 251.725 41.6102C254.217 39.9747 256.144 37.6966 257.507 34.776C258.909 31.8554 259.61 28.4481 259.61 24.5539C259.61 20.6598 258.909 17.2525 257.507 14.3319C256.144 11.4113 254.217 9.13324 251.725 7.49771C249.271 5.86218 246.39 5.04441 243.08 5.04441C239.809 5.04441 236.927 5.86218 234.435 7.49771C231.981 9.13324 230.054 11.4113 228.652 14.3319C227.289 17.2525 226.608 20.6598 226.608 24.5539C226.608 28.4481 227.289 31.8554 228.652 34.776C230.054 37.6966 231.981 39.9747 234.435 41.6102C236.927 43.2457 239.809 44.0635 243.08 44.0635Z" stroke="#E0E0E0" stroke-width="1.6" mask="url(#path-1-outside-1_499_2591)"/>
<path d="M269.16 4.4603L273.892 4.4603L284.756 39.3321L283.763 45.699L269.16 4.4603ZM295.329 3.17524L295.796 7.90659L285.516 39.2153C285.516 39.2153 285.418 39.5658 285.224 40.2667C285.029 40.9287 284.834 41.7659 284.64 42.7784C284.445 43.7519 284.328 44.7255 284.289 45.699H283.763L282.712 40.5004L294.803 3.17524H295.329ZM295.329 3.23365L307.595 37.6382L306.31 45.699L293.343 9.54212L295.329 3.23365ZM319.044 4.4603L308.121 39.2153C308.121 39.2153 308.024 39.5658 307.829 40.2667C307.634 40.9676 307.42 41.8244 307.187 42.8368C306.992 43.8104 306.875 44.7644 306.836 45.699H306.31L305.609 39.9162L315.773 4.4603L319.044 4.4603ZM314.663 8.31547C314.975 7.14724 314.877 6.25159 314.371 5.62853C313.865 5.00547 313.222 4.69394 312.444 4.69394H311.918V4.10982L323.425 4.10982V4.69394C323.425 4.69394 323.347 4.69394 323.191 4.69394C323.036 4.69394 322.958 4.69394 322.958 4.69394C322.062 4.69394 321.089 4.986 320.037 5.57012C318.986 6.1153 318.246 7.03041 317.817 8.31547H314.663ZM275.118 8.31547L270.504 8.31547C270.037 7.03041 269.277 6.1153 268.226 5.57012C267.213 4.986 266.259 4.69394 265.364 4.69394C265.364 4.69394 265.286 4.69394 265.13 4.69394C264.974 4.69394 264.896 4.69394 264.896 4.69394V4.10982L277.864 4.10982V4.69394H277.338C276.598 4.69394 275.936 5.00547 275.352 5.62853C274.807 6.25159 274.729 7.14724 275.118 8.31547Z" stroke="#E0E0E0" stroke-width="1.6" mask="url(#path-1-outside-1_499_2591)"/>
</svg>
